<?xml version="1.0" encoding="utf-8"?>
<!-- Generator: Adobe Illustrator 18.0.0, SVG Export Plug-In . SVG Version: 6.00 Build 0)  -->
<!DOCTYPE svg PUBLIC "-//W3C//DTD SVG 1.1//EN" "http://www.w3.org/Graphics/SVG/1.1/DTD/svg11.dtd">
<svg version="1.1" id="Layer_1" xmlns="http://www.w3.org/2000/svg" xmlns:xlink="http://www.w3.org/1999/xlink" x="0px" y="0px"
	 viewBox="0 0 450 280" enable-background="new 0 0 450 280" xml:space="preserve">
<circle fill="none" stroke="#000000" stroke-width="9" stroke-miterlimit="10" cx="117.1" cy="113.7" r="105.2"/>
<circle fill="none" stroke="#000000" stroke-width="9" stroke-miterlimit="10" cx="117.1" cy="115.7" r="65.6"/>
<circle fill="#7E69AD" stroke="#000000" stroke-width="2" stroke-miterlimit="10" cx="54" cy="92.1" r="20.3"/>
<circle fill="#7E69AD" stroke="#000000" stroke-width="2" stroke-miterlimit="10" cx="219.3" cy="93.7" r="24.5"/>
<circle fill="#F58F72" stroke="#000000" stroke-width="2" stroke-miterlimit="10" cx="117.6" cy="115.7" r="27.6"/>
<path fill="#7E69AD" stroke="#000000" stroke-width="2" stroke-miterlimit="10" d="M233.4,271.5h-0.7c-2.1,0-3.8-1.7-3.8-3.7v-58.5
	c0-2.1,1.7-3.8,3.8-3.8h0.7c2.1,0,3.8,1.7,3.8,3.8v58.5C237.2,269.8,235.5,271.5,233.4,271.5z"/>
<path fill="#F58F72" stroke="#000000" stroke-width="2" stroke-miterlimit="10" d="M71.7,193.8l-40.4,14c-4.1,1.4-8.6-0.8-10-4.8
	l-0.8-2.3c-1.4-4.1,0.8-8.6,4.8-10l40.4-14c4.1-1.4,8.6,0.8,10,4.8l0.8,2.3C78,187.9,75.8,192.4,71.7,193.8z"/>
<path fill="#7E69AD" stroke="#000000" stroke-width="2" stroke-miterlimit="10" d="M182.4,263.1L182.4,263.1
	c2.1,0.9,4.6-0.2,5.4-2.3l22.7-55.4c0.9-2.1-0.2-4.6-2.3-5.4h0c-2.1-0.9-4.6,0.2-5.4,2.3l-22.7,55.4
	C179.2,259.7,180.2,262.2,182.4,263.1z"/>
<path fill="#7E69AD" stroke="#000000" stroke-width="2" stroke-miterlimit="10" d="M283.3,263.1L283.3,263.1
	c-2.1,0.9-4.6-0.2-5.4-2.3l-22.7-55.4c-0.9-2.1,0.2-4.6,2.3-5.4h0c2.1-0.9,4.6,0.2,5.4,2.3l22.7,55.4
	C286.5,259.7,285.4,262.2,283.3,263.1z"/>
<rect x="227.8" y="149.3" fill="#7E69AD" stroke="#000000" stroke-width="2" stroke-miterlimit="10" width="12.5" height="42.9"/>
<path fill="#7E69AD" stroke="#000000" stroke-width="2" stroke-miterlimit="10" d="M273.1,208.5h-78.1c-4.5,0-8.1-3.7-8.1-8.1v0
	c0-4.5,3.7-8.1,8.1-8.1h78.1c4.5,0,8.1,3.7,8.1,8.1v0C281.3,204.8,277.6,208.5,273.1,208.5z"/>
<rect x="116.5" y="129.2" fill="#F58F72" stroke="#000000" stroke-width="2" stroke-miterlimit="10" width="15" height="20"/>
<path fill="#7E69AD" stroke="#000000" stroke-width="2" stroke-miterlimit="10" d="M435.5,97.5l-29.5,9.8
	c-17.8,5.9-37.2-3.8-43.1-21.6l0,0c-5.9-17.8,3.8-37.2,21.6-43.1l29.5-9.8c5.2-1.7,10.9,1.1,12.7,6.3l15.2,45.7
	C443.5,90,440.7,95.7,435.5,97.5z"/>
<path fill="#7E69AD" stroke="#000000" stroke-width="2" stroke-miterlimit="10" d="M374.1,110.5L75.8,216.2
	c-6.2,2.2-13.1-1.1-15.3-7.3l-9.6-27c-2.2-6.2,1.1-13.1,7.3-15.3L356.5,60.9c6.2-2.2,13.1,1.1,15.3,7.3l9.6,27
	C383.6,101.4,380.3,108.3,374.1,110.5z"/>
<path fill="#F58F72" stroke="#000000" stroke-width="2" stroke-miterlimit="10" d="M19.5,212.6l2.2-0.8c4.2-1.5,6.4-6.2,4.9-10.5
	l-1.2-3.3c-1.5-4.2-6.2-6.4-10.5-4.9l-2.2,0.8c-1.2,0.5-1.9,1.8-1.4,3.1l5.1,14.2C16.9,212.4,18.2,213,19.5,212.6z"/>
<rect x="57.4" y="127.3" transform="matrix(0.9473 -0.3203 0.3203 0.9473 -37.2753 39.3135)" fill="#EE599F" stroke="#000000" stroke-width="2" stroke-miterlimit="10" width="86.9" height="11.3"/>
<path fill="#F58F72" stroke="#000000" stroke-width="2" stroke-miterlimit="10" d="M76.4,216.4c-6,2.1-12.7-1-14.8-7.1l-9.8-27.8
	c-2-5.6,0.6-11.7,5.8-14.3l-9.4,3.3c-6,2.1-9.2,8.8-7.1,14.8l9.8,27.8c2.1,6,8.8,9.2,14.8,7.1l299-106c0.4-0.2,0.9-0.3,1.3-0.6
	L76.4,216.4z"/>
<path fill="#EE599F" stroke="#000000" stroke-width="2" stroke-miterlimit="10" d="M16.4,211.2l-5.2-14.3c-0.3-0.8-0.1-1.7,0.4-2.3
	c-0.5,0.1-0.9,0.2-1.4,0.4l-2.5,0.9c-1.2,0.4-1.8,1.8-1.4,3l5.2,14.3c0.4,1.2,1.8,1.8,3,1.4l2.5-0.9c0.6-0.2,1.2-0.5,1.8-0.9
	C17.8,212.8,16.8,212.2,16.4,211.2z"/>
<path fill="#EE599F" stroke="#000000" stroke-width="2" stroke-miterlimit="10" d="M332.7,88.7L94.2,173.1
	c-4.2,1.5-6.4,6.2-4.9,10.4v0c1.5,4.2,6.2,6.4,10.4,4.9L338.1,104c4.2-1.5,6.4-6.2,4.9-10.4v0C341.6,89.4,336.9,87.2,332.7,88.7z"/>
</svg>
