<?xml version="1.0" encoding="utf-8"?>
<!-- Generator: Adobe Illustrator 18.0.0, SVG Export Plug-In . SVG Version: 6.00 Build 0)  -->
<!DOCTYPE svg PUBLIC "-//W3C//DTD SVG 1.1//EN" "http://www.w3.org/Graphics/SVG/1.1/DTD/svg11.dtd">
<svg version="1.1" id="Layer_1" xmlns="http://www.w3.org/2000/svg" xmlns:xlink="http://www.w3.org/1999/xlink" x="0px" y="0px"
	 viewBox="0 0 250 250" enable-background="new 0 0 250 250" xml:space="preserve">
<g>
	<path fill="#7E69AD" stroke="#000000" stroke-width="2" stroke-miterlimit="10" d="M174.8,144.5V136h32.4l0.2-0.3
		c-2.3-2.3-4-4.7-4.9-7.3c-1-2.6-1.5-5.1-1.5-7.5c0-2.3,0.4-4.6,1.3-6.9s2.2-4.3,4-6.2c1.8-1.8,4-3.3,6.6-4.5
		c2.6-1.1,5.7-1.7,9.2-1.7c3.6,0,6.8,0.6,9.4,1.9c2.6,1.2,4.8,2.8,6.5,4.8c1.7,1.9,2.9,4.1,3.7,6.6c0.8,2.5,1.2,4.9,1.2,7.3
		c0,2.5-0.4,4.9-1.2,7c-0.8,2.1-1.8,4.1-3.1,5.8s-2.8,3.2-4.5,4.5c-1.7,1.3-3.5,2.3-5.3,3c3.3,3.4,5.9,7.1,7.6,11.4
		c1.7,4.2,2.6,8.4,2.6,12.4c0,4.4-1.1,8.8-3.4,13.2s-5.7,8.3-10.4,11.8c-4.6,3.5-10.5,6.3-17.7,8.5c-7.1,2.2-15.6,3.2-25.3,3.2
		c-6.6,0-13-0.6-19.1-1.7c-6.1-1.1-11.8-2.8-17-4.9c-5.2-2.2-10-4.9-14.3-8.1s-8-7-11-11.4c-3-4.3-5.4-9.2-7-14.6
		c-1.6-5.4-2.5-11.3-2.5-17.7c0-5.5,0.6-10.8,1.9-15.9c1.3-5.2,3.2-9.7,5.9-13.7c2.6-4,6-7.2,10.1-9.6c4.1-2.4,8.9-3.6,14.4-3.6
		c4,0,7.5,0.6,10.4,1.9c2.9,1.2,5.3,2.9,7.3,4.9c1.9,2,3.3,4.3,4.3,6.8c0.9,2.5,1.4,5.1,1.4,7.7c0,2.4-0.4,4.9-1.2,7.5
		c-0.8,2.5-2.1,4.9-3.8,6.9c-1.7,2.1-3.9,3.8-6.6,5.1c-2.6,1.3-5.8,2-9.6,2c-3,0-5.7-0.5-8.2-1.4c-2.5-0.9-4.7-2.4-6.6-4.2
		s-3.4-4.2-4.5-7.1c-1.2-2.8-1.9-6.1-2.1-9.9l-0.2-0.1c-1.2,3.6-2.1,7-2.5,10.2s-0.6,6.2-0.6,9c0,8.4,1.4,15.8,4.3,22.3
		c2.9,6.5,7,12,12.3,16.5c5.3,4.5,11.7,7.8,19.3,10.1c7.5,2.3,15.9,3.4,25.1,3.4c7.9,0,14.8-0.8,20.6-2.4c5.9-1.6,10.7-3.6,14.6-6.2
		s6.8-5.5,8.7-8.8c1.9-3.3,2.9-6.7,2.9-10.2c0-2.1-0.3-4.2-0.9-6.4c-0.6-2.2-1.4-4.2-2.5-6.1c-1-1.9-2.2-3.6-3.5-5.2
		c-1.3-1.5-2.7-2.7-4.1-3.5H174.8z M145,135.6c1.6,0,3.1-0.3,4.5-0.9c1.4-0.6,2.7-1.4,3.8-2.6c1.1-1.1,2-2.4,2.7-4
		c0.7-1.6,1-3.3,1-5.2c0-1.9-0.4-3.7-1.1-5.2s-1.7-2.8-2.9-3.9s-2.6-1.9-4.2-2.4c-1.6-0.5-3.3-0.8-5.1-0.8c-3.9,0-7.3,1.4-10.1,4.1
		c-0.1,0.5-0.1,1.2-0.2,2c-0.1,0.8-0.1,1.7-0.1,2.8c0,2.8,0.3,5.1,1,7.2s1.5,3.7,2.6,5c1.1,1.3,2.3,2.3,3.7,3
		C142,135.2,143.4,135.6,145,135.6z M220.3,135.8c1.6-0.2,3.1-0.6,4.7-1.3s2.9-1.7,4.1-2.9s2.2-2.6,2.9-4.3s1.1-3.3,1.1-5.2
		c0-1.5-0.2-2.9-0.7-4.3c-0.5-1.4-1.2-2.6-2.1-3.7c-0.9-1.1-2.1-1.9-3.5-2.6s-3-1-4.7-1c-1.7,0-3.2,0.3-4.6,0.9
		c-1.4,0.6-2.6,1.4-3.6,2.4c-1,1-1.8,2.2-2.4,3.5c-0.6,1.4-0.9,2.8-0.9,4.3c0,2.6,0.8,5.1,2.5,7.6
		C214.8,131.7,217.2,133.9,220.3,135.8z"/>
	<g>
		<path fill="#EE599F" stroke="#000000" stroke-width="2" stroke-miterlimit="10" d="M137.6,114.6c2.2-2.1,4.8-3.4,7.7-3.9
			c-0.8-0.1-1.7-0.2-2.6-0.2c-3.9,0-7.3,1.4-10.1,4.1c-0.1,0.5-0.1,1.2-0.2,2c-0.1,0.8-0.1,1.7-0.1,2.8c0,2.8,0.3,5.1,1,7.2
			s1.5,3.7,2.6,5c1.1,1.3,2.3,2.3,3.7,3c1.4,0.6,2.9,1,4.5,1c0.9,0,1.7-0.1,2.6-0.3c-0.7-0.2-1.4-0.4-2-0.7c-1.4-0.6-2.6-1.6-3.7-3
			c-1.1-1.3-1.9-3-2.6-5s-1-4.4-1-7.2c0-1.1,0-2,0.1-2.8C137.5,115.9,137.5,115.2,137.6,114.6z"/>
		<path fill="#EE599F" stroke="#000000" stroke-width="2" stroke-miterlimit="10" d="M217.9,113.9c1-1,2.2-1.8,3.6-2.4
			c0.7-0.3,1.4-0.5,2.1-0.6c-0.8-0.2-1.6-0.2-2.5-0.2c-1.7,0-3.2,0.3-4.6,0.9c-1.4,0.6-2.6,1.4-3.6,2.4c-1,1-1.8,2.2-2.4,3.5
			c-0.6,1.4-0.9,2.8-0.9,4.3c0,2.6,0.8,5.1,2.5,7.6c1.6,2.5,4,4.6,7.2,6.5c1.2-0.1,2.4-0.4,3.6-0.9c-2.5-1.7-4.4-3.6-5.8-5.6
			c-1.6-2.5-2.5-5-2.5-7.6c0-1.5,0.3-2.9,0.9-4.3C216.1,116.1,216.9,114.9,217.9,113.9z"/>
		<path fill="#EE599F" stroke="#000000" stroke-width="2" stroke-miterlimit="10" d="M162,189.9c-7.5-2.3-13.9-5.7-19.3-10.1
			c-5.3-4.5-9.4-9.9-12.3-16.5c-2.9-6.5-4.3-14-4.3-22.3c0-2.7,0.2-5.5,0.6-8.6c-0.1-0.2-0.2-0.4-0.3-0.6c-1.2-2.8-1.9-6.1-2.1-9.9
			l-0.2-0.1c-1.2,3.6-2.1,7-2.5,10.2s-0.6,6.2-0.6,9c0,8.4,1.4,15.8,4.3,22.3c2.9,6.5,7,12,12.3,16.5c5.3,4.5,11.7,7.8,19.3,10.1
			c7.5,2.3,15.9,3.4,25.1,3.4c0.9,0,1.9,0,2.8,0C176.5,193.1,168.9,192,162,189.9z"/>
		<path fill="#EE599F" stroke="#000000" stroke-width="2" stroke-miterlimit="10" d="M154,103.5c2.9,1.2,5.3,2.9,7.3,4.9
			c1.9,2,3.3,4.3,4.3,6.8c0.9,2.5,1.4,5.1,1.4,7.7c0,2.4-0.4,4.9-1.2,7.5c-0.8,2.5-2.1,4.9-3.8,6.9c-1.7,2.1-3.9,3.8-6.6,5.1
			c-2,1-4.3,1.6-7,1.9c0.8,0.1,1.6,0.1,2.4,0.1c3.7,0,6.9-0.7,9.6-2c2.6-1.3,4.8-3,6.6-5.1c1.7-2.1,3-4.4,3.8-6.9
			c0.8-2.5,1.2-5,1.2-7.5c0-2.6-0.5-5.2-1.4-7.7c-0.9-2.5-2.3-4.8-4.3-6.8c-1.9-2-4.3-3.7-7.3-4.9c-2.9-1.2-6.4-1.9-10.4-1.9
			c-0.8,0-1.7,0-2.5,0.1C149.1,102,151.7,102.6,154,103.5z"/>
		<path fill="#EE599F" stroke="#000000" stroke-width="2" stroke-miterlimit="10" d="M243.7,135c1.3-1.7,2.3-3.6,3.1-5.8
			c0.8-2.1,1.2-4.5,1.2-7c0-2.4-0.4-4.9-1.2-7.3c-0.8-2.5-2.1-4.7-3.7-6.6c-1.7-1.9-3.8-3.5-6.5-4.8c-2.6-1.2-5.8-1.9-9.4-1.9
			c-0.9,0-1.7,0-2.5,0.1c2.6,0.2,4.9,0.8,6.9,1.8c2.6,1.2,4.8,2.8,6.5,4.8c1.7,1.9,2.9,4.1,3.7,6.6c0.8,2.5,1.2,4.9,1.2,7.3
			c0,2.5-0.4,4.9-1.2,7c-0.8,2.1-1.8,4.1-3.1,5.8s-2.8,3.2-4.5,4.5c-1.7,1.3-3.5,2.3-5.3,3c3.3,3.4,5.9,7.1,7.6,11.4
			c1.7,4.2,2.6,8.4,2.6,12.4c0,4.4-1.1,8.8-3.4,13.2s-5.7,8.3-10.4,11.8c-4.6,3.5-10.5,6.3-17.7,8.5c-6.4,1.9-13.8,3-22.3,3.2
			c0.7,0,1.3,0,2,0c9.7,0,18.2-1.1,25.3-3.2c7.1-2.2,13-5,17.7-8.5c4.6-3.5,8.1-7.4,10.4-11.8s3.4-8.8,3.4-13.2
			c0-4-0.9-8.1-2.6-12.4c-1.7-4.2-4.2-8-7.6-11.4c1.8-0.8,3.6-1.8,5.3-3C240.9,138.2,242.4,136.7,243.7,135z"/>
	</g>
</g>
<g>
	<path fill="#7E69AD" stroke="#000000" stroke-width="2" stroke-miterlimit="10" d="M18.4,82.2c0,8.1,1.5,15.4,4.5,21.9
		s7.1,12,12.4,16.5c5.2,4.5,11.4,8,18.6,10.5s14.8,3.6,23.1,3.6c9.2,0,17.6-1.4,25.1-4.3c7.5-2.9,13.9-6.8,19.3-11.8
		c5.3-4.9,9.4-10.7,12.3-17.3s4.3-13.5,4.3-20.8c0-3.9-0.4-7.7-1.3-11.1c-0.9-3.5-2.1-6.5-3.9-9.1c-1.7-2.6-3.8-4.6-6.2-6.1
		c-2.5-1.5-5.3-2.2-8.5-2.2c-3.2,0-5.8,0.8-7.7,2.3c-1.9,1.5-2.8,3.6-2.8,6.4c0,1.8,0.4,3.5,1.2,5.2s1.8,3.2,3,4.6
		c1.2,1.4,2.6,2.6,4,3.6c1.5,1,2.8,1.8,4.1,2.2h9v9H69.1v-8.9H105c-1.4-1.3-2.6-2.7-3.5-4.1c-0.9-1.4-1.7-2.8-2.2-4.2
		c-0.6-1.4-1-2.7-1.2-4c-0.2-1.3-0.3-2.5-0.3-3.5c0-2.3,0.5-4.5,1.5-6.6s2.4-4,4.1-5.6s3.9-2.9,6.4-3.9c2.5-0.9,5.3-1.4,8.5-1.4
		c3.9,0,7.6,0.8,11.2,2.4c3.6,1.6,6.7,4,9.4,7.2c2.7,3.2,4.9,7.2,6.5,12c1.6,4.8,2.4,10.4,2.4,16.8c0,9-1.6,17.4-4.9,25.1
		c-3.3,7.7-8,14.4-14,20c-6.1,5.6-13.3,10-21.9,13.2c-8.5,3.2-18,4.7-28.5,4.7c-6.2,0-12.2-0.6-18-1.7s-11.3-2.9-16.5-5.1
		c-5.2-2.2-9.9-5-14.2-8.3c-4.3-3.3-8.1-7.2-11.2-11.6c-3.1-4.4-5.6-9.3-7.3-14.6c-1.7-5.4-2.6-11.3-2.6-17.6
		c0-5.2,0.6-10.4,1.9-15.5c1.3-5.1,3.2-9.6,5.9-13.6c2.6-4,6-7.2,10.1-9.6S35.4,43,41,43c4,0,7.5,0.6,10.4,1.9
		c2.9,1.2,5.3,2.9,7.3,4.9s3.3,4.3,4.3,6.8c0.9,2.5,1.4,5.1,1.4,7.7c0,2.4-0.4,4.9-1.2,7.5c-0.8,2.5-2.1,4.9-3.8,6.9
		c-1.7,2.1-3.9,3.8-6.6,5.1c-2.6,1.3-5.8,2-9.6,2c-3,0-5.7-0.5-8.2-1.4c-2.5-0.9-4.7-2.4-6.6-4.2s-3.4-4.2-4.5-7.1
		c-1.2-2.8-1.9-6.1-2.1-9.9l-0.2-0.1c-1.2,3.6-2.1,7-2.5,10.2S18.4,79.5,18.4,82.2z M42.3,76.9c1.6,0,3.1-0.3,4.5-0.9
		c1.4-0.6,2.7-1.4,3.8-2.6c1.1-1.1,2-2.4,2.7-4c0.7-1.6,1-3.3,1-5.2c0-1.9-0.4-3.7-1.1-5.2s-1.7-2.8-2.9-3.9s-2.6-1.9-4.2-2.4
		c-1.6-0.5-3.3-0.8-5.1-0.8c-3.9,0-7.3,1.4-10.1,4.1c-0.1,0.5-0.1,1.2-0.2,2c-0.1,0.8-0.1,1.7-0.1,2.8c0,2.8,0.3,5.1,1,7.2
		s1.5,3.7,2.6,5c1.1,1.3,2.3,2.3,3.7,3C39.3,76.6,40.8,76.9,42.3,76.9z"/>
</g>
<g>
	<path fill="#F58F72" stroke="#000000" stroke-width="2" stroke-miterlimit="10" d="M22.7,63.2l-0.2-0.1c-1.2,3.6-2.1,7-2.5,10.2
		c-0.1,0.7-0.2,1.4-0.2,2.1c1,1.8,2.1,3.4,3.5,4.8c1.9,1.9,4.1,3.3,6.6,4.2c2.5,0.9,5.3,1.4,8.2,1.4c1.1,0,2.1-0.1,3.1-0.2
		c-1.9-0.2-3.7-0.6-5.3-1.2c-2.5-0.9-4.7-2.4-6.6-4.2s-3.4-4.2-4.5-7.1C23.6,70.3,22.9,67,22.7,63.2z"/>
	<path fill="#F58F72" stroke="#000000" stroke-width="2" stroke-miterlimit="10" d="M41.1,52.7c1.6,0.5,3,1.3,4.2,2.4
		s2.2,2.4,2.9,3.9s1.1,3.3,1.1,5.2c0,1.9-0.3,3.6-1,5.2c-0.7,1.6-1.6,2.9-2.7,4c-1.1,1.1-2.4,2-3.8,2.6c-0.5,0.2-0.9,0.3-1.4,0.5
		c0.9,0.3,1.9,0.4,2.9,0.4c1.6,0,3.1-0.3,4.5-0.9c1.4-0.6,2.7-1.4,3.8-2.6c1.1-1.1,2-2.4,2.7-4c0.7-1.6,1-3.3,1-5.2
		c0-1.9-0.4-3.7-1.1-5.2s-1.7-2.8-2.9-3.9s-2.6-1.9-4.2-2.4c-1.6-0.5-3.3-0.8-5.1-0.8c-1,0-2,0.1-3,0.3
		C39.8,52.3,40.4,52.5,41.1,52.7z"/>
	<path fill="#F58F72" stroke="#000000" stroke-width="2" stroke-miterlimit="10" d="M77.9,134.7c9.2,0,17.6-1.4,25.1-4.3
		c7.5-2.9,13.9-6.8,19.3-11.8c5.3-4.9,9.4-10.7,12.3-17.3s4.3-13.5,4.3-20.8c0-3.9-0.4-7.7-1.3-11.1c-0.9-3.5-2.1-6.5-3.9-9.1
		c-1.7-2.6-3.8-4.6-6.2-6.1c-2.5-1.5-5.3-2.2-8.5-2.2c-1.1,0-2,0.1-3,0.3c2,0.3,3.8,1,5.4,2c2.5,1.5,4.5,3.5,6.2,6.1
		c1.7,2.6,3,5.6,3.9,9.1c0.9,3.5,1.3,7.2,1.3,11.1c0,7.3-1.4,14.2-4.3,20.8s-7,12.3-12.3,17.3c-5.3,4.9-11.7,8.9-19.3,11.8
		c-6.7,2.6-14.1,4-22.2,4.3C75.9,134.7,76.9,134.7,77.9,134.7z"/>
	<rect x="64.1" y="76.3" fill="#F58F72" stroke="#000000" stroke-width="2" stroke-miterlimit="10" width="6" height="8.9"/>
	<path fill="#F58F72" stroke="#000000" stroke-width="2" stroke-miterlimit="10" d="M94.3,68c0.6,1.4,1.3,2.8,2.2,4.2
		c0.9,1.4,2.1,2.8,3.5,4.1h6c-1.4-1.3-2.6-2.7-3.5-4.1c-0.9-1.4-1.7-2.8-2.2-4.2c-0.6-1.4-1-2.7-1.2-4c-0.2-1.3-0.3-2.5-0.3-3.5
		c0-2.3,0.5-4.5,1.5-6.6s2.4-4,4.1-5.6s3.9-2.9,6.4-3.9c1.7-0.6,3.5-1,5.5-1.2c-1-0.1-2-0.2-3-0.2c-3.1,0-6,0.5-8.5,1.4
		c-2.5,0.9-4.7,2.2-6.4,3.9s-3.2,3.5-4.1,5.6s-1.5,4.3-1.5,6.6c0,1,0.1,2.2,0.3,3.5C93.3,65.3,93.7,66.6,94.3,68z"/>
	<path fill="#F58F72" stroke="#000000" stroke-width="2" stroke-miterlimit="10" d="M61.5,142.6c-5.8-1.2-11.3-2.9-16.5-5.1
		c-5.2-2.2-9.9-5-14.2-8.3c-4.3-3.3-8.1-7.2-11.2-11.6c-3.1-4.4-5.6-9.3-7.3-14.6c-1.7-5.4-2.6-11.3-2.6-17.6
		c0-5.2,0.6-10.4,1.9-15.5c1.3-5.1,3.2-9.6,5.9-13.6c2.6-4,6-7.2,10.1-9.6c3.3-2,7.2-3.2,11.5-3.5C38,43.1,37,43,36,43
		c-5.6,0-10.4,1.2-14.4,3.6s-7.4,5.6-10.1,9.6c-2.6,4-4.6,8.5-5.9,13.6c-1.3,5.1-1.9,10.2-1.9,15.5c0,6.4,0.9,12.3,2.6,17.6
		c1.7,5.4,4.2,10.3,7.3,14.6c3.1,4.4,6.9,8.2,11.2,11.6c4.3,3.3,9.1,6.1,14.2,8.3c5.2,2.2,10.7,3.9,16.5,5.1s11.8,1.7,18,1.7
		c1.1,0,2.2,0,3.3-0.1C71.6,144.1,66.5,143.6,61.5,142.6z"/>
</g>
</svg>
