<?xml version="1.0" encoding="UTF-8" standalone="no"?><!DOCTYPE svg PUBLIC "-//W3C//DTD SVG 1.1//EN" "http://www.w3.org/Graphics/SVG/1.1/DTD/svg11.dtd"><svg width="100%" height="100%" viewBox="0 0 370 440" version="1.1" xmlns="http://www.w3.org/2000/svg" xmlns:xlink="http://www.w3.org/1999/xlink" xml:space="preserve" style="fill-rule:evenodd;clip-rule:evenodd;stroke-miterlimit:10;"><path d="M120.937,261.895l-0.191,-0.127c-2.098,-1.209 -4.769,-0.446 -5.977,1.653l-43.045,75.663c-1.208,2.099 -0.445,4.769 1.653,5.977l9.601,5.468c2.098,1.208 4.769,0.445 5.977,-1.653l40.756,-71.594l-8.774,-15.387Z" style="fill:#7e69ad;fill-rule:nonzero;stroke:#000;stroke-width:1.27px;"/><circle cx="116.041" cy="225.97" r="21.618" style="fill:#7e69ad;stroke:#000;stroke-width:1.27px;"/><path d="M299.097,95.752l-2.735,-3.751c-2.416,-3.243 -6.994,-3.942 -10.236,-1.59l-51.439,37.705c-1.908,1.399 -2.925,3.561 -2.988,5.786c-0.382,1.59 -0.255,3.243 0.445,4.832l21.109,46.034l-15.387,8.584l-34.653,-44.762l21.173,-54.745c1.463,-3.752 -0.445,-8.012 -4.196,-9.474l-4.324,-1.653c-3.751,-1.463 -8.011,0.445 -9.474,4.196l-23.017,59.387c-0.635,1.589 -0.635,3.306 -0.127,4.896c-0.127,1.716 0.382,3.497 1.526,5.023l36.052,46.606l-75.028,41.583c-1.145,0.636 -2.035,1.526 -2.671,2.607c-1.398,-0.127 -2.924,0.191 -4.26,0.954l-4.896,2.798c-3.497,1.971 -4.768,6.485 -2.734,10.046l48.832,85.837c1.971,3.497 6.486,4.769 10.046,2.734l4.896,-2.798c3.497,-1.971 4.769,-6.485 2.734,-10.046l-31.791,-55.889l112.796,-62.566c1.399,-0.763 2.416,-1.908 3.052,-3.243c2.67,-2.034 3.688,-5.722 2.225,-8.901l-30.837,-67.398l44.317,-32.491c3.243,-2.416 3.942,-7.058 1.59,-10.301Z" style="fill:#7e69ad;fill-rule:nonzero;stroke:#000;stroke-width:1.27px;"/></svg>