<?xml version="1.0" encoding="utf-8"?>
<!-- Generator: Adobe Illustrator 18.0.0, SVG Export Plug-In . SVG Version: 6.00 Build 0)  -->
<!DOCTYPE svg PUBLIC "-//W3C//DTD SVG 1.1//EN" "http://www.w3.org/Graphics/SVG/1.1/DTD/svg11.dtd">
<svg version="1.1" id="Layer_1" xmlns="http://www.w3.org/2000/svg" xmlns:xlink="http://www.w3.org/1999/xlink" x="0px" y="0px"
	 viewBox="0 0 380 290" enable-background="new 0 0 380 290" xml:space="preserve">
<path fill="none" stroke="#000000" stroke-width="9" stroke-miterlimit="10" d="M270.4,41.4h-140c-6.6,0-12-5.4-12-12V19
	c0-6.6,5.4-12,12-12h140c6.6,0,12,5.4,12,12v10.4C282.4,36,277,41.4,270.4,41.4z"/>
<path fill="#F58F72" stroke="#000000" stroke-width="2" stroke-miterlimit="10" d="M307.4,288.1H55.9c-28.6,0-52-23.4-52-52V84.8
	c0-28.6,23.4-52,52-52h251.5c28.6,0,52,23.4,52,52v151.3C359.4,264.7,336,288.1,307.4,288.1z"/>
<path fill="#7E69AD" stroke="#000000" stroke-width="2" stroke-miterlimit="10" d="M324.1,288.1H72.6c-28.6,0-52-23.4-52-52V84.8
	c0-28.6,23.4-52,52-52h251.5c28.6,0,52,23.4,52,52v151.3C376.1,264.7,352.7,288.1,324.1,288.1z"/>
<path fill="#F58F72" stroke="#000000" stroke-width="2" stroke-miterlimit="10" d="M308.8,156.3H87.2c-28.6,0-52-23.4-52-52v-7.9
	c0-28.6,23.4-52,52-52h221.6c28.6,0,52,23.4,52,52v7.9C360.8,132.9,337.4,156.3,308.8,156.3z"/>
<path fill="#7E69AD" stroke="#000000" stroke-width="2" stroke-miterlimit="10" d="M304.1,147.3h-211c-25.6,0-46.6-21-46.6-46.6v0
	c0-25.6,21-46.6,46.6-46.6h211c25.6,0,46.6,21,46.6,46.6v0C350.7,126.4,329.7,147.3,304.1,147.3z"/>
<path fill="#EE599F" stroke="#000000" stroke-width="2" stroke-miterlimit="10" d="M198.6,171.3L198.6,171.3c-6.6,0-12-5.4-12-12
	V127c0-6.6,5.4-12,12-12h0c6.6,0,12,5.4,12,12v32.3C210.5,165.9,205.1,171.3,198.6,171.3z"/>
<path fill="#7E69AD" stroke="#000000" stroke-width="2" stroke-miterlimit="10" d="M262.7,12.1H133.4c-2.8,0-5.1-2.3-5.1-5.1v0
	c0-2.8,2.3-5.1,5.1-5.1h129.3c2.8,0,5.1,2.3,5.1,5.1v0C267.8,9.8,265.5,12.1,262.7,12.1z"/>
<path fill="#F58F72" stroke="#000000" stroke-width="2" stroke-miterlimit="10" d="M198.3,171.3L198.3,171.3
	c-6.5,0-11.8-5.3-11.8-11.8v-18.9c0-6.5,5.3-11.8,11.8-11.8h0c6.5,0,11.8,5.3,11.8,11.8v18.9C210.1,166,204.8,171.3,198.3,171.3z"/>
</svg>
