<?xml version="1.0" encoding="utf-8"?>
<!-- Generator: Adobe Illustrator 18.0.0, SVG Export Plug-In . SVG Version: 6.00 Build 0)  -->
<!DOCTYPE svg PUBLIC "-//W3C//DTD SVG 1.1//EN" "http://www.w3.org/Graphics/SVG/1.1/DTD/svg11.dtd">
<svg version="1.1" id="Layer_1" xmlns="http://www.w3.org/2000/svg" xmlns:xlink="http://www.w3.org/1999/xlink" x="0px" y="0px"
	 viewBox="0 0 340 210" enable-background="new 0 0 340 210" xml:space="preserve">
<path fill="#7E69AD" stroke="#000000" stroke-width="2" stroke-miterlimit="10" d="M35.5,28.4l35.4-16c0.5-0.2,0.9-0.6,1.1-1.1
	l2.6-5.8c0.8-1.9,3.7-1.6,4.1,0.4l1.1,5.2l18,96.5c0.2,1,1.1,1.8,2.1,1.8h0c1.2,0,2.2,1,2.2,2.2v41.8c0,1.2-1,2.2-2.2,2.2h-0.4
	c-1,0-1.9,0.7-2.1,1.8l-8.5,45.8c-0.2,1.2-1.5,2-2.7,1.7l-54.6-14.1c-1.2-0.3-1.9-1.6-1.5-2.8l24.6-78.2c0.1-0.3,0.1-0.6,0.1-0.9
	l-2-16.9c-0.3-2.4-3.7-2.6-4.3-0.2L25.7,188c-0.2,1-1.1,1.7-2.1,1.7h-17c-1.4,0-2.4-1.2-2.1-2.6L34.3,30
	C34.4,29.3,34.9,28.7,35.5,28.4z"/>
<path fill="#7E69AD" stroke="#000000" stroke-width="2" stroke-miterlimit="10" d="M161.7,28.4l-35.3-16c-0.5-0.2-0.9-0.6-1.1-1.1
	l-2.5-5.6c-0.9-2-3.8-1.7-4.2,0.4l-1.1,5l-18,96.5c-0.2,1.1-1.1,1.8-2.2,1.8h0c-1.2,0-2.2,1-2.2,2.2v41.6c0,1.2,1,2.2,2.2,2.2h0.4
	c1.1,0,2,0.8,2.2,1.8l8.5,45.7c0.2,1.3,1.5,2.1,2.8,1.8l54.4-14.1c1.2-0.3,2-1.6,1.6-2.8l-24.6-78.1c-0.1-0.3-0.1-0.6-0.1-0.9
	l2-16.5c0.3-2.5,3.8-2.7,4.4-0.2l22.6,96c0.2,1,19.1,1.7,19.1,1.7c1.4,0-4.4-37.6-4.4-37.6L163,30C162.9,29.3,162.4,28.7,161.7,28.4
	z"/>
<path fill="#F58F72" stroke="#000000" stroke-width="2" stroke-miterlimit="10" d="M101.9,11l2.6-4.6c0.6-1-0.1-2.3-1.3-2.3h-9.6
	c-1.2,0-1.9,1.3-1.3,2.3l2.7,4.7c0.3,0.5,0.3,1.1,0,1.5l-7,12.2c-0.2,0.3-0.2,0.7-0.2,1L97,82.4c0.3,1.7,2.7,1.7,3,0l9.2-56.5
	c0.1-0.3,0-0.7-0.2-1l-7.1-12.3C101.6,12,101.6,11.5,101.9,11z"/>
<path fill="#7E69AD" stroke="#000000" stroke-width="2" stroke-miterlimit="10" d="M302.8,88.4l4.1,28.8c0.1,0.5,0.2,0.9,0.4,1.3
	l9.6,21.9c1,2.4,3.7,3.6,6.1,2.8l9.7-3.1c2.4-0.8,3.9-3.3,3.4-5.8l-21.8-109c-0.4-2.1-2.1-3.7-4.2-4l-22.3-3.4
	c-0.8-0.1-1.6-0.5-2.3-1L267.3,3c-0.9-0.7-2-1-3.1-1h-15.9h-4h-15.7c-1.1,0-2.2,0.4-3.1,1l-18.2,13.9c-0.7,0.5-1.5,0.8-2.3,1
	l-22.3,3.4c-2.1,0.3-3.8,1.9-4.2,4l-21.8,109c-0.5,2.5,1,5,3.4,5.8l9.7,3.1c2.5,0.8,5.1-0.4,6.1-2.8l9.6-21.9
	c0.2-0.4,0.3-0.9,0.4-1.3l4.1-28.8c0.8-5.4,8.4-5.9,9.9-0.6l5.5,19.9c0.3,1.2,0.2,2.5-0.4,3.6l-38.4,76.7c-1.4,2.7,0,6,2.9,7
	c11.2,3.8,36.7,12.1,48.9,12.2c8.2,0.1,13.9,0,17.6,0c2.8,0,5-2.3,5-5V40.6c0-1.5-0.6-2.9-1.8-3.8l-18.1-15.5
	c-2-1.7-2.3-4.6-0.9-6.7l1.7-2.5c0.9-1.4,2.5-2.2,4.2-2.2h18.2h4h18.4c1.7,0,3.2,0.8,4.1,2.2l1.8,2.5c1.5,2.1,1.1,5-0.9,6.7
	l-18,15.5c-1.1,1-1.8,2.4-1.8,3.8v161.5c0,2.8,2.2,5,5,5c3.6,0,9.3,0,17.5,0c12.2-0.1,37.7-8.4,48.8-12.2c2.9-1,4.2-4.3,2.9-7
	l-38.4-76.7c-0.6-1.1-0.7-2.4-0.4-3.6l5.5-19.9C294.4,82.5,302,83,302.8,88.4z"/>
<path fill="#7E69AD" stroke="#000000" stroke-width="2" stroke-miterlimit="10" d="M170,181.3l15.8-31.5l4.5,27.9
	c0.3,1.9-1.1,3.6-3.1,3.6H170z"/>
<polygon fill="#7E69AD" points="172,180.4 170.4,178.2 184.8,148.9 185.3,153.7 "/>
<polygon fill="#7E69AD" points="171.6,180.4 171.9,179.9 170.5,178.1 170.4,178.4 "/>
<circle fill="#F58F72" stroke="#000000" stroke-width="2" stroke-miterlimit="10" cx="226.5" cy="62.9" r="5.9"/>
<circle fill="#F58F72" stroke="#000000" stroke-width="2" stroke-miterlimit="10" cx="226.5" cy="87.5" r="5.9"/>
<circle fill="#F58F72" stroke="#000000" stroke-width="2" stroke-miterlimit="10" cx="226.5" cy="111.1" r="5.9"/>
</svg>
