<?xml version="1.0" encoding="utf-8"?>
<!-- Generator: Adobe Illustrator 18.0.0, SVG Export Plug-In . SVG Version: 6.00 Build 0)  -->
<!DOCTYPE svg PUBLIC "-//W3C//DTD SVG 1.1//EN" "http://www.w3.org/Graphics/SVG/1.1/DTD/svg11.dtd">
<svg version="1.1" id="Layer_1" xmlns="http://www.w3.org/2000/svg" xmlns:xlink="http://www.w3.org/1999/xlink" x="0px" y="0px"
	 viewBox="0 0 480 280" enable-background="new 0 0 480 280" xml:space="preserve">
<path fill="#F58F72" stroke="#000000" stroke-width="2" stroke-miterlimit="10" d="M359.1,65h-251C51.8,65,6.1,110.7,6.1,167
	s45.6,102,101.9,102h251c56.3,0,101.9-45.7,101.9-102S415.4,65,359.1,65z M80.3,176.3c-4.3,0-8.1-2-10.7-5c-3.1-2.5-5-6.4-5-10.7
	c0-7.6,6.2-13.8,13.8-13.8c4.3,0,8.1,2,10.7,5c3.1,2.5,5,6.4,5,10.7C94.1,170.2,87.9,176.3,80.3,176.3z M130.3,217.7
	c-7.6,0-13.8-6.2-13.8-13.8c0-7.6,6.2-13.8,13.8-13.8c7.6,0,13.8,6.2,13.8,13.8C144.1,211.5,138,217.7,130.3,217.7z M130.3,136
	c-7.6,0-13.8-6.2-13.8-13.8c0-7.6,6.2-13.8,13.8-13.8c7.6,0,13.8,6.2,13.8,13.8C144.1,129.8,138,136,130.3,136z M178.4,173.5
	c-7.6,0-13.8-6.2-13.8-13.8s6.2-13.8,13.8-13.8c7.6,0,13.8,6.2,13.8,13.8S186,173.5,178.4,173.5z M358.3,242.3
	c-42.3,0-76.6-34.3-76.6-76.6c0-42.3,34.3-76.6,76.6-76.6c42.3,0,76.6,34.3,76.6,76.6C434.9,208,400.6,242.3,358.3,242.3z"/>
<g>
	<path fill="#EE599F" stroke="#000000" stroke-width="2" stroke-miterlimit="10" d="M138,216.4c1.8,0.8,3.7,1.3,5.8,1.3
		c7.6,0,13.8-6.2,13.8-13.8c0-7.6-6.2-13.8-13.8-13.8c-2.1,0-4,0.5-5.8,1.3c4.7,2.2,8,7,8,12.5C146,209.5,142.8,214.2,138,216.4z"/>
	<path fill="#EE599F" stroke="#000000" stroke-width="2" stroke-miterlimit="10" d="M186.1,172.2c1.8,0.8,3.7,1.3,5.8,1.3
		c7.6,0,13.8-6.2,13.8-13.8s-6.2-13.8-13.8-13.8c-2.1,0-4,0.5-5.8,1.3c4.7,2.2,8,7,8,12.5C194.1,165.2,190.9,170,186.1,172.2z"/>
	<path fill="#EE599F" stroke="#000000" stroke-width="2" stroke-miterlimit="10" d="M143.8,108.4c-2.1,0-4,0.5-5.8,1.3
		c4.7,2.2,8,7,8,12.5c0,5.6-3.3,10.3-8,12.5c1.8,0.8,3.7,1.3,5.8,1.3c7.6,0,13.8-6.2,13.8-13.8C157.6,114.6,151.4,108.4,143.8,108.4
		z"/>
	<path fill="#EE599F" stroke="#000000" stroke-width="2" stroke-miterlimit="10" d="M88,175.1c1.8,0.8,3.7,1.3,5.8,1.3
		c7.6,0,13.8-6.2,13.8-13.8c0-4.3-2-8.1-5-10.7c-2.5-3.1-6.4-5-10.7-5c-2.1,0-4,0.5-5.8,1.3c1.9,0.9,3.6,2.2,4.9,3.8
		c3.1,2.5,5,6.4,5,10.7C96,168.1,92.7,172.9,88,175.1z"/>
	<path fill="#EE599F" stroke="#000000" stroke-width="2" stroke-miterlimit="10" d="M366,242.1c1.9,0.1,3.8,0.2,5.8,0.2
		c42.3,0,76.6-34.3,76.6-76.6c0-42.3-34.3-76.6-76.6-76.6c-1.9,0-3.9,0.1-5.8,0.2c39.6,3,70.9,36,70.9,76.4
		C436.8,206.1,405.6,239.1,366,242.1z"/>
	<path fill="#EE599F" stroke="#000000" stroke-width="2" stroke-miterlimit="10" d="M19.6,167.1c0-56.3,45.6-101.9,101.9-101.9
		L112.9,79c-56.3,0-84.8,31.7-84.8,88s23.2,83.1,79.5,83.1l13.9,18.8C65.2,269,19.6,223.4,19.6,167.1z"/>
</g>
<path fill="#7E69AD" stroke="#000000" stroke-width="2" stroke-miterlimit="10" d="M244.7,75.7L244.7,75.7c-4.5,0-8.2-3.7-8.2-8.2
	V12.2c0-4.5,3.7-8.2,8.2-8.2h0c4.5,0,8.2,3.7,8.2,8.2v55.3C252.9,72,249.2,75.7,244.7,75.7z"/>
<path fill="#7E69AD" stroke="#000000" stroke-width="2" stroke-miterlimit="10" d="M372.6,65h-251C65.2,65,19.6,110.7,19.6,167
	s45.6,102,101.9,102h251c56.3,0,101.9-45.7,101.9-102S428.9,65,372.6,65z M93.8,176.3c-4.3,0-8.1-2-10.7-5c-3.1-2.5-5-6.4-5-10.7
	c0-7.6,6.2-13.8,13.8-13.8c4.3,0,8.1,2,10.7,5c3.1,2.5,5,6.4,5,10.7C107.6,170.2,101.4,176.3,93.8,176.3z M143.8,217.7
	c-7.6,0-13.8-6.2-13.8-13.8c0-7.6,6.2-13.8,13.8-13.8s13.8,6.2,13.8,13.8C157.6,211.5,151.4,217.7,143.8,217.7z M143.8,136
	c-7.6,0-13.8-6.2-13.8-13.8c0-7.6,6.2-13.8,13.8-13.8s13.8,6.2,13.8,13.8C157.6,129.8,151.4,136,143.8,136z M191.9,173.5
	c-7.6,0-13.8-6.2-13.8-13.8s6.2-13.8,13.8-13.8c7.6,0,13.8,6.2,13.8,13.8S199.5,173.5,191.9,173.5z M371.7,242.3
	c-42.3,0-76.6-34.3-76.6-76.6c0-42.3,34.3-76.6,76.6-76.6c42.3,0,76.6,34.3,76.6,76.6C448.4,208,414.1,242.3,371.7,242.3z"/>
<circle fill="#F58F72" stroke="#000000" stroke-width="2" stroke-miterlimit="10" cx="358.6" cy="166.1" r="35.3"/>
<circle fill="#EE599F" stroke="#000000" stroke-width="2" stroke-miterlimit="10" cx="365.3" cy="166.1" r="35.3"/>
<path fill="#7E69AD" stroke="#000000" stroke-width="2" stroke-miterlimit="10" d="M391.9,157.7L375,158v-18.8c0-4.5-3.5-8.2-8-8.2
	s-8,3.7-8,8.2v19.1l-21.2,0.3c-4.5,0.1-7.3,4-7.3,8.5c0.1,4.5,3.1,8,7.6,7.9l20.9-0.3v17.8c0,4.5,3.5,8.2,8,8.2s8-3.7,8-8.2v-18
	l17.2-0.3c4.5-0.1,8.1-3.8,8-8.3C400.1,161.3,396.4,157.6,391.9,157.7z"/>
</svg>
