<?xml version="1.0" encoding="utf-8"?>
<!-- Generator: Adobe Illustrator 18.0.0, SVG Export Plug-In . SVG Version: 6.00 Build 0)  -->
<!DOCTYPE svg PUBLIC "-//W3C//DTD SVG 1.1//EN" "http://www.w3.org/Graphics/SVG/1.1/DTD/svg11.dtd">
<svg version="1.1" id="Layer_1" xmlns="http://www.w3.org/2000/svg" xmlns:xlink="http://www.w3.org/1999/xlink" x="0px" y="0px"
	 viewBox="0 0 320 300" enable-background="new 0 0 320 300" xml:space="preserve">
<g>
	<path fill="#EE599F" stroke="#000000" stroke-width="2" stroke-miterlimit="10" d="M6.2,289c10.3-13.4,31.8-45.4,46.5-95.6
		c14.4-49.2,18.4-62.9,19.5-66.7c0.3-1,0.9-1.8,1.7-2.4l82.3-58.5l-1.7-1.2c-0.3-0.2-0.6-0.5-0.9-0.8l-0.3-0.4l-0.3-0.3l-0.3,0.3
		l-0.3,0.4c-0.3,0.3-0.6,0.6-0.9,0.8l-84,59.7c-0.8,0.6-1.4,1.4-1.7,2.4c-1.1,3.8-5.1,17.5-19.5,66.7C31.8,243.7,10.2,275.7-0.1,289
		c-2.2,2.9-0.2,7,3.5,7h6.3C6.1,296,4,291.9,6.2,289z"/>
	<path fill="#EE599F" stroke="#000000" stroke-width="2" stroke-miterlimit="10" d="M186.3,293.4l-25.4-110.2
		c-0.5-1.2-2,3.6-3.9,10.7l23,99.5c0.7,1.7,2.3,2.6,4.1,2.6h6.3C188.6,296,187,295.1,186.3,293.4z"/>
</g>
<path fill="#7E69AD" stroke="#000000" stroke-width="2" stroke-miterlimit="10" d="M308.1,296.3c3.7,0,5.8-4.2,3.5-7.1
	c-10.3-13.4-31.8-45.4-46.5-95.7c-14.4-49.2-18.4-62.9-19.5-66.7c-0.3-1-0.9-1.8-1.7-2.4l-84-59.7c-0.3-0.2-0.6-0.5-0.9-0.8
	l-0.3-0.4l-0.3-0.3l-0.3,0.3l-0.3,0.4c-0.3,0.3-0.6,0.6-0.9,0.8l-84,59.7c-0.8,0.6-1.4,1.4-1.7,2.4c-1.1,3.8-5.1,17.5-19.5,66.7
	c-14.7,50.3-36.2,82.3-46.5,95.7c-2.2,2.9-0.2,7.1,3.5,7.1h118.7c1.8,0,3.4-1.1,4.1-2.8l14.2-57.9c1.5-3.7,12.7-56.1,14.2-52.4
	l25.4,110.3c0.7,1.7,2.3,2.8,4.1,2.8H308.1z"/>
<rect x="157.9" y="47.8" stroke="#000000" stroke-miterlimit="10" width="1.5" height="16.9"/>
<path fill="#F58F72" stroke="#000000" stroke-width="2" stroke-miterlimit="10" d="M159.8,43.8l31.5,7.2c1,0.2,1,1.7,0,1.9
	l-31.6,7.2c-0.6,0.1-1.2-0.3-1.2-1l0.1-14.5C158.6,44.1,159.2,43.6,159.8,43.8z"/>
<g id="Flags">
	<path fill="none" stroke="#231F20" stroke-width="2" stroke-miterlimit="10" d="M72.8,124.8c0,0,64.6,52.5,174.1,7.3"/>
	<path fill="#F58F72" stroke="#000000" stroke-width="2" stroke-miterlimit="10" d="M78.2,134l3.6-2.8c0.6-0.5,0.6-1.4-0.1-1.8
		l-2.7-1.6c-0.7-0.4-1.5,0-1.7,0.7l-1,4.5C76.1,133.9,77.4,134.7,78.2,134z"/>
	<path fill="#EE599F" stroke="#000000" stroke-width="2" stroke-miterlimit="10" d="M85.4,137.9l3.3-3.2c0.6-0.5,0.4-1.5-0.3-1.8
		l-2.8-1.3c-0.7-0.3-1.5,0.1-1.6,0.9l-0.5,4.5C83.4,138.1,84.6,138.7,85.4,137.9z"/>
	<path fill="#F58F72" stroke="#000000" stroke-width="2" stroke-miterlimit="10" d="M92.4,141.2l3.3-3.2c0.6-0.5,0.4-1.5-0.3-1.8
		l-2.8-1.3c-0.7-0.3-1.5,0.1-1.6,0.9l-0.5,4.5C90.4,141.3,91.6,141.9,92.4,141.2z"/>
	<path fill="#EE599F" stroke="#000000" stroke-width="2" stroke-miterlimit="10" d="M100,144.3l2.9-3.5c0.5-0.6,0.2-1.5-0.5-1.8
		l-2.9-1c-0.7-0.3-1.5,0.3-1.5,1l0,4.6C98,144.7,99.3,145.1,100,144.3z"/>
	<path fill="#F58F72" stroke="#000000" stroke-width="2" stroke-miterlimit="10" d="M107.2,146.9l2.9-3.5c0.5-0.6,0.2-1.5-0.5-1.8
		l-2.9-1c-0.7-0.3-1.5,0.3-1.5,1l0,4.6C105.2,147.2,106.5,147.7,107.2,146.9z"/>
	<path fill="#EE599F" stroke="#000000" stroke-width="2" stroke-miterlimit="10" d="M115.1,149.3l2.5-3.8c0.4-0.6,0.1-1.5-0.7-1.7
		l-3-0.7c-0.8-0.2-1.5,0.4-1.4,1.2l0.5,4.5C113.1,149.8,114.5,150.1,115.1,149.3z"/>
	<path fill="#F58F72" stroke="#000000" stroke-width="2" stroke-miterlimit="10" d="M122.6,151l2.6-3.8c0.4-0.6,0.1-1.5-0.7-1.7
		l-3-0.7c-0.8-0.2-1.5,0.4-1.4,1.2l0.5,4.5C120.6,151.5,122,151.9,122.6,151z"/>
	<path fill="#EE599F" stroke="#000000" stroke-width="2" stroke-miterlimit="10" d="M130.6,152.6l2.1-4c0.4-0.7-0.1-1.5-0.9-1.6
		l-3.1-0.4c-0.8-0.1-1.4,0.6-1.3,1.3l1,4.5C128.8,153.3,130.2,153.5,130.6,152.6z"/>
	<path fill="#F58F72" stroke="#000000" stroke-width="2" stroke-miterlimit="10" d="M138.4,153.9l2.2-4c0.4-0.7-0.1-1.5-0.8-1.6
		l-3.1-0.5c-0.8-0.1-1.4,0.6-1.3,1.3l0.9,4.5C136.5,154.6,137.9,154.8,138.4,153.9z"/>
	<path fill="#EE599F" stroke="#000000" stroke-width="2" stroke-miterlimit="10" d="M146.6,154.7l1.7-4.2c0.3-0.7-0.2-1.5-1-1.5
		l-3.1-0.1c-0.8,0-1.4,0.7-1.1,1.4l1.4,4.4C144.8,155.6,146.2,155.7,146.6,154.7z"/>
	<path fill="#F58F72" stroke="#000000" stroke-width="2" stroke-miterlimit="10" d="M154.3,155l1.8-4.2c0.3-0.7-0.2-1.5-1-1.5
		l-3.1-0.2c-0.8,0-1.4,0.7-1.1,1.4l1.3,4.4C152.5,155.9,153.9,156,154.3,155z"/>
	<path fill="#EE599F" stroke="#000000" stroke-width="2" stroke-miterlimit="10" d="M162.4,155l1.4-4.3c0.2-0.7-0.3-1.5-1.1-1.5
		l-3.1,0.1c-0.8,0-1.3,0.8-1,1.5l1.7,4.2C160.7,156,162.1,156,162.4,155z"/>
	<path fill="#F58F72" stroke="#000000" stroke-width="2" stroke-miterlimit="10" d="M170.1,154.8l1.4-4.3c0.2-0.7-0.3-1.5-1.1-1.5
		l-3.1,0.1c-0.8,0-1.3,0.8-1,1.5l1.7,4.2C168.3,155.8,169.8,155.8,170.1,154.8z"/>
	<path fill="#EE599F" stroke="#000000" stroke-width="2" stroke-miterlimit="10" d="M178.3,154.2l1-4.5c0.2-0.8-0.5-1.4-1.3-1.3
		l-3.1,0.4c-0.8,0.1-1.2,0.9-0.9,1.6l2.1,4C176.7,155.4,178.1,155.2,178.3,154.2z"/>
	<path fill="#F58F72" stroke="#000000" stroke-width="2" stroke-miterlimit="10" d="M186.1,153.7l1-4.5c0.2-0.8-0.5-1.4-1.2-1.3
		l-3.1,0.4c-0.8,0.1-1.2,0.9-0.9,1.6l2.1,4.1C184.5,154.9,185.9,154.7,186.1,153.7z"/>
	<path fill="#EE599F" stroke="#000000" stroke-width="2" stroke-miterlimit="10" d="M193.7,152.3l0.8-4.5c0.1-0.8-0.5-1.4-1.3-1.3
		l-3.1,0.5c-0.8,0.1-1.2,1-0.8,1.6l2.3,4C192.2,153.6,193.6,153.3,193.7,152.3z"/>
	<path fill="#F58F72" stroke="#000000" stroke-width="2" stroke-miterlimit="10" d="M201.5,151.3l0.8-4.5c0.1-0.8-0.5-1.4-1.3-1.3
		l-3.1,0.5c-0.8,0.1-1.2,1-0.8,1.6l2.3,4C199.9,152.6,201.3,152.3,201.5,151.3z"/>
	<path fill="#EE599F" stroke="#000000" stroke-width="2" stroke-miterlimit="10" d="M209.3,149.3l0.3-4.5c0.1-0.8-0.7-1.4-1.4-1.1
		l-3,0.8c-0.8,0.2-1.1,1.1-0.6,1.7l2.7,3.7C207.9,150.7,209.3,150.4,209.3,149.3z"/>
	<path fill="#F58F72" stroke="#000000" stroke-width="2" stroke-miterlimit="10" d="M216.9,147.5l0.3-4.5c0.1-0.8-0.7-1.4-1.4-1.2
		l-3,0.8c-0.8,0.2-1.1,1.1-0.6,1.7l2.7,3.7C215.5,148.9,216.8,148.6,216.9,147.5z"/>
	<path fill="#EE599F" stroke="#000000" stroke-width="2" stroke-miterlimit="10" d="M224.4,145.3l0.2-4.6c0-0.8-0.7-1.3-1.5-1.1
		l-3,0.9c-0.7,0.2-1,1.1-0.6,1.7l2.8,3.6C223,146.8,224.3,146.4,224.4,145.3z"/>
	<path fill="#F58F72" stroke="#000000" stroke-width="2" stroke-miterlimit="10" d="M231.5,142.9l0.1-4.6c0-0.8-0.7-1.3-1.5-1.1
		l-3,1c-0.7,0.2-1,1.1-0.5,1.7l2.9,3.6C230.2,144.4,231.5,144,231.5,142.9z"/>
	<path fill="#EE599F" stroke="#000000" stroke-width="2" stroke-miterlimit="10" d="M238.5,140.3l-0.1-4.6c0-0.8-0.8-1.3-1.5-1
		l-2.9,1.1c-0.7,0.3-1,1.2-0.5,1.8l3,3.5C237.2,141.9,238.6,141.4,238.5,140.3z"/>
</g>
<path fill="none" stroke="#000000" stroke-width="2" stroke-miterlimit="10" d="M154.8,75.2c-9.2,27.4-35.3,55.1-60.9,46.5"/>
<path fill="none" stroke="#000000" stroke-width="2" stroke-miterlimit="10" d="M159.9,73.3c0,28.6-6.8,67.2-16.9,67.2"/>
<path fill="none" stroke="#000000" stroke-width="2" stroke-miterlimit="10" d="M163.9,73.3c0,24.1,36.1,58.2,55.3,58.2"/>
<g>
	<path fill="#F58F72" stroke="#000000" stroke-width="2" stroke-miterlimit="10" d="M56.9,129c1.4-4,1.3-8.7-0.7-12.8
		c-3.7-7.6-12.7-11.2-20.6-8.3c-9.1,3.4-13.4,13.7-9.5,22.4c1.8,4.1,5.1,7,8.9,8.6l0.1,0c0.5,0.2,1,0.4,1.5,0.5l9.9,3.5
		c2.3,0.8,4.9-0.3,5.9-2.6l4-9.6C56.5,130.1,56.9,129,56.9,129z"/>
	<path fill="none" stroke="#000000" stroke-width="2" stroke-miterlimit="10" d="M49.9,142.2c0,0,12.1,13.6,9,30.5
		c-3.2,16.9-2.9,22.2,0.3,26.9"/>
</g>
<g>
	<path fill="#F58F72" stroke="#000000" stroke-width="2" stroke-miterlimit="10" d="M227.9,201.7c-1.4-4-1.3-8.7,0.7-12.8
		c3.7-7.6,12.7-11.2,20.6-8.3c9.1,3.4,13.4,13.7,9.5,22.4c-1.8,4.1-5.1,7-8.9,8.6l-0.1,0c-0.5,0.2-1,0.4-1.5,0.5l-9.9,3.5
		c-2.3,0.8-4.9-0.3-5.9-2.6l-4-9.6C228.3,202.8,227.9,201.7,227.9,201.7z"/>
	<path fill="none" stroke="#000000" stroke-width="2" stroke-miterlimit="10" d="M234.9,215c0,0-12.1,13.6-9,30.5s2.9,22.2-0.3,26.9
		"/>
</g>
<g>
	<path fill="#7E69AD" stroke="#000000" stroke-width="2" stroke-miterlimit="10" d="M242.3,66.9c3.9-1.9,7-5.2,8.5-9.7
		c2.7-8-1.2-16.9-8.9-20.4c-8.9-4-19.1,0.4-22.4,9.3c-1.6,4.2-1.3,8.5,0.3,12.3l0,0.1c0.2,0.5,0.4,0.9,0.7,1.4l4.6,9.4
		c1.1,2.2,3.7,3.2,6,2.2l9.6-4.1C241.3,67.4,242.3,66.9,242.3,66.9z"/>
	<path fill="none" stroke="#000000" stroke-width="2" stroke-miterlimit="10" d="M227.5,71.7c0,0-11.2,9.6-10.9,24.1
		s2.3,24.4-1.7,33"/>
</g>
<g>
	<path fill="#F58F72" stroke="#000000" stroke-width="2" stroke-miterlimit="10" d="M283.9,90.1c1.4-4,1.3-8.7-0.7-12.8
		c-3.7-7.6-12.7-11.2-20.6-8.3c-9.1,3.4-13.4,13.7-9.5,22.4c1.8,4.1,5.1,7,8.9,8.6l0.1,0c0.5,0.2,1,0.4,1.5,0.5l9.9,3.5
		c2.3,0.8,4.9-0.3,5.9-2.6l4-9.6C283.5,91.2,283.9,90.1,283.9,90.1z"/>
	<path fill="none" stroke="#000000" stroke-width="2" stroke-miterlimit="10" d="M276.9,103.3c0,0,12.1,13.6,9,30.5
		c-3.2,16.9-2.9,22.2,0.3,26.9"/>
</g>
<g>
	<path fill="#7E69AD" stroke="#000000" stroke-width="2" stroke-miterlimit="10" d="M70.2,38.5c-3.9-1.9-7-5.2-8.5-9.7
		c-2.7-8,1.2-16.9,8.9-20.4c8.9-4,19.1,0.4,22.4,9.3c1.6,4.2,1.3,8.5-0.3,12.3l0,0.1c-0.2,0.5-0.4,0.9-0.7,1.4L87.4,41
		c-1.1,2.2-3.7,3.2-6,2.2l-9.6-4.1C71.3,39,70.2,38.5,70.2,38.5z"/>
	<path fill="none" stroke="#000000" stroke-width="2" stroke-miterlimit="10" d="M85,43.2c0,0,11.2,9.6,10.9,24.1
		c-0.3,14.5-2.3,24.4,1.7,33"/>
</g>
</svg>
