<?xml version="1.0" encoding="UTF-8" standalone="no"?><!DOCTYPE svg PUBLIC "-//W3C//DTD SVG 1.1//EN" "http://www.w3.org/Graphics/SVG/1.1/DTD/svg11.dtd"><svg width="100%" height="100%" viewBox="0 0 190 250" version="1.1" xmlns="http://www.w3.org/2000/svg" xmlns:xlink="http://www.w3.org/1999/xlink" xml:space="preserve" style="fill-rule:evenodd;clip-rule:evenodd;stroke-miterlimit:10;"><path d="M44.142,208.174c-2.403,0 -4.587,-2.84 -4.587,-5.17l0,-2.184c0,-2.403 2.184,-3.568 4.587,-3.568l109.593,0c0.437,0 0.874,-0.729 0.874,-0.583l0,-146.294c0,-8.666 -6.699,-15.511 -15.365,-15.511l-95.247,0c-8.666,0 -16.094,6.845 -16.094,15.511l0,147.532c0,8.665 7.428,16.093 16.094,16.093l95.175,0c5.17,0 9.757,-2.185 12.597,-5.826l-107.627,0Z" style="fill:#7e69ad;fill-rule:nonzero;stroke:#000;stroke-width:1.46px;"/><g><path d="M123.37,85.182l3.714,-5.534c1.019,-1.456 0.655,-3.568 -0.874,-4.515l-2.622,-1.82c-1.456,-1.02 -3.568,-0.656 -4.515,0.874l-4.077,6.044l8.374,4.951Z" style="fill:#ee599f;fill-rule:nonzero;stroke:#000;stroke-width:1.46px;"/><path d="M115.068,85.328c-1.456,-0.874 -3.349,-0.437 -4.296,0.947l-37.939,55.925c-1.311,1.966 -0.801,4.66 1.165,6.044l1.748,1.165c1.529,1.02 3.568,0.656 4.587,-0.874l38.595,-56.872c1.019,-1.529 0.582,-3.641 -1.02,-4.587l-2.84,-1.748Z" style="fill:#ee599f;fill-rule:nonzero;stroke:#000;stroke-width:1.46px;"/></g><path d="M79.751,149.409l-8.374,3.86c-0.146,0.072 -0.292,-0.073 -0.219,-0.146l0.801,-9.175c0,-0.364 0.437,-0.51 0.656,-0.292l7.136,5.025c0.364,0.146 0.291,0.582 0,0.728Z" style="fill:#ee599f;fill-rule:nonzero;stroke:#000;stroke-width:1.46px;"/><g><path d="M50.696,196.887l-6.554,0c-2.403,0 -4.151,1.53 -4.151,3.933l0,2.184c0,2.403 1.748,4.806 4.151,4.806l6.554,0c-2.403,0 -4.151,-2.476 -4.151,-4.806l0,-2.184c0,-2.403 1.748,-3.933 4.151,-3.933Z" style="fill:#f58f72;fill-rule:nonzero;stroke:#000;stroke-width:1.46px;"/><path d="M139.244,213.636l6.554,0c5.17,0 9.758,-2.185 12.598,-5.826l-6.554,0c-2.913,3.641 -7.5,5.826 -12.598,5.826Z" style="fill:#f58f72;fill-rule:nonzero;stroke:#000;stroke-width:1.46px;"/><path d="M145.798,34.5l-6.554,0c8.666,0 15.802,7.209 15.802,15.875l0,146.294c-0.364,-0.146 -0.874,0.218 -1.311,0.218l6.554,0c0.437,0 0.947,-0.364 1.311,-0.218l0,-146.294c0,-8.666 -7.136,-15.875 -15.802,-15.875Z" style="fill:#f58f72;fill-rule:nonzero;stroke:#000;stroke-width:1.46px;"/></g></svg>