<?xml version="1.0" encoding="utf-8"?>
<!-- Generator: Adobe Illustrator 18.0.0, SVG Export Plug-In . SVG Version: 6.00 Build 0)  -->
<!DOCTYPE svg PUBLIC "-//W3C//DTD SVG 1.1//EN" "http://www.w3.org/Graphics/SVG/1.1/DTD/svg11.dtd">
<svg version="1.1" id="Layer_1" xmlns="http://www.w3.org/2000/svg" xmlns:xlink="http://www.w3.org/1999/xlink" x="0px" y="0px"
	 viewBox="0 0 540 350" enable-background="new 0 0 540 350" xml:space="preserve">
<g>
	<polygon fill="#F58F72" stroke="#000000" stroke-width="2" stroke-miterlimit="10" points="406,190.9 351.5,216.6 333.6,306.6 
		346.4,306.6 364.2,216.6 418.7,190.9 404.1,72.8 393.9,93.1 	"/>
	<polygon fill="#F58F72" stroke="#000000" stroke-width="2" stroke-miterlimit="10" points="245.1,63.6 239.1,101.5 265,143.2 
		255.9,214.4 270.6,198.9 277.7,143.2 251.8,101.5 263.8,26.4 	"/>
	<polygon fill="#F58F72" stroke="#000000" stroke-width="2" stroke-miterlimit="10" points="127.9,162.9 160.8,208.2 129.6,248.7 
		189.6,306.6 202.3,306.6 142.3,248.7 173.5,208.2 140.7,162.9 140.8,103.9 139.8,102.6 128.1,126 	"/>
	<polygon fill="#F58F72" stroke="#000000" stroke-width="2" stroke-miterlimit="10" points="24.5,329.1 24.5,306.6 24.7,306.6 
		24.7,306.6 24.3,306.6 131.9,92.2 124.2,82.2 11.6,306.6 12.1,306.6 11.8,306.6 11.8,329.1 11.6,329.1 11.6,347.7 24.3,347.7 
		24.3,329.1 	"/>
	<polygon fill="#F58F72" stroke="#000000" stroke-width="2" stroke-miterlimit="10" points="357.1,140.1 395.9,62.8 387.5,54.1 
		351.5,126 	"/>
	<polygon fill="#F58F72" stroke="#000000" stroke-width="2" stroke-miterlimit="10" points="188.8,149.6 258.5,10.6 249.6,3 
		181.1,139.6 	"/>
</g>
<path fill="#7E69AD" stroke="#000000" stroke-width="2" stroke-miterlimit="10" d="M533.8,293.9l-32.6-63.7L490.8,151l-93.5-96.9
	l-43.1,86l-34-85.3L259.4,3l-73.5,146.6l-51.9-67.4L21.4,306.6l0.5,0h-0.2v22.5h-0.3v18.6h515.9v-9.8v-8.8v-6.2v-29H533.8z
	 M193.8,160l67-133.6l-12,75.1l25.9,41.7l-9.1,71.2l52.7-55.5l41.7-4.1l41.1-82l14.6,118.1l-54.5,25.6l-17.8,90H221.2l-27.8-82.3
	l18.5-41.1L193.8,160z M137.9,100.5l-0.2,62.3l32.8,45.4l-31.2,40.5l60,57.9H34.4L137.9,100.5z"/>
<polygon fill="#EE599F" stroke="#000000" stroke-width="2" stroke-miterlimit="10" points="420.8,94.1 479,154.4 489.3,232.2 
	517.7,293.3 381.1,293.3 393.4,224.8 440.8,208.7 "/>
<polygon fill="#EE599F" stroke="#000000" stroke-width="2" stroke-miterlimit="10" points="277.7,32.7 267.8,99.6 292.7,136.9 
	333.6,138.1 305.9,69.8 "/>
</svg>
