<?xml version="1.0" encoding="utf-8"?>
<!-- Generator: Adobe Illustrator 18.0.0, SVG Export Plug-In . SVG Version: 6.00 Build 0)  -->
<!DOCTYPE svg PUBLIC "-//W3C//DTD SVG 1.1//EN" "http://www.w3.org/Graphics/SVG/1.1/DTD/svg11.dtd">
<svg version="1.1" id="Layer_1" xmlns="http://www.w3.org/2000/svg" xmlns:xlink="http://www.w3.org/1999/xlink" x="0px" y="0px"
	 viewBox="0 0 230 230" enable-background="new 0 0 230 230" xml:space="preserve">
<polygon fill="#F58F72" stroke="#000000" stroke-width="2" stroke-miterlimit="10" points="212.4,66.1 216.6,66.1 216.6,66 
	205.6,66.1 207.6,202.8 214.4,202.7 "/>
<path fill="#7E69AD" stroke="#000000" stroke-width="2" stroke-miterlimit="10" d="M225.5,198.3c0-0.3-0.1-0.7-0.2-1l-2-132.3
	l-2.5,0l-0.1-0.6l-8.1,0.7l-0.4,0l0,0l-98.9,8.9v122.7c-3.8-1.4-8.2-2-12.8-1.4c-12,1.5-20.8,9.9-19.7,18.7
	c1.1,8.8,11.7,14.8,23.6,13.3c11.1-1.4,19.4-8.6,19.8-16.7h0.2V95.9l88.2-7.9l1.5,98.2c-3.6-1.2-7.8-1.7-12.3-1.2
	c-12,1.5-20.8,9.9-19.7,18.7c1.1,8.8,11.7,14.8,23.6,13.3C217.8,215.5,226.6,207.2,225.5,198.3z"/>
<path fill="#EE599F" stroke="#000000" stroke-width="2" stroke-miterlimit="10" d="M66.9,31.8l12.3,1c12.3,5.9,4.6,1.4,17.4,9.9
	S117.1,60,117.1,60l-2.8-9.9c0,0,0-5.9-11.2-15.8S86.7,21.1,78.3,18S61.7,5.8,61.7,5.8l-3.2,26.5L66.9,31.8z"/>
<path fill="#7E69AD" stroke="#000000" stroke-width="2" stroke-miterlimit="10" d="M112.2,43.8c0,0,0-5.6-10.7-15
	c-10.7-9.4-15.8-12.5-23.9-15.4c-8-2.9-16-11.6-16-11.6l-1.2,9.6l0,0l-21,117.7c-3.7-2-8.4-3-13.3-2.9C14,126.6,4.5,134.1,4.7,143
	c0.3,8.9,10.3,15.8,22.3,15.4c9.1-0.3,16.8-4.7,19.9-10.7l0.3,0l0.2-1.1c0.7-1.6,1-3.4,1-5.1c0-0.1,0-0.1,0-0.2L68.9,26.6l9.5,0.8
	c11.8,5.6,4.4,1.3,16.8,9.4c12.3,8.1,19.7,16.4,19.7,16.4L112.2,43.8z"/>
</svg>
