<?xml version="1.0" encoding="utf-8"?>
<!-- Generator: Adobe Illustrator 18.0.0, SVG Export Plug-In . SVG Version: 6.00 Build 0)  -->
<!DOCTYPE svg PUBLIC "-//W3C//DTD SVG 1.1//EN" "http://www.w3.org/Graphics/SVG/1.1/DTD/svg11.dtd">
<svg version="1.1" id="Layer_1" xmlns="http://www.w3.org/2000/svg" xmlns:xlink="http://www.w3.org/1999/xlink" x="0px" y="0px"
	 viewBox="0 0 240 170" enable-background="new 0 0 240 170" xml:space="preserve">
<g>
	<path d="M220.4,88.4c0,0-0.7-0.4-2.2-1.1c-1.4-0.7-3.4-1.4-6.2-2.1c-2.8-0.7-6.2-1.4-10.3-1.8c-4-0.4-8.6-0.7-13.6-0.8
		c-2.5-0.1-5.1-0.1-7.8,0c-1.4,0-2.8,0.1-4.2,0.1c-1.3,0-2.8,0-4.2,0.1c-5.7,0.2-11.7,0.7-17.9,1.5c-6.2,0.8-12.6,1.8-19,3.2
		c-6.5,1.3-12.9,2.9-19.4,4.8c-1.6,0.5-3.2,1-4.8,1.5c-1.6,0.5-3.2,1-4.8,1.6c-3.2,1.1-6.3,2.2-9.5,3.3c-6.6,2.2-13.2,3.4-19.7,4
		c-6.5,0.6-12.7,0.6-18.6,0.2c-5.9-0.4-11.4-1.2-16.5-2.2C31.8,98.6,23.6,96,18,94c-2.8-1-5-1.9-6.5-2.6c-0.7-0.3-1.3-0.6-1.7-0.7
		c-0.4-0.2-0.6-0.3-0.6-0.3l1.1-2.3c0,0,0.2,0.1,0.5,0.2c0.4,0.2,0.9,0.4,1.6,0.7c1.5,0.6,3.6,1.4,6.4,2.3c5.6,1.9,13.6,4.3,23.5,6
		c4.9,0.8,10.4,1.5,16.1,1.7c5.7,0.3,11.8,0.1,17.9-0.6c6.1-0.8,12.5-2.2,18.5-4.4c3.1-1.2,6.2-2.4,9.4-3.6c1.6-0.6,3.2-1.2,4.8-1.7
		c1.6-0.5,3.2-1.1,4.9-1.6c6.5-2,13.1-3.9,19.7-5.4c6.6-1.4,13.1-2.6,19.5-3.4c6.4-0.8,12.6-1.4,18.5-1.5c1.5,0,2.9-0.1,4.4,0
		c0.7,0,1.4,0,2.1,0c0.7,0,1.4,0,2.1,0.1c2.8,0.1,5.5,0.3,8,0.5c5.1,0.5,9.8,1.2,13.9,2c4.1,0.8,7.7,1.8,10.6,2.8
		c2.8,1,5.2,2.1,6.6,2.9c1.4,0.8,2.1,1.2,2.1,1.2L220.4,88.4z"/>
</g>
<g>
	<path d="M230.4,57.4c0,0-0.7-0.4-2.2-1.1c-1.4-0.7-3.4-1.4-6.2-2.1c-2.8-0.7-6.2-1.4-10.3-1.8c-4-0.4-8.6-0.7-13.6-0.8
		c-2.5-0.1-5.1-0.1-7.8,0c-1.4,0-2.8,0.1-4.2,0.1c-1.3,0-2.8,0-4.2,0.1c-5.7,0.2-11.7,0.7-17.9,1.5c-6.2,0.8-12.6,1.8-19,3.2
		c-6.5,1.3-12.9,2.9-19.4,4.8c-1.6,0.5-3.2,1-4.8,1.5c-1.6,0.5-3.2,1-4.8,1.6c-3.2,1.1-6.3,2.2-9.5,3.3c-6.6,2.2-13.2,3.4-19.7,4
		c-6.5,0.6-12.7,0.6-18.6,0.2c-5.9-0.4-11.4-1.2-16.5-2.2c-10.1-2-18.2-4.6-23.8-6.7c-2.8-1-5-1.9-6.5-2.6c-0.7-0.3-1.3-0.6-1.7-0.7
		c-0.4-0.2-0.6-0.3-0.6-0.3l1.1-2.3c0,0,0.2,0.1,0.5,0.2c0.4,0.2,0.9,0.4,1.6,0.7c1.5,0.6,3.6,1.4,6.4,2.3c5.6,1.9,13.6,4.3,23.5,6
		c4.9,0.8,10.4,1.5,16.1,1.7c5.7,0.3,11.8,0.1,17.9-0.6c6.1-0.8,12.5-2.2,18.5-4.4c3.1-1.2,6.2-2.4,9.4-3.6c1.6-0.6,3.2-1.2,4.8-1.7
		c1.6-0.5,3.2-1.1,4.9-1.6c6.5-2,13.1-3.9,19.7-5.4c6.6-1.4,13.1-2.6,19.5-3.4c6.4-0.8,12.6-1.4,18.5-1.5c1.5,0,2.9-0.1,4.4,0
		c0.7,0,1.4,0,2.1,0c0.7,0,1.4,0,2.1,0.1c2.8,0.1,5.5,0.3,8,0.5c5.1,0.5,9.8,1.2,13.9,2c4.1,0.8,7.7,1.8,10.6,2.8
		c2.8,1,5.2,2.1,6.6,2.9c1.4,0.8,2.1,1.2,2.1,1.2L230.4,57.4z"/>
</g>
<g>
	<path d="M230.4,35.6c0,0-0.7-0.4-2.2-1.1c-1.4-0.7-3.4-1.4-6.2-2.1c-2.8-0.7-6.2-1.4-10.3-1.8c-4-0.4-8.6-0.7-13.6-0.8
		c-2.5-0.1-5.1-0.1-7.8,0c-1.4,0-2.8,0.1-4.2,0.1c-1.3,0-2.8,0-4.2,0.1c-5.7,0.2-11.7,0.7-17.9,1.5c-6.2,0.8-12.6,1.8-19,3.2
		c-6.5,1.3-12.9,2.9-19.4,4.8c-1.6,0.5-3.2,1-4.8,1.5c-1.6,0.5-3.2,1-4.8,1.6c-3.2,1.1-6.3,2.2-9.5,3.3c-6.6,2.2-13.2,3.4-19.7,4
		c-6.5,0.6-12.7,0.6-18.6,0.2c-5.9-0.4-11.4-1.2-16.5-2.2c-10.1-2-18.2-4.6-23.8-6.7c-2.8-1-5-1.9-6.5-2.6c-0.7-0.3-1.3-0.6-1.7-0.7
		c-0.4-0.2-0.6-0.3-0.6-0.3l1.1-2.3c0,0,0.2,0.1,0.5,0.2c0.4,0.2,0.9,0.4,1.6,0.7c1.5,0.6,3.6,1.4,6.4,2.3c5.6,1.9,13.6,4.3,23.5,6
		c4.9,0.8,10.4,1.5,16.1,1.7c5.7,0.3,11.8,0.1,17.9-0.6c6.1-0.8,12.5-2.2,18.5-4.4c3.1-1.2,6.2-2.4,9.4-3.6c1.6-0.6,3.2-1.2,4.8-1.7
		c1.6-0.5,3.2-1.1,4.9-1.6c6.5-2,13.1-3.9,19.7-5.4c6.6-1.4,13.1-2.6,19.5-3.4c6.4-0.8,12.6-1.4,18.5-1.5c1.5,0,2.9-0.1,4.4,0
		c0.7,0,1.4,0,2.1,0c0.7,0,1.4,0,2.1,0.1c2.8,0.1,5.5,0.3,8,0.5c5.1,0.5,9.8,1.2,13.9,2c4.1,0.8,7.7,1.8,10.6,2.8
		c2.8,1,5.2,2.1,6.6,2.9c1.4,0.8,2.1,1.2,2.1,1.2L230.4,35.6z"/>
</g>
<polygon fill="#F58F72" stroke="#000000" stroke-width="2" stroke-miterlimit="10" points="198.2,11 202.2,10.9 202.2,10.8 
	191.8,11 193.7,139.3 200.1,139.2 "/>
<path fill="#7E69AD" stroke="#000000" stroke-width="2" stroke-miterlimit="10" d="M210.6,135.1c0-0.3-0.1-0.6-0.2-0.9L208.5,9.9
	l-2.3,0l0-0.6l-7.6,0.7l-0.3,0l0,0l-92.9,8.3v115.2c-3.5-1.3-7.7-1.8-12.1-1.3c-11.2,1.4-19.5,9.3-18.5,17.6
	c1,8.3,10.9,13.9,22.2,12.5c10.4-1.3,18.2-8.1,18.6-15.7h0.2V38.9l82.9-7.4l1.4,92.2c-3.4-1.2-7.4-1.6-11.5-1.1
	c-11.2,1.4-19.5,9.3-18.5,17.6s10.9,13.9,22.2,12.5C203.3,151.3,211.6,143.4,210.6,135.1z"/>
</svg>
