<?xml version="1.0" encoding="UTF-8" standalone="no"?><!DOCTYPE svg PUBLIC "-//W3C//DTD SVG 1.1//EN" "http://www.w3.org/Graphics/SVG/1.1/DTD/svg11.dtd"><svg width="100%" height="100%" viewBox="0 0 150 150" version="1.1" xmlns="http://www.w3.org/2000/svg" xmlns:xlink="http://www.w3.org/1999/xlink" xml:space="preserve" style="fill-rule:evenodd;clip-rule:evenodd;stroke-miterlimit:10;"><path d="M45.9,140.1l-37.7,-53.3c-5.3,-7.5 -5.2,-17.6 0.3,-25l39.2,-52.3c5.5,-7.4 15.2,-10.4 23.9,-7.5l61.8,21c8.7,3 14.6,11.2 14.4,20.4l-0.9,65.3c-0.1,9.2 -6.2,17.3 -15,20l-62.4,19.3c-8.7,2.9 -18.3,-0.4 -23.6,-7.9Zm9.1,-13.1l-30,-42.6c-4.3,-6 -4.1,-14.1 0.3,-20l31.3,-41.8c4.4,-5.9 12.1,-8.3 19.1,-5.9l49.3,16.8c7,2.4 11.6,9 11.5,16.3l-0.7,52.2c-0.1,7.4 -4.9,13.8 -12,16l-49.8,15.4c-7.1,2.2 -14.7,-0.4 -19,-6.4Z" style="fill:#7e69ad;stroke:#000;stroke-width:2px;"/><path d="M49.853,86.842l-0.177,0.149l0,-0.388c-0.024,0 -0.056,0.015 -0.098,0.045c-0.041,0.03 -0.073,0.045 -0.097,0.045c-0.012,0 -0.023,-0.045 -0.035,-0.134c-0.012,-0.09 -0.024,-0.145 -0.036,-0.165l-0.053,0l-0.053,0c-0.011,0 -0.044,0.02 -0.097,0.06c-0.053,0.04 -0.085,0.07 -0.097,0.09l-0.071,0l-0.088,0c-0.012,0 -0.03,0.02 -0.053,0.059c-0.024,0.04 -0.042,0.07 -0.054,0.09c-0.011,0.06 -0.023,0.109 -0.035,0.149c-0.012,0.02 -0.018,0.035 -0.018,0.045c0,0.01 -0.005,0.025 -0.017,0.045c-0.012,0.019 -0.018,0.039 -0.018,0.059c-0.024,0 -0.082,0.005 -0.177,0.015c-0.094,0.01 -0.153,0.015 -0.177,0.015c-0.059,0 -0.132,-0.005 -0.221,-0.015c-0.088,-0.01 -0.144,-0.015 -0.168,-0.015c-0.023,-0.02 -0.085,-0.084 -0.185,-0.194c-0.101,-0.109 -0.163,-0.194 -0.186,-0.253l0,0.447l-0.513,-0.149l0,-0.448l-0.035,-0.059l-0.053,-0.09l-0.053,0l-0.054,0c-0.023,0 -0.07,0.025 -0.141,0.075c-0.071,0.05 -0.112,0.074 -0.124,0.074c-0.012,0 -0.032,0.045 -0.062,0.135c-0.029,0.089 -0.044,0.144 -0.044,0.164c-0.012,0.04 -0.024,0.069 -0.035,0.089l-0.036,0.06l-0.053,0l-0.053,0c-0.035,-0.02 -0.065,-0.04 -0.088,-0.06c-0.012,0 -0.03,-0.02 -0.053,-0.059c-0.012,-0.02 -0.024,-0.03 -0.036,-0.03l-0.035,0l-0.053,0c-0.012,0 -0.056,0.05 -0.133,0.149c-0.076,0.1 -0.126,0.149 -0.15,0.149l-0.088,0l-0.089,0c-0.023,-0.02 -0.097,-0.064 -0.221,-0.134c-0.124,-0.07 -0.203,-0.124 -0.239,-0.164l0,-0.209l0,-0.239l0.018,-0.03c0,0 0.012,-0.02 0.035,-0.059c0.012,-0.02 0.03,-0.04 0.053,-0.06l0,-0.179l0,-0.149c-0.023,-0.02 -0.044,-0.045 -0.062,-0.075c-0.017,-0.03 -0.032,-0.055 -0.044,-0.075c-0.012,-0.019 -0.041,-0.034 -0.088,-0.044c-0.047,-0.01 -0.083,-0.015 -0.106,-0.015c0,-0.04 0,-0.13 0,-0.269c0,-0.139 0.012,-0.229 0.035,-0.268c0,-0.04 0.006,-0.115 0.018,-0.224c0.012,-0.11 0.02,-0.224 0.026,-0.343c0.006,-0.12 0.012,-0.229 0.018,-0.329c0.006,-0.099 0.009,-0.159 0.009,-0.179l0,-1.253c0,-0.04 0.015,-0.164 0.044,-0.373c0.03,-0.209 0.044,-0.343 0.044,-0.403c0,-0.04 0.003,-0.179 0.009,-0.418c0.006,-0.239 0.009,-0.438 0.009,-0.597c0,-0.02 0,-0.074 0,-0.164c0,-0.09 -0.003,-0.184 -0.009,-0.284c-0.006,-0.099 -0.009,-0.198 -0.009,-0.298c0,-0.099 0,-0.169 0,-0.209c-0.023,-0.02 -0.053,-0.07 -0.088,-0.149c-0.036,-0.08 -0.059,-0.129 -0.071,-0.149c-0.012,-0.02 -0.018,-0.04 -0.018,-0.06c-0.011,-0.02 -0.017,-0.05 -0.017,-0.09c0,-0.059 0.006,-0.099 0.017,-0.119c0,-0.02 0.006,-0.04 0.018,-0.06c0.012,-0.019 0.027,-0.094 0.044,-0.223c0.018,-0.13 0.027,-0.214 0.027,-0.254l0,-0.09l0,-0.029c0,-0.04 -0.027,-0.075 -0.08,-0.105c-0.053,-0.03 -0.091,-0.045 -0.115,-0.045l-0.177,0.597l-0.017,0l-0.071,0c0,-0.02 -0.012,-0.045 -0.035,-0.074c-0.024,-0.03 -0.036,-0.055 -0.036,-0.075c-0.011,0 -0.047,-0.025 -0.106,-0.075c-0.059,-0.049 -0.088,-0.084 -0.088,-0.104l0,-0.209l0,-0.239c0,-0.02 0.026,-0.094 0.079,-0.224c0.053,-0.129 0.092,-0.213 0.115,-0.253c0,-0.02 0.027,-0.065 0.08,-0.135c0.053,-0.069 0.079,-0.114 0.079,-0.134c0.012,-0.04 0.033,-0.099 0.062,-0.179c0.03,-0.08 0.05,-0.129 0.062,-0.149c0,-0.02 0.009,-0.04 0.027,-0.06c0.017,-0.02 0.026,-0.04 0.026,-0.06l0,-1.253c0.012,-0.06 0.047,-0.219 0.106,-0.477c0.059,-0.259 0.089,-0.418 0.089,-0.478l0,-0.06l0,-0.059c0,-0.04 -0.027,-0.145 -0.08,-0.314c-0.053,-0.169 -0.091,-0.273 -0.115,-0.313c0,-0.04 -0.009,-0.114 -0.026,-0.224c-0.018,-0.109 -0.027,-0.184 -0.027,-0.224c0,-0.04 -0.006,-0.124 -0.017,-0.253c-0.012,-0.13 -0.027,-0.269 -0.045,-0.418c-0.017,-0.149 -0.032,-0.294 -0.044,-0.433c-0.012,-0.139 -0.018,-0.239 -0.018,-0.298l0,-0.269l0,-0.179c0.012,-0.02 0.039,-0.06 0.08,-0.119c0.041,-0.06 0.083,-0.125 0.124,-0.194c0.041,-0.07 0.079,-0.135 0.115,-0.194c0.035,-0.06 0.053,-0.1 0.053,-0.12c0.012,-0.02 0.018,-0.069 0.018,-0.149c0,-0.08 -0.006,-0.129 -0.018,-0.149c0.012,0.059 0.056,0.124 0.132,0.194c0.077,0.069 0.127,0.104 0.151,0.104c0.012,0 0.041,-0.035 0.088,-0.104c0.047,-0.07 0.083,-0.135 0.106,-0.194c0.012,-0.04 0.027,-0.09 0.045,-0.149c0.017,-0.06 0.026,-0.11 0.026,-0.15c0,0.04 0.009,0.095 0.027,0.165c0.017,0.069 0.038,0.114 0.062,0.134c0.035,0.02 0.076,0.005 0.123,-0.045c0.047,-0.05 0.083,-0.075 0.106,-0.075c0,-0.039 0.009,-0.144 0.027,-0.313c0.018,-0.169 0.021,-0.293 0.009,-0.373c0,-0.02 -0.024,-0.114 -0.071,-0.283c-0.047,-0.17 -0.082,-0.274 -0.106,-0.314l0,-0.06l0,-0.059c0.012,-0.04 0.029,-0.12 0.053,-0.239c0.024,-0.119 0.041,-0.199 0.053,-0.239c0.012,-0.02 0.027,-0.124 0.044,-0.313c0.018,-0.189 0.027,-0.304 0.027,-0.343l0.106,-0.09c0.012,-0.06 0.024,-0.144 0.035,-0.254c0.012,-0.109 0.018,-0.184 0.018,-0.223l0.106,0l0,0.119c0,0.02 0.006,0.03 0.018,0.03c0.023,0.04 0.044,0.099 0.062,0.179c0.017,0.08 0.026,0.129 0.026,0.149c0.024,0 0.083,0.04 0.177,0.12c0.094,0.079 0.159,0.139 0.195,0.179l0.106,0c0.012,-0.02 0.041,-0.055 0.088,-0.105c0.047,-0.05 0.094,-0.099 0.142,-0.149c0.047,-0.05 0.091,-0.095 0.132,-0.134c0.042,-0.04 0.062,-0.07 0.062,-0.09c0.024,0 0.059,-0.025 0.106,-0.075c0.047,-0.049 0.077,-0.074 0.089,-0.074l0.088,0c0.036,0.04 0.086,0.094 0.15,0.164c0.065,0.07 0.104,0.124 0.115,0.164c0.024,0 0.045,0.045 0.062,0.134c0.018,0.09 0.039,0.145 0.062,0.165c0.012,0.039 0.039,0.074 0.08,0.104c0.041,0.03 0.073,0.045 0.097,0.045c0.024,0 0.053,-0.05 0.088,-0.149l0,-0.299c0,-0.04 0.012,-0.099 0.036,-0.179c0.023,-0.079 0.035,-0.129 0.035,-0.149l0.053,-0.03l0.053,0.03c0.024,0.04 0.071,0.119 0.142,0.239c0.071,0.119 0.118,0.179 0.141,0.179l0.036,0.03l0.035,-0.03c0.012,0 0.041,-0.015 0.088,-0.045c0.048,-0.03 0.083,-0.045 0.107,-0.045c0.023,-0.04 0.07,-0.074 0.141,-0.104c0.071,-0.03 0.112,-0.055 0.124,-0.075l0.194,0c-0.023,0.04 -0.056,0.095 -0.097,0.164c-0.041,0.07 -0.074,0.105 -0.097,0.105c0,0.02 0.006,0.039 0.018,0.059c0,0.02 0.005,0.04 0.017,0.06c0.024,0 0.065,0.02 0.124,0.06c0.059,0.04 0.094,0.05 0.106,0.03c0.024,0 0.056,-0.025 0.097,-0.075c0.042,-0.05 0.074,-0.095 0.098,-0.134l0.017,0c0.012,0 0.024,-0.01 0.036,-0.03l0.035,-0.06c0.012,-0.04 0.027,-0.124 0.044,-0.254c0.018,-0.129 0.033,-0.203 0.045,-0.223l0.017,-0.03c0.012,0 0.024,0.005 0.036,0.015c0.011,0.01 0.023,0.015 0.035,0.015l0.018,0c0.011,0 0.023,0.02 0.035,0.059c0.012,0.04 0.024,0.07 0.035,0.09c0.024,-0.08 0.083,-0.189 0.177,-0.328c0.095,-0.14 0.159,-0.229 0.195,-0.269c0,-0.02 0.017,-0.03 0.053,-0.03l0.159,0c0.035,0 0.053,0.01 0.053,0.03c0.024,0 0.059,0.07 0.106,0.209c0.047,0.139 0.077,0.219 0.089,0.239c0.023,0.039 0.067,0.119 0.132,0.238c0.065,0.12 0.109,0.199 0.133,0.239c0.023,-0.04 0.047,-0.094 0.071,-0.164c0.023,-0.07 0.035,-0.124 0.035,-0.164c0,-0.02 -0.012,-0.05 -0.035,-0.09c-0.024,-0.039 -0.048,-0.059 -0.071,-0.059c0,-0.02 0.015,-0.045 0.044,-0.075c0.03,-0.03 0.05,-0.065 0.062,-0.104l0.088,0c0.012,0.039 0.056,0.074 0.133,0.104c0.077,0.03 0.127,0.055 0.15,0.075l0.177,0c0.012,0 0.027,-0.02 0.044,-0.06c0.018,-0.04 0.033,-0.08 0.045,-0.119l0.07,0l0.39,0.716l0.672,-0.537l0.123,1.88l-0.442,0.418c0.012,0.02 -0.009,0.089 -0.062,0.209c-0.053,0.119 -0.091,0.199 -0.115,0.238c0,0.02 -0.006,0.03 -0.017,0.03l-0.036,0l-0.035,0c-0.012,0 -0.018,-0.01 -0.018,-0.03c-0.012,-0.02 -0.041,-0.044 -0.088,-0.074c-0.047,-0.03 -0.083,-0.045 -0.106,-0.045l-0.071,0.119c0,0.02 0.003,0.07 0.009,0.15c0.006,0.079 0.003,0.129 -0.009,0.149c0,0.04 -0.012,0.079 -0.035,0.119c-0.024,0.04 -0.042,0.06 -0.053,0.06c-0.012,0 -0.042,0.005 -0.089,0.015c-0.047,0.01 -0.082,0.015 -0.106,0.015c-0.024,0 -0.059,-0.005 -0.106,-0.015c-0.047,-0.01 -0.077,-0.015 -0.089,-0.015c-0.011,-0.02 -0.038,-0.07 -0.079,-0.149c-0.041,-0.08 -0.068,-0.13 -0.08,-0.15c-0.059,-0.059 -0.132,-0.124 -0.221,-0.194c-0.088,-0.069 -0.138,-0.104 -0.15,-0.104c-0.024,0 -0.068,0.065 -0.133,0.194c-0.065,0.129 -0.109,0.204 -0.132,0.224c0,0 -0.018,0 -0.053,0l-0.036,0c-0.023,0.02 -0.079,0.045 -0.168,0.074c-0.088,0.03 -0.186,0.065 -0.292,0.105c-0.106,0.04 -0.203,0.074 -0.291,0.104c-0.089,0.03 -0.145,0.045 -0.168,0.045l-0.266,0c-0.012,0 -0.041,0.025 -0.088,0.075c-0.047,0.049 -0.077,0.074 -0.089,0.074c-0.023,0.02 -0.067,0.035 -0.132,0.045c-0.065,0.01 -0.133,0.025 -0.204,0.045c-0.07,0.02 -0.138,0.035 -0.203,0.045c-0.065,0.009 -0.103,0.014 -0.115,0.014c-0.012,0 -0.038,0.01 -0.08,0.03c-0.041,0.02 -0.088,0.04 -0.141,0.06c-0.053,0.02 -0.103,0.04 -0.15,0.06c-0.047,0.02 -0.077,0.03 -0.089,0.03c-0.023,0 -0.059,-0.015 -0.106,-0.045c-0.047,-0.03 -0.1,-0.06 -0.159,-0.09c-0.059,-0.03 -0.115,-0.064 -0.168,-0.104c-0.053,-0.04 -0.086,-0.07 -0.097,-0.09l0,-0.597c0,-0.039 -0.012,-0.074 -0.036,-0.104c-0.023,-0.03 -0.041,-0.055 -0.053,-0.075c-0.012,-0.02 -0.026,-0.02 -0.044,0c-0.018,0.02 -0.038,0.03 -0.062,0.03l0,0.955c-0.023,0 -0.082,-0.005 -0.177,-0.015c-0.094,-0.01 -0.153,-0.025 -0.177,-0.045c-0.011,-0.019 -0.029,-0.039 -0.053,-0.059c-0.023,-0.02 -0.035,-0.05 -0.035,-0.09l-0.088,0.329l-1.203,0c-0.035,0.019 -0.065,0.039 -0.088,0.059c-0.012,0.02 -0.03,0.03 -0.054,0.03c-0.011,0 -0.023,0.01 -0.035,0.03l0,0.328c0.012,0.02 0.03,0.045 0.053,0.075c0.024,0.03 0.036,0.055 0.036,0.074c0.035,0.02 0.085,0.04 0.15,0.06c0.065,0.02 0.103,0.03 0.115,0.03l0,0.656c0,0.02 0.006,0.03 0.018,0.03l0.088,0c0.024,-0.02 0.056,-0.044 0.097,-0.074c0.041,-0.03 0.068,-0.055 0.08,-0.075l0.088,0c0.024,0.02 0.047,0.045 0.071,0.075c0.024,0.03 0.035,0.054 0.035,0.074l0,0.776c0.012,0 0.042,0.015 0.089,0.045c0.047,0.03 0.076,0.065 0.088,0.105l0,0.119c-0.012,0.06 -0.032,0.174 -0.062,0.343c-0.029,0.169 -0.044,0.274 -0.044,0.313c0,0.02 0.015,0.06 0.044,0.12c0.03,0.06 0.05,0.109 0.062,0.149c0.012,0.04 0.027,0.075 0.044,0.104c0.018,0.03 0.033,0.055 0.045,0.075l0,0.149c-0.012,0.02 -0.048,0.07 -0.107,0.15c-0.058,0.079 -0.088,0.139 -0.088,0.179l0,0.596c0,0.02 -0.026,0.09 -0.08,0.209c-0.053,0.12 -0.085,0.199 -0.097,0.239l0,0.299l0.177,-0.12c0,0.04 0.012,0.115 0.035,0.224c0.024,0.109 0.048,0.184 0.071,0.224l0.195,0c0.023,0 0.082,-0.015 0.177,-0.045c0.094,-0.03 0.153,-0.055 0.176,-0.075c0,-0.039 0.009,-0.074 0.027,-0.104c0.018,-0.03 0.032,-0.065 0.044,-0.104c0.024,-0.02 0.047,-0.07 0.071,-0.15c0.023,-0.079 0.041,-0.129 0.053,-0.149c0,0.02 0.009,0.055 0.026,0.105c0.018,0.049 0.033,0.074 0.045,0.074l0.283,0l0.07,0.12c0.024,0 0.045,0.005 0.062,0.014c0.018,0.01 0.039,0.015 0.062,0.015l0.036,0c0.011,0 0.017,-0.01 0.017,-0.029c0.024,0 0.059,-0.045 0.106,-0.135c0.048,-0.089 0.083,-0.144 0.106,-0.164c0,0 0.012,-0.01 0.036,-0.03c0.012,0 0.023,0.01 0.035,0.03c0.024,0.02 0.071,0.075 0.142,0.164c0.07,0.09 0.112,0.135 0.124,0.135c0.011,0.019 0.044,0.024 0.097,0.014c0.053,-0.009 0.085,-0.014 0.097,-0.014c0.012,0.039 0.03,0.094 0.053,0.164c0.024,0.069 0.035,0.124 0.035,0.164l0.743,0c0.012,0 0.03,-0.045 0.053,-0.134c0.024,-0.09 0.036,-0.155 0.036,-0.194l0,-0.597c0,0.02 0.011,0.049 0.035,0.089c0.024,0.04 0.041,0.06 0.053,0.06c0.024,0.04 0.071,0.099 0.142,0.179c0.07,0.08 0.112,0.129 0.123,0.149c0.012,0.02 0.03,0.045 0.053,0.075c0.024,0.03 0.042,0.045 0.054,0.045c0,0.039 0.011,0.124 0.035,0.253c0.023,0.13 0.041,0.204 0.053,0.224c0,0.02 0.024,0.045 0.071,0.075c0.047,0.03 0.082,0.064 0.106,0.104l0,0.149c-0.012,0 -0.027,0.015 -0.044,0.045c-0.018,0.03 -0.033,0.055 -0.045,0.075c-0.011,0.02 -0.026,0.079 -0.044,0.179c-0.018,0.099 -0.032,0.149 -0.044,0.149c-0.024,0.02 -0.05,0.01 -0.08,-0.03c-0.029,-0.04 -0.05,-0.06 -0.062,-0.06c0,0.02 -0.011,0.085 -0.035,0.194c-0.023,0.11 -0.029,0.185 -0.018,0.224c0.012,0.02 0.042,0.065 0.089,0.135c0.047,0.069 0.082,0.114 0.106,0.134c-0.024,0.02 -0.056,0.055 -0.097,0.104c-0.042,0.05 -0.074,0.075 -0.098,0.075c-0.011,0.02 -0.053,0.025 -0.123,0.015c-0.071,-0.01 -0.118,-0.015 -0.142,-0.015c-0.012,0 -0.041,0.025 -0.088,0.075c-0.047,0.049 -0.077,0.074 -0.089,0.074l-0.371,0c-0.024,0 -0.083,0.02 -0.177,0.06c-0.094,0.04 -0.159,0.07 -0.195,0.089c-0.023,0.02 -0.079,0.06 -0.168,0.12c-0.088,0.059 -0.182,0.124 -0.282,0.194c-0.101,0.069 -0.195,0.134 -0.283,0.194c-0.089,0.059 -0.139,0.099 -0.151,0.119c-0.023,0.02 -0.088,0.045 -0.194,0.075c-0.106,0.03 -0.171,0.054 -0.195,0.074c-0.059,0.02 -0.156,0.07 -0.292,0.15c-0.135,0.079 -0.215,0.129 -0.238,0.149c-0.048,0.04 -0.083,0.099 -0.107,0.179c-0.011,0 -0.023,0.06 -0.035,0.179c-0.012,0.119 -0.023,0.199 -0.035,0.239c0,0.039 -0.015,0.144 -0.044,0.313c-0.03,0.169 -0.051,0.274 -0.062,0.313c-0.012,0.02 -0.03,0.05 -0.053,0.09c-0.024,0.04 -0.036,0.07 -0.036,0.089c-0.012,0.04 -0.018,0.09 -0.018,0.15l0,0.209c0,0.039 0.003,0.104 0.009,0.194c0.006,0.089 0.009,0.154 0.009,0.194c0.024,0 0.056,0.019 0.097,0.059c0.042,0.04 0.074,0.07 0.098,0.09l0.265,0.447l0.071,0.03l0.053,0c0.012,0 0.023,-0.01 0.035,-0.03c0.012,0 0.033,-0.019 0.062,-0.059c0.03,-0.04 0.05,-0.06 0.062,-0.06l0.071,0c0.012,0 0.05,0.03 0.115,0.09c0.065,0.059 0.132,0.124 0.203,0.194c0.071,0.069 0.139,0.134 0.203,0.194c0.065,0.059 0.109,0.099 0.133,0.119c0.012,0.02 0.041,0.045 0.088,0.075c0.048,0.029 0.071,0.064 0.071,0.104c0.024,0.02 0.047,0.094 0.071,0.224c0.024,0.129 0.035,0.214 0.035,0.253c0.012,-0.039 0.039,-0.104 0.08,-0.194c0.041,-0.089 0.068,-0.134 0.08,-0.134c0.047,-0.02 0.112,-0.015 0.194,0.015c0.083,0.03 0.136,0.045 0.159,0.045l0.036,-0.209l-0.107,-0.179c-0.023,-0.02 -0.07,-0.07 -0.141,-0.149c-0.071,-0.08 -0.118,-0.12 -0.141,-0.12c0.011,-0.039 0.041,-0.084 0.088,-0.134c0.047,-0.05 0.082,-0.075 0.106,-0.075c0.012,0 0.041,0.03 0.088,0.09c0.048,0.06 0.083,0.099 0.107,0.119l0.088,0c0.024,-0.02 0.062,-0.049 0.115,-0.089c0.053,-0.04 0.091,-0.08 0.115,-0.12l0,0.567c0.012,0.02 0.029,0.04 0.053,0.06c0.035,0.04 0.065,0.05 0.088,0.03c0.012,-0.02 0.039,-0.08 0.08,-0.179c0.041,-0.1 0.074,-0.149 0.097,-0.149l0.177,0c0.024,0 0.041,0.02 0.053,0.059c0.012,0.04 0.024,0.07 0.036,0.09c-0.012,0.02 -0.027,0.045 -0.045,0.075c-0.017,0.029 -0.032,0.064 -0.044,0.104c-0.012,0.02 -0.029,0.065 -0.053,0.134c-0.024,0.07 -0.035,0.115 -0.035,0.135l0,0.328l0.088,0.149l0.089,0l0.053,-0.089c0.011,-0.02 0.029,-0.04 0.053,-0.06c0.011,-0.04 0.023,-0.144 0.035,-0.314c0.012,-0.169 0.024,-0.263 0.035,-0.283c0.012,-0.04 0.048,-0.075 0.107,-0.104c0.058,-0.03 0.088,-0.055 0.088,-0.075c0.012,-0.04 0.029,-0.129 0.053,-0.269c0.024,-0.139 0.035,-0.228 0.035,-0.268l0.814,0l0.194,-0.388l0.743,0c0,0.04 0.006,0.114 0.018,0.224c0.012,0.109 0.029,0.184 0.053,0.223c0.012,0.04 0.053,0.095 0.124,0.165c0.071,0.069 0.118,0.124 0.141,0.164l0.195,0c0.012,0 0.026,0.02 0.044,0.059c0.018,0.04 0.032,0.07 0.044,0.09c0.012,0.02 0.012,0.079 0,0.179c-0.012,0.099 -0.012,0.149 0,0.149c0.012,0 0.056,0.015 0.133,0.045c0.077,0.03 0.121,0.055 0.133,0.075c0.011,0.039 0.029,0.144 0.053,0.313c0.023,0.169 0.041,0.274 0.053,0.313c0.011,0.04 0.038,0.095 0.079,0.164c0.041,0.07 0.074,0.125 0.097,0.165l0.089,-0.15c-0.024,-0.039 -0.056,-0.119 -0.097,-0.238c-0.042,-0.12 -0.074,-0.199 -0.098,-0.239l0,-0.06l0,-0.06c0.024,-0.119 0.045,-0.278 0.062,-0.477c0.018,-0.199 0.033,-0.308 0.044,-0.328c0.024,-0.04 0.054,-0.095 0.089,-0.164c0.035,-0.07 0.065,-0.125 0.088,-0.165c0.012,-0.019 0.036,-0.034 0.071,-0.044c0.035,-0.01 0.065,-0.015 0.089,-0.015c0,0.02 0.005,0.079 0.017,0.179c0.012,0.099 0.018,0.169 0.018,0.209c0,0.02 0.009,0.044 0.026,0.074c0.018,0.03 0.033,0.055 0.045,0.075l0.123,0c0.024,-0.08 0.065,-0.199 0.124,-0.358c0.059,-0.159 0.115,-0.289 0.168,-0.388c0.053,-0.1 0.092,-0.125 0.115,-0.075c0.024,0.05 0.006,0.234 -0.053,0.552l0,0.925c0.083,-0.139 0.145,-0.198 0.186,-0.179c0.041,0.02 0.062,0.085 0.062,0.194c0,0.11 -0.024,0.249 -0.071,0.418c-0.047,0.169 -0.106,0.324 -0.177,0.463c-0.012,0.059 -0.026,0.164 -0.044,0.313c-0.018,0.149 -0.038,0.244 -0.062,0.284c-0.012,0.039 -0.038,0.099 -0.08,0.179c-0.041,0.079 -0.088,0.159 -0.141,0.238c-0.053,0.08 -0.1,0.155 -0.142,0.224c-0.041,0.07 -0.067,0.115 -0.079,0.135l0,0.149l0.194,0l-0.194,0.627l-0.743,0c0,-0.04 -0.026,-0.105 -0.079,-0.194c-0.054,-0.09 -0.086,-0.135 -0.098,-0.135l-0.353,0c-0.024,0 -0.059,-0.049 -0.107,-0.149c-0.047,-0.099 -0.076,-0.149 -0.088,-0.149l-0.088,0l0,0.686c-0.024,0 -0.083,-0.01 -0.177,-0.03c-0.095,-0.019 -0.165,-0.029 -0.213,-0.029c-0.023,0 -0.103,-0.045 -0.238,-0.135c-0.136,-0.089 -0.233,-0.154 -0.292,-0.194c-0.012,0 -0.027,-0.02 -0.044,-0.059c-0.018,-0.04 -0.027,-0.07 -0.027,-0.09c-0.012,0 -0.015,-0.045 -0.009,-0.134c0.006,-0.09 0.009,-0.144 0.009,-0.164c0,-0.06 -0.041,-0.11 -0.124,-0.15c-0.023,0 -0.053,-0.024 -0.088,-0.074c-0.035,-0.05 -0.059,-0.075 -0.071,-0.075l-0.053,0l-0.053,0c0,0.06 -0.012,0.164 -0.035,0.314c-0.024,0.149 -0.042,0.243 -0.053,0.283c-0.012,0.02 -0.024,0.05 -0.036,0.09c-0.011,0.039 -0.023,0.059 -0.035,0.059c-0.047,0.04 -0.115,0.1 -0.203,0.179c-0.089,0.08 -0.145,0.13 -0.168,0.15c-0.012,-0.02 -0.03,-0.07 -0.054,-0.15c-0.023,-0.079 -0.041,-0.139 -0.053,-0.179c-0.011,-0.02 -0.023,-0.044 -0.035,-0.074c-0.012,-0.03 -0.024,-0.055 -0.035,-0.075l-0.071,0l-0.035,0Zm1.75,0.149l0.089,0c0,-0.059 -0.012,-0.109 -0.036,-0.149l-0.053,-0.149l0,0.298Zm-5.853,-0.597c-0.048,0 -0.071,0.05 -0.071,0.15c0,0.099 0.023,0.149 0.071,0.149c0.047,0 0.07,-0.05 0.07,-0.149c0,-0.1 -0.023,-0.15 -0.07,-0.15Zm6.932,-0.149c-0.047,0 -0.071,0.05 -0.071,0.149c0,0.1 0.024,0.15 0.071,0.15c0.047,0 0.071,-0.05 0.071,-0.15c0,-0.099 -0.024,-0.149 -0.071,-0.149Zm1.468,0c0.036,0 0.053,0.05 0.053,0.149c0,0.1 -0.017,0.15 -0.053,0.15c-0.059,0 -0.088,-0.05 -0.088,-0.15c0,-0.099 0.029,-0.149 0.088,-0.149Zm-0.283,-1.552l0.089,-0.149l-0.16,0.209l0.071,-0.06Zm-1.273,0c0.012,0 0.026,-0.025 0.044,-0.074c0.018,-0.05 0.032,-0.075 0.044,-0.075l0,-0.03c0,-0.02 0.003,-0.03 0.009,-0.03c0.006,0 0.009,-0.01 0.009,-0.029l0,-0.06l-0.106,0l0,0.298Zm1.008,0l0.071,-0.149l-0.071,-0.149l0,0.298Zm0.902,-1.223c0,-0.02 -0.015,-0.07 -0.044,-0.15c-0.03,-0.079 -0.045,-0.139 -0.045,-0.179c-0.011,-0.039 -0.02,-0.119 -0.026,-0.238c-0.006,-0.12 -0.009,-0.199 -0.009,-0.239c0.024,0 0.086,0.005 0.186,0.015c0.1,0.01 0.162,0.015 0.185,0.015c0.024,0 0.056,-0.015 0.098,-0.045c0.041,-0.03 0.062,-0.025 0.062,0.015c0.047,0.219 0.026,0.358 -0.062,0.418c-0.089,0.059 -0.139,0.079 -0.151,0.059l-0.017,0.09l0.017,0.119c0.071,0.06 0.136,0.12 0.195,0.179c0.059,0.04 0.106,0.085 0.141,0.135c0.036,0.049 0.059,0.084 0.071,0.104c-0.047,0.04 -0.088,0.08 -0.124,0.12l-0.106,0.119l0,0.06c-0.012,0.059 -0.032,0.129 -0.062,0.208c-0.029,0.08 -0.05,0.12 -0.062,0.12c-0.023,0 -0.067,-0.02 -0.132,-0.06c-0.065,-0.04 -0.103,-0.06 -0.115,-0.06l0,-0.805Zm-5.465,0.477c-0.047,0 -0.071,0.055 -0.071,0.164c0,0.11 0.024,0.164 0.071,0.164c0.035,0 0.053,-0.054 0.053,-0.164c0,-0.109 -0.018,-0.164 -0.053,-0.164Zm-3.449,0c0.012,-0.059 -0.006,-0.089 -0.053,-0.089c-0.047,0 -0.07,0.03 -0.07,0.089c0.011,0.04 0.032,0.06 0.061,0.06c0.03,0 0.051,-0.02 0.062,-0.06Zm9.922,-1.731c0,0.02 0,0.05 0,0.09c0,0.04 -0.006,0.079 -0.018,0.119l-0.035,0.12c-0.012,0.019 -0.018,0.049 -0.018,0.089c0,0.02 -0.006,0.04 -0.018,0.06l0,0.776c-0.011,0.039 -0.041,0.099 -0.088,0.179c-0.047,0.079 -0.082,0.129 -0.106,0.149c0,-0.06 -0.009,-0.154 -0.027,-0.284c-0.017,-0.129 -0.038,-0.268 -0.061,-0.417c-0.024,-0.15 -0.045,-0.289 -0.062,-0.418c-0.018,-0.129 -0.033,-0.214 -0.045,-0.254l0,-0.209l0.478,0Zm-2.653,0.806c0.024,0.04 0.024,0.08 0,0.119c-0.023,0.04 -0.053,0.04 -0.088,0c-0.036,-0.019 -0.033,-0.054 0.009,-0.104c0.041,-0.05 0.067,-0.055 0.079,-0.015Zm0.265,0c0.059,0 0.089,0.055 0.089,0.164c0,0.11 -0.03,0.164 -0.089,0.164c-0.035,0 -0.053,-0.054 -0.053,-0.164c0,-0.109 0.018,-0.164 0.053,-0.164Zm-2.723,-4.626c0.059,0 0.088,0.055 0.088,0.164c0,0.11 -0.029,0.165 -0.088,0.165c-0.047,0 -0.071,-0.055 -0.071,-0.165c0,-0.109 0.024,-0.164 0.071,-0.164Zm-1.291,0l0.106,0l0,-0.268l-0.106,0l0,0.268Zm1.273,-1.522c0,-0.02 0.003,-0.069 0.009,-0.149c0.006,-0.08 0.009,-0.139 0.009,-0.179c0.047,0.04 0.115,0.114 0.203,0.224c0.089,0.109 0.145,0.184 0.168,0.224c0.012,0.039 0.03,0.164 0.053,0.373c0.024,0.209 0.036,0.333 0.036,0.373c-0.012,0 -0.056,-0.01 -0.133,-0.03c-0.077,-0.02 -0.127,-0.04 -0.15,-0.06c-0.012,-0.04 -0.027,-0.099 -0.045,-0.179c-0.017,-0.08 -0.026,-0.129 -0.026,-0.149c-0.024,-0.02 -0.041,-0.04 -0.053,-0.06c-0.036,-0.02 -0.053,-0.04 -0.053,-0.06c0,-0.039 -0.003,-0.094 -0.009,-0.164c-0.006,-0.069 -0.009,-0.124 -0.009,-0.164Zm0.743,0.448c0.023,0.04 0.035,0.094 0.035,0.164c0,0.07 -0.012,0.124 -0.035,0.164c-0.024,0.02 -0.035,-0.035 -0.035,-0.164c0,-0.129 0.011,-0.184 0.035,-0.164Zm0,-0.776c0.023,0.02 0.035,0.045 0.035,0.075c0,0.029 -0.012,0.054 -0.035,0.074c-0.024,0.02 -0.035,-0.005 -0.035,-0.074c0,-0.07 0.011,-0.095 0.035,-0.075Zm0.477,0c0.024,0 0.036,0.055 0.036,0.164c0,0.109 -0.012,0.164 -0.036,0.164c-0.059,0 -0.088,-0.055 -0.088,-0.164c0,-0.109 0.029,-0.164 0.088,-0.164Zm-0.672,-0.149l-0.07,0l0,-0.15l0.07,0.15Zm-4.722,-1.075c-0.047,0 -0.07,0.055 -0.07,0.164c0,0.11 0.023,0.165 0.07,0.165c0.048,0 0.071,-0.055 0.071,-0.165c0,-0.109 -0.023,-0.164 -0.071,-0.164Zm4.722,-4.476c0.059,0 0.089,0.054 0.089,0.164c0,0.109 -0.03,0.164 -0.089,0.164c-0.035,0 -0.053,-0.055 -0.053,-0.164c0,-0.11 0.018,-0.164 0.053,-0.164Zm-6.19,-0.299c0,-0.039 0.024,-0.119 0.071,-0.238c0.047,-0.12 0.083,-0.189 0.106,-0.209c0.024,0.039 0.045,0.139 0.062,0.298c0.018,0.159 0.039,0.269 0.062,0.328l0.018,0.179c-0.047,0 -0.095,-0.019 -0.142,-0.059c-0.023,-0.02 -0.059,-0.07 -0.106,-0.149c-0.047,-0.08 -0.071,-0.13 -0.071,-0.15Zm8.03,-0.328c0.035,-0.02 0.097,-0.085 0.185,-0.194c0.089,-0.109 0.145,-0.194 0.168,-0.254c0.024,0 0.045,-0.02 0.062,-0.059c0.018,-0.04 0.033,-0.07 0.044,-0.09c0.024,-0.02 0.045,-0.074 0.062,-0.164c0.018,-0.09 0.027,-0.144 0.027,-0.164c-0.035,-0.1 -0.071,-0.189 -0.106,-0.269c-0.024,-0.079 -0.047,-0.159 -0.071,-0.238c-0.024,-0.08 -0.029,-0.15 -0.018,-0.209c-0.165,0.119 -0.2,0.114 -0.106,-0.015c0.095,-0.13 0.224,-0.264 0.389,-0.403l-0.283,-0.209c-0.011,0 0.018,-0.02 0.089,-0.06c0.035,-0.02 0.071,-0.05 0.106,-0.089c0,-0.04 0.026,-0.12 0.08,-0.239c0.053,-0.119 0.085,-0.189 0.097,-0.209c0,-0.04 0.006,-0.095 0.017,-0.164c0.012,-0.07 0.018,-0.124 0.018,-0.164l0.265,0l0,0.119c-0.011,0.04 -0.035,0.119 -0.07,0.239c-0.036,0.119 -0.053,0.199 -0.053,0.239c0,0.079 0.041,0.139 0.123,0.179l0.071,0c0.012,-0.02 0.027,-0.045 0.044,-0.075c0.018,-0.03 0.033,-0.065 0.045,-0.104c0.011,-0.04 0.029,-0.09 0.053,-0.15c0.023,-0.059 0.035,-0.099 0.035,-0.119c0.012,0.02 0.029,0.06 0.053,0.119c0.024,0.06 0.041,0.11 0.053,0.15c0,0.119 0.024,0.179 0.071,0.179c0.023,0 0.074,-0.03 0.15,-0.09c0.077,-0.06 0.121,-0.089 0.133,-0.089c0,0.039 0.012,0.099 0.035,0.179c0.024,0.079 0.041,0.129 0.053,0.149l0.159,0c0.036,-0.02 0.104,-0.08 0.204,-0.179c0.1,-0.1 0.162,-0.149 0.186,-0.149c0.047,0.039 0.141,0.114 0.282,0.223c0.142,0.11 0.23,0.194 0.266,0.254l-0.46,0c0,0.06 -0.003,0.164 -0.009,0.313c-0.006,0.15 -0.015,0.304 -0.026,0.463c-0.012,0.159 -0.024,0.308 -0.036,0.448c-0.012,0.139 -0.017,0.238 -0.017,0.298c-0.012,0.02 -0.027,0.075 -0.045,0.164c-0.017,0.09 -0.038,0.145 -0.062,0.164c0,-0.019 -0.011,-0.044 -0.035,-0.074c-0.024,-0.03 -0.035,-0.065 -0.035,-0.105c-0.012,-0.02 -0.015,-0.094 -0.009,-0.223c0.006,-0.13 0.009,-0.214 0.009,-0.254c-0.012,-0.02 -0.03,-0.11 -0.053,-0.269c-0.024,-0.159 -0.036,-0.258 -0.036,-0.298c-0.012,-0.04 -0.029,-0.105 -0.053,-0.194c-0.023,-0.09 -0.047,-0.144 -0.071,-0.164l-0.035,0l-0.018,0c-0.011,0.039 -0.026,0.124 -0.044,0.253c-0.018,0.13 -0.038,0.204 -0.062,0.224c-0.012,0.04 -0.056,0.125 -0.132,0.254c-0.077,0.129 -0.121,0.194 -0.133,0.194l0,0.656c0.012,0.02 0.027,0.05 0.044,0.09c0.018,0.04 0.033,0.06 0.044,0.06c-0.011,0.039 -0.041,0.094 -0.088,0.164c-0.047,0.069 -0.083,0.124 -0.106,0.164l-0.053,0l-0.018,0c-0.012,-0.04 -0.044,-0.1 -0.097,-0.179c-0.053,-0.08 -0.086,-0.129 -0.097,-0.149c-0.012,0 -0.042,0.015 -0.089,0.044c-0.047,0.03 -0.071,0.055 -0.071,0.075c-0.023,0.04 -0.059,0.124 -0.106,0.254c-0.047,0.129 -0.076,0.214 -0.088,0.253l-0.053,0l-0.053,0c-0.012,0 -0.027,-0.029 -0.044,-0.089c-0.018,-0.06 -0.033,-0.09 -0.045,-0.09c-0.023,-0.02 -0.085,-0.02 -0.185,0c-0.101,0.02 -0.157,0.02 -0.168,0c-0.012,0 -0.042,-0.01 -0.089,-0.03c-0.047,-0.019 -0.082,-0.049 -0.106,-0.089c-0.012,-0.02 -0.029,-0.05 -0.053,-0.09c-0.024,-0.039 -0.035,-0.079 -0.035,-0.119Zm-2.211,0.179c0,0.02 0.006,0.03 0.018,0.03c0,0.02 0.011,0.04 0.035,0.06c0.024,0.02 0.041,0.039 0.053,0.059c0.024,-0.02 0.047,-0.064 0.071,-0.134c0.023,-0.07 0.035,-0.134 0.035,-0.194c0,-0.08 -0.035,-0.119 -0.106,-0.119c-0.012,0.02 -0.021,0.029 -0.026,0.029c-0.006,0 -0.015,0.01 -0.027,0.03l-0.035,0.06l-0.018,0.119l0,0.06Zm-5.288,-0.895c0,-0.04 0.006,-0.08 0.018,-0.12c0.012,-0.039 0.017,-0.069 0.017,-0.089c0.024,0.04 0.083,0.119 0.177,0.239c0.095,0.119 0.154,0.199 0.177,0.238c0.012,0.04 0.03,0.115 0.053,0.224c0.024,0.11 0.036,0.184 0.036,0.224l0,0.239l-0.036,0l-0.035,0c-0.012,0 -0.018,-0.01 -0.018,-0.03c0,-0.02 -0.009,-0.05 -0.026,-0.09c-0.018,-0.039 -0.033,-0.079 -0.045,-0.119c-0.011,0 -0.032,-0.04 -0.062,-0.119c-0.029,-0.08 -0.05,-0.13 -0.061,-0.15c0,-0.019 -0.027,-0.074 -0.08,-0.164c-0.053,-0.089 -0.08,-0.144 -0.08,-0.164c-0.011,0 -0.017,-0.01 -0.017,-0.03c-0.012,-0.02 -0.018,-0.049 -0.018,-0.089Zm1.662,0.925c0.012,-0.02 0.03,-0.05 0.054,-0.09c0.023,-0.039 0.041,-0.079 0.053,-0.119l0,-0.119l0,-0.15c-0.012,-0.019 -0.03,-0.044 -0.053,-0.074c-0.024,-0.03 -0.042,-0.065 -0.054,-0.105l0,0.657Zm6.562,-1.134c0,0.02 0.015,0.055 0.044,0.104c0.029,0.05 0.05,0.085 0.062,0.105l0.194,-0.657l0,-0.059l0,-0.06c-0.011,-0.02 -0.032,-0.045 -0.061,-0.075c-0.03,-0.03 -0.051,-0.054 -0.062,-0.074c-0.012,0.039 -0.039,0.139 -0.08,0.298c-0.041,0.159 -0.074,0.269 -0.097,0.328l0,0.09Zm1.096,0c0.059,0 0.089,0.055 0.089,0.164c0,0.109 -0.03,0.164 -0.089,0.164c-0.047,0 -0.07,-0.055 -0.07,-0.164c0,-0.109 0.023,-0.164 0.07,-0.164Zm-7.551,-0.09l0,-0.179l-0.107,0l0.107,0.179Zm5.907,-0.358c-0.024,0 -0.036,0.035 -0.036,0.105c0,0.069 0.012,0.094 0.036,0.074c0.035,-0.02 0.053,-0.049 0.053,-0.089c0,-0.04 -0.018,-0.07 -0.053,-0.09Zm1.803,0c0.059,0 0.089,0.06 0.089,0.179c0,0.12 -0.03,0.179 -0.089,0.179c-0.023,0 -0.035,-0.059 -0.035,-0.179c0,-0.119 0.012,-0.179 0.035,-0.179Zm-7.074,-0.268c-0.059,0 -0.088,0.044 -0.088,0.134c0,0.089 0.029,0.134 0.088,0.134c0.047,0 0.071,-0.045 0.071,-0.134c0,-0.09 -0.024,-0.134 -0.071,-0.134Zm2.547,-0.209c0,0.039 0.012,0.079 0.035,0.119c0.024,0.04 0.042,0.07 0.053,0.09c0.036,-0.06 0.065,-0.13 0.089,-0.209l0,-0.12c0,-0.039 0.003,-0.069 0.009,-0.089c0.006,-0.02 0.008,-0.04 0.008,-0.06l-0.106,0c-0.011,0.02 -0.029,0.045 -0.053,0.075c-0.023,0.03 -0.035,0.064 -0.035,0.104l0,0.09Zm0.637,0c0.011,-0.04 -0.003,-0.06 -0.045,-0.06c-0.041,0 -0.056,0.02 -0.044,0.06c0,0.059 0.012,0.089 0.036,0.089c0.023,0 0.041,-0.03 0.053,-0.089Zm0.53,-0.09c-0.035,0 -0.053,0.05 -0.053,0.149c0,0.1 0.018,0.15 0.053,0.15c0.059,0 0.089,-0.05 0.089,-0.15c0,-0.099 -0.03,-0.149 -0.089,-0.149Zm-3.979,-0.806c0.024,0 0.035,0.02 0.035,0.06c0,0.04 -0.011,0.07 -0.035,0.09c-0.047,0.039 -0.071,0.024 -0.071,-0.045c0,-0.07 0.024,-0.105 0.071,-0.105Z" style="fill-rule:nonzero;"/><path d="M64.655,86.305c0,-0.02 -0.003,-0.04 -0.009,-0.06c-0.005,-0.02 -0.008,-0.04 -0.008,-0.06l0,-0.059c0,-0.04 -0.009,-0.105 -0.027,-0.194c-0.018,-0.09 -0.038,-0.154 -0.062,-0.194c0,-0.04 -0.02,-0.11 -0.062,-0.209c-0.041,-0.1 -0.062,-0.159 -0.062,-0.179l0,-0.09c-0.011,-0.059 -0.026,-0.139 -0.044,-0.238c-0.018,-0.1 -0.032,-0.16 -0.044,-0.179c0,-0.02 -0.032,-0.095 -0.097,-0.224c-0.065,-0.13 -0.103,-0.214 -0.115,-0.254c-0.012,-0.04 -0.018,-0.08 -0.018,-0.119l0,-0.179l0,-0.209c0,-0.04 0.006,-0.08 0.018,-0.12c0,-0.02 0.017,-0.079 0.053,-0.179c0.035,-0.099 0.065,-0.169 0.088,-0.209c0.012,0 0.03,-0.02 0.053,-0.059l0.018,-0.03c0.024,-0.04 0.085,-0.075 0.186,-0.105c0.1,-0.03 0.162,-0.044 0.185,-0.044c0.024,-0.02 0.062,-0.04 0.115,-0.06c0.053,-0.02 0.092,-0.04 0.115,-0.06l0.213,0c0.023,0 0.061,-0.02 0.114,-0.059c0.054,-0.04 0.092,-0.06 0.115,-0.06l0.071,-0.12c0.047,-0.079 0.071,-0.119 0.071,-0.119c0.023,-0.02 0.085,-0.045 0.186,-0.075c0.1,-0.029 0.162,-0.054 0.185,-0.074c0.012,0 0.047,-0.02 0.106,-0.06c0.059,-0.04 0.095,-0.06 0.107,-0.06l0.442,0c0.011,0.02 0.035,0.085 0.07,0.194c0.036,0.11 0.065,0.175 0.089,0.194l0.159,0c0,-0.019 0.018,-0.059 0.053,-0.119c0.035,-0.06 0.059,-0.109 0.071,-0.149c0.012,-0.02 0.023,-0.075 0.035,-0.164c0.012,-0.09 0.024,-0.154 0.036,-0.194l0.141,-0.12c0.024,-0.02 0.062,-0.064 0.115,-0.134c0.053,-0.07 0.091,-0.104 0.115,-0.104l0.141,0.119c0.012,0.02 0.027,0.045 0.045,0.075c0.017,0.029 0.032,0.044 0.044,0.044c0.012,0 0.035,-0.015 0.071,-0.044c0.035,-0.03 0.059,-0.055 0.07,-0.075c0.012,0 0.05,-0.02 0.115,-0.06c0.065,-0.04 0.103,-0.059 0.115,-0.059c0.012,-0.04 0.059,-0.09 0.142,-0.15c0.082,-0.059 0.135,-0.099 0.159,-0.119c0.012,0 0.056,0.005 0.133,0.015c0.076,0.01 0.126,0.005 0.15,-0.015l0.035,-0.06c0.024,-0.039 0.036,-0.069 0.036,-0.089l0.07,0c0,0.02 0.024,0.05 0.071,0.089l0.071,0.06l0.159,0c0,0.02 0.021,0.045 0.062,0.075c0.041,0.029 0.074,0.044 0.097,0.044l0.708,0c0.035,0 0.1,-0.034 0.194,-0.104c0.094,-0.07 0.159,-0.124 0.195,-0.164c0.011,-0.02 0.023,-0.05 0.035,-0.09c0.024,-0.079 0.035,-0.119 0.035,-0.119c0.012,0 0.036,0.02 0.071,0.06c0.036,0.039 0.059,0.059 0.071,0.059l0.071,0c0.011,-0.02 0.038,-0.059 0.079,-0.119c0.041,-0.06 0.062,-0.1 0.062,-0.12c0.012,0 0.018,-0.009 0.018,-0.029c0,-0.02 0.006,-0.03 0.017,-0.03c0,0.04 0.006,0.129 0.018,0.268c0.012,0.14 0.024,0.229 0.036,0.269c0,0.04 0.017,0.095 0.053,0.164c0.035,0.07 0.059,0.105 0.07,0.105l0.902,0c0.024,-0.08 0.062,-0.214 0.115,-0.403c0.053,-0.189 0.092,-0.304 0.115,-0.344c0,-0.039 0.018,-0.089 0.053,-0.149l0.089,0c0.047,0.04 0.126,0.075 0.238,0.105c0.112,0.03 0.18,0.044 0.204,0.044c0.012,0.02 0.047,0.045 0.106,0.075c0.059,0.03 0.094,0.045 0.106,0.045l0.389,0c0,0.04 0.006,0.079 0.018,0.119c0.012,0.04 0.023,0.07 0.035,0.09c0,0.04 0.012,0.149 0.036,0.328c0.023,0.179 0.035,0.289 0.035,0.328c0.012,0.02 0.05,0.08 0.115,0.179c0.065,0.1 0.097,0.16 0.097,0.179c0.024,0.04 0.059,0.11 0.106,0.209c0.047,0.1 0.071,0.16 0.071,0.179l-0.088,0.239c0,0.04 0.029,0.08 0.088,0.12l0.124,0.059l0,0.806c0.047,0.04 0.071,0.09 0.071,0.149c0.011,0.02 0.026,0.06 0.044,0.12c0.017,0.059 0.032,0.099 0.044,0.119l0.035,0.03c0,0 0.012,-0.01 0.036,-0.03c0.012,-0.04 0.035,-0.124 0.07,-0.254c0.036,-0.129 0.059,-0.214 0.071,-0.253c0.012,-0.04 0.039,-0.09 0.08,-0.15c0.041,-0.059 0.068,-0.089 0.079,-0.089l0.142,0c0,0.04 -0.012,0.124 -0.036,0.254c-0.023,0.129 -0.041,0.213 -0.053,0.253c-0.011,0.04 -0.035,0.125 -0.07,0.254c-0.036,0.129 -0.059,0.204 -0.071,0.224c0,0.04 -0.012,0.109 -0.035,0.209c-0.024,0.099 -0.036,0.159 -0.036,0.179c-0.012,0.04 -0.044,0.069 -0.097,0.089c-0.053,0.02 -0.091,0.03 -0.115,0.03c-0.024,-0.02 -0.05,-0.065 -0.08,-0.134c-0.029,-0.07 -0.056,-0.115 -0.079,-0.134c-0.024,-0.02 -0.068,-0.035 -0.133,-0.045c-0.065,-0.01 -0.109,-0.015 -0.132,-0.015c0,-0.04 -0.012,-0.1 -0.036,-0.179c0,-0.02 -0.006,-0.04 -0.018,-0.06l-0.035,-0.06l-0.035,0l-0.053,0c-0.012,0 -0.036,0.02 -0.071,0.06c-0.035,0.04 -0.059,0.06 -0.071,0.06l-0.035,0l-0.018,0c-0.035,0 -0.079,-0.02 -0.133,-0.06c-0.053,-0.04 -0.091,-0.06 -0.114,-0.06c-0.048,0 -0.071,-0.039 -0.071,-0.119c0.023,0 0.053,-0.015 0.088,-0.045c0.036,-0.03 0.059,-0.054 0.071,-0.074c0.012,-0.04 0.026,-0.085 0.044,-0.135c0.018,-0.049 0.027,-0.094 0.027,-0.134c0,-0.02 -0.009,-0.04 -0.027,-0.06c-0.018,-0.02 -0.032,-0.039 -0.044,-0.059l-0.088,0l-0.071,0c-0.012,0.02 -0.044,0.094 -0.097,0.223c-0.054,0.13 -0.092,0.224 -0.115,0.284c0,0 -0.012,0.04 -0.036,0.119l-0.035,0.12c-0.012,0.02 -0.027,0.045 -0.044,0.074c-0.018,0.03 -0.027,0.055 -0.027,0.075c-0.012,-0.04 -0.035,-0.095 -0.071,-0.164c-0.035,-0.07 -0.065,-0.105 -0.088,-0.105l-0.018,0l-0.053,0c0,0.02 -0.012,0.08 -0.035,0.179c-0.024,0.1 -0.036,0.16 -0.036,0.18c-0.023,0.039 -0.061,0.109 -0.115,0.208c-0.053,0.1 -0.085,0.17 -0.097,0.209c-0.012,-0.039 -0.038,-0.089 -0.079,-0.149c-0.042,-0.06 -0.068,-0.099 -0.08,-0.119l-0.035,0c-0.012,0 -0.024,-0.005 -0.036,-0.015c-0.011,-0.01 -0.023,-0.015 -0.035,-0.015c-0.024,0 -0.044,0.005 -0.062,0.015c-0.018,0.01 -0.032,0.015 -0.044,0.015l-0.159,0.268l-0.036,0.12c-0.012,0.02 -0.017,0.039 -0.017,0.059c0,0.02 -0.006,0.03 -0.018,0.03c0,0 -0.012,0 -0.035,0l-0.036,0c-0.012,0.02 -0.047,0.05 -0.106,0.09c-0.059,0.04 -0.094,0.059 -0.106,0.059c-0.012,0 -0.038,-0.024 -0.08,-0.074c-0.041,-0.05 -0.067,-0.075 -0.079,-0.075c-0.012,0 -0.059,0.005 -0.142,0.015c-0.082,0.01 -0.135,0.005 -0.159,-0.015c-0.012,-0.02 -0.023,-0.05 -0.035,-0.089l-0.036,-0.12c0,-0.099 -0.023,-0.149 -0.07,-0.149l-0.018,0l-0.053,0c-0.012,0 -0.035,0.02 -0.071,0.06c-0.035,0.04 -0.059,0.069 -0.071,0.089c-0.023,0 -0.061,0.015 -0.115,0.045c-0.053,0.03 -0.091,0.045 -0.115,0.045c-0.023,0 -0.082,0.015 -0.176,0.045c-0.095,0.029 -0.195,0.059 -0.301,0.089c-0.106,0.03 -0.206,0.06 -0.301,0.09c-0.094,0.03 -0.147,0.044 -0.159,0.044c-0.023,0 -0.085,0.04 -0.186,0.12c-0.1,0.079 -0.162,0.119 -0.185,0.119c-0.024,0.02 -0.077,0.025 -0.159,0.015c-0.083,-0.01 -0.13,-0.015 -0.142,-0.015l-0.159,0.269l-0.088,0l-0.124,0c-0.024,0 -0.05,0.03 -0.08,0.089c-0.029,0.06 -0.05,0.1 -0.062,0.12c-0.023,0 -0.079,0.005 -0.168,0.015c-0.088,0.01 -0.144,0.015 -0.168,0.015l-0.194,0c-0.047,0 -0.089,-0.01 -0.124,-0.03c-0.024,0 -0.077,-0.02 -0.159,-0.06c-0.083,-0.04 -0.136,-0.06 -0.159,-0.06l-0.018,0l-0.053,0c-0.012,0.02 -0.047,0.065 -0.106,0.135c-0.059,0.069 -0.095,0.104 -0.106,0.104l-0.053,0l-0.018,0c-0.012,0 -0.038,-0.015 -0.08,-0.045c-0.041,-0.03 -0.068,-0.054 -0.079,-0.074c-0.012,0 -0.045,-0.02 -0.098,-0.06c-0.053,-0.04 -0.091,-0.06 -0.115,-0.06l-0.035,0l-0.035,0c0,0 -0.012,0.02 -0.036,0.06l-0.035,0.06c-0.012,0.02 -0.027,0.064 -0.044,0.134c-0.018,0.07 -0.033,0.114 -0.044,0.134c-0.012,0.02 -0.018,0.035 -0.018,0.045c0,0.01 -0.006,0.025 -0.018,0.045l-0.035,0.06c-0.071,0 -0.13,0.009 -0.177,0.029c-0.059,0.02 -0.112,0.035 -0.159,0.045c-0.047,0.01 -0.083,0.015 -0.106,0.015l-0.036,0l-0.035,0l-0.071,-0.06c-0.012,0 -0.02,-0.005 -0.026,-0.015c-0.006,-0.01 -0.015,-0.014 -0.027,-0.014l-0.018,0c-0.023,0 -0.053,0.029 -0.088,0.089c-0.035,0.06 -0.059,0.109 -0.071,0.149l-0.725,0c0.012,-0.04 0.036,-0.129 0.071,-0.268c0.035,-0.14 0.059,-0.229 0.071,-0.269l0,-0.06c0,-0.02 0.003,-0.034 0.008,-0.044c0.006,-0.01 0.009,-0.025 0.009,-0.045Zm9.179,-1.701l0,-0.12l-0.053,0l0.053,0.12Zm-0.442,-0.239c0.012,-0.04 0.003,-0.06 -0.027,-0.06c-0.029,0 -0.044,0.02 -0.044,0.06c0.012,0.04 0.027,0.06 0.044,0.06c0.018,0 0.027,-0.02 0.027,-0.06Zm-5.147,-1.104c0.012,0 0.024,0.01 0.036,0.03c0.023,0.039 0.041,0.059 0.053,0.059l0.018,0.03c0.011,0 0.023,-0.01 0.035,-0.03c0.012,0 0.024,-0.01 0.035,-0.03c0.024,-0.039 0.036,-0.059 0.036,-0.059l0.017,-0.06c0,0 -0.006,-0.02 -0.017,-0.06l0,-0.029c0,-0.02 -0.012,-0.04 -0.036,-0.06c-0.023,-0.02 -0.035,-0.04 -0.035,-0.06l-0.035,0l-0.018,0c-0.024,0.04 -0.044,0.085 -0.062,0.134c-0.018,0.05 -0.027,0.095 -0.027,0.135Zm-0.813,-0.388l0.071,-0.12l-0.071,0l0,0.12Zm1.326,-0.12c-0.035,0 -0.053,0.04 -0.053,0.12c0,0.079 0.018,0.119 0.053,0.119c0.047,0 0.071,-0.04 0.071,-0.119c0,-0.08 -0.024,-0.12 -0.071,-0.12Zm3.378,-0.268c-0.023,0 -0.035,0.045 -0.035,0.134c0,0.09 0.012,0.134 0.035,0.134c0.047,0 0.071,-0.044 0.071,-0.134c0,-0.089 -0.024,-0.134 -0.071,-0.134Zm-3.802,-0.12c-0.035,-0.019 -0.053,0 -0.053,0.06c0,0.06 0.018,0.08 0.053,0.06c0.023,0 0.035,-0.015 0.035,-0.045c0,-0.03 -0.012,-0.055 -0.035,-0.075Zm0.725,-0.596c-0.047,0 -0.071,0.039 -0.071,0.119c0,0.08 0.024,0.119 0.071,0.119c0.035,0 0.053,-0.039 0.053,-0.119c0,-0.08 -0.018,-0.119 -0.053,-0.119Zm4.545,0l0,0.119l-0.053,0l0,-0.119l0.053,0Zm-1.821,-0.269l0,0.119l-0.071,-0.119l0.071,0Zm0.141,-0.627c-0.024,0.04 -0.074,0.13 -0.15,0.269c-0.077,0.139 -0.127,0.209 -0.151,0.209c0,-0.02 -0.017,0 -0.053,0.059c-0.011,0.02 -0.023,0.03 -0.035,0.03l0,-0.089c0,-0.02 0.006,-0.05 0.018,-0.09l0.23,-0.388l0.141,0Zm-6.986,-1.999c0.012,-0.04 0.021,-0.115 0.027,-0.224c0.006,-0.11 0.012,-0.229 0.017,-0.358c0.006,-0.13 0.012,-0.254 0.018,-0.373c0.006,-0.12 0.009,-0.209 0.009,-0.269c0,-0.02 -0.009,-0.065 -0.027,-0.134c-0.017,-0.07 -0.035,-0.144 -0.053,-0.224c-0.017,-0.08 -0.035,-0.159 -0.053,-0.239c-0.017,-0.079 -0.026,-0.129 -0.026,-0.149c0,-0.04 0.009,-0.104 0.026,-0.194c0.018,-0.089 0.039,-0.154 0.062,-0.194l0.071,-0.06c0.047,-0.039 0.071,-0.059 0.071,-0.059c0.012,0 0.047,-0.035 0.106,-0.105c0.059,-0.069 0.1,-0.104 0.124,-0.104c0,0 0.011,-0.01 0.035,-0.03l0.035,0.03l0.142,0.209c0.012,0.039 0.068,0.084 0.168,0.134c0.1,0.05 0.168,0.095 0.203,0.134c0,0 0.012,0.01 0.036,0.03c0.011,0 0.023,-0.01 0.035,-0.03c0.012,-0.039 0.035,-0.109 0.071,-0.209c0.035,-0.099 0.059,-0.159 0.071,-0.179c0.023,-0.02 0.067,-0.005 0.132,0.045c0.065,0.05 0.109,0.075 0.133,0.075c0,-0.02 -0.003,-0.05 -0.009,-0.09c-0.006,-0.04 -0.009,-0.089 -0.009,-0.149c-0.012,-0.06 -0.018,-0.129 -0.018,-0.209c0.024,-0.099 0.048,-0.149 0.071,-0.149l0.071,-0.03c0.012,0 0.021,0.005 0.026,0.015c0.006,0.01 0.015,0.015 0.027,0.015l0.018,0c0.011,0 0.035,0.04 0.07,0.119c0.036,0.08 0.065,0.12 0.089,0.12c0.012,0.019 0.023,0.029 0.035,0.029l0.124,0c0.012,0 0.029,-0.01 0.053,-0.029c0.024,0 0.05,-0.015 0.08,-0.045c0.029,-0.03 0.05,-0.045 0.062,-0.045c0.011,-0.04 0.026,-0.094 0.044,-0.164c0.017,-0.07 0.032,-0.115 0.044,-0.134c0.035,0 0.053,-0.04 0.053,-0.12l0.088,0c0.012,0.02 0.027,0.065 0.045,0.135c0.017,0.069 0.032,0.114 0.044,0.134c0,0.04 0.018,0.089 0.053,0.149c0.012,-0.04 0.035,-0.089 0.071,-0.149c0.035,-0.06 0.059,-0.11 0.07,-0.149c0.012,0 0.027,-0.035 0.045,-0.105c0.017,-0.069 0.032,-0.114 0.044,-0.134c0,0.02 0.009,0.065 0.026,0.134c0.018,0.07 0.033,0.105 0.045,0.105l0.017,0.029l0.036,0c0.011,0 0.017,-0.01 0.017,-0.029c0.047,0 0.071,-0.04 0.071,-0.12l0,-0.059l0,-0.06c0,-0.06 -0.024,-0.09 -0.071,-0.09c0.024,-0.039 0.071,-0.089 0.142,-0.149c0.071,-0.06 0.118,-0.099 0.141,-0.119l0.089,0c0.012,0.02 0.023,0.064 0.035,0.134c0.012,0.07 0.024,0.114 0.035,0.134c0.012,0 0.027,0.015 0.045,0.045c0.017,0.03 0.032,0.045 0.044,0.045l0.053,0c0.047,-0.02 0.138,-0.06 0.274,-0.12c0.136,-0.059 0.215,-0.099 0.239,-0.119c0.012,-0.02 0.038,-0.04 0.079,-0.06c0.042,-0.019 0.068,-0.039 0.08,-0.059l0.159,0c0.024,-0.04 0.071,-0.125 0.142,-0.254c0.07,-0.129 0.118,-0.214 0.141,-0.254c0.012,0.02 0.033,0.045 0.062,0.075c0.03,0.03 0.056,0.045 0.08,0.045c0.011,0 0.035,-0.02 0.07,-0.06c0.036,-0.04 0.065,-0.06 0.089,-0.06l0.071,0l0.141,0.12l0.071,0c0.012,0 0.047,-0.025 0.106,-0.075c0.059,-0.05 0.121,-0.099 0.186,-0.149c0.064,-0.05 0.126,-0.1 0.185,-0.149c0.059,-0.05 0.095,-0.085 0.106,-0.105c0.024,-0.02 0.089,-0.045 0.195,-0.074c0.106,-0.03 0.189,-0.055 0.248,-0.075l0.141,0c0,0.02 0.029,0.05 0.088,0.09l0.071,0.059c0.036,0.02 0.121,0.03 0.257,0.03c0.135,0 0.221,-0.01 0.256,-0.03c0,0.02 0.009,0.04 0.027,0.06c0.017,0.02 0.032,0.04 0.044,0.06l0.088,0c0.012,-0.02 0.024,-0.065 0.036,-0.135c0.011,-0.069 0.017,-0.114 0.017,-0.134c0.012,0 0.03,-0.02 0.053,-0.06c0.012,-0.02 0.024,-0.029 0.036,-0.029c0,0 0.011,-0.01 0.035,-0.03l0.035,0.03c0.012,0 0.024,0.009 0.036,0.029l0.035,0.06c0,0.02 0.012,0.065 0.036,0.134c0.023,0.07 0.035,0.115 0.035,0.135l0.071,0c0.011,-0.02 0.026,-0.05 0.044,-0.09c0.018,-0.04 0.032,-0.07 0.044,-0.089l0.283,0c0,0.019 -0.012,0.069 -0.035,0.149c-0.024,0.079 -0.036,0.139 -0.036,0.179l0,0.089c0,0.02 0.021,0.065 0.062,0.135c0.041,0.069 0.068,0.114 0.08,0.134c0.012,0 0.041,0.01 0.088,0.03c0.047,0.02 0.071,0.05 0.071,0.089c0,0.02 0.009,0.08 0.026,0.179c0.018,0.1 0.033,0.17 0.045,0.209l0.035,0.06c0.012,0.02 0.03,0.03 0.053,0.03c0,0.04 0.006,0.079 0.018,0.119l0.035,0.12l0.142,-0.12c0,0.04 0.009,0.085 0.026,0.135c0.018,0.049 0.039,0.094 0.062,0.134c0.012,0.02 0.033,0.045 0.062,0.074c0.029,0.03 0.056,0.055 0.08,0.075c-0.024,0.02 -0.051,0.09 -0.08,0.209c-0.029,0.119 -0.05,0.199 -0.062,0.239c0,0 0,0.02 0,0.059c0,0.02 0.006,0.04 0.018,0.06l0.035,0c0.024,0 0.053,-0.01 0.089,-0.03c0.035,-0.02 0.064,-0.05 0.088,-0.089l0.124,0.507c0.023,-0.02 0.05,-0.045 0.079,-0.075c0.03,-0.029 0.056,-0.044 0.08,-0.044l0.071,0l0,0.268c-0.024,0 -0.074,0.01 -0.151,0.03c-0.076,0.02 -0.126,0.04 -0.15,0.06l-0.23,0.388c0,0.02 -0.006,0.064 -0.018,0.134c-0.011,0.07 -0.023,0.114 -0.035,0.134c-0.023,0 -0.077,-0.005 -0.159,-0.015c-0.083,-0.01 -0.124,-0.005 -0.124,0.015c-0.035,0 -0.079,0.015 -0.133,0.045c-0.053,0.03 -0.091,0.055 -0.114,0.075c-0.012,0 -0.027,0.035 -0.045,0.104c-0.017,0.07 -0.026,0.115 -0.026,0.134l-0.071,0.12l-0.035,0l-0.036,0c-0.011,-0.02 -0.035,-0.04 -0.07,-0.06c-0.036,-0.02 -0.059,-0.04 -0.071,-0.06c-0.024,-0.019 -0.097,-0.044 -0.221,-0.074c-0.124,-0.03 -0.198,-0.055 -0.221,-0.075c-0.024,-0.02 -0.062,-0.074 -0.115,-0.164c-0.053,-0.089 -0.092,-0.154 -0.115,-0.194c-0.012,0.02 -0.027,0.045 -0.044,0.075c-0.018,0.03 -0.027,0.054 -0.027,0.074l-0.071,0l-0.07,0c-0.024,-0.02 -0.062,-0.049 -0.115,-0.089c-0.053,-0.04 -0.092,-0.06 -0.115,-0.06l-0.213,0.358c0,0.02 -0.005,0.03 -0.017,0.03l-0.036,0l-0.035,-0.03c-0.024,0 -0.047,-0.01 -0.071,-0.03l-0.07,-0.059l-0.071,0l-0.089,0l-0.053,0.089c-0.023,0.02 -0.041,0.03 -0.053,0.03l-0.071,0c-0.023,0 -0.044,-0.005 -0.061,-0.015c-0.018,-0.01 -0.033,-0.015 -0.045,-0.015c-0.011,0 -0.032,-0.035 -0.062,-0.104c-0.029,-0.07 -0.056,-0.105 -0.079,-0.105c-0.012,0 -0.03,-0.005 -0.053,-0.015c-0.024,-0.01 -0.047,-0.014 -0.071,-0.014l-0.088,0.029c-0.024,0 -0.062,0.035 -0.115,0.105c-0.053,0.069 -0.092,0.104 -0.115,0.104l-0.513,0c-0.024,0 -0.08,0.01 -0.168,0.03c-0.089,0.02 -0.18,0.035 -0.274,0.045c-0.095,0.01 -0.186,0.025 -0.274,0.045c-0.089,0.02 -0.145,0.029 -0.168,0.029l-0.23,0c-0.024,0.02 -0.071,0.04 -0.142,0.06c-0.071,0.02 -0.118,0.04 -0.141,0.06c-0.012,0 -0.036,0.02 -0.071,0.06c-0.035,0.039 -0.059,0.059 -0.071,0.059c-0.012,0.02 -0.05,0.025 -0.115,0.015c-0.065,-0.01 -0.103,-0.015 -0.115,-0.015c-0.011,0.02 -0.047,0.045 -0.106,0.075c-0.059,0.03 -0.1,0.045 -0.124,0.045c-0.023,0.02 -0.094,0.024 -0.212,0.015c-0.118,-0.01 -0.188,-0.015 -0.212,-0.015c-0.024,0.02 -0.065,0.069 -0.124,0.149c-0.059,0.079 -0.094,0.119 -0.106,0.119c-0.012,0 -0.05,0.005 -0.115,0.015c-0.065,0.01 -0.135,0.02 -0.212,0.03c-0.077,0.01 -0.153,0.02 -0.23,0.03c-0.077,0.01 -0.133,0.015 -0.168,0.015l-0.46,0c-0.012,0 -0.035,0.025 -0.071,0.074c-0.035,0.05 -0.059,0.075 -0.07,0.075c-0.012,0 -0.062,0.005 -0.151,0.015c-0.088,0.01 -0.15,0.015 -0.185,0.015l-0.16,0c-0.035,0 -0.064,-0.01 -0.088,-0.03l-0.071,-0.149Zm0.955,-1.731l0.071,0l0,-0.09l-0.071,0l0,0.09Zm-0.3,-0.09l0.088,0l0,-0.149l-0.088,0l0,0.149Zm1.114,-0.656c-0.012,-0.02 -0.021,0 -0.027,0.059c-0.006,0.06 -0.009,0.13 -0.009,0.209c0,0.08 0.003,0.145 0.009,0.194c0.006,0.05 0.015,0.065 0.027,0.045c0.023,-0.04 0.035,-0.119 0.035,-0.239c0,-0.119 -0.012,-0.209 -0.035,-0.268Zm5.146,-0.985c-0.023,-0.02 -0.035,0 -0.035,0.06c0,0.059 0.012,0.079 0.035,0.059c0.024,0 0.036,-0.02 0.036,-0.059c0,-0.04 -0.012,-0.06 -0.036,-0.06Zm0.655,-0.866c0.011,-0.039 0.003,-0.059 -0.027,-0.059c-0.029,0 -0.044,0.02 -0.044,0.059c0.012,0.04 0.026,0.06 0.044,0.06c0.018,0 0.027,-0.02 0.027,-0.06Zm0.672,-0.089c0.023,0 0.035,0.01 0.035,0.03c0,0.02 -0.012,0.039 -0.035,0.059c-0.024,0 -0.036,-0.024 -0.036,-0.074c0,-0.05 0.012,-0.055 0.036,-0.015Z" style="fill-rule:nonzero;"/><path d="M83.703,88.095c-0.095,-0.059 -0.151,-0.203 -0.168,-0.432c-0.018,-0.229 -0.027,-0.433 -0.027,-0.612c0,-0.259 0.024,-0.502 0.071,-0.731c0.047,-0.229 0.1,-0.463 0.159,-0.702c0.059,-0.238 0.115,-0.477 0.168,-0.716c0.053,-0.239 0.08,-0.487 0.08,-0.746l0.336,0c0,-0.557 -0.006,-1.03 -0.018,-1.417c-0.012,-0.388 0.018,-0.841 0.088,-1.358c0.106,0.139 0.168,0.194 0.186,0.164c0.018,-0.03 0.085,-0.045 0.203,-0.045l0,-0.119c0,-0.02 -0.014,-0.105 -0.044,-0.254c-0.029,-0.149 -0.044,-0.244 -0.044,-0.284c0,-0.039 0.029,-0.174 0.088,-0.402c0.059,-0.229 0.089,-0.364 0.089,-0.403l0,-0.09c0,-0.04 0.003,-0.07 0.009,-0.089c0.006,-0.02 0.008,-0.05 0.008,-0.09c0,-0.04 -0.002,-0.094 -0.008,-0.164c-0.006,-0.07 -0.009,-0.124 -0.009,-0.164c0,-0.02 -0.003,-0.1 -0.009,-0.239c-0.006,-0.139 -0.015,-0.283 -0.027,-0.433c-0.011,-0.149 -0.023,-0.288 -0.035,-0.418c-0.012,-0.129 -0.018,-0.213 -0.018,-0.253l0,-0.09l0,-0.089c0,-0.04 0.006,-0.149 0.018,-0.329c0.012,-0.179 0.024,-0.373 0.035,-0.582c0.012,-0.208 0.021,-0.397 0.027,-0.567c0.006,-0.169 0.009,-0.273 0.009,-0.313c0,-0.099 0.015,-0.318 0.044,-0.656c0.029,-0.339 0.068,-0.692 0.115,-1.06c0.047,-0.368 0.094,-0.701 0.141,-1c0.048,-0.298 0.101,-0.457 0.16,-0.477c0.059,0.139 0.097,0.293 0.115,0.462c0.017,0.17 0.032,0.314 0.044,0.433l0.088,0c0,-0.338 -0.015,-0.681 -0.044,-1.029c-0.029,-0.349 -0.044,-0.692 -0.044,-1.03c0,-0.04 0.012,-0.144 0.035,-0.313c0.024,-0.17 0.056,-0.344 0.097,-0.523c0.042,-0.179 0.089,-0.343 0.142,-0.492c0.053,-0.149 0.103,-0.224 0.15,-0.224l0.036,0l0.176,0.597l0,-0.388c0,-0.159 -0.017,-0.313 -0.053,-0.463c-0.035,-0.149 -0.053,-0.293 -0.053,-0.432c0.083,0 0.189,-0.025 0.319,-0.075c0.129,-0.05 0.206,-0.154 0.23,-0.313c-0.012,-0.06 -0.039,-0.1 -0.08,-0.12c-0.041,-0.02 -0.091,-0.03 -0.15,-0.03c-0.059,0 -0.13,0.01 -0.213,0.03c-0.011,-0.059 -0.008,-0.144 0.009,-0.253c0.018,-0.11 0.039,-0.174 0.062,-0.194c0.024,-0.04 0.077,-0.045 0.159,-0.015c0.083,0.03 0.13,0.035 0.142,0.015l0.071,-0.478c0.023,-0.02 0.088,-0.02 0.194,0c0.106,0.02 0.171,0.02 0.195,0c0.011,0 0.041,-0.02 0.088,-0.06c0.024,-0.019 0.041,-0.049 0.053,-0.089c0.012,-0.02 0.024,-0.03 0.036,-0.03c0,0.239 0.026,0.463 0.079,0.672c0.053,0.208 0.112,0.417 0.177,0.626c0.065,0.209 0.124,0.418 0.177,0.627c0.053,0.209 0.079,0.433 0.079,0.671c0,0.219 -0.011,0.423 -0.035,0.612c-0.024,0.189 -0.035,0.393 -0.035,0.612c0,0.219 0.047,0.443 0.141,0.672c0.094,0.228 0.195,0.402 0.301,0.522c0,0.099 -0.006,0.268 -0.018,0.507c-0.012,0.239 -0.015,0.488 -0.009,0.746c0.006,0.259 0.03,0.498 0.071,0.717c0.041,0.218 0.115,0.368 0.221,0.447c-0.012,0.338 -0.009,0.781 0.009,1.328c0.018,0.547 0.05,1.114 0.097,1.701c0.047,0.587 0.103,1.149 0.168,1.686c0.065,0.538 0.145,0.975 0.239,1.314c0.012,0 0.021,0.005 0.027,0.015c0.005,0.009 0.014,0.014 0.026,0.014c0.094,0 0.186,-0.104 0.274,-0.313c0.089,-0.209 0.171,-0.448 0.248,-0.716c0.076,-0.269 0.144,-0.537 0.203,-0.806c0.059,-0.269 0.112,-0.472 0.159,-0.612c0,-0.02 0.018,-0.069 0.053,-0.149c0.036,-0.08 0.071,-0.169 0.106,-0.269c0.036,-0.099 0.071,-0.189 0.107,-0.268c0.035,-0.08 0.059,-0.139 0.07,-0.179c0.012,-0.12 0.03,-0.348 0.053,-0.687c0.024,-0.338 0.062,-0.691 0.115,-1.059c0.053,-0.368 0.13,-0.696 0.23,-0.985c0.1,-0.288 0.233,-0.433 0.398,-0.433c0,0.02 -0.003,0.06 -0.009,0.12c-0.006,0.059 -0.009,0.099 -0.009,0.119c0,0.04 -0.011,0.11 -0.035,0.209c-0.023,0.099 -0.041,0.169 -0.053,0.209l0.283,0.179l0.053,0c0.047,0 0.08,0.03 0.097,0.09c0.018,0.059 0.027,0.129 0.027,0.208c0,0.08 0.006,0.15 0.018,0.209c0.011,0.06 0.047,0.09 0.106,0.09c0.094,0 0.162,0.05 0.203,0.149c0.041,0.1 0.121,0.149 0.239,0.149l0,-1.611c-0.059,-0.08 -0.115,-0.209 -0.168,-0.388c-0.053,-0.179 -0.1,-0.363 -0.142,-0.552c-0.041,-0.189 -0.079,-0.358 -0.115,-0.508c-0.035,-0.149 -0.064,-0.224 -0.088,-0.224l-0.018,0.03c-0.023,0.02 -0.082,0.08 -0.177,0.179c-0.094,0.1 -0.153,0.15 -0.176,0.15c-0.071,0 -0.124,-0.06 -0.16,-0.179c-0.035,-0.12 -0.053,-0.229 -0.053,-0.329c0,-0.139 0.021,-0.209 0.062,-0.209c0.041,0 0.086,-0.01 0.133,-0.03c0.047,-0.019 0.091,-0.069 0.133,-0.149c0.041,-0.079 0.061,-0.258 0.061,-0.537l0.107,0l0,0.537c0.082,0 0.144,0.005 0.185,0.015c0.041,0.01 0.062,-0.114 0.062,-0.373l0,-0.179c0,-0.02 -0.006,-0.104 -0.018,-0.254c-0.011,-0.149 -0.023,-0.308 -0.035,-0.477c-0.012,-0.169 -0.024,-0.328 -0.035,-0.478c-0.012,-0.149 -0.018,-0.243 -0.018,-0.283l0,-0.149l0,-0.15c0.012,-0.099 0.029,-0.248 0.053,-0.447c0.024,-0.199 0.041,-0.309 0.053,-0.328c0,-0.02 0.021,-0.065 0.062,-0.135c0.041,-0.069 0.088,-0.144 0.142,-0.224c0.053,-0.079 0.1,-0.154 0.141,-0.223c0.041,-0.07 0.068,-0.115 0.08,-0.135c0.011,-0.02 0.035,-0.089 0.07,-0.209c0.036,-0.119 0.074,-0.248 0.115,-0.388c0.042,-0.139 0.089,-0.263 0.142,-0.373c0.053,-0.109 0.109,-0.164 0.168,-0.164c0.047,0 0.071,0.02 0.071,0.06l0.176,1.283l0.142,0.358c0.059,-0.159 0.115,-0.343 0.168,-0.552c0.053,-0.209 0.091,-0.363 0.115,-0.462c0.012,0 0.02,-0.005 0.026,-0.015c0.006,-0.01 0.015,-0.015 0.027,-0.015c0.012,0 0.059,0.035 0.141,0.104c0.083,0.07 0.171,0.144 0.266,0.224c0.094,0.08 0.179,0.159 0.256,0.239c0.077,0.079 0.115,0.119 0.115,0.119c0.012,0.12 0.038,0.284 0.08,0.493c0.041,0.209 0.082,0.432 0.123,0.671c0.042,0.239 0.077,0.473 0.107,0.701c0.029,0.229 0.044,0.413 0.044,0.553c0,0.079 -0.062,0.144 -0.186,0.194c-0.124,0.049 -0.215,0.114 -0.274,0.193l-0.159,0.269c0.012,-0.139 0.006,-0.293 -0.018,-0.462c-0.024,-0.17 -0.047,-0.304 -0.071,-0.403c-0.023,0.02 -0.07,0.084 -0.141,0.194c-0.071,0.109 -0.118,0.184 -0.142,0.223c-0.023,0.02 -0.05,0.01 -0.079,-0.029c-0.03,-0.04 -0.056,-0.06 -0.08,-0.06c0,0.06 -0.006,0.199 -0.018,0.418c-0.011,0.219 -0.017,0.368 -0.017,0.447c0,0.04 0.012,0.075 0.035,0.105c0.024,0.03 0.047,0.045 0.071,0.045c0.236,-0.02 0.442,-0.09 0.619,-0.209c0.177,-0.12 0.371,-0.179 0.584,-0.179c0,0.119 -0.015,0.243 -0.045,0.373c-0.029,0.129 -0.091,0.184 -0.185,0.164c0.059,0.278 0.091,0.512 0.097,0.701c0.006,0.189 0.009,0.403 0.009,0.642l0,0.597c-0.024,0.02 -0.053,0.074 -0.089,0.164c-0.035,0.089 -0.065,0.154 -0.088,0.194l0,0.119c0.023,0.04 0.053,0.105 0.088,0.194c0.036,0.09 0.065,0.144 0.089,0.164c-0.024,0.12 -0.039,0.284 -0.044,0.493c-0.006,0.209 0.005,0.418 0.035,0.626c0.029,0.209 0.079,0.393 0.15,0.553c0.071,0.159 0.171,0.248 0.301,0.268c-0.094,0 -0.148,0.015 -0.159,0.045c-0.012,0.03 -0.018,0.094 -0.018,0.194c0,0.199 0.012,0.353 0.035,0.462c0.024,0.11 0.053,0.209 0.089,0.299c0.035,0.089 0.074,0.184 0.115,0.283c0.041,0.1 0.079,0.229 0.115,0.388c0,0.02 -0.015,0.06 -0.044,0.12c-0.03,0.059 -0.045,0.099 -0.045,0.119l0,1.104l-0.177,0.179c0,0.02 -0.003,0.06 -0.008,0.12c-0.006,0.059 -0.009,0.109 -0.009,0.149c0,0.259 0.029,0.507 0.088,0.746c0.059,0.239 0.127,0.473 0.204,0.701c0.076,0.229 0.144,0.463 0.203,0.702c0.059,0.239 0.088,0.487 0.088,0.746c0,0.179 -0.038,0.298 -0.115,0.358c-0.076,0.06 -0.115,0.169 -0.115,0.328c0,0.08 0.021,0.14 0.062,0.179c0.042,0.04 0.089,0.075 0.142,0.105c0.053,0.03 0.1,0.069 0.141,0.119c0.042,0.05 0.062,0.115 0.062,0.194c0,0.1 -0.035,0.179 -0.106,0.239c-0.071,0.06 -0.13,0.109 -0.177,0.149c0,0.04 0.012,0.159 0.036,0.358c0.023,0.199 0.041,0.329 0.053,0.388c0.011,0.04 0.047,0.14 0.106,0.299c0.059,0.159 0.088,0.258 0.088,0.298c0,0.06 -0.026,0.134 -0.079,0.224c-0.053,0.089 -0.092,0.114 -0.115,0.075l-0.637,-0.448l-0.035,0.06c-0.036,0.059 -0.059,0.089 -0.071,0.089c-0.012,0.02 -0.03,0.07 -0.053,0.149c-0.024,0.08 -0.036,0.13 -0.036,0.15l-0.884,0.328c-0.023,0 -0.053,-0.105 -0.088,-0.314c-0.036,-0.208 -0.095,-0.363 -0.177,-0.462c-0.094,-0.119 -0.15,-0.199 -0.168,-0.239c-0.018,-0.04 -0.027,-0.139 -0.027,-0.298c0,-0.159 0.036,-0.269 0.106,-0.329c0.071,-0.059 0.107,-0.169 0.107,-0.328c0,-0.179 -0.053,-0.308 -0.16,-0.388c-0.106,-0.079 -0.159,-0.199 -0.159,-0.358c0,-0.119 0.018,-0.234 0.053,-0.343c0.036,-0.11 0.053,-0.244 0.053,-0.403c0,-0.179 -0.035,-0.298 -0.106,-0.358c-0.07,-0.06 -0.118,-0.169 -0.141,-0.328c-0.177,-0.677 -0.289,-1.433 -0.336,-2.269c-0.047,-0.835 -0.053,-1.641 -0.018,-2.417c-0.059,-0.04 -0.115,-0.134 -0.168,-0.283c-0.053,-0.15 -0.1,-0.309 -0.141,-0.478c-0.042,-0.169 -0.077,-0.333 -0.107,-0.492c-0.029,-0.16 -0.05,-0.289 -0.061,-0.388c-0.036,0.099 -0.109,0.199 -0.221,0.298c-0.113,0.1 -0.18,0.159 -0.204,0.179l0,0.06c0,0.119 0.018,0.234 0.053,0.343c0.036,0.109 0.1,0.174 0.195,0.194l-0.106,0.149c0,0.04 -0.012,0.115 -0.036,0.224c-0.023,0.109 -0.035,0.174 -0.035,0.194c-0.012,0.04 -0.053,0.065 -0.124,0.075c-0.071,0.01 -0.112,0.034 -0.124,0.074c-0.023,0.06 -0.035,0.164 -0.035,0.314c0,0.149 0.012,0.243 0.035,0.283l-0.548,0.179c-0.024,0 -0.068,-0.005 -0.133,-0.015c-0.064,-0.01 -0.109,-0.015 -0.132,-0.015c0,0.179 0.02,0.294 0.062,0.344c0.041,0.049 0.082,0.089 0.123,0.119c0.042,0.03 0.083,0.065 0.124,0.104c0.041,0.04 0.062,0.12 0.062,0.239c0,0.139 -0.021,0.289 -0.062,0.448c-0.041,0.159 -0.088,0.313 -0.141,0.462c-0.053,0.15 -0.1,0.294 -0.142,0.433c-0.041,0.139 -0.062,0.249 -0.062,0.328c0,0.14 0.033,0.249 0.098,0.329c0.064,0.079 0.097,0.209 0.097,0.388c0,0.099 -0.015,0.238 -0.044,0.417c-0.03,0.18 -0.065,0.364 -0.106,0.553c-0.042,0.189 -0.08,0.368 -0.115,0.537c-0.036,0.169 -0.059,0.293 -0.071,0.373c-0.165,-0.1 -0.304,-0.08 -0.416,0.06c-0.112,0.139 -0.206,0.328 -0.283,0.567c-0.076,0.238 -0.135,0.497 -0.177,0.775c-0.041,0.279 -0.073,0.508 -0.097,0.687c-0.012,-0.04 -0.041,-0.095 -0.088,-0.164c-0.047,-0.07 -0.083,-0.115 -0.106,-0.135l-0.018,0c-0.012,0 -0.018,-0.005 -0.018,-0.014c0,-0.01 -0.006,-0.015 -0.017,-0.015c-0.059,0 -0.109,0.024 -0.151,0.074c-0.041,0.05 -0.079,0.105 -0.115,0.164c-0.035,0.06 -0.07,0.115 -0.106,0.165c-0.035,0.049 -0.082,0.074 -0.141,0.074c-0.071,0 -0.101,-0.015 -0.089,-0.045c0.012,-0.029 -0.012,-0.124 -0.07,-0.283c-0.024,-0.04 -0.08,-0.144 -0.168,-0.314c-0.089,-0.169 -0.151,-0.273 -0.186,-0.313l-0.053,0c-0.083,0 -0.21,0.06 -0.38,0.179c-0.171,0.12 -0.298,0.229 -0.381,0.328c-0.023,-0.079 -0.035,-0.159 -0.035,-0.238c0,-0.1 0.015,-0.164 0.044,-0.194c0.03,-0.03 0.065,-0.055 0.106,-0.075c0.042,-0.02 0.077,-0.035 0.106,-0.045c0.03,-0.01 0.045,-0.054 0.045,-0.134l0,-0.089c-0.036,-0.14 -0.056,-0.279 -0.062,-0.418c-0.006,-0.14 -0.021,-0.279 -0.045,-0.418c-0.035,-0.159 -0.088,-0.323 -0.159,-0.493c-0.07,-0.169 -0.124,-0.333 -0.159,-0.492c-0.012,-0.04 0,-0.109 0.035,-0.209c0.036,-0.099 0.071,-0.194 0.107,-0.283c0.035,-0.09 0.064,-0.169 0.088,-0.239c0.024,-0.07 0.024,-0.105 0,-0.105l-0.513,-0.059c-0.059,-0.1 -0.138,-0.154 -0.239,-0.164c-0.1,-0.01 -0.15,-0.095 -0.15,-0.254c0,-0.08 0.035,-0.144 0.106,-0.194c0.071,-0.05 0.148,-0.1 0.23,-0.149c0.083,-0.05 0.159,-0.1 0.23,-0.15c0.071,-0.049 0.106,-0.114 0.106,-0.193c0,-0.1 -0.038,-0.18 -0.115,-0.239c-0.076,-0.06 -0.168,-0.12 -0.274,-0.179c-0.13,-0.08 -0.253,-0.164 -0.371,-0.254c-0.118,-0.09 -0.177,-0.204 -0.177,-0.343c0.059,0 0.118,0.02 0.177,0.059c0.059,0.04 0.123,0.06 0.194,0.06c0,-0.278 0.009,-0.507 0.027,-0.686c0.017,-0.179 -0.039,-0.388 -0.168,-0.627l0.495,-0.06c0,0 -0.024,-0.02 -0.071,-0.059c-0.047,-0.04 -0.1,-0.075 -0.159,-0.105c-0.059,-0.03 -0.115,-0.064 -0.168,-0.104c-0.053,-0.04 -0.08,-0.06 -0.08,-0.06l-0.283,0.06l-0.035,0l-0.088,0.447c-0.012,0.1 -0.027,0.254 -0.045,0.463c-0.017,0.209 -0.035,0.438 -0.053,0.686c-0.017,0.249 -0.035,0.483 -0.053,0.702c-0.017,0.219 -0.026,0.368 -0.026,0.447c-0.036,0.12 -0.08,0.194 -0.133,0.224c-0.053,0.03 -0.103,0.06 -0.15,0.09c-0.047,0.03 -0.089,0.069 -0.124,0.119c-0.035,0.05 -0.053,0.164 -0.053,0.343c0,0.219 0.05,0.349 0.15,0.388c0.1,0.04 0.151,0.11 0.151,0.209c0,0.1 -0.015,0.179 -0.045,0.239c-0.029,0.06 -0.064,0.119 -0.106,0.179c-0.041,0.06 -0.076,0.119 -0.106,0.179c-0.029,0.06 -0.044,0.149 -0.044,0.269c0,0.179 0.021,0.293 0.062,0.343c0.041,0.05 0.062,0.124 0.062,0.224c0,0.179 -0.036,0.398 -0.106,0.656c-0.071,0.259 -0.145,0.518 -0.221,0.776c-0.077,0.259 -0.151,0.513 -0.222,0.761c-0.07,0.249 -0.106,0.463 -0.106,0.642c0,0.179 0.059,0.308 0.177,0.388c-0.071,0.06 -0.115,0.149 -0.132,0.268c-0.018,0.12 -0.03,0.239 -0.036,0.359c-0.006,0.119 -0.017,0.228 -0.035,0.328c-0.018,0.099 -0.056,0.149 -0.115,0.149l-0.035,0c-0.012,0 -0.018,-0.01 -0.018,-0.03c-0.094,-0.139 -0.18,-0.253 -0.257,-0.343c-0.076,-0.089 -0.144,-0.179 -0.203,-0.269c-0.059,-0.089 -0.109,-0.199 -0.15,-0.328c-0.042,-0.129 -0.068,-0.303 -0.08,-0.522l-0.194,0.268Zm4.315,-2.715l0.106,0l0,-0.179l-0.106,0l0,0.179Zm-0.372,-1.731c-0.059,0.099 -0.126,0.204 -0.203,0.313c-0.077,0.11 -0.115,0.244 -0.115,0.403c0.283,0.398 0.463,0.567 0.539,0.507c0.077,-0.059 0.003,-0.408 -0.221,-1.044l0,-0.09l0,-0.089Zm2.335,0.626l0.088,0l0,-0.119l-0.088,0.119Zm0.371,-0.895c-0.023,0 -0.035,0.02 -0.035,0.06c0,0.04 0.012,0.06 0.035,0.06c0.047,-0.08 0.047,-0.12 0,-0.12Zm4.333,0.06c0.024,0.04 0.042,0.06 0.053,0.06l0.089,0c0,-0.08 -0.03,-0.12 -0.089,-0.12l-0.035,0l-0.053,0l0.035,0.06Zm-4.952,-0.597c0.106,0 0.159,-0.1 0.159,-0.298l-0.017,-0.09c-0.012,0 -0.021,-0.02 -0.027,-0.06c-0.006,-0.039 -0.014,-0.059 -0.026,-0.059l-0.053,0l-0.036,0l0,0.507Zm-3.059,-0.209l0,-0.179l-0.106,0l0.106,0.179Zm0,-2.119c-0.024,0 0.009,0.085 0.097,0.254c0.088,0.169 0.192,0.358 0.309,0.567c0.118,0.209 0.236,0.398 0.354,0.567c0.118,0.169 0.189,0.254 0.212,0.254c0.083,0 0.104,-0.085 0.062,-0.254c-0.041,-0.169 -0.118,-0.358 -0.23,-0.567c-0.112,-0.209 -0.241,-0.398 -0.389,-0.567c-0.147,-0.169 -0.286,-0.254 -0.415,-0.254Zm2.865,-0.119c-0.059,0 -0.089,0.045 -0.089,0.134c0,0.09 0.03,0.134 0.089,0.134c0.059,0 0.088,-0.044 0.088,-0.134c0,-0.089 -0.029,-0.134 -0.088,-0.134Zm4.739,-0.358c0,0.159 0.036,0.268 0.107,0.328c0.07,0.06 0.135,0.089 0.194,0.089c0,-0.278 -0.071,-0.417 -0.212,-0.417l-0.089,0Zm-6.915,-0.09c0.059,0 0.107,-0.045 0.142,-0.134c0.035,-0.09 0.059,-0.174 0.071,-0.254l-0.213,0l0,0.388Zm5.324,-0.06l0.177,0c0,-0.099 -0.009,-0.199 -0.027,-0.298c-0.018,-0.099 -0.062,-0.149 -0.133,-0.149l-0.017,0l0,0.447Zm-4.846,-0.567c0,0.08 0.029,0.12 0.088,0.12l0,-0.06l0,-0.06l-0.088,-0.179c0,0.02 -0.003,0.035 -0.009,0.045c-0.006,0.01 -0.009,0.025 -0.009,0.045l0.018,0.089Zm-1.998,-0.358c0,0.04 0.011,0.105 0.035,0.194c0.023,0.09 0.047,0.145 0.071,0.164l0.566,-0.149l-0.425,-0.925c-0.012,0 -0.029,0.035 -0.053,0.104c-0.024,0.07 -0.05,0.145 -0.08,0.224c-0.029,0.08 -0.056,0.159 -0.079,0.239c-0.024,0.08 -0.035,0.129 -0.035,0.149Zm4.032,0.179l0.106,-0.179l0,-0.089l0,-0.06l-0.106,0.328Zm0.831,-0.179c-0.059,0 -0.088,0.06 -0.088,0.179c0,0.12 0.029,0.179 0.088,0.179c0.059,0 0.088,-0.059 0.088,-0.179c0,-0.119 -0.029,-0.179 -0.088,-0.179Zm0.195,0.179l0.07,-0.179l-0.07,0l0,0.179Zm1.945,-0.328c-0.035,-0.02 -0.053,0.005 -0.053,0.075c0,0.069 0.018,0.094 0.053,0.074c0.024,-0.02 0.035,-0.044 0.035,-0.074c0,-0.03 -0.011,-0.055 -0.035,-0.075Zm-4.917,-1.044c-0.07,0.079 -0.106,0.198 -0.106,0.358c0.083,0 0.148,-0.07 0.195,-0.209l-0.089,-0.149Zm3.042,0.328l0.213,0l-0.107,-0.179l-0.106,0.179Zm-4.952,-0.687c0,0.04 0.018,0.115 0.053,0.224c0.036,0.11 0.077,0.224 0.124,0.343c0.047,0.12 0.097,0.224 0.151,0.314c0.053,0.089 0.091,0.144 0.114,0.164l-0.176,-1.94c-0.024,0.02 -0.053,0.07 -0.089,0.149c-0.035,0.08 -0.065,0.169 -0.088,0.269c-0.024,0.099 -0.044,0.199 -0.062,0.298c-0.018,0.1 -0.027,0.159 -0.027,0.179Zm8.189,0.239c-0.059,0 -0.089,0.045 -0.089,0.134c0,0.09 0.03,0.135 0.089,0.135c0.035,0 0.053,-0.045 0.053,-0.135c0,-0.089 -0.018,-0.134 -0.053,-0.134Zm-3.042,-1.104c0,0.02 0.003,0.05 0.009,0.089c0.006,0.04 0.009,0.07 0.009,0.09c0.011,0.04 0.026,0.119 0.044,0.239c0.017,0.119 0.026,0.189 0.026,0.209l0.018,0.029c0.094,0 0.147,-0.084 0.159,-0.253c0.012,-0.169 0.018,-0.304 0.018,-0.403l-0.283,0Zm-3.148,0.179l0,-0.179l-0.089,0l0.089,0.179Zm-1.893,-0.179l0,-0.179l-0.088,0l0.088,0.179Zm-0.088,-0.716l0.088,0l0,-0.12l-0.088,0l0,0.12Zm7.711,-1.075c-0.047,0 -0.071,0.05 -0.071,0.15c0,0.099 0.024,0.149 0.071,0.149c0.059,0 0.088,-0.05 0.088,-0.149c0,-0.1 -0.029,-0.15 -0.088,-0.15Zm-0.531,-0.149l0,-0.328l-0.088,0.149l0.088,0.179Zm0.283,-0.776c-0.035,-0.02 -0.053,0.055 -0.053,0.224c0,0.169 0.018,0.244 0.053,0.224c0.024,-0.04 0.036,-0.115 0.036,-0.224c0,-0.109 -0.012,-0.184 -0.036,-0.224Zm-0.035,-0.567c0,0.1 0.024,0.174 0.071,0.224c0.047,0.05 0.088,0.075 0.123,0.075l0,-0.299l-0.194,0Zm-6.102,-0.418c0,0.1 0.018,0.199 0.054,0.299c0.035,0.099 0.088,0.149 0.159,0.149l0,-0.686c-0.059,0 -0.109,0.019 -0.151,0.059c-0.041,0.04 -0.062,0.1 -0.062,0.179Zm-1.52,-0.388l0.106,0.179c0,-0.02 0.003,-0.034 0.008,-0.044c0.006,-0.01 0.009,-0.025 0.009,-0.045c0,0 -0.006,-0.02 -0.017,-0.06l0,-0.03c0,-0.02 -0.012,-0.044 -0.036,-0.074c-0.023,-0.03 -0.047,-0.055 -0.07,-0.075l0,0.149Zm0.282,0l0.071,-0.149l-0.071,0l0,0.149Zm-0.282,-0.746l0.229,0c0,-0.119 -0.017,-0.224 -0.053,-0.313c-0.035,-0.09 -0.094,-0.134 -0.176,-0.134l0,0.447Zm6.968,-1.701c0,0.279 0.07,0.448 0.212,0.507c0.141,0.06 0.277,0.09 0.407,0.09c0,-0.338 -0.051,-0.522 -0.151,-0.552c-0.1,-0.03 -0.256,-0.045 -0.468,-0.045Z" style="fill-rule:nonzero;"/><path d="M101.182,87.558c0,-0.059 -0.015,-0.164 -0.044,-0.313c-0.03,-0.149 -0.051,-0.254 -0.062,-0.313c-0.012,-0.04 -0.039,-0.115 -0.08,-0.224c-0.041,-0.11 -0.074,-0.184 -0.097,-0.224c0,0.02 -0.012,0.05 -0.036,0.089c-0.023,0.04 -0.041,0.06 -0.053,0.06c-0.011,0.02 -0.041,0.055 -0.088,0.105c-0.047,0.049 -0.077,0.074 -0.088,0.074c-0.024,0 -0.056,0.04 -0.098,0.12c-0.041,0.079 -0.073,0.129 -0.097,0.149l-0.177,-0.269c-0.012,0.02 -0.038,0.07 -0.079,0.149c-0.042,0.08 -0.074,0.12 -0.098,0.12c0,0 -0.011,0.01 -0.035,0.03l-0.053,-0.03c-0.035,-0.02 -0.097,-0.07 -0.186,-0.149c-0.088,-0.08 -0.144,-0.12 -0.168,-0.12c-0.012,0 -0.026,-0.05 -0.044,-0.149c-0.018,-0.099 -0.032,-0.159 -0.044,-0.179c-0.036,-0.1 -0.071,-0.149 -0.106,-0.149c-0.024,0.039 -0.048,0.069 -0.071,0.089c-0.012,0.02 -0.03,0.03 -0.053,0.03c-0.012,0 -0.024,0.01 -0.036,0.03c0,0.02 -0.005,0.03 -0.017,0.03l-0.036,0l-0.035,0c-0.012,0 -0.018,-0.01 -0.018,-0.03c-0.011,-0.04 -0.05,-0.124 -0.115,-0.254c-0.064,-0.129 -0.109,-0.204 -0.132,-0.224c-0.012,0 -0.042,0.03 -0.089,0.09c-0.047,0.06 -0.076,0.089 -0.088,0.089l-0.106,0l-0.071,0c-0.035,0 -0.1,-0.024 -0.194,-0.074c-0.095,-0.05 -0.154,-0.085 -0.177,-0.105c-0.024,-0.019 -0.071,-0.064 -0.142,-0.134c-0.071,-0.07 -0.112,-0.114 -0.124,-0.134c-0.011,-0.02 -0.02,-0.065 -0.026,-0.134c-0.006,-0.07 -0.012,-0.15 -0.018,-0.239c-0.006,-0.09 -0.012,-0.174 -0.018,-0.254c-0.005,-0.079 -0.008,-0.129 -0.008,-0.149c-0.024,-0.06 -0.083,-0.189 -0.177,-0.388c-0.095,-0.199 -0.159,-0.318 -0.195,-0.358c-0.012,0.02 -0.032,0.045 -0.062,0.074c-0.029,0.03 -0.044,0.055 -0.044,0.075c0,0.02 -0.023,0.09 -0.071,0.209c-0.047,0.119 -0.076,0.199 -0.088,0.239c0,0.02 -0.006,0.03 -0.018,0.03l-0.035,0l-0.035,0c-0.012,0 -0.018,-0.01 -0.018,-0.03c-0.012,-0.02 -0.053,-0.07 -0.124,-0.15c-0.071,-0.079 -0.112,-0.129 -0.124,-0.149c-0.023,0 -0.07,-0.02 -0.141,-0.059c-0.071,-0.04 -0.112,-0.07 -0.124,-0.09c-0.012,-0.02 -0.032,-0.124 -0.062,-0.313c-0.029,-0.189 -0.044,-0.334 -0.044,-0.433c-0.012,-0.04 -0.018,-0.08 -0.018,-0.119l0,-0.18c0,-0.039 0.003,-0.099 0.009,-0.179c0.006,-0.079 0.009,-0.129 0.009,-0.149c0,-0.02 0.015,-0.05 0.044,-0.089c0.03,-0.04 0.05,-0.06 0.062,-0.06l-0.195,0l-0.176,-1.045l-0.107,0c0.012,0.06 0.009,0.165 -0.008,0.314c-0.018,0.149 -0.039,0.244 -0.062,0.283c-0.012,0.02 -0.033,0.035 -0.062,0.045c-0.03,0.01 -0.056,0.015 -0.08,0.015c-0.012,0 -0.032,-0.005 -0.062,-0.015c-0.029,-0.01 -0.05,-0.025 -0.062,-0.045c-0.011,-0.079 -0.029,-0.253 -0.053,-0.522c-0.023,-0.269 -0.041,-0.443 -0.053,-0.522c-0.011,-0.06 -0.026,-0.169 -0.044,-0.329c-0.018,-0.159 -0.032,-0.248 -0.044,-0.268c0,-0.04 -0.024,-0.075 -0.071,-0.105c-0.047,-0.029 -0.082,-0.044 -0.106,-0.044l0,-1.97c-0.024,-0.02 -0.056,-0.07 -0.097,-0.149c-0.042,-0.08 -0.068,-0.14 -0.08,-0.179c0,-0.02 -0.003,-0.07 -0.009,-0.15c-0.006,-0.079 -0.009,-0.139 -0.009,-0.179c0,-0.059 0.003,-0.139 0.009,-0.238c0.006,-0.1 0.009,-0.159 0.009,-0.179c0,-0.04 0.015,-0.145 0.044,-0.314c0.03,-0.169 0.051,-0.253 0.062,-0.253c0,-0.04 0.009,-0.175 0.027,-0.403c0.018,-0.229 0.032,-0.363 0.044,-0.403c0,-0.02 0.006,-0.04 0.018,-0.06c0.012,-0.02 0.017,-0.035 0.017,-0.045c0,-0.01 0.006,-0.025 0.018,-0.044l0.035,-0.12c0.012,-0.04 0.03,-0.144 0.054,-0.313c0.023,-0.169 0.035,-0.274 0.035,-0.314c0,-0.019 0.006,-0.074 0.018,-0.164c0.011,-0.089 0.02,-0.184 0.026,-0.283c0.006,-0.1 0.015,-0.194 0.027,-0.284c0.011,-0.089 0.017,-0.144 0.017,-0.164c0.012,-0.06 0.03,-0.169 0.053,-0.328c0.024,-0.159 0.042,-0.259 0.053,-0.299c0.012,0 0.027,-0.034 0.045,-0.104c0.017,-0.07 0.026,-0.124 0.026,-0.164c0.012,-0.04 0.044,-0.12 0.097,-0.239c0.053,-0.119 0.086,-0.199 0.098,-0.239c0,-0.02 0.012,-0.089 0.035,-0.209c0.024,-0.119 0.035,-0.199 0.035,-0.238c0.024,-0.02 0.042,-0.04 0.054,-0.06l0.053,-0.09c0,-0.019 0.011,-0.069 0.035,-0.149c0.024,-0.079 0.041,-0.129 0.053,-0.149c0.012,-0.08 0.068,-0.214 0.168,-0.403c0.1,-0.189 0.162,-0.303 0.186,-0.343c0,0 0.011,0.02 0.035,0.06c0.012,0.02 0.03,0.039 0.053,0.059c0.024,0.02 0.041,0.03 0.053,0.03l0.089,0c0.011,0 0.023,-0.01 0.035,-0.03c0.024,-0.02 0.056,-0.089 0.097,-0.209c0.042,-0.119 0.068,-0.199 0.08,-0.238c0.012,-0.02 0.044,-0.045 0.097,-0.075c0.053,-0.03 0.086,-0.055 0.097,-0.075c0.012,-0.019 0.039,-0.074 0.08,-0.164c0.041,-0.089 0.074,-0.144 0.097,-0.164c0.012,0 0.042,0.005 0.089,0.015c0.047,0.01 0.076,0.005 0.088,-0.015c0.024,0 0.044,-0.065 0.062,-0.194c0.018,-0.129 0.027,-0.214 0.027,-0.254c0.058,0.02 0.153,-0.004 0.282,-0.074c0.13,-0.07 0.219,-0.144 0.266,-0.224c0.023,-0.04 0.047,-0.154 0.071,-0.343c0.023,-0.189 0.029,-0.314 0.017,-0.373c0,0 0.012,-0.01 0.036,-0.03l0.053,0.03c0.023,0.02 0.056,0.064 0.097,0.134c0.041,0.07 0.062,0.114 0.062,0.134l0,0.329l0.106,0.119l0,0.298c-0.012,0.04 -0.03,0.08 -0.053,0.12c-0.024,0.04 -0.041,0.06 -0.053,0.06c-0.012,0.019 -0.047,0.014 -0.106,-0.015c-0.059,-0.03 -0.101,-0.045 -0.124,-0.045c0,0.06 -0.006,0.199 -0.018,0.418c-0.012,0.219 -0.012,0.348 0,0.388c0,0.039 0.009,0.099 0.027,0.179c0.017,0.079 0.038,0.129 0.062,0.149c0.011,0 0.026,-0.02 0.044,-0.06c0.018,-0.04 0.032,-0.079 0.044,-0.119c0.012,-0.04 0.038,-0.115 0.08,-0.224c0.041,-0.109 0.073,-0.184 0.097,-0.224c-0.024,0.06 -0.021,0.169 0.009,0.328c0.029,0.16 0.056,0.259 0.079,0.299c0.024,0.02 0.068,0.055 0.133,0.104c0.065,0.05 0.109,0.075 0.133,0.075l0,0.865l-0.106,0.15c-0.012,0 -0.027,-0.02 -0.045,-0.06c-0.017,-0.04 -0.026,-0.07 -0.026,-0.09c-0.012,-0.039 -0.03,-0.119 -0.053,-0.238c-0.024,-0.12 -0.036,-0.199 -0.036,-0.239c-0.011,-0.02 -0.026,-0.04 -0.044,-0.06c-0.018,-0.02 -0.032,-0.04 -0.044,-0.059c-0.012,0 -0.021,0.005 -0.027,0.015c-0.006,0.009 -0.014,0.014 -0.026,0.014l-0.036,0c0,0.02 -0.002,0.06 -0.008,0.12c-0.006,0.059 -0.009,0.109 -0.009,0.149c0,0.04 0.017,0.114 0.053,0.224c0.035,0.109 0.053,0.184 0.053,0.224c-0.012,0.02 -0.024,0.03 -0.035,0.03c-0.012,0 -0.03,0.009 -0.054,0.029c-0.023,0.02 -0.053,0.04 -0.088,0.06c-0.024,0.04 -0.044,0.124 -0.062,0.254c-0.018,0.129 -0.026,0.204 -0.026,0.224c-0.024,0.039 -0.056,0.139 -0.098,0.298c-0.041,0.159 -0.067,0.259 -0.079,0.298l-0.106,0.18c-0.024,0.019 -0.059,0.014 -0.106,-0.015c-0.048,-0.03 -0.083,-0.045 -0.107,-0.045l0,0.686l-0.053,0c-0.047,0 -0.07,-0.01 -0.07,-0.03c-0.024,-0.02 -0.074,-0.069 -0.151,-0.149c-0.076,-0.079 -0.121,-0.129 -0.132,-0.149c-0.012,0 -0.018,0.005 -0.018,0.015c0,0.01 -0.006,0.015 -0.018,0.015l-0.035,0c0,0.02 -0.006,0.04 -0.018,0.059c-0.012,0.02 -0.012,0.04 0,0.06c0.012,0.04 0.039,0.134 0.08,0.284c0.041,0.149 0.074,0.253 0.097,0.313c0,0.04 -0.012,0.075 -0.035,0.104c-0.024,0.03 -0.042,0.045 -0.053,0.045c-0.012,0 -0.053,-0.02 -0.124,-0.059c-0.071,-0.04 -0.118,-0.07 -0.142,-0.09c-0.011,0 -0.029,0.005 -0.053,0.015c-0.023,0.01 -0.041,0.015 -0.053,0.015c0,0.02 0.003,0.04 0.009,0.06c0.006,0.019 0.009,0.039 0.009,0.059c-0.012,0.04 -0.032,0.12 -0.062,0.239c-0.029,0.119 -0.044,0.199 -0.044,0.239l0,0.119c0,0.02 0.018,0.05 0.053,0.09c0.035,0.039 0.053,0.069 0.053,0.089l0,0.448c-0.012,0.04 -0.032,0.164 -0.062,0.373c-0.029,0.209 -0.044,0.333 -0.044,0.373l0,0.627c0,0.02 -0.012,0.089 -0.036,0.209c-0.023,0.119 -0.035,0.199 -0.035,0.238c-0.012,0.04 -0.029,0.194 -0.053,0.463c-0.024,0.269 -0.041,0.462 -0.053,0.582l0,0.149l0.371,-0.269l0.071,0.269l-0.071,0.06c-0.011,0.02 -0.02,0.03 -0.026,0.03c-0.006,0 -0.015,0.01 -0.027,0.029c-0.011,0.02 -0.023,0.03 -0.035,0.03c-0.012,0 -0.032,0.015 -0.062,0.045c-0.029,0.03 -0.044,0.065 -0.044,0.105l0,0.059c0,0.02 0.003,0.04 0.009,0.06c0.006,0.02 0.009,0.04 0.009,0.06l0.194,0c-0.012,0.019 -0.018,0.039 -0.018,0.059l0,0.06c-0.011,0.02 -0.029,0.07 -0.053,0.149c-0.023,0.08 -0.035,0.139 -0.035,0.179c-0.012,0 -0.018,0.01 -0.018,0.03l0,0.06l0.018,0.03c0.012,0.02 0.041,0.049 0.088,0.089c0.048,0.04 0.071,0.07 0.071,0.09c0,0.02 -0.012,0.064 -0.035,0.134c-0.024,0.07 -0.036,0.124 -0.036,0.164l0,0.149c0,0.02 0.012,0.05 0.036,0.09c0.023,0.04 0.035,0.07 0.035,0.089c0,-0.039 0.015,-0.079 0.044,-0.119c0.03,-0.04 0.05,-0.06 0.062,-0.06l0.018,0c0.012,0 0.018,-0.005 0.018,-0.015c0,-0.01 0.006,-0.015 0.017,-0.015c0.012,0 0.024,0.01 0.036,0.03c0.011,0.02 0.026,0.065 0.044,0.135c0.018,0.069 0.032,0.124 0.044,0.164c0,0.02 0.009,0.05 0.027,0.089c0.017,0.04 0.038,0.06 0.062,0.06c0.011,0 0.038,0.02 0.079,0.06c0.041,0.039 0.074,0.079 0.097,0.119c0.012,0 0.042,0.06 0.089,0.179c0.047,0.12 0.082,0.199 0.106,0.239c0,0.02 0.009,0.07 0.026,0.149c0.018,0.08 0.033,0.129 0.045,0.149c0,0.04 0.011,0.075 0.035,0.105c0.024,0.03 0.047,0.045 0.071,0.045c0,-0.02 0.009,-0.07 0.026,-0.15c0.018,-0.079 0.039,-0.129 0.062,-0.149l0.089,0l0.088,0.149c0.024,0.04 0.047,0.09 0.071,0.15l0,0.447c0,0.04 0.012,0.075 0.035,0.105c0.024,0.029 0.047,0.044 0.071,0.044c0,-0.039 0.012,-0.089 0.035,-0.149c0.024,-0.059 0.042,-0.109 0.053,-0.149l0.089,0c0.023,0.04 0.109,0.124 0.256,0.254c0.148,0.129 0.233,0.204 0.257,0.223c0.023,0.02 0.07,0.045 0.141,0.075c0.071,0.03 0.118,0.045 0.142,0.045c0.011,0 0.032,0.005 0.062,0.015c0.029,0.01 0.056,0.015 0.079,0.015l0.089,0c0.011,0 0.023,-0.01 0.035,-0.03c0.023,0 0.071,-0.015 0.141,-0.045c0.071,-0.03 0.112,-0.055 0.124,-0.075l0.283,0c0.024,0.02 0.068,0.095 0.133,0.224c0.065,0.13 0.109,0.204 0.132,0.224l0.053,0.03c0.012,0 0.024,-0.01 0.036,-0.03c0.023,-0.02 0.071,-0.07 0.141,-0.149c0.071,-0.08 0.118,-0.139 0.142,-0.179c0.023,-0.02 0.068,-0.045 0.132,-0.075c0.065,-0.03 0.11,-0.045 0.133,-0.045c0.012,0 0.053,0.02 0.124,0.06c0.071,0.04 0.112,0.06 0.124,0.06c0.023,0.02 0.085,0.025 0.185,0.015c0.101,-0.01 0.163,-0.015 0.186,-0.015c0.024,0.02 0.056,0.079 0.097,0.179c0.042,0.099 0.068,0.149 0.08,0.149c0.024,0.04 0.068,0.07 0.133,0.09c0.064,0.02 0.109,0.03 0.132,0.03l0.195,0c0.035,-0.02 0.065,-0.04 0.088,-0.06c0.047,-0.04 0.077,-0.06 0.089,-0.06l0.265,0c0.023,0.02 0.053,0.075 0.088,0.164c0.036,0.09 0.065,0.135 0.089,0.135c0.035,0.039 0.103,0.034 0.203,-0.015c0.1,-0.05 0.162,-0.075 0.186,-0.075c0,-0.06 -0.006,-0.149 -0.018,-0.269c-0.012,-0.119 -0.012,-0.208 0,-0.268c0,-0.02 0.006,-0.04 0.018,-0.06c0.012,-0.02 0.02,-0.03 0.026,-0.03c0.006,0 0.015,-0.01 0.027,-0.03c0.023,-0.019 0.059,-0.054 0.106,-0.104c0.047,-0.05 0.077,-0.075 0.088,-0.075l0.619,0c0.012,0 0.051,-0.015 0.115,-0.044c0.065,-0.03 0.133,-0.06 0.204,-0.09c0.071,-0.03 0.135,-0.065 0.194,-0.104c0.059,-0.04 0.101,-0.06 0.124,-0.06l0.531,0c0.035,-0.02 0.065,-0.04 0.088,-0.06c0.024,-0.02 0.041,-0.04 0.053,-0.059c0.012,-0.02 0.024,-0.03 0.036,-0.03c0.023,0 0.082,0.005 0.176,0.015c0.095,0.01 0.154,0.005 0.177,-0.015c0.012,0 0.041,-0.045 0.089,-0.135c0.047,-0.089 0.082,-0.144 0.106,-0.164c0.023,-0.02 0.112,-0.064 0.265,-0.134c0.153,-0.07 0.265,-0.124 0.336,-0.164l0.106,0c0.012,0 0.03,0.02 0.053,0.06c0.024,0.039 0.036,0.069 0.036,0.089c0,0.04 0.008,0.174 0.026,0.403c0.018,0.229 0.033,0.393 0.044,0.492c0,0.04 0.003,0.095 0.009,0.165c0.006,0.069 0.009,0.114 0.009,0.134l-0.283,0c0,0.079 -0.009,0.209 -0.026,0.388c-0.018,0.179 -0.042,0.363 -0.071,0.552c-0.03,0.189 -0.059,0.368 -0.089,0.537c-0.029,0.169 -0.056,0.284 -0.079,0.343c-0.024,0.06 -0.065,0.15 -0.124,0.269c-0.059,0.119 -0.127,0.249 -0.203,0.388c-0.077,0.139 -0.151,0.264 -0.221,0.373c-0.071,0.109 -0.124,0.174 -0.16,0.194c-0.023,-0.02 -0.082,-0.045 -0.176,-0.075c-0.095,-0.03 -0.154,-0.054 -0.177,-0.074l-0.213,0l-0.141,0c-0.035,0.02 -0.097,0.064 -0.186,0.134c-0.088,0.07 -0.18,0.144 -0.274,0.224c-0.094,0.079 -0.183,0.159 -0.265,0.239c-0.083,0.079 -0.142,0.129 -0.177,0.149c0,-0.06 -0.009,-0.189 -0.027,-0.388c-0.017,-0.199 -0.038,-0.319 -0.061,-0.358c-0.012,-0.04 -0.053,-0.07 -0.124,-0.09c-0.071,-0.02 -0.118,-0.04 -0.142,-0.06c-0.012,0 -0.032,-0.024 -0.062,-0.074c-0.029,-0.05 -0.044,-0.085 -0.044,-0.105c-0.012,0 -0.038,-0.014 -0.079,-0.044c-0.042,-0.03 -0.068,-0.055 -0.08,-0.075l-0.053,0l-0.053,0c-0.012,0.02 -0.021,0.03 -0.027,0.03c-0.006,0 -0.014,0.01 -0.026,0.03c-0.012,0.02 -0.018,0.04 -0.018,0.059c-0.012,0.04 -0.018,0.12 -0.018,0.239c0,0.12 0.006,0.199 0.018,0.239c-0.012,0 -0.032,-0.02 -0.062,-0.06c-0.029,-0.04 -0.044,-0.069 -0.044,-0.089c-0.012,-0.04 -0.029,-0.115 -0.053,-0.224c-0.024,-0.11 -0.035,-0.184 -0.035,-0.224c-0.036,-0.099 -0.065,-0.149 -0.089,-0.149l-0.354,0.268l0,1.015c-0.023,0 -0.053,0.01 -0.088,0.03c-0.035,0.02 -0.065,0.03 -0.088,0.03c-0.012,0.02 -0.03,0.069 -0.053,0.149c-0.024,0.08 -0.042,0.129 -0.053,0.149c-0.024,0.06 -0.068,0.149 -0.133,0.269c-0.065,0.119 -0.109,0.189 -0.133,0.209c-0.023,0.02 -0.097,0.069 -0.221,0.149c-0.124,0.08 -0.197,0.119 -0.221,0.119l-0.106,0.179l-0.018,0l-0.053,0c-0.035,-0.019 -0.085,-0.049 -0.15,-0.089c-0.065,-0.04 -0.103,-0.07 -0.115,-0.09c-0.024,0 -0.059,-0.039 -0.106,-0.119c-0.047,-0.08 -0.071,-0.129 -0.071,-0.149c-0.012,-0.04 -0.029,-0.12 -0.053,-0.239c-0.024,-0.119 -0.041,-0.199 -0.053,-0.239l-0.159,0.179Zm1.167,-0.716c-0.035,0 -0.071,0.03 -0.106,0.09c-0.012,0.039 -0.027,0.114 -0.044,0.223c-0.018,0.11 -0.033,0.184 -0.044,0.224c-0.012,0.04 -0.018,0.095 -0.018,0.164c0,0.07 0,0.115 0,0.135l0.106,0c0.012,0 0.026,-0.075 0.044,-0.224c0.018,-0.149 0.033,-0.274 0.044,-0.373l0,-0.12c0,-0.039 0.003,-0.064 0.009,-0.074c0.006,-0.01 0.009,-0.025 0.009,-0.045Zm-1.008,-0.209c0.012,0.04 0.041,0.12 0.088,0.239c0.048,0.119 0.077,0.189 0.089,0.209c0,0.02 0.006,0.03 0.018,0.03l0.07,0c0.012,0 0.018,-0.01 0.018,-0.03c0.012,0 0.026,-0.02 0.044,-0.06c0.018,-0.04 0.027,-0.07 0.027,-0.089l0,-0.03c0,-0.02 0.003,-0.03 0.009,-0.03c0.005,0 0.008,-0.01 0.008,-0.03c0,-0.02 -0.006,-0.03 -0.017,-0.03c0,-0.02 -0.024,-0.05 -0.071,-0.089c-0.047,-0.04 -0.083,-0.07 -0.106,-0.09l-0.071,0l-0.106,0Zm3.449,-0.806c-0.012,0 -0.033,0.005 -0.062,0.015c-0.03,0.01 -0.05,0.025 -0.062,0.045c-0.012,0.02 -0.03,0.065 -0.053,0.134c-0.024,0.07 -0.036,0.125 -0.036,0.164c-0.011,0.04 -0.02,0.12 -0.026,0.239c-0.006,0.12 -0.009,0.199 -0.009,0.239c0.012,0 0.032,0 0.062,0c0.029,0 0.05,-0.01 0.062,-0.03c0.023,0 0.044,-0.02 0.062,-0.06c0.017,-0.039 0.026,-0.069 0.026,-0.089c0,-0.04 0.006,-0.149 0.018,-0.328c0.012,-0.179 0.018,-0.289 0.018,-0.329Zm1.308,0.179c-0.047,0 -0.07,0.055 -0.07,0.165c0,0.109 0.023,0.164 0.07,0.164c0.059,0 0.089,-0.055 0.089,-0.164c0,-0.11 -0.03,-0.165 -0.089,-0.165Zm-3.13,-0.268c-0.047,0 -0.071,0.045 -0.071,0.134c0,0.09 0.024,0.134 0.071,0.134c0.047,0 0.071,-0.044 0.071,-0.134c0,-0.089 -0.024,-0.134 -0.071,-0.134Zm-0.813,-0.299c0,0.04 0.008,0.095 0.026,0.165c0.018,0.069 0.038,0.114 0.062,0.134c0.024,-0.02 0.059,-0.065 0.106,-0.134c0.047,-0.07 0.077,-0.125 0.088,-0.165c0.012,-0.02 0.018,-0.059 0.018,-0.119c0,-0.06 0,-0.099 0,-0.119c-0.012,0 -0.044,0.01 -0.097,0.029c-0.053,0.02 -0.091,0.03 -0.115,0.03c-0.059,0.06 -0.088,0.12 -0.088,0.179Zm2.422,-0.328c0.012,0 0.027,-0.02 0.045,-0.06c0.017,-0.039 0.032,-0.069 0.044,-0.089l0,-0.06l0,-0.089l-0.089,0.298Zm1.875,-0.209c0,0.02 0.006,0.04 0.018,0.06c0,0.02 0.009,0.05 0.026,0.089c0.018,0.04 0.033,0.06 0.045,0.06c0.011,0 0.029,-0.02 0.053,-0.06c0.023,-0.039 0.035,-0.069 0.035,-0.089l0,-0.06c0,-0.02 0.003,-0.035 0.009,-0.045c0.006,-0.01 0.009,-0.024 0.009,-0.044c0,-0.04 0.006,-0.09 0.017,-0.15l-0.123,0c-0.012,0 -0.027,0.02 -0.045,0.06c-0.017,0.04 -0.026,0.07 -0.026,0.09l-0.018,0.089Zm-1.609,-0.239c-0.047,0 -0.071,0.05 -0.071,0.15c0,0.099 0.024,0.149 0.071,0.149c0.059,0 0.088,-0.05 0.088,-0.149c0,-0.1 -0.029,-0.15 -0.088,-0.15Zm0.283,-0.298c-0.036,-0.02 -0.053,0.005 -0.053,0.075c0,0.069 0.017,0.094 0.053,0.074c0.059,-0.04 0.059,-0.089 0,-0.149Zm-3.873,-0.149c-0.024,-0.02 -0.036,0.005 -0.036,0.074c0,0.07 0.012,0.095 0.036,0.075c0.035,-0.02 0.053,-0.045 0.053,-0.075c0,-0.029 -0.018,-0.054 -0.053,-0.074Zm0.548,-0.149l0.088,0l-0.088,-0.179l0,0.179Zm-5.288,-6.506c0,0.02 0.015,0.049 0.044,0.089c0.03,0.04 0.05,0.07 0.062,0.09l0.071,0c0,0 0.017,-0.03 0.053,-0.09c0.012,-0.02 0.023,-0.05 0.035,-0.089l-0.159,-0.567c-0.012,0 -0.032,0.059 -0.062,0.179c-0.029,0.119 -0.044,0.199 -0.044,0.238l0,0.15Zm2.865,-6.178c0.012,-0.02 0.026,-0.095 0.044,-0.224c0.018,-0.129 0.027,-0.214 0.027,-0.254l0,-0.059l0,-0.09c0,-0.059 -0.009,-0.144 -0.027,-0.253c-0.018,-0.11 -0.032,-0.175 -0.044,-0.194c-0.012,-0.02 -0.053,-0.095 -0.124,-0.224c-0.071,-0.13 -0.118,-0.214 -0.141,-0.254c-0.012,-0.04 -0.033,-0.089 -0.062,-0.149c-0.03,-0.06 -0.044,-0.11 -0.044,-0.149c0.023,-0.02 0.041,-0.04 0.053,-0.06l0.053,-0.09l0.07,0c0.012,0.02 0.024,0.035 0.036,0.045c0.012,0.01 0.023,0.025 0.035,0.045l0.035,0.06c0,0.039 0.012,0.099 0.036,0.179c0.023,0.079 0.041,0.119 0.053,0.119c0.023,0.04 0.056,0.04 0.097,0c0.041,-0.04 0.068,-0.06 0.08,-0.06l0,-0.805c0.023,0.019 0.053,0.069 0.088,0.149c0.036,0.079 0.065,0.129 0.089,0.149l0.265,0c0.023,0 0.044,-0.02 0.062,-0.06c0.017,-0.039 0.026,-0.069 0.026,-0.089c0.024,-0.06 0.045,-0.189 0.062,-0.388c0.018,-0.199 0.027,-0.319 0.027,-0.358c0.023,0.039 0.068,0.089 0.132,0.149c0.065,0.06 0.109,0.109 0.133,0.149l0.106,0c0.012,-0.04 0.065,-0.114 0.159,-0.224c0.095,-0.109 0.159,-0.194 0.195,-0.253l0.088,-0.15c0.012,-0.019 0.03,-0.069 0.053,-0.149c0.024,-0.079 0.036,-0.129 0.036,-0.149l0.23,0.448l0,-0.985c0.082,0.02 0.159,0.03 0.23,0.03c0.058,0.02 0.12,0.029 0.185,0.029c0.065,0 0.121,0.01 0.168,0.03c0.012,0 0.018,0.01 0.018,0.03c0,0.04 0.006,0.06 0.018,0.06l0.035,0.06c0.012,0 0.044,-0.005 0.097,-0.015c0.053,-0.01 0.086,-0.005 0.098,0.015c0.011,0.019 0.026,0.094 0.044,0.223c0.017,0.13 0.032,0.214 0.044,0.254c0.012,0.02 0.026,0.065 0.044,0.134c0.018,0.07 0.033,0.115 0.044,0.135l0.106,0.179l0.071,0c0.036,-0.04 0.077,-0.14 0.124,-0.299c0.047,-0.159 0.071,-0.268 0.071,-0.328c0,-0.04 -0.03,-0.095 -0.089,-0.164c-0.059,-0.07 -0.094,-0.115 -0.106,-0.134c0,0 -0.012,-0.05 -0.035,-0.15c-0.012,-0.039 -0.018,-0.089 -0.018,-0.149l0.955,0c0.012,0.04 0.027,0.114 0.044,0.224c0.018,0.109 0.033,0.184 0.045,0.224c0.023,0.04 0.056,0.119 0.097,0.239c0.041,0.119 0.074,0.189 0.097,0.208l0.071,0c-0.012,-0.039 -0.003,-0.139 0.026,-0.298c0.03,-0.159 0.056,-0.259 0.08,-0.298c0.012,-0.02 0.068,-0.045 0.168,-0.075c0.1,-0.03 0.162,-0.055 0.186,-0.075c0,-0.02 0.012,-0.069 0.035,-0.149c0.024,-0.079 0.041,-0.129 0.053,-0.149c0,0 0.012,-0.01 0.036,-0.03l0.053,0.03c0.011,0.02 0.041,0.065 0.088,0.134c0.047,0.07 0.077,0.125 0.088,0.164l0.089,0c0.012,-0.02 0.041,-0.049 0.088,-0.089c0.047,-0.04 0.077,-0.06 0.089,-0.06c0.011,0 0.029,-0.005 0.053,-0.015c0.023,-0.01 0.041,-0.015 0.053,-0.015l0,0.806c0.012,0 0.038,0.015 0.079,0.045c0.042,0.03 0.074,0.055 0.098,0.074c0.011,0.04 0.023,0.07 0.035,0.09c0.024,0.04 0.041,0.06 0.053,0.06l0.071,0c0.012,0 0.041,0.025 0.088,0.074c0.047,0.05 0.083,0.085 0.106,0.105l0.089,0c0.012,0.039 0.026,0.134 0.044,0.283c0.018,0.149 0.032,0.254 0.044,0.314l0,0.417l-0.371,-0.268c-0.024,0.02 -0.044,0.059 -0.062,0.119c-0.018,0.06 -0.021,0.11 -0.009,0.149c0,0.04 0.027,0.12 0.08,0.239c0.053,0.12 0.085,0.189 0.097,0.209l0,0.925c0,0.04 -0.015,0.075 -0.044,0.105c-0.03,0.03 -0.05,0.044 -0.062,0.044c-0.012,0 -0.041,-0.019 -0.089,-0.059c-0.023,-0.02 -0.047,-0.05 -0.07,-0.09c-0.036,0 -0.101,0.01 -0.195,0.03c-0.094,0.02 -0.153,0.03 -0.177,0.03l0,0.448c-0.035,0 -0.065,-0.02 -0.088,-0.06l-0.177,-0.299c-0.035,0.04 -0.065,0.07 -0.088,0.09c-0.012,0.02 -0.03,0.03 -0.053,0.03c-0.012,0 -0.024,0.01 -0.036,0.03c-0.023,0 -0.071,-0.04 -0.141,-0.12c-0.071,-0.079 -0.118,-0.139 -0.142,-0.179c-0.012,-0.02 -0.023,-0.094 -0.035,-0.224c-0.012,-0.129 -0.024,-0.204 -0.036,-0.223c-0.023,-0.04 -0.079,-0.14 -0.168,-0.299c-0.088,-0.159 -0.156,-0.259 -0.203,-0.298c-0.012,-0.02 -0.038,-0.05 -0.08,-0.09c-0.041,-0.04 -0.073,-0.069 -0.097,-0.089c-0.012,0 -0.065,-0.02 -0.159,-0.06c-0.094,-0.04 -0.159,-0.07 -0.195,-0.09l-0.053,0l-0.035,0c-0.012,0.02 -0.044,0.05 -0.097,0.09c-0.053,0.04 -0.086,0.06 -0.097,0.06c-0.012,0 -0.042,-0.015 -0.089,-0.045c-0.047,-0.03 -0.071,-0.065 -0.071,-0.105c-0.035,0.04 -0.1,0.115 -0.194,0.224c-0.095,0.11 -0.153,0.184 -0.177,0.224c-0.024,0.04 -0.083,0.1 -0.177,0.179c-0.094,0.08 -0.153,0.119 -0.177,0.119c-0.023,0.02 -0.085,0.055 -0.185,0.105c-0.101,0.05 -0.163,0.075 -0.186,0.075c-0.012,0.019 -0.041,0.049 -0.089,0.089c-0.047,0.04 -0.076,0.06 -0.088,0.06c-0.012,0.02 -0.068,0.025 -0.168,0.015c-0.1,-0.01 -0.162,-0.015 -0.186,-0.015c-0.012,0 -0.038,0.02 -0.079,0.059c-0.042,0.04 -0.074,0.06 -0.098,0.06c0,0.02 -0.014,0.055 -0.044,0.105c-0.029,0.049 -0.05,0.074 -0.062,0.074c0,0.02 -0.023,0.05 -0.07,0.09c-0.048,0.04 -0.077,0.059 -0.089,0.059c-0.035,0.04 -0.109,0.12 -0.221,0.239c-0.112,0.12 -0.192,0.199 -0.239,0.239c0,0.02 -0.038,0.07 -0.115,0.149c-0.076,0.08 -0.126,0.12 -0.15,0.12c-0.024,0.039 -0.053,0.079 -0.088,0.119c-0.036,0.04 -0.065,0.06 -0.089,0.06c-0.012,0.019 -0.023,0.029 -0.035,0.029l-0.053,0l-0.053,0c-0.012,0 -0.03,-0.01 -0.053,-0.029l-0.036,-0.06c-0.023,-0.04 -0.035,-0.08 -0.035,-0.119l0,-0.12l0,-0.149Zm5.642,-1.671c-0.036,0 -0.053,0.049 -0.053,0.149c0,0.099 0.017,0.149 0.053,0.149c0.059,0 0.088,-0.05 0.088,-0.149c0,-0.1 -0.029,-0.149 -0.088,-0.149Zm-0.071,-0.896c-0.036,-0.039 -0.053,-0.025 -0.053,0.045c0,0.07 0.017,0.105 0.053,0.105c0.059,-0.1 0.059,-0.15 0,-0.15Zm-2.512,-0.149c-0.058,0 -0.088,0.05 -0.088,0.149c0,0.1 0.03,0.15 0.088,0.15c0.036,0 0.054,-0.05 0.054,-0.15c0,-0.099 -0.018,-0.149 -0.054,-0.149Zm-0.76,-0.656c0,0.019 0.003,0.074 0.009,0.164c0.006,0.089 0.009,0.154 0.009,0.194c0.011,0.02 0.029,0.039 0.053,0.059c0.023,0.02 0.041,0.04 0.053,0.06l0.088,0c0.012,-0.02 0.027,-0.04 0.044,-0.06c0.018,-0.02 0.027,-0.039 0.027,-0.059c0,-0.04 -0.021,-0.1 -0.062,-0.179c-0.041,-0.08 -0.074,-0.13 -0.097,-0.15c0,-0.019 -0.018,-0.029 -0.053,-0.029c-0.036,0 -0.059,0 -0.071,0Zm2.635,-0.269c0,0.02 0.012,0.05 0.036,0.09c0.023,0.039 0.041,0.069 0.053,0.089l0,-0.089l0,-0.09c-0.036,-0.1 -0.065,-0.149 -0.089,-0.149l-0.018,0.059l0.018,0.09Z" style="fill-rule:nonzero;"/><path d="M109.587,74.224l1.295,-1.472c1.885,-0.524 3.413,-1.409 4.582,-2.656c1.169,-1.248 1.753,-2.616 1.753,-4.105c0,-0.861 -0.274,-1.574 -0.824,-2.137c-0.55,-0.564 -1.246,-0.845 -2.088,-0.845c-1.016,0 -1.997,0.434 -2.943,1.304c-0.063,-0.169 -0.094,-0.278 -0.094,-0.326c0,-0.427 0.546,-0.908 1.639,-1.443c1.092,-0.535 2.07,-0.803 2.933,-0.803c0.856,0 1.607,0.314 2.254,0.942c0.647,0.628 0.971,1.356 0.971,2.185c0,1.127 -0.586,2.455 -1.759,3.984c-1.172,1.529 -2.604,2.829 -4.295,3.9l6.117,0.35l-1.222,1.436l-8.319,-0.314Z" style="fill-rule:nonzero;"/><path d="M55,127l-30,-42.6c-4.3,-6 -4.1,-14.1 0.3,-20l31.3,-41.8c2.7,-3.6 6.5,-5.8 10.7,-6.6c-6.3,-1 -12.8,1.4 -16.7,6.6l-31.2,41.8c-4.4,5.9 -4.5,14 -0.3,20l30.1,42.6c3.8,5.4 10.4,8 16.8,6.9c-4.3,-0.7 -8.3,-3.1 -11,-6.9Z" style="fill:#f58f72;fill-rule:nonzero;stroke:#000;stroke-width:2px;"/></svg>