<?xml version="1.0" encoding="utf-8"?>
<!-- Generator: Adobe Illustrator 18.0.0, SVG Export Plug-In . SVG Version: 6.00 Build 0)  -->
<!DOCTYPE svg PUBLIC "-//W3C//DTD SVG 1.1//EN" "http://www.w3.org/Graphics/SVG/1.1/DTD/svg11.dtd">
<svg version="1.1" id="Layer_1" xmlns="http://www.w3.org/2000/svg" xmlns:xlink="http://www.w3.org/1999/xlink" x="0px" y="0px"
	 viewBox="0 0 450 250" enable-background="new 0 0 450 250" xml:space="preserve">
<circle fill="#7E69AD" stroke="#000000" stroke-width="2" stroke-miterlimit="10" cx="90.6" cy="67.9" r="55.9"/>
<circle fill="#7E69AD" stroke="#000000" stroke-width="2" stroke-miterlimit="10" cx="252.5" cy="67.9" r="55.9"/>
<path fill="#7E69AD" stroke="#000000" stroke-width="2" stroke-miterlimit="10" d="M442.2,116.1h-68.5l-37.3,24.1v-16.8
	c0-15.9-12.2-29.1-27.8-30.5c-9.1,23.9-32.2,40.8-59.2,40.8c-27.1,0-50.2-17.2-59.3-41h-43.4c-9.1,23.8-32.2,41-59.3,41
	c-27,0-50.4-16.9-59.6-40.6c-14.7,2.3-26.4,15-26.4,30.3v91.4C1.5,231.6,16.1,246,33,246h273c16.9,0,30.5-14.4,30.5-31.3v-7.3
	l22.9,15.2h82.8c3.7,0,6.5-3.6,6.5-7.3v-93C448.8,118.6,446,116.1,442.2,116.1z"/>
<path fill="#EE599F" stroke="#000000" stroke-width="2" stroke-miterlimit="10" d="M308.5,87.7c-9.1,23.9-32,41.1-59.1,41.1
	c-27.1,0-50.1-17.8-59.2-40.8h-43.4c-9.1,23-32.2,40.8-59.3,40.8c-27,0-50.7-17-59.8-40.7C13,90.3,1,102.9,1,118.2v5.1
	C1,108,13,95.3,27.7,93c9.2,23.8,32.6,40.8,59.6,40.8c27.1,0,50.5-17.8,59.6-40.8h43.4c9.1,23,32.2,40.8,59.3,40.8
	c27.1,0,49.9-17,59-40.9c15.6,1.4,27.5,14.5,27.5,30.4v-5.1C336,102.3,324,89.1,308.5,87.7z"/>
<path fill="#F58F72" stroke="#000000" stroke-width="2" stroke-miterlimit="10" d="M34.7,67.9c0-29.8,23.4-54.2,52.8-55.8
	c-1-0.1-2.1-0.1-3.1-0.1c-30.9,0-55.9,25-55.9,55.9c0,30.9,25,55.9,55.9,55.9c1,0,2.1,0,3.1-0.1C58,122.1,34.7,97.7,34.7,67.9z"/>
<path fill="#F58F72" stroke="#000000" stroke-width="2" stroke-miterlimit="10" d="M196.6,67.9c0-30,23.7-54.5,53.3-55.8
	c-0.8,0-1.7-0.1-2.6-0.1c-30.9,0-55.9,25-55.9,55.9c0,30.9,25,55.9,55.9,55.9c0.9,0,1.7,0,2.6-0.1
	C220.3,122.4,196.6,97.9,196.6,67.9z"/>
<path fill="#EE599F" stroke="#000000" stroke-width="2" stroke-miterlimit="10" d="M273.1,208.9H99.4c-6.6,0-12-5.4-12-12v-22.6
	c0-6.6,5.4-12,12-12h173.7c6.6,0,12,5.4,12,12v22.6C285.1,203.5,279.7,208.9,273.1,208.9z"/>
<path fill="#F58F72" stroke="#000000" stroke-width="2" stroke-miterlimit="10" d="M280.3,162.4h-6.8c6.4,0,11.6,5.2,11.6,11.6v23.3
	c0,6.4-5.2,11.6-11.6,11.6h6.8c6.4,0,11.6-5.2,11.6-11.6V174C291.9,167.6,286.7,162.4,280.3,162.4z"/>
</svg>
