<?xml version="1.0" encoding="UTF-8" standalone="no"?><!DOCTYPE svg PUBLIC "-//W3C//DTD SVG 1.1//EN" "http://www.w3.org/Graphics/SVG/1.1/DTD/svg11.dtd"><svg width="100%" height="100%" viewBox="0 0 180 250" version="1.1" xmlns="http://www.w3.org/2000/svg" xmlns:xlink="http://www.w3.org/1999/xlink" xml:space="preserve" style="fill-rule:evenodd;clip-rule:evenodd;stroke-miterlimit:10;"><circle cx="70.6" cy="123.4" r="52.1" style="fill:#7e69ad;stroke:#000;stroke-width:2px;"/><path d="M66.6,66.3l-29.5,7.7c-2.2,0.6 -4.4,-0.8 -5,-2.9l-0.4,-1.6c-0.6,-2.2 0.8,-4.4 2.9,-5l29.5,-7.7c2.2,-0.6 4.4,0.8 5,2.9l0.4,1.6c0.6,2.2 -0.7,4.4 -2.9,5Z" style="fill:#ee599f;fill-rule:nonzero;stroke:#000;stroke-width:2px;"/><path d="M74.3,134.1l-1,1.9c-1.5,2.6 -4.8,3.6 -7.5,2.2l-29.9,-16.5c-2.6,-1.5 -3.6,-4.8 -2.2,-7.5l1,-1.9c1.5,-2.6 4.8,-3.6 7.5,-2.2l29.8,16.4c2.8,1.5 3.7,4.9 2.3,7.6Z" style="fill:#ee599f;fill-rule:nonzero;stroke:#000;stroke-width:2px;"/><path d="M68.6,138.2l-1.9,-1c-2.7,-1.4 -3.7,-4.8 -2.2,-7.5l20.2,-37.4c1.4,-2.7 4.8,-3.7 7.5,-2.2l1.9,1c2.7,1.4 3.7,4.8 2.2,7.5l-20.2,37.4c-1.5,2.6 -4.8,3.6 -7.5,2.2Z" style="fill:#ee599f;fill-rule:nonzero;stroke:#000;stroke-width:2px;"/><path d="M70.6,65.3l-29.5,7.7c-2.2,0.6 -4.4,-0.8 -5,-2.9l-0.4,-1.6c-0.6,-2.2 0.8,-4.4 2.9,-5l29.5,-7.7c2.2,-0.6 4.4,0.8 5,2.9l0.4,1.6c0.6,2.2 -0.7,4.4 -2.9,5Z" style="fill:#f58f72;fill-rule:nonzero;stroke:#000;stroke-width:2px;"/><path d="M21.4,92.2l-7.5,17.5c-0.8,1.9 -3.1,2.8 -5,2l-1.4,-0.6c-1.9,-0.8 -2.8,-3.1 -2,-5l7.5,-17.5c0.8,-1.9 3.1,-2.8 5,-2l1.4,0.6c1.9,0.8 2.8,3.1 2,5Z" style="fill:#f58f72;fill-rule:nonzero;stroke:#000;stroke-width:2px;"/><path d="M93.6,74.5l15.1,11.7c1.7,1.3 4.1,1 5.4,-0.7l0.9,-1.2c1.3,-1.7 1,-4.1 -0.7,-5.4l-15.1,-11.7c-1.7,-1.3 -4.1,-1 -5.4,0.7l-0.8,1.2c-1.3,1.7 -1,4.1 0.6,5.4Z" style="fill:#f58f72;fill-rule:nonzero;stroke:#000;stroke-width:2px;"/><path d="M133.2,153.5c-11.2,-4.3 -27.2,-15 -27.2,-28.7c0,-8.2 4.9,-16.1 20.8,-26.2c12.4,-7.7 23.6,-14.2 23.6,-18.9c0,-4.7 -3.2,-7.9 -9.9,-7.9c-14.4,0 -25.3,15.2 -29.2,15.2c-4.7,0 -12.4,-6.9 -12.4,-14.6c0,-4.3 1.7,-6.2 4.9,-9.2c6.9,-6.2 18.7,-9 24.2,-9c18.4,0 38.6,17.8 38.6,37.8c0,8.6 -1.7,15.2 -12.7,22.7c-7.5,5.4 -21.9,13.5 -21.9,20.8c0,3.4 1.3,7.3 5.8,12.9l-4.6,5.1Zm-20,29c0,-9.4 7.1,-16.7 16.3,-16.7c9.7,0 16.5,7.3 16.5,16.7c0,10.1 -7.1,16.9 -16.5,16.9c-9.2,0 -16.3,-6.9 -16.3,-16.9Z" style="fill:#f58f72;fill-rule:nonzero;stroke:#000;stroke-width:2px;"/><path d="M142.2,153.5c-11.2,-4.3 -27.2,-15 -27.2,-28.7c0,-8.2 4.9,-16.1 20.8,-26.2c12.4,-7.7 23.6,-14.2 23.6,-18.9c0,-4.7 -3.2,-7.9 -9.9,-7.9c-14.4,0 -25.3,15.2 -29.2,15.2c-4.7,0 -12.4,-6.9 -12.4,-14.6c0,-4.3 1.7,-6.2 4.9,-9.2c6.9,-6.2 18.7,-9 24.2,-9c18.4,0 38.6,17.8 38.6,37.8c0,8.6 -1.7,15.2 -12.7,22.7c-7.5,5.4 -21.9,13.5 -21.9,20.8c0,3.4 1.3,7.3 5.8,12.9l-4.6,5.1Zm-20,29c0,-9.4 7.1,-16.7 16.3,-16.7c9.7,0 16.5,7.3 16.5,16.7c0,10.1 -7.1,16.9 -16.5,16.9c-9.2,0 -16.3,-6.9 -16.3,-16.9Z" style="fill:#7e69ad;fill-rule:nonzero;stroke:#000;stroke-width:2px;"/><path d="M20.2,136.5c-7.2,-27.8 9.5,-56.3 37.3,-63.5c3.4,-0.9 6.8,-1.4 10.1,-1.6c-5.3,-0.3 -10.7,0.2 -16.1,1.6c-27.8,7.2 -44.5,35.7 -37.3,63.5c6.4,24.5 29.1,40.3 53.4,38.9c-22,-1.3 -41.6,-16.5 -47.4,-38.9Z" style="fill:#f58f72;fill-rule:nonzero;stroke:#000;stroke-width:2px;"/></svg>