<?xml version="1.0" encoding="utf-8"?>
<!-- Generator: Adobe Illustrator 18.0.0, SVG Export Plug-In . SVG Version: 6.00 Build 0)  -->
<!DOCTYPE svg PUBLIC "-//W3C//DTD SVG 1.1//EN" "http://www.w3.org/Graphics/SVG/1.1/DTD/svg11.dtd">
<svg version="1.1" id="Layer_1" xmlns="http://www.w3.org/2000/svg" xmlns:xlink="http://www.w3.org/1999/xlink" x="0px" y="0px"
	 viewBox="0 0 180 110" enable-background="new 0 0 180 110" xml:space="preserve">
<path fill="#F58F72" stroke="#000000" stroke-width="2" stroke-miterlimit="10" d="M131.7,103.2H18.2c-6.6,0-12-5.4-12-12V14.7
	c0-6.6,5.4-12,12-12h113.5c6.6,0,12,5.4,12,12v76.5C143.7,97.8,138.3,103.2,131.7,103.2z"/>
<g>
	<path fill="#7E69AD" stroke="#000000" stroke-width="2" stroke-miterlimit="10" d="M168.1,13.9c0-6.3-5.1-11.4-11.4-11.4H22.5
		c-6.3,0-11.4,5.1-11.4,11.4v85.9h156.9V13.9z M130.2,42.4c1.6,0,2.8,1.3,2.8,2.9c0,1.6-1.3,2.9-2.9,2.9L117,48.2v4.7l13.1,0.1
		c1.6,0,2.8,1,2.8,3h0.1c0,3-1.3,2.9-2.9,2.9l-13-0.1v4.7l13,0.1c1.6,0,2.7,1.3,2.7,2.9c0,1.6-1.3,2.9-2.9,2.9l-13.5,0.3
		c-0.7,2.4-2.5,4.3-5.1,4.3H108v10.5c0,1.6-0.9,2.9-2.5,2.9c-1.6,0-2.5-1.3-2.5-2.9V74h-4v10.7c0,1.6-1.4,2.9-3,2.9s-3-1.3-3-2.9V74
		h-5v10.7c0,1.6-1.9,2.9-3.5,2.9c-1.6,0-3.5-1.3-3.5-2.9V74h-4v10.7c0,1.6-1.4,2.9-3,2.9c-1.6,0-3-1.3-3-2.9V74h-2.1
		c-2.6,0-4.1-1.9-4.7-4.3l-11.8-0.2c-1.6,0-2.9-1.4-2.9-3c0-1.6,1.3-3,2.9-3l11.6,0v-4.7l-12.4-0.1c-1.6,0-3-1.3-3-2.9
		c0-1.6,1.4-2.9,3-2.9L64,53v-4.7l-12.3-0.1c-1.6,0-3-1.3-3-2.9c0-1.6,1.4-2.9,3-2.9L64,42.4v-4.7l-12.1-0.1c-1.6,0-3.1-1.4-3.1-3
		c0-1.6,1.4-3.1,3-3.1l12.2-0.1c0.6-2.3,2.2-4.4,4.8-4.4H71V14.1c0-1.6,1.4-2.9,3-2.9c1.6,0,3,1.3,3,2.9V27h4V14.4
		c0-1.6,1.9-2.9,3.5-2.9c1.6,0,3.5,1.3,3.5,2.9V27h5V14.4c0-1.6,1.4-2.9,3-2.9s3,1.3,3,2.9V27h4V14.4c0-1.6,0.9-2.9,2.5-2.9
		s2.5,1.3,2.5,2.9V27h3.2c2.6,0,4.4,2,5.1,4.3l14,0.6c1.6,0,3,1.3,3,2.9c0,1.6-1.3,2.9-2.9,2.9L117,37.7v4.7L130.2,42.4z"/>
	<path fill="#7E69AD" stroke="#000000" stroke-width="2" stroke-miterlimit="10" d="M104.7,34H75.9c-3.4,0-4.9,2.2-4.9,5.7v21.1
		c0,3.5,1.5,6.1,4.9,6.1h28.8c3.4,0,5.3-2.6,5.3-6.1V39.7C110,36.2,108.1,34,104.7,34z"/>
	<path fill="none" stroke="#000000" stroke-miterlimit="10" d="M155.9,95.6H22.8c-3.3,0-6-2.7-6-6V14.4c0-3.3,2.7-6,6-6h133.2
		c3.3,0,6,2.7,6,6v75.2C162,92.9,159.3,95.6,155.9,95.6z"/>
</g>
<path fill="#F58F72" stroke="#000000" stroke-width="2" stroke-miterlimit="10" d="M175.3,107.4H5.6c-2.2,0-3.9-1.8-3.9-3.9v-5.2
	h177.5v5.2C179.2,105.7,177.5,107.4,175.3,107.4z"/>
<path fill="none" stroke="#000000" stroke-width="2" stroke-miterlimit="10" d="M159.7,102.9c0,0,3.7,0,8.3,0"/>
</svg>
