<?xml version="1.0" encoding="utf-8"?>
<!-- Generator: Adobe Illustrator 18.0.0, SVG Export Plug-In . SVG Version: 6.00 Build 0)  -->
<!DOCTYPE svg PUBLIC "-//W3C//DTD SVG 1.1//EN" "http://www.w3.org/Graphics/SVG/1.1/DTD/svg11.dtd">
<svg version="1.1" id="Layer_1" xmlns="http://www.w3.org/2000/svg" xmlns:xlink="http://www.w3.org/1999/xlink" x="0px" y="0px"
	 viewBox="0 0 390 280" enable-background="new 0 0 390 280" xml:space="preserve">
<circle fill="#F58F72" stroke="#000000" stroke-width="2" stroke-miterlimit="10" cx="195.9" cy="187.6" r="66.7"/>
<circle fill="#7E69AD" stroke="#000000" stroke-width="2" stroke-miterlimit="10" cx="195.7" cy="187.8" r="55.5"/>
<path fill="#7E69AD" stroke="#000000" stroke-width="2" stroke-miterlimit="10" d="M250.9,132.5l65.5-16.5
	c6.4-1.6,10.3-8.2,8.7-14.6l-4.9-19.3c-1.6-6.4-8.2-10.3-14.6-8.7L240.2,90c-6.4,1.6-10.3,8.2-8.7,14.6l4.9,19.3
	C238,130.2,244.5,134.1,250.9,132.5z"/>
<path fill="#7E69AD" stroke="#000000" stroke-width="2" stroke-miterlimit="10" d="M139.8,132.5L74.3,116
	c-6.4-1.6-10.3-8.2-8.7-14.6l4.9-19.3c1.6-6.4,8.2-10.3,14.6-8.7L150.5,90c6.4,1.6,10.3,8.2,8.7,14.6l-4.9,19.3
	C152.7,130.2,146.2,134.1,139.8,132.5z"/>
<path fill="#F58F72" stroke="#000000" stroke-width="2" stroke-miterlimit="10" d="M252,138.5l65.5-16.5c6.4-1.6,10.3-8.2,8.7-14.6
	l-4.9-19.3c-1.6-6.4-8.2-10.3-14.6-8.7L241.3,96c-6.4,1.6-10.3,8.2-8.7,14.6l4.9,19.3C239.1,136.2,245.6,140.1,252,138.5z"/>
<path fill="#F58F72" stroke="#000000" stroke-width="2" stroke-miterlimit="10" d="M139.8,138.5L74.3,122
	c-6.4-1.6-10.3-8.2-8.7-14.6l4.9-19.3c1.6-6.4,8.2-10.3,14.6-8.7L150.5,96c6.4,1.6,10.3,8.2,8.7,14.6l-4.9,19.3
	C152.7,136.2,146.2,140.1,139.8,138.5z"/>
<ellipse transform="matrix(0.9677 0.2521 -0.2521 0.9677 22.1387 -14.8425)" fill="#7E69AD" stroke="#000000" stroke-width="2" stroke-miterlimit="10" cx="69" cy="79" rx="37.7" ry="13.1"/>
<path fill="#F58F72" stroke="#000000" stroke-width="2" stroke-miterlimit="10" d="M67,259L67,259c-1,0-1.9-0.8-1.9-1.9V81
	c0-1,0.8-1.9,1.9-1.9l0,0c1,0,1.9,0.8,1.9,1.9v176.1C68.8,258.2,68,259,67,259z"/>
<ellipse transform="matrix(-0.9677 0.2521 -0.2521 -0.9677 652.9813 70.2731)" fill="#7E69AD" stroke="#000000" stroke-width="2" stroke-miterlimit="10" cx="322" cy="77" rx="37.7" ry="13.1"/>
<path fill="#F58F72" stroke="#000000" stroke-width="2" stroke-miterlimit="10" d="M323.9,259L323.9,259c-1,0-1.9-0.8-1.9-1.9V81
	c0-1,0.8-1.9,1.9-1.9l0,0c1,0,1.9,0.8,1.9,1.9v176.1C325.8,258.2,324.9,259,323.9,259z"/>
<path fill="#7E69AD" stroke="#000000" stroke-width="2" stroke-miterlimit="10" d="M72.8,115.8h-12c-1.9,0-3.4-1.5-3.4-3.4v0
	c0-1.9,1.5-3.4,3.4-3.4h12c1.9,0,3.4,1.5,3.4,3.4v0C76.2,114.3,74.7,115.8,72.8,115.8z"/>
<path fill="#7E69AD" stroke="#000000" stroke-width="2" stroke-miterlimit="10" d="M329.8,115.8h-12c-1.9,0-3.4-1.5-3.4-3.4v0
	c0-1.9,1.5-3.4,3.4-3.4h12c1.9,0,3.4,1.5,3.4,3.4v0C333.2,114.3,331.7,115.8,329.8,115.8z"/>
<path fill="#7E69AD" stroke="#000000" stroke-width="2" stroke-miterlimit="10" d="M290.1,194.2L131.3,34.4c0.1-2.3-1.3-5.2-3.7-7.6
	c-3.6-3.5-11.1-7.9-13.2-5.8c-2.1,2.1,2.1,9.9,5.6,13.4c2.4,2.4,5.3,3.7,7.6,3.6l158.8,159.8c1,1,6.7,5,7.7,4l0.3-0.3
	C295.4,200.6,291.1,195.2,290.1,194.2z"/>
<path fill="#7E69AD" stroke="#000000" stroke-width="2" stroke-miterlimit="10" d="M278.8,22.1c-2.1-2.1-9.6,2.2-13.2,5.8
	c-2.7,2.7-4.1,6-3.6,8.4l-158.9,156c-1,1-5.1,6.6-4.1,7.6l0.3,0.3c1,1,6.4-3.2,7.4-4.2L266.5,39c2.1-0.3,4.5-1.5,6.6-3.6
	C276.7,31.9,280.8,24.2,278.8,22.1z"/>
</svg>
