<?xml version="1.0" encoding="utf-8"?>
<!-- Generator: Adobe Illustrator 18.0.0, SVG Export Plug-In . SVG Version: 6.00 Build 0)  -->
<!DOCTYPE svg PUBLIC "-//W3C//DTD SVG 1.1//EN" "http://www.w3.org/Graphics/SVG/1.1/DTD/svg11.dtd">
<svg version="1.1" id="Layer_1" xmlns="http://www.w3.org/2000/svg" xmlns:xlink="http://www.w3.org/1999/xlink" x="0px" y="0px"
	 viewBox="0 0 1920 1080" enable-background="new 0 0 1920 1080" xml:space="preserve">
<circle fill="none" stroke="#000000" stroke-width="9" stroke-miterlimit="10" cx="543.8" cy="438.6" r="405.8"/>
<circle fill="none" stroke="#000000" stroke-width="9" stroke-miterlimit="10" cx="543.8" cy="446.3" r="253"/>
<circle fill="#EE599F" stroke="#000000" stroke-width="2" stroke-miterlimit="10" cx="300.4" cy="355.2" r="78.3"/>
<circle fill="#EE599F" stroke="#000000" stroke-width="2" stroke-miterlimit="10" cx="938" cy="361.4" r="94.5"/>
<circle fill="#F58F72" stroke="#000000" stroke-width="2" stroke-miterlimit="10" cx="545.7" cy="446.3" r="106.5"/>
<path fill="#EE599F" stroke="#000000" stroke-width="2" stroke-miterlimit="10" d="M992.4,1047.2h-2.7c-8.1,0-14.7-6.6-14.7-14.3
	V807.3c0-8.1,6.6-14.7,14.7-14.7h2.7c8.1,0,14.7,6.6,14.7,14.7v225.6C1007.1,1040.7,1000.5,1047.2,992.4,1047.2z"/>
<path fill="#F58F72" stroke="#000000" stroke-width="2" stroke-miterlimit="10" d="M368.7,747.5l-155.8,54
	c-15.8,5.4-33.2-3.1-38.6-18.5l-3.1-8.9c-5.4-15.8,3.1-33.2,18.5-38.6l155.8-54c15.8-5.4,33.2,3.1,38.6,18.5l3.1,8.9
	C393,724.8,384.5,742.1,368.7,747.5z"/>
<path fill="#EE599F" stroke="#000000" stroke-width="2" stroke-miterlimit="10" d="M795.7,1014.8L795.7,1014.8
	c8.1,3.5,17.7-0.8,20.8-8.9l87.6-213.7c3.5-8.1-0.8-17.7-8.9-20.8l0,0c-8.1-3.5-17.7,0.8-20.8,8.9L786.8,994
	C783.3,1001.7,787.2,1011.3,795.7,1014.8z"/>
<path fill="#EE599F" stroke="#000000" stroke-width="2" stroke-miterlimit="10" d="M1184.9,1014.8L1184.9,1014.8
	c-8.1,3.5-17.7-0.8-20.8-8.9l-87.6-213.7c-3.5-8.1,0.8-17.7,8.9-20.8l0,0c8.1-3.5,17.7,0.8,20.8,8.9l87.6,213.7
	C1197.2,1001.7,1193,1011.3,1184.9,1014.8z"/>
<rect x="970.8" y="575.9" fill="#EE599F" stroke="#000000" stroke-width="2" stroke-miterlimit="10" width="48.2" height="165.5"/>
<path fill="#7E69AD" stroke="#000000" stroke-width="2" stroke-miterlimit="10" d="M1145.5,804.2H844.3c-17.4,0-31.2-14.3-31.2-31.2
	l0,0c0-17.4,14.3-31.2,31.2-31.2h301.2c17.4,0,31.2,14.3,31.2,31.2l0,0C1177.2,789.9,1162.9,804.2,1145.5,804.2z"/>
<rect x="541.5" y="498.3" fill="#F58F72" stroke="#000000" stroke-width="2" stroke-miterlimit="10" width="57.9" height="77.1"/>
<path fill="#F58F72" stroke="#000000" stroke-width="2" stroke-miterlimit="10" d="M1771.9,376.1l-113.8,37.8
	c-68.7,22.8-143.5-14.7-166.2-83.3l0,0c-22.8-68.7,14.7-143.5,83.3-166.2l113.8-37.8c20.1-6.6,42,4.2,49,24.3l58.6,176.3
	C1802.8,347.1,1792,369.1,1771.9,376.1z"/>
<path fill="#F58F72" stroke="#000000" stroke-width="2" stroke-miterlimit="10" d="M1535.1,426.2L384.5,833.9
	c-23.9,8.5-50.5-4.2-59-28.2l-37-104.1c-8.5-23.9,4.2-50.5,28.2-59l1150.6-407.7c23.9-8.5,50.5,4.2,59,28.2l37,104.1
	C1571.7,391.1,1559,417.7,1535.1,426.2z"/>
<path fill="#F58F72" stroke="#000000" stroke-width="2" stroke-miterlimit="10" d="M167.4,820l8.5-3.1c16.2-5.8,24.7-23.9,18.9-40.5
	l-4.6-12.7c-5.8-16.2-23.9-24.7-40.5-18.9l-8.5,3.1c-4.6,1.9-7.3,6.9-5.4,12l19.7,54.8C157.3,819.3,162.3,821.6,167.4,820z"/>
<rect x="313.5" y="491" transform="matrix(-0.9473 0.3203 -0.3203 -0.9473 1101.1365 844.5303)" fill="#EE599F" stroke="#000000" stroke-width="2" stroke-miterlimit="10" width="335.2" height="43.6"/>
<path fill="#7E69AD" stroke="#000000" stroke-width="2" stroke-miterlimit="10" d="M386.8,834.7c-23.1,8.1-49-3.9-57.1-27.4
	l-37.8-107.2c-7.7-21.6,2.3-45.1,22.4-55.2l-36.3,12.7c-23.1,8.1-35.5,33.9-27.4,57.1L288.5,822c8.1,23.1,33.9,35.5,57.1,27.4
	l1153.3-408.9c1.5-0.8,3.5-1.2,5-2.3L386.8,834.7z"/>
<path fill="#7E69AD" stroke="#000000" stroke-width="2" stroke-miterlimit="10" d="M155.4,814.6l-20.1-55.2
	c-1.2-3.1-0.4-6.6,1.5-8.9c-1.9,0.4-3.5,0.8-5.4,1.5l-9.6,3.5c-4.6,1.5-6.9,6.9-5.4,11.6l20.1,55.2c1.5,4.6,6.9,6.9,11.6,5.4
	l9.6-3.5c2.3-0.8,4.6-1.9,6.9-3.5C160.8,820.8,156.9,818.5,155.4,814.6z"/>
<path fill="#7E69AD" stroke="#000000" stroke-width="2" stroke-miterlimit="10" d="M1375.4,342.1L455.5,667.7
	c-16.2,5.8-24.7,23.9-18.9,40.1l0,0c5.8,16.2,23.9,24.7,40.1,18.9l919.5-325.5c16.2-5.8,24.7-23.9,18.9-40.1l0,0
	C1409.7,344.8,1391.6,336.3,1375.4,342.1z"/>
</svg>
