<?xml version="1.0" encoding="utf-8"?>
<!-- Generator: Adobe Illustrator 18.0.0, SVG Export Plug-In . SVG Version: 6.00 Build 0)  -->
<!DOCTYPE svg PUBLIC "-//W3C//DTD SVG 1.1//EN" "http://www.w3.org/Graphics/SVG/1.1/DTD/svg11.dtd">
<svg version="1.1" id="Layer_1" xmlns="http://www.w3.org/2000/svg" xmlns:xlink="http://www.w3.org/1999/xlink" x="0px" y="0px"
	 viewBox="0 0 1920 1080" enable-background="new 0 0 1920 1080" xml:space="preserve">
<g>
	<path fill="#7E69AD" stroke="#000000" stroke-width="2" stroke-miterlimit="10" d="M1175.1,624.2v-36.7h140l0.9-1.3
		c-9.9-9.9-17.3-20.3-21.2-31.5c-4.3-11.2-6.5-22-6.5-32.4c0-9.9,1.7-19.9,5.6-29.8c3.9-9.9,9.5-18.6,17.3-26.8
		c7.8-7.8,17.3-14.3,28.5-19.4c11.2-4.8,24.6-7.3,39.7-7.3c15.6,0,29.4,2.6,40.6,8.2c11.2,5.2,20.7,12.1,28.1,20.7
		c7.3,8.2,12.5,17.7,16,28.5c3.5,10.8,5.2,21.2,5.2,31.5c0,10.8-1.7,21.2-5.2,30.2c-3.5,9.1-7.8,17.7-13.4,25.1
		s-12.1,13.8-19.4,19.4c-7.3,5.6-15.1,9.9-22.9,13c14.3,14.7,25.5,30.7,32.8,49.2c7.3,18.1,11.2,36.3,11.2,53.6c0,19-4.8,38-14.7,57
		c-9.9,19-24.6,35.9-44.9,51c-19.9,15.1-45.4,27.2-76.5,36.7c-30.7,9.5-67.4,13.8-109.3,13.8c-28.5,0-56.2-2.6-82.5-7.3
		c-26.4-4.8-51-12.1-73.4-21.2c-22.5-9.5-43.2-21.2-61.8-35s-34.6-30.2-47.5-49.2c-13-18.6-23.3-39.7-30.2-63.1
		c-6.9-23.3-10.8-48.8-10.8-76.5c0-23.8,2.6-46.7,8.2-68.7c5.6-22.5,13.8-41.9,25.5-59.2c11.2-17.3,25.9-31.1,43.6-41.5
		c17.7-10.4,38.4-15.6,62.2-15.6c17.3,0,32.4,2.6,44.9,8.2c12.5,5.2,22.9,12.5,31.5,21.2c8.2,8.6,14.3,18.6,18.6,29.4
		c3.9,10.8,6,22,6,33.3c0,10.4-1.7,21.2-5.2,32.4c-3.5,10.8-9.1,21.2-16.4,29.8c-7.3,9.1-16.8,16.4-28.5,22
		c-11.2,5.6-25.1,8.6-41.5,8.6c-13,0-24.6-2.2-35.4-6c-10.8-3.9-20.3-10.4-28.5-18.1c-8.2-7.8-14.7-18.1-19.4-30.7
		c-5.2-12.1-8.2-26.4-9.1-42.8l-0.9-0.4c-5.2,15.6-9.1,30.2-10.8,44.1c-1.7,13.8-2.6,26.8-2.6,38.9c0,36.3,6,68.3,18.6,96.3
		c12.5,28.1,30.2,51.8,53.1,71.3c22.9,19.4,50.5,33.7,83.4,43.6c32.4,9.9,68.7,14.7,108.4,14.7c34.1,0,63.9-3.5,89-10.4
		c25.5-6.9,46.2-15.6,63.1-26.8c16.8-11.2,29.4-23.8,37.6-38c8.2-14.3,12.5-28.9,12.5-44.1c0-9.1-1.3-18.1-3.9-27.6
		c-2.6-9.5-6-18.1-10.8-26.4c-4.3-8.2-9.5-15.6-15.1-22.5c-5.6-6.5-11.7-11.7-17.7-15.1h-186.2V624.2z M1046.4,585.8
		c6.9,0,13.4-1.3,19.4-3.9s11.7-6,16.4-11.2c4.8-4.8,8.6-10.4,11.7-17.3c3-6.9,4.3-14.3,4.3-22.5s-1.7-16-4.8-22.5
		s-7.3-12.1-12.5-16.8c-5.2-4.8-11.2-8.2-18.1-10.4c-6.9-2.2-14.3-3.5-22-3.5c-16.8,0-31.5,6-43.6,17.7c-0.4,2.2-0.4,5.2-0.9,8.6
		c-0.4,3.5-0.4,7.3-0.4,12.1c0,12.1,1.3,22,4.3,31.1c3,9.1,6.5,16,11.2,21.6c4.8,5.6,9.9,9.9,16,13
		C1033.4,584.1,1039.5,585.8,1046.4,585.8z M1371.7,586.7c6.9-0.9,13.4-2.6,20.3-5.6c6.9-3,12.5-7.3,17.7-12.5
		c5.2-5.2,9.5-11.2,12.5-18.6c3-7.3,4.8-14.3,4.8-22.5c0-6.5-0.9-12.5-3-18.6c-2.2-6-5.2-11.2-9.1-16c-3.9-4.8-9.1-8.2-15.1-11.2
		s-13-4.3-20.3-4.3s-13.8,1.3-19.9,3.9c-6,2.6-11.2,6-15.6,10.4c-4.3,4.3-7.8,9.5-10.4,15.1c-2.6,6-3.9,12.1-3.9,18.6
		c0,11.2,3.5,22,10.8,32.8C1347.9,568.9,1358.3,578.4,1371.7,586.7z"/>
	<g>
		<path fill="#EE599F" stroke="#000000" stroke-width="2" stroke-miterlimit="10" d="M1014.4,495.1c9.5-9.1,20.7-14.7,33.3-16.8
			c-3.5-0.4-7.3-0.9-11.2-0.9c-16.8,0-31.5,6-43.6,17.7c-0.4,2.2-0.4,5.2-0.9,8.6c-0.4,3.5-0.4,7.3-0.4,12.1c0,12.1,1.3,22,4.3,31.1
			c3,9.1,6.5,16,11.2,21.6c4.8,5.6,9.9,9.9,16,13c6,2.6,12.5,4.3,19.4,4.3c3.9,0,7.3-0.4,11.2-1.3c-3-0.9-6-1.7-8.6-3
			c-6-2.6-11.2-6.9-16-13c-4.8-5.6-8.2-13-11.2-21.6s-4.3-19-4.3-31.1c0-4.8,0-8.6,0.4-12.1C1014,500.7,1014,497.7,1014.4,495.1z"/>
		<path fill="#EE599F" stroke="#000000" stroke-width="2" stroke-miterlimit="10" d="M1361.3,492c4.3-4.3,9.5-7.8,15.6-10.4
			c3-1.3,6-2.2,9.1-2.6c-3.5-0.9-6.9-0.9-10.8-0.9c-7.3,0-13.8,1.3-19.9,3.9c-6,2.6-11.2,6-15.6,10.4c-4.3,4.3-7.8,9.5-10.4,15.1
			c-2.6,6-3.9,12.1-3.9,18.6c0,11.2,3.5,22,10.8,32.8c6.9,10.8,17.3,19.9,31.1,28.1c5.2-0.4,10.4-1.7,15.6-3.9
			c-10.8-7.3-19-15.6-25.1-24.2c-6.9-10.8-10.8-21.6-10.8-32.8c0-6.5,1.3-12.5,3.9-18.6C1353.6,501.6,1357,496.4,1361.3,492z"/>
		<path fill="#EE599F" stroke="#000000" stroke-width="2" stroke-miterlimit="10" d="M1119.8,820.4c-32.4-9.9-60-24.6-83.4-43.6
			c-22.9-19.4-40.6-42.8-53.1-71.3c-12.5-28.1-18.6-60.5-18.6-96.3c0-11.7,0.9-23.8,2.6-37.2c-0.4-0.9-0.9-1.7-1.3-2.6
			c-5.2-12.1-8.2-26.4-9.1-42.8l-0.9-0.4c-5.2,15.6-9.1,30.2-10.8,44.1c-1.7,13.8-2.6,26.8-2.6,38.9c0,36.3,6,68.3,18.6,96.3
			c12.5,28.1,30.2,51.8,53.1,71.3c22.9,19.4,50.5,33.7,83.4,43.6c32.4,9.9,68.7,14.7,108.4,14.7c3.9,0,8.2,0,12.1,0
			C1182.5,834.2,1149.6,829.4,1119.8,820.4z"/>
		<path fill="#EE599F" stroke="#000000" stroke-width="2" stroke-miterlimit="10" d="M1085.3,447.1c12.5,5.2,22.9,12.5,31.5,21.2
			c8.2,8.6,14.3,18.6,18.6,29.4c3.9,10.8,6,22,6,33.3c0,10.4-1.7,21.2-5.2,32.4c-3.5,10.8-9.1,21.2-16.4,29.8
			c-7.3,9.1-16.8,16.4-28.5,22c-8.6,4.3-18.6,6.9-30.2,8.2c3.5,0.4,6.9,0.4,10.4,0.4c16,0,29.8-3,41.5-8.6c11.2-5.6,20.7-13,28.5-22
			c7.3-9.1,13-19,16.4-29.8c3.5-10.8,5.2-21.6,5.2-32.4c0-11.2-2.2-22.5-6-33.3c-3.9-10.8-9.9-20.7-18.6-29.4
			c-8.2-8.6-18.6-16-31.5-21.2c-12.5-5.2-27.6-8.2-44.9-8.2c-3.5,0-7.3,0-10.8,0.4C1064.1,440.6,1075.3,443.2,1085.3,447.1z"/>
		<path fill="#EE599F" stroke="#000000" stroke-width="2" stroke-miterlimit="10" d="M1472.8,583.2c5.6-7.3,9.9-15.6,13.4-25.1
			c3.5-9.1,5.2-19.4,5.2-30.2c0-10.4-1.7-21.2-5.2-31.5c-3.5-10.8-9.1-20.3-16-28.5c-7.3-8.2-16.4-15.1-28.1-20.7
			c-11.2-5.2-25.1-8.2-40.6-8.2c-3.9,0-7.3,0-10.8,0.4c11.2,0.9,21.2,3.5,29.8,7.8c11.2,5.2,20.7,12.1,28.1,20.7
			c7.3,8.2,12.5,17.7,16,28.5c3.5,10.8,5.2,21.2,5.2,31.5c0,10.8-1.7,21.2-5.2,30.2c-3.5,9.1-7.8,17.7-13.4,25.1
			c-5.6,7.3-12.1,13.8-19.4,19.4s-15.1,9.9-22.9,13c14.3,14.7,25.5,30.7,32.8,49.2c7.3,18.1,11.2,36.3,11.2,53.6
			c0,19-4.8,38-14.7,57c-9.9,19-24.6,35.9-44.9,51c-19.9,15.1-45.4,27.2-76.5,36.7c-27.6,8.2-59.6,13-96.3,13.8c3,0,5.6,0,8.6,0
			c41.9,0,78.6-4.8,109.3-13.8c30.7-9.5,56.2-21.6,76.5-36.7c19.9-15.1,35-32,44.9-51c9.9-19,14.7-38,14.7-57
			c0-17.3-3.9-35-11.2-53.6c-7.3-18.1-18.1-34.6-32.8-49.2c7.8-3.5,15.6-7.8,22.9-13C1460.7,597,1467.2,590.5,1472.8,583.2z"/>
	</g>
</g>
<g>
	<path fill="#F58F72" stroke="#000000" stroke-width="2" stroke-miterlimit="10" d="M499.5,355.1c0,35,6.5,66.5,19.4,94.6
		c13,28.1,30.7,51.8,53.6,71.3c22.5,19.4,49.2,34.6,80.4,45.4s63.9,15.6,99.8,15.6c39.7,0,76-6,108.4-18.6
		c32.4-12.5,60-29.4,83.4-51c22.9-21.2,40.6-46.2,53.1-74.7c12.5-28.5,18.6-58.3,18.6-89.9c0-16.8-1.7-33.3-5.6-48
		c-3.9-15.1-9.1-28.1-16.8-39.3c-7.3-11.2-16.4-19.9-26.8-26.4c-10.8-6.5-22.9-9.5-36.7-9.5c-13.8,0-25.1,3.5-33.3,9.9
		c-8.2,6.5-12.1,15.6-12.1,27.6c0,7.8,1.7,15.1,5.2,22.5c3.5,7.3,7.8,13.8,13,19.9c5.2,6,11.2,11.2,17.3,15.6
		c6.5,4.3,12.1,7.8,17.7,9.5h38.9v38.9H718.5V330h155.1c-6-5.6-11.2-11.7-15.1-17.7s-7.3-12.1-9.5-18.1c-2.6-6-4.3-11.7-5.2-17.3
		c-0.9-5.6-1.3-10.8-1.3-15.1c0-9.9,2.2-19.4,6.5-28.5s10.4-17.3,17.7-24.2c7.3-6.9,16.8-12.5,27.6-16.8c10.8-3.9,22.9-6,36.7-6
		c16.8,0,32.8,3.5,48.4,10.4c15.6,6.9,28.9,17.3,40.6,31.1c11.7,13.8,21.2,31.1,28.1,51.8c6.9,20.7,10.4,44.9,10.4,72.6
		c0,38.9-6.9,75.2-21.2,108.4c-14.3,33.3-34.6,62.2-60.5,86.4c-26.4,24.2-57.5,43.2-94.6,57c-36.7,13.8-77.8,20.3-123.1,20.3
		c-26.8,0-52.7-2.6-77.8-7.3s-48.8-12.5-71.3-22c-22.5-9.5-42.8-21.6-61.3-35.9s-35-31.1-48.4-50.1s-24.2-40.2-31.5-63.1
		c-7.3-23.3-11.2-48.8-11.2-76c0-22.5,2.6-44.9,8.2-67c5.6-22,13.8-41.5,25.5-58.8c11.2-17.3,25.9-31.1,43.6-41.5
		c17.7-10.4,38-16.8,62.2-16.8c17.3,0,32.4,2.6,44.9,8.2c12.5,5.2,22.9,12.5,31.5,21.2c8.6,8.6,14.3,18.6,18.6,29.4
		c3.9,10.8,6,22,6,33.3c0,10.4-1.7,21.2-5.2,32.4c-3.5,10.8-9.1,21.2-16.4,29.8c-7.3,9.1-16.8,16.4-28.5,22
		c-11.2,5.6-25.1,8.6-41.5,8.6c-13,0-24.6-2.2-35.4-6c-10.8-3.9-20.3-10.4-28.5-18.1c-8.2-7.8-14.7-18.1-19.4-30.7
		c-5.2-12.1-8.2-26.4-9.1-42.8l-0.9-0.4c-5.2,15.6-9.1,30.2-10.8,44.1C500.8,330.5,499.5,343.4,499.5,355.1z M602.7,332.2
		c6.9,0,13.4-1.3,19.4-3.9c6-2.6,11.7-6,16.4-11.2c4.8-4.8,8.6-10.4,11.7-17.3c3-6.9,4.3-14.3,4.3-22.5c0-8.2-1.7-16-4.8-22.5
		s-7.3-12.1-12.5-16.8c-5.2-4.8-11.2-8.2-18.1-10.4c-6.9-2.2-14.3-3.5-22-3.5c-16.8,0-31.5,6-43.6,17.7c-0.4,2.2-0.4,5.2-0.9,8.6
		s-0.4,7.3-0.4,12.1c0,12.1,1.3,22,4.3,31.1c3,9.1,6.5,16,11.2,21.6c4.8,5.6,9.9,9.9,16,13C589.8,330.9,596.3,332.2,602.7,332.2z"/>
</g>
<g>
	<path fill="#7E69AD" stroke="#000000" stroke-width="2" stroke-miterlimit="10" d="M518.1,273l-0.9-0.4
		c-5.2,15.6-9.1,30.2-10.8,44.1c-0.4,3-0.9,6-0.9,9.1c4.3,7.8,9.1,14.7,15.1,20.7c8.2,8.2,17.7,14.3,28.5,18.1
		c10.8,3.9,22.9,6,35.4,6c4.8,0,9.1-0.4,13.4-0.9c-8.2-0.9-16-2.6-22.9-5.2c-10.8-3.9-20.3-10.4-28.5-18.1
		c-8.2-7.8-14.7-18.1-19.4-30.7C522,303.7,518.9,289.4,518.1,273z"/>
	<path fill="#7E69AD" stroke="#000000" stroke-width="2" stroke-miterlimit="10" d="M597.6,227.7c6.9,2.2,13,5.6,18.1,10.4
		c5.2,4.8,9.5,10.4,12.5,16.8s4.8,14.3,4.8,22.5s-1.3,15.6-4.3,22.5s-6.9,12.5-11.7,17.3c-4.8,4.8-10.4,8.6-16.4,11.2
		c-2.2,0.9-3.9,1.3-6,2.2c3.9,1.3,8.2,1.7,12.5,1.7c6.9,0,13.4-1.3,19.4-3.9c6-2.6,11.7-6,16.4-11.2c4.8-4.8,8.6-10.4,11.7-17.3
		c3-6.9,4.3-14.3,4.3-22.5c0-8.2-1.7-16-4.8-22.5s-7.3-12.1-12.5-16.8c-5.2-4.8-11.2-8.2-18.1-10.4c-6.9-2.2-14.3-3.5-22-3.5
		c-4.3,0-8.6,0.4-13,1.3C591.9,225.9,594.5,226.8,597.6,227.7z"/>
	<path fill="#7E69AD" stroke="#000000" stroke-width="2" stroke-miterlimit="10" d="M756.5,581.9c39.7,0,76-6,108.4-18.6
		s60-29.4,83.4-51c22.9-21.2,40.6-46.2,53.1-74.7s18.6-58.3,18.6-89.9c0-16.8-1.7-33.3-5.6-48c-3.9-15.1-9.1-28.1-16.8-39.3
		c-7.3-11.2-16.4-19.9-26.8-26.4c-10.8-6.5-22.9-9.5-36.7-9.5c-4.8,0-8.6,0.4-13,1.3c8.6,1.3,16.4,4.3,23.3,8.6
		c10.8,6.5,19.4,15.1,26.8,26.4c7.3,11.2,13,24.2,16.8,39.3c3.9,15.1,5.6,31.1,5.6,48c0,31.5-6,61.3-18.6,89.9
		c-12.5,28.5-30.2,53.1-53.1,74.7c-22.9,21.2-50.5,38.4-83.4,51c-28.9,11.2-60.9,17.3-95.9,18.6
		C747.9,581.9,752.2,581.9,756.5,581.9z"/>
	<rect x="696.9" y="329.6" fill="#7E69AD" stroke="#000000" stroke-width="2" stroke-miterlimit="10" width="25.9" height="38.4"/>
	<path fill="#7E69AD" stroke="#000000" stroke-width="2" stroke-miterlimit="10" d="M827.4,293.8c2.6,6,5.6,12.1,9.5,18.1
		c3.9,6,9.1,12.1,15.1,17.7h25.9c-6-5.6-11.2-11.7-15.1-17.7c-3.9-6-7.3-12.1-9.5-18.1c-2.6-6-4.3-11.7-5.2-17.3
		c-0.9-5.6-1.3-10.8-1.3-15.1c0-9.9,2.2-19.4,6.5-28.5c4.3-9.1,10.4-17.3,17.7-24.2c7.3-6.9,16.8-12.5,27.6-16.8
		c7.3-2.6,15.1-4.3,23.8-5.2c-4.3-0.4-8.6-0.9-13-0.9c-13.4,0-25.9,2.2-36.7,6s-20.3,9.5-27.6,16.8c-7.3,7.3-13.8,15.1-17.7,24.2
		c-3.9,9.1-6.5,18.6-6.5,28.5c0,4.3,0.4,9.5,1.3,15.1C823.1,282.1,824.8,287.7,827.4,293.8z"/>
	<path fill="#7E69AD" stroke="#000000" stroke-width="2" stroke-miterlimit="10" d="M685.7,616c-25.1-5.2-48.8-12.5-71.3-22
		c-22.5-9.5-42.8-21.6-61.3-35.9c-18.6-14.3-35-31.1-48.4-50.1c-13.4-19-24.2-40.2-31.5-63.1c-7.3-23.3-11.2-48.8-11.2-76
		c0-22.5,2.6-44.9,8.2-67s13.8-41.5,25.5-58.8c11.2-17.3,25.9-31.1,43.6-41.5c14.3-8.6,31.1-13.8,49.7-15.1
		c-4.8-0.4-9.1-0.9-13.4-0.9c-24.2,0-44.9,5.2-62.2,15.6c-17.3,10.4-32,24.2-43.6,41.5c-11.2,17.3-19.9,36.7-25.5,58.8
		c-5.6,22-8.2,44.1-8.2,67c0,27.6,3.9,53.1,11.2,76c7.3,23.3,18.1,44.5,31.5,63.1c13.4,19,29.8,35.4,48.4,50.1
		c18.6,14.3,39.3,26.4,61.3,35.9c22.5,9.5,46.2,16.8,71.3,22c25.1,5.2,51,7.3,77.8,7.3c4.8,0,9.5,0,14.3-0.4
		C729.3,622.5,707.3,620.4,685.7,616z"/>
</g>
</svg>
