<?xml version="1.0" encoding="utf-8"?>
<!-- Generator: Adobe Illustrator 18.0.0, SVG Export Plug-In . SVG Version: 6.00 Build 0)  -->
<!DOCTYPE svg PUBLIC "-//W3C//DTD SVG 1.1//EN" "http://www.w3.org/Graphics/SVG/1.1/DTD/svg11.dtd">
<svg version="1.1" id="Layer_1" xmlns="http://www.w3.org/2000/svg" xmlns:xlink="http://www.w3.org/1999/xlink" x="0px" y="0px"
	 viewBox="0 0 1920 1080" enable-background="new 0 0 1920 1080" xml:space="preserve">
<path fill="none" stroke="#000000" stroke-width="9" stroke-miterlimit="10" d="M1259.4,154.2H738c-24.6,0-44.7-20.1-44.7-44.7V70.8
	c0-24.6,20.1-44.7,44.7-44.7h521.4c24.6,0,44.7,20.1,44.7,44.7v38.7C1304.1,134.1,1284,154.2,1259.4,154.2z"/>
<path fill="#7E69AD" stroke="#000000" stroke-width="2" stroke-miterlimit="10" d="M1397.2,1072.9H460.6
	c-106.5,0-193.7-87.1-193.7-193.7V315.8c0-106.5,87.1-193.7,193.7-193.7h936.6c106.5,0,193.7,87.1,193.7,193.7v563.5
	C1590.9,985.8,1503.7,1072.9,1397.2,1072.9z"/>
<path fill="#F58F72" stroke="#000000" stroke-width="2" stroke-miterlimit="10" d="M1459.4,1072.9H522.8
	c-106.5,0-193.7-87.1-193.7-193.7V315.8c0-106.5,87.1-193.7,193.7-193.7h936.6c106.5,0,193.7,87.1,193.7,193.7v563.5
	C1653.1,985.8,1565.9,1072.9,1459.4,1072.9z"/>
<path fill="#7E69AD" stroke="#000000" stroke-width="2" stroke-miterlimit="10" d="M1402.4,582.1H577.2
	c-106.5,0-193.7-87.1-193.7-193.7V359c0-106.5,87.1-193.7,193.7-193.7h825.3c106.5,0,193.7,87.1,193.7,193.7v29.4
	C1596.1,494.9,1508.9,582.1,1402.4,582.1z"/>
<path fill="#F58F72" stroke="#000000" stroke-width="2" stroke-miterlimit="10" d="M1384.9,548.6H599.1
	c-95.3,0-173.5-78.2-173.5-173.5l0,0c0-95.3,78.2-173.5,173.5-173.5h785.8c95.3,0,173.5,78.2,173.5,173.5l0,0
	C1558.5,470.7,1480.3,548.6,1384.9,548.6z"/>
<path fill="#EE599F" stroke="#000000" stroke-width="2" stroke-miterlimit="10" d="M992,637.9L992,637.9
	c-24.6,0-44.7-20.1-44.7-44.7V473c0-24.6,20.1-44.7,44.7-44.7l0,0c24.6,0,44.7,20.1,44.7,44.7v120.3
	C1036.3,617.8,1016.2,637.9,992,637.9z"/>
<path fill="#7E69AD" stroke="#000000" stroke-width="2" stroke-miterlimit="10" d="M1230.7,45.1H749.2c-10.4,0-19-8.6-19-19l0,0
	c0-10.4,8.6-19,19-19h481.5c10.4,0,19,8.6,19,19l0,0C1249.7,36.5,1241.2,45.1,1230.7,45.1z"/>
<path fill="#7E69AD" stroke="#000000" stroke-width="2" stroke-miterlimit="10" d="M990.9,637.9L990.9,637.9
	c-24.2,0-43.9-19.7-43.9-43.9v-70.4c0-24.2,19.7-43.9,43.9-43.9l0,0c24.2,0,43.9,19.7,43.9,43.9V594
	C1034.9,618.2,1015.1,637.9,990.9,637.9z"/>
</svg>
