<?xml version="1.0" encoding="utf-8"?>
<!-- Generator: Adobe Illustrator 18.0.0, SVG Export Plug-In . SVG Version: 6.00 Build 0)  -->
<!DOCTYPE svg PUBLIC "-//W3C//DTD SVG 1.1//EN" "http://www.w3.org/Graphics/SVG/1.1/DTD/svg11.dtd">
<svg version="1.1" id="Layer_1" xmlns="http://www.w3.org/2000/svg" xmlns:xlink="http://www.w3.org/1999/xlink" x="0px" y="0px"
	 viewBox="0 0 1920 1080" enable-background="new 0 0 1920 1080" xml:space="preserve">
<path fill="#F58F72" stroke="#000000" stroke-width="2" stroke-miterlimit="10" d="M268.3,146.1l182.1-82.3c2.6-1,4.6-3.1,5.7-5.7
	l13.4-29.8c4.1-9.8,19-8.2,21.1,2.1l5.7,26.7l92.6,496.3c1,5.1,5.7,9.3,10.8,9.3l0,0c6.2,0,11.3,5.1,11.3,11.3v215
	c0,6.2-5.1,11.3-11.3,11.3h-2.1c-5.1,0-9.8,3.6-10.8,9.3L542.9,1045c-1,6.2-7.7,10.3-13.9,8.7l-280.8-72.5
	c-6.2-1.5-9.8-8.2-7.7-14.4L367,564.7c0.5-1.5,0.5-3.1,0.5-4.6l-10.3-86.9c-1.5-12.3-19-13.4-22.1-1L217.9,966.9
	c-1,5.1-5.7,8.7-10.8,8.7h-87.4c-7.2,0-12.3-6.2-10.8-13.4l153.3-807.9C262.6,150.7,265.2,147.6,268.3,146.1z"/>
<path fill="#F58F72" stroke="#000000" stroke-width="2" stroke-miterlimit="10" d="M917.3,146.1L735.8,63.8c-2.6-1-4.6-3.1-5.7-5.7
	l-12.9-28.8c-4.6-10.3-19.5-8.7-21.6,2.1L690,57.1l-92.6,496.3c-1,5.7-5.7,9.3-11.3,9.3l0,0c-6.2,0-11.3,5.1-11.3,11.3v213.9
	c0,6.2,5.1,11.3,11.3,11.3h2.1c5.7,0,10.3,4.1,11.3,9.3l43.7,235c1,6.7,7.7,10.8,14.4,9.3l279.8-72.5c6.2-1.5,10.3-8.2,8.2-14.4
	L819.1,564.2c-0.5-1.5-0.5-3.1-0.5-4.6l10.3-84.9c1.5-12.9,19.5-13.9,22.6-1l116.2,493.7c1,5.1,98.2,8.7,98.2,8.7
	c7.2,0-22.6-193.4-22.6-193.4L924,154.3C923.5,150.7,920.9,147.6,917.3,146.1z"/>
<path fill="#7E69AD" stroke="#000000" stroke-width="2" stroke-miterlimit="10" d="M609.8,56.6l13.4-23.7c3.1-5.1-0.5-11.8-6.7-11.8
	h-49.4c-6.2,0-9.8,6.7-6.7,11.8l13.9,24.2c1.5,2.6,1.5,5.7,0,7.7l-36,62.7c-1,1.5-1,3.6-1,5.1l47.3,291.1c1.5,8.7,13.9,8.7,15.4,0
	l47.3-290.6c0.5-1.5,0-3.6-1-5.1l-36.5-63.3C608.2,61.7,608.2,59.1,609.8,56.6z"/>
<path fill="#F58F72" stroke="#000000" stroke-width="2" stroke-miterlimit="10" d="M1643,454.6l21.1,148.1c0.5,2.6,1,4.6,2.1,6.7
	l49.4,112.6c5.1,12.3,19,18.5,31.4,14.4l49.9-15.9c12.3-4.1,20.1-17,17.5-29.8l-112.1-560.6c-2.1-10.8-10.8-19-21.6-20.6
	l-114.7-17.5c-4.1-0.5-8.2-2.6-11.8-5.1l-93.6-71.5c-4.6-3.6-10.3-5.1-15.9-5.1h-81.8h-20.6h-80.7c-5.7,0-11.3,2.1-15.9,5.1
	l-93.6,71.5c-3.6,2.6-7.7,4.1-11.8,5.1l-114.7,17.5c-10.8,1.5-19.5,9.8-21.6,20.6L891.6,690.7c-2.6,12.9,5.1,25.7,17.5,29.8
	l49.9,15.9c12.9,4.1,26.2-2.1,31.4-14.4l49.4-112.6c1-2.1,1.5-4.6,2.1-6.7l21.1-148.1c4.1-27.8,43.2-30.3,50.9-3.1l28.3,102.3
	c1.5,6.2,1,12.9-2.1,18.5L942.5,966.9c-7.2,13.9,0,30.9,14.9,36c57.6,19.5,188.7,62.2,251.5,62.7c42.2,0.5,71.5,0,90.5,0
	c14.4,0,25.7-11.8,25.7-25.7V208.8c0-7.7-3.1-14.9-9.3-19.5l-93.1-79.7c-10.3-8.7-11.8-23.7-4.6-34.5l8.7-12.9
	c4.6-7.2,12.9-11.3,21.6-11.3h93.6h20.6h94.6c8.7,0,16.5,4.1,21.1,11.3l9.3,12.9c7.7,10.8,5.7,25.7-4.6,34.5l-92.6,79.7
	c-5.7,5.1-9.3,12.3-9.3,19.5v830.6c0,14.4,11.3,25.7,25.7,25.7c18.5,0,47.8,0,90,0c62.7-0.5,193.9-43.2,251-62.7
	c14.9-5.1,21.6-22.1,14.9-36l-197.5-394.5c-3.1-5.7-3.6-12.3-2.1-18.5l28.3-102.3C1599.8,424.3,1638.9,426.9,1643,454.6z"/>
<path fill="#F58F72" stroke="#000000" stroke-width="2" stroke-miterlimit="10" d="M960,932.4l81.3-162l23.1,143.5
	c1.5,9.8-5.7,18.5-15.9,18.5H960z"/>
<polygon fill="#F58F72" points="970.3,927.8 962.1,916.5 1036.1,765.8 1038.7,790.5 "/>
<polygon fill="#7E69AD" points="968.2,927.8 969.8,925.2 962.6,915.9 962.1,917.5 "/>
<circle fill="#7E69AD" stroke="#000000" stroke-width="2" stroke-miterlimit="10" cx="1250.6" cy="323.5" r="30.3"/>
<circle fill="#7E69AD" stroke="#000000" stroke-width="2" stroke-miterlimit="10" cx="1250.6" cy="450" r="30.3"/>
<circle fill="#7E69AD" stroke="#000000" stroke-width="2" stroke-miterlimit="10" cx="1250.6" cy="571.4" r="30.3"/>
</svg>
