<?xml version="1.0" encoding="utf-8"?>
<!-- Generator: Adobe Illustrator 18.0.0, SVG Export Plug-In . SVG Version: 6.00 Build 0)  -->
<!DOCTYPE svg PUBLIC "-//W3C//DTD SVG 1.1//EN" "http://www.w3.org/Graphics/SVG/1.1/DTD/svg11.dtd">
<svg version="1.1" id="Layer_1" xmlns="http://www.w3.org/2000/svg" xmlns:xlink="http://www.w3.org/1999/xlink" x="0px" y="0px"
	 viewBox="0 0 380 280" enable-background="new 0 0 380 280" xml:space="preserve">
<path fill="#EE599F" stroke="#000000" stroke-width="2" stroke-miterlimit="10" d="M116.4,113.5c51.7-36.7,98.8-63.2,118-67.3
	c0.8-2.1,0.9-3.7,0.1-4.8c-6.1-8.6-62.8,21.1-126.6,66.4S-2.7,196.8,3.4,205.4c1.2,1.6,4.1,1.9,8.6,0.9
	C17.7,191.6,60.5,153.2,116.4,113.5z"/>
<ellipse transform="matrix(-0.5785 -0.8157 0.8157 -0.5785 92.1312 300.0606)" fill="#F58F72" stroke="#000000" stroke-width="2" stroke-miterlimit="10" cx="123.6" cy="126.2" rx="19.1" ry="141.7"/>
<path d="M284,29.9L284,29.9c0.5,0.7,0.3,1.7-0.4,2.2l-30.1,21.3c-0.7,0.5-1.7,0.3-2.2-0.4v0c-0.5-0.7-0.3-1.7,0.4-2.2l30.1-21.3
	C282.6,29,283.6,29.2,284,29.9z"/>
<path d="M281.6,26.4L281.6,26.4c0.5,0.7,0.3,1.7-0.4,2.2l-30.1,21.3c-0.7,0.5-1.7,0.3-2.2-0.4v0c-0.5-0.7-0.3-1.7,0.4-2.2L279.4,26
	C280.1,25.5,281.1,25.7,281.6,26.4z"/>
<path d="M279.1,22.9L279.1,22.9c0.5,0.7,0.3,1.7-0.4,2.2l-30.1,21.3c-0.7,0.5-1.7,0.3-2.2-0.4v0c-0.5-0.7-0.3-1.7,0.4-2.2l30.1-21.3
	C277.6,22,278.6,22.2,279.1,22.9z"/>
<path d="M276.6,19.4L276.6,19.4c0.5,0.7,0.3,1.7-0.4,2.2l-30.1,21.3c-0.7,0.5-1.7,0.3-2.2-0.4l0,0c-0.5-0.7-0.3-1.7,0.4-2.2
	L274.4,19C275.1,18.5,276.1,18.7,276.6,19.4z"/>
<path d="M274.1,15.9L274.1,15.9c0.5,0.7,0.3,1.7-0.4,2.2l-30.1,21.3c-0.7,0.5-1.7,0.3-2.2-0.4l0,0c-0.5-0.7-0.3-1.7,0.4-2.2
	l30.1-21.3C272.6,15,273.6,15.2,274.1,15.9z"/>
<path d="M271.6,12.3L271.6,12.3c0.5,0.7,0.3,1.7-0.4,2.2l-30.1,21.3c-0.7,0.5-1.7,0.3-2.2-0.4l0,0c-0.5-0.7-0.3-1.7,0.4-2.2
	L269.5,12C270.2,11.5,271.1,11.7,271.6,12.3z"/>
<path d="M269.1,8.8L269.1,8.8c0.5,0.7,0.3,1.7-0.4,2.2l-30.1,21.3c-0.7,0.5-1.7,0.3-2.2-0.4v0c-0.5-0.7-0.3-1.7,0.4-2.2L267,8.5
	C267.7,8,268.6,8.1,269.1,8.8z"/>
<path d="M266.7,5.3L266.7,5.3c0.5,0.7,0.3,1.7-0.4,2.2l-30.1,21.3c-0.7,0.5-1.7,0.3-2.2-0.4v0c-0.5-0.7-0.3-1.7,0.4-2.2L264.5,5
	C265.2,4.5,266.2,4.6,266.7,5.3z"/>
<path fill="#F58F72" stroke="#000000" stroke-width="2" stroke-miterlimit="10" d="M236.8,26.3l17.9,25.2c2.7,3.9,1.8,9.2-2,12
	l-5.2,3.7c-2.9,2.1-6.7,2-12.6,2.3c-3.9,0.1-7.7-1.7-9.9-4.9l-10.3-14.6c-2.3-3.2-2.8-7.5-1.3-11.1c2.2-5.3,3.4-8.8,6.3-10.9
	l5.2-3.7C228.7,21.5,234.1,22.4,236.8,26.3z"/>
<path fill="#7E69AD" stroke="#000000" stroke-width="2" stroke-miterlimit="10" d="M199.9,80.8c-65.2,0-122.3,19-153.4,47.4
	c-3.1,2.8-1.2,8.1,3,8.2c53,1.9,94.2,17.3,94.2,35.2c0,19.2-47.4,35.4-105.9,35.4c0,0-0.1,0-0.1,0c-3.9-1-6.1,3.8-3.8,7
	c26.1,35.9,90.6,61.1,166,61.1c98.5,0,178.4-43.6,178.4-97.1S298.4,80.8,199.9,80.8z M149.2,259.8c-12.7,0-23.1-10.3-23.1-23.1
	c0-12.7,10.3-23.1,23.1-23.1c12.7,0,23.1,10.3,23.1,23.1C172.2,249.5,161.9,259.8,149.2,259.8z M228.8,259.8
	c-12.7,0-23.1-10.3-23.1-23.1c0-12.7,10.3-23.1,23.1-23.1c12.7,0,23.1,10.3,23.1,23.1C251.8,249.5,241.5,259.8,228.8,259.8z
	 M297,113.2c12.7,0,23.1,10.3,23.1,23.1c0,12.7-10.3,23.1-23.1,23.1c-12.7,0-23.1-10.3-23.1-23.1C274,123.6,284.3,113.2,297,113.2z
	 M298,241.8c-12.7,0-23.1-10.3-23.1-23.1c0-12.7,10.3-23.1,23.1-23.1c12.7,0,23.1,10.3,23.1,23.1C321,231.5,310.7,241.8,298,241.8z
	 M344.4,205.8c-12.7,0-23.1-10.3-23.1-23.1c0-12.7,10.3-23.1,23.1-23.1c12.7,0,23.1,10.3,23.1,23.1
	C367.5,195.5,357.1,205.8,344.4,205.8z"/>
<g>
	<path fill="#EE599F" stroke="#000000" stroke-width="2" stroke-miterlimit="10" d="M293.2,241.3c1.5,0.3,3.1,0.5,4.7,0.5
		c12.7,0,23.1-10.3,23.1-23.1c0-12.7-10.3-23.1-23.1-23.1c-1.6,0-3.2,0.2-4.7,0.5c10.5,2.2,18.3,11.5,18.3,22.6
		C311.6,229.9,303.7,239.2,293.2,241.3z"/>
	<path fill="#EE599F" stroke="#000000" stroke-width="2" stroke-miterlimit="10" d="M339.7,205.3c1.5,0.3,3.1,0.5,4.7,0.5
		c12.7,0,23.1-10.3,23.1-23.1c0-12.7-10.3-23.1-23.1-23.1c-1.6,0-3.2,0.2-4.7,0.5c10.5,2.2,18.3,11.5,18.3,22.6
		C358,193.9,350.1,203.1,339.7,205.3z"/>
	<path fill="#EE599F" stroke="#000000" stroke-width="2" stroke-miterlimit="10" d="M297,113.2c-1.6,0-3.2,0.2-4.7,0.5
		c10.5,2.2,18.3,11.5,18.3,22.6c0,11.1-7.9,20.4-18.3,22.6c1.5,0.3,3.1,0.5,4.7,0.5c12.7,0,23.1-10.3,23.1-23.1
		C320.1,123.6,309.8,113.2,297,113.2z"/>
	<path fill="#EE599F" stroke="#000000" stroke-width="2" stroke-miterlimit="10" d="M144.4,259.3c1.5,0.3,3.1,0.5,4.7,0.5
		c12.7,0,23.1-10.3,23.1-23.1c0-12.7-10.3-23.1-23.1-23.1c-1.6,0-3.2,0.2-4.7,0.5c10.5,2.2,18.3,11.5,18.3,22.6
		C162.7,247.9,154.9,257.2,144.4,259.3z"/>
	<path fill="#EE599F" stroke="#000000" stroke-width="2" stroke-miterlimit="10" d="M33.9,213.9c-2.3-3.2-0.1-8,3.8-7.1
		c0,0,0.1,0,0.1,0c58.5,0,105.9-16,105.9-35.3c0-17.9-41.2-33.1-94.2-35c-4.2-0.2-6.1-5.4-3-8.2c30.4-27.7,85.6-46.5,148.9-47.4
		c-1.7,0-3.3,0-5,0c-65.2,0-122.3,19-153.4,47.4c-3.1,2.8-1.2,8.1,3,8.2c53,1.9,94.2,17.1,94.2,35c0,19.2-47.4,35.3-105.9,35.3
		c0,0-0.1,0-0.1,0c-3.9-0.9-6.1,3.9-3.8,7.1c26.1,35.9,90.6,61.1,166,61.1c1.6,0,3.2,0,4.8,0C121.8,273.9,59.4,249.1,33.9,213.9z"/>
	<path fill="#EE599F" stroke="#000000" stroke-width="2" stroke-miterlimit="10" d="M224,259.3c1.5,0.3,3.1,0.5,4.7,0.5
		c12.7,0,23.1-10.3,23.1-23.1c0-12.7-10.3-23.1-23.1-23.1c-1.6,0-3.2,0.2-4.7,0.5c10.5,2.2,18.3,11.5,18.3,22.6
		C242.4,247.9,234.5,257.2,224,259.3z"/>
</g>
</svg>
