<?xml version="1.0" encoding="utf-8"?>
<!-- Generator: Adobe Illustrator 18.0.0, SVG Export Plug-In . SVG Version: 6.00 Build 0)  -->
<!DOCTYPE svg PUBLIC "-//W3C//DTD SVG 1.1//EN" "http://www.w3.org/Graphics/SVG/1.1/DTD/svg11.dtd">
<svg version="1.1" id="Layer_1" xmlns="http://www.w3.org/2000/svg" xmlns:xlink="http://www.w3.org/1999/xlink" x="0px" y="0px"
	 viewBox="0 0 1920 1080" enable-background="new 0 0 1920 1080" xml:space="preserve">
<path fill="#7E69AD" stroke="#000000" stroke-width="2" stroke-miterlimit="10" d="M1419.4,250.7H451.2
	C234.1,250.7,57.8,427,57.8,644.1s175.9,393.4,393,393.4H1419c217.2,0,393-176.3,393-393.4S1636.5,250.7,1419.4,250.7z M344,680
	c-16.6,0-31.2-7.7-41.3-19.3c-12-9.6-19.3-24.7-19.3-41.3c0-29.3,23.9-53.2,53.2-53.2c16.6,0,31.2,7.7,41.3,19.3
	c12,9.6,19.3,24.7,19.3,41.3C397.2,656.5,373.3,680,344,680z M536.9,839.7c-29.3,0-53.2-23.9-53.2-53.2c0-29.3,23.9-53.2,53.2-53.2
	c29.3,0,53.2,23.9,53.2,53.2C590.1,815.8,566.6,839.7,536.9,839.7z M536.9,524.6c-29.3,0-53.2-23.9-53.2-53.2s23.9-53.2,53.2-53.2
	c29.3,0,53.2,23.9,53.2,53.2C590.1,500.7,566.6,524.6,536.9,524.6z M722.4,669.2c-29.3,0-53.2-23.9-53.2-53.2s23.9-53.2,53.2-53.2
	c29.3,0,53.2,23.9,53.2,53.2S751.7,669.2,722.4,669.2z M1416.3,934.6c-163.2,0-295.5-132.3-295.5-295.5s132.3-295.5,295.5-295.5
	s295.5,132.3,295.5,295.5S1579.5,934.6,1416.3,934.6z"/>
<g>
	<path fill="#7E69AD" stroke="#000000" stroke-width="2" stroke-miterlimit="10" d="M566.6,834.7c6.9,3.1,14.3,5,22.4,5
		c29.3,0,53.2-23.9,53.2-53.2c0-29.3-23.9-53.2-53.2-53.2c-8.1,0-15.4,1.9-22.4,5c18.1,8.5,30.9,27,30.9,48.2
		C597.4,808.1,585.1,826.2,566.6,834.7z"/>
	<path fill="#7E69AD" stroke="#000000" stroke-width="2" stroke-miterlimit="10" d="M752.1,664.2c6.9,3.1,14.3,5,22.4,5
		c29.3,0,53.2-23.9,53.2-53.2s-23.9-53.2-53.2-53.2c-8.1,0-15.4,1.9-22.4,5c18.1,8.5,30.9,27,30.9,48.2S770.6,655.7,752.1,664.2z"/>
	<path fill="#7E69AD" stroke="#000000" stroke-width="2" stroke-miterlimit="10" d="M588.9,418.1c-8.1,0-15.4,1.9-22.4,5
		c18.1,8.5,30.9,27,30.9,48.2c0,21.6-12.7,39.7-30.9,48.2c6.9,3.1,14.3,5,22.4,5c29.3,0,53.2-23.9,53.2-53.2
		C642.2,442,618.3,418.1,588.9,418.1z"/>
	<path fill="#7E69AD" stroke="#000000" stroke-width="2" stroke-miterlimit="10" d="M373.7,675.4c6.9,3.1,14.3,5,22.4,5
		c29.3,0,53.2-23.9,53.2-53.2c0-16.6-7.7-31.2-19.3-41.3c-9.6-12-24.7-19.3-41.3-19.3c-8.1,0-15.4,1.9-22.4,5
		c7.3,3.5,13.9,8.5,18.9,14.7c12,9.6,19.3,24.7,19.3,41.3C404.6,648.4,391.8,666.9,373.7,675.4z"/>
	<path fill="#7E69AD" stroke="#000000" stroke-width="2" stroke-miterlimit="10" d="M1446,933.8c7.3,0.4,14.7,0.8,22.4,0.8
		c163.2,0,295.5-132.3,295.5-295.5s-132.3-295.5-295.5-295.5c-7.3,0-15,0.4-22.4,0.8c152.7,11.6,273.5,138.9,273.5,294.7
		C1719.1,795,1598.7,922.2,1446,933.8z"/>
	<path fill="#7E69AD" stroke="#000000" stroke-width="2" stroke-miterlimit="10" d="M109.9,644.5c0-217.2,175.9-393,393-393
		l-33.2,53.2c-217.2,0-327.1,122.3-327.1,339.4s89.5,320.5,306.6,320.5l53.6,72.5C285.8,1037.6,109.9,861.7,109.9,644.5z"/>
</g>
<path fill="#7E69AD" stroke="#000000" stroke-width="2" stroke-miterlimit="10" d="M978.1,292L978.1,292
	c-17.4,0-31.6-14.3-31.6-31.6V47.1c0-17.4,14.3-31.6,31.6-31.6l0,0c17.4,0,31.6,14.3,31.6,31.6v213.3
	C1009.8,277.7,995.5,292,978.1,292z"/>
<path fill="#F58F72" stroke="#000000" stroke-width="2" stroke-miterlimit="10" d="M1471.5,250.7H503.3
	c-217.5,0-393.4,176.3-393.4,393.4s175.9,393.4,393,393.4h968.1c217.2,0,393-176.3,393-393.4S1688.6,250.7,1471.5,250.7z M396.1,680
	c-16.6,0-31.2-7.7-41.3-19.3c-12-9.6-19.3-24.7-19.3-41.3c0-29.3,23.9-53.2,53.2-53.2c16.6,0,31.2,7.7,41.3,19.3
	c12,9.6,19.3,24.7,19.3,41.3C449.3,656.5,425.4,680,396.1,680z M588.9,839.7c-29.3,0-53.2-23.9-53.2-53.2
	c0-29.3,23.9-53.2,53.2-53.2s53.2,23.9,53.2,53.2C642.2,815.8,618.3,839.7,588.9,839.7z M588.9,524.6c-29.3,0-53.2-23.9-53.2-53.2
	s23.9-53.2,53.2-53.2s53.2,23.9,53.2,53.2C642.2,500.7,618.3,524.6,588.9,524.6z M774.5,669.2c-29.3,0-53.2-23.9-53.2-53.2
	s23.9-53.2,53.2-53.2c29.3,0,53.2,23.9,53.2,53.2S803.8,669.2,774.5,669.2z M1468,934.6c-163.2,0-295.5-132.3-295.5-295.5
	s132.3-295.5,295.5-295.5s295.5,132.3,295.5,295.5C1763.8,802.3,1631.5,934.6,1468,934.6z"/>
<circle fill="#F58F72" stroke="#000000" stroke-width="2" stroke-miterlimit="10" cx="1417.5" cy="640.7" r="136.2"/>
<circle fill="#EE599F" stroke="#000000" stroke-width="2" stroke-miterlimit="10" cx="1443.3" cy="640.7" r="136.2"/>
<path fill="#7E69AD" stroke="#000000" stroke-width="2" stroke-miterlimit="10" d="M1545.9,608.3l-65.2,1.2v-72.5
	c0-17.4-13.5-31.6-30.9-31.6s-30.9,14.3-30.9,31.6v73.7l-81.8,1.2c-17.4,0.4-28.2,15.4-28.2,32.8c0.4,17.4,12,30.9,29.3,30.5
	l80.6-1.2v68.7c0,17.4,13.5,31.6,30.9,31.6s30.9-14.3,30.9-31.6v-69.4l66.3-1.2c17.4-0.4,31.2-14.7,30.9-32
	C1577.5,622.2,1563.3,607.9,1545.9,608.3z"/>
</svg>
