<?xml version="1.0" encoding="utf-8"?>
<!-- Generator: Adobe Illustrator 18.0.0, SVG Export Plug-In . SVG Version: 6.00 Build 0)  -->
<!DOCTYPE svg PUBLIC "-//W3C//DTD SVG 1.1//EN" "http://www.w3.org/Graphics/SVG/1.1/DTD/svg11.dtd">
<svg version="1.1" id="Layer_1" xmlns="http://www.w3.org/2000/svg" xmlns:xlink="http://www.w3.org/1999/xlink" x="0px" y="0px"
	 viewBox="0 0 1920 1080" enable-background="new 0 0 1920 1080" xml:space="preserve">
<path fill="#F58F72" stroke="#000000" stroke-width="1.46" stroke-miterlimit="10" d="M740.3,899.3c-10.4,0-19.8-12.3-19.8-22.3
	v-9.4c0-10.4,9.4-15.4,19.8-15.4h473.4c1.9,0,3.8-3.1,3.8-2.5v-632c0-37.4-28.9-67-66.4-67H739.7c-37.4,0-69.5,29.6-69.5,67V855
	c0,37.4,32.1,69.5,69.5,69.5h411.2c22.3,0,42.2-9.4,54.4-25.2H740.3z"/>
<g>
	<path fill="#EE599F" stroke="#000000" stroke-width="1.46" stroke-miterlimit="10" d="M1082.6,368l16-23.9
		c4.4-6.3,2.8-15.4-3.8-19.5l-11.3-7.9c-6.3-4.4-15.4-2.8-19.5,3.8l-17.6,26.1L1082.6,368L1082.6,368z"/>
	<path fill="#EE599F" stroke="#000000" stroke-width="1.46" stroke-miterlimit="10" d="M1046.7,368.6c-6.3-3.8-14.5-1.9-18.6,4.1
		L864.2,614.3c-5.7,8.5-3.5,20.1,5,26.1l7.6,5c6.6,4.4,15.4,2.8,19.8-3.8L1063.4,396c4.4-6.6,2.5-15.7-4.4-19.8L1046.7,368.6
		L1046.7,368.6z"/>
</g>
<path fill="#EE599F" stroke="#000000" stroke-width="1.46" stroke-miterlimit="10" d="M894.1,645.4l-36.2,16.7
	c-0.6,0.3-1.3-0.3-0.9-0.6l3.5-39.6c0-1.6,1.9-2.2,2.8-1.3l30.8,21.7C895.7,642.9,895.4,644.8,894.1,645.4L894.1,645.4z"/>
<g>
	<path fill="#EE599F" stroke="#000000" stroke-width="1.46" stroke-miterlimit="10" d="M768.6,850.6h-28.3c-10.4,0-17.9,6.6-17.9,17
		v9.4c0,10.4,7.6,20.8,17.9,20.8h28.3c-10.4,0-17.9-10.7-17.9-20.8v-9.4C750.7,857.2,758.2,850.6,768.6,850.6z"/>
	<path fill="#EE599F" stroke="#000000" stroke-width="1.46" stroke-miterlimit="10" d="M1151.1,922.9h28.3
		c22.3,0,42.2-9.4,54.4-25.2h-28.3C1193,913.5,1173.2,922.9,1151.1,922.9L1151.1,922.9z"/>
	<path fill="#EE599F" stroke="#000000" stroke-width="1.46" stroke-miterlimit="10" d="M1179.4,149h-28.3
		c37.4,0,68.3,31.1,68.3,68.6v632c-1.6-0.6-3.8,0.9-5.7,0.9h28.3c1.9,0,4.1-1.6,5.7-0.9v-632C1247.7,180.2,1216.9,149,1179.4,149z"
		/>
</g>
</svg>
