<?xml version="1.0" encoding="utf-8"?>
<!-- Generator: Adobe Illustrator 18.0.0, SVG Export Plug-In . SVG Version: 6.00 Build 0)  -->
<!DOCTYPE svg PUBLIC "-//W3C//DTD SVG 1.1//EN" "http://www.w3.org/Graphics/SVG/1.1/DTD/svg11.dtd">
<svg version="1.1" id="Layer_1" xmlns="http://www.w3.org/2000/svg" xmlns:xlink="http://www.w3.org/1999/xlink" x="0px" y="0px"
	 viewBox="0 0 1920 1080" enable-background="new 0 0 1920 1080" xml:space="preserve">
<g>
	<path d="M1597.8,561.6c0,0-4.4-2.5-14-7c-8.9-4.4-21.6-8.9-39.4-13.3c-17.8-4.4-39.4-8.9-65.4-11.4c-25.4-2.5-54.6-4.4-86.4-5.1
		c-15.9-0.6-32.4-0.6-49.6,0c-8.9,0-17.8,0.6-26.7,0.6c-8.3,0-17.8,0-26.7,0.6c-36.2,1.3-74.3,4.4-113.7,9.5
		c-39.4,5.1-80,11.4-120.7,20.3c-41.3,8.3-82,18.4-123.2,30.5c-10.2,3.2-20.3,6.4-30.5,9.5c-10.2,3.2-20.3,6.4-30.5,10.2
		c-20.3,7-40,14-60.4,21c-41.9,14-83.9,21.6-125.2,25.4s-80.7,3.8-118.2,1.3s-72.4-7.6-104.8-14c-62.9-13.3-115-29.9-150.6-42.6
		c-17.8-6.4-31.8-12.1-41.3-16.5c-4.4-1.9-8.3-3.8-10.8-4.4c-2.5-1.3-3.8-1.9-3.8-1.9l7-14.6c0,0,1.3,0.6,3.2,1.3
		c2.5,1.3,5.7,2.5,10.2,4.4c9.5,3.8,22.9,8.9,40.7,14.6c35.6,12.1,86.4,27.3,149.3,38.1c31.1,5.1,66.1,9.5,102.3,10.8
		c36.2,1.9,75,0.6,113.7-3.8c38.8-5.1,79.4-14,117.5-28c19.7-7.6,39.4-15.2,59.7-22.9c10.2-3.8,20.3-7.6,30.5-10.8
		c10.2-3.2,20.3-7,31.1-10.2c41.3-12.7,83.2-24.8,125.2-34.3c41.9-8.9,83.2-16.5,123.9-21.6c40.7-5.1,80-8.9,117.5-9.5
		c9.5,0,18.4-0.6,28,0c4.4,0,8.9,0,13.3,0c4.4,0,8.9,0,13.3,0.6c17.8,0.6,34.9,1.9,50.8,3.2c32.4,3.2,62.3,7.6,88.3,12.7
		c26,5.1,48.9,11.4,67.3,17.8c17.8,6.4,33,13.3,41.9,18.4c8.9,5.1,13.3,7.6,13.3,7.6L1597.8,561.6z"/>
</g>
<g>
	<path d="M1661.4,364.7c0,0-4.4-2.5-14-7c-8.9-4.4-21.6-8.9-39.4-13.3c-17.8-4.4-39.4-8.9-65.4-11.4c-25.4-2.5-54.6-4.4-86.4-5.1
		c-15.9-0.6-32.4-0.6-49.6,0c-8.9,0-17.8,0.6-26.7,0.6c-8.3,0-17.8,0-26.7,0.6c-36.2,1.3-74.3,4.4-113.7,9.5
		c-39.4,5.1-80,11.4-120.7,20.3c-41.3,8.3-82,18.4-123.2,30.5c-10.2,3.2-20.3,6.4-30.5,9.5c-10.2,3.2-20.3,6.4-30.5,10.2
		c-20.3,7-40,14-60.4,21c-41.9,14-83.9,21.6-125.2,25.4c-41.3,3.8-80.7,3.8-118.2,1.3c-37.5-2.5-72.4-7.6-104.8-14
		c-64.2-12.7-115.6-29.2-151.2-42.6c-17.8-6.4-31.8-12.1-41.3-16.5c-4.4-1.9-8.3-3.8-10.8-4.4c-2.5-1.3-3.8-1.9-3.8-1.9l7-14.6
		c0,0,1.3,0.6,3.2,1.3c2.5,1.3,5.7,2.5,10.2,4.4c9.5,3.8,22.9,8.9,40.7,14.6c35.6,12.1,86.4,27.3,149.3,38.1
		c31.1,5.1,66.1,9.5,102.3,10.8c36.2,1.9,75,0.6,113.7-3.8c38.8-5.1,79.4-14,117.5-28c19.7-7.6,39.4-15.2,59.7-22.9
		c10.2-3.8,20.3-7.6,30.5-10.8c10.2-3.2,20.3-7,31.1-10.2c41.3-12.7,83.2-24.8,125.2-34.3c41.9-8.9,83.2-16.5,123.9-21.6
		s80-8.9,117.5-9.5c9.5,0,18.4-0.6,28,0c4.4,0,8.9,0,13.3,0c4.4,0,8.9,0,13.3,0.6c17.8,0.6,34.9,1.9,50.8,3.2
		c32.4,3.2,62.3,7.6,88.3,12.7c26,5.1,48.9,11.4,67.3,17.8c17.8,6.4,33,13.3,41.9,18.4s13.3,7.6,13.3,7.6L1661.4,364.7z"/>
</g>
<g>
	<path d="M1661.4,226.2c0,0-4.4-2.5-14-7c-8.9-4.4-21.6-8.9-39.4-13.3c-17.8-4.4-39.4-8.9-65.4-11.4c-25.4-2.5-54.6-4.4-86.4-5.1
		c-15.9-0.6-32.4-0.6-49.6,0c-8.9,0-17.8,0.6-26.7,0.6c-8.3,0-17.8,0-26.7,0.6c-36.2,1.3-74.3,4.4-113.7,9.5
		c-39.4,5.1-80,11.4-120.7,20.3c-41.3,8.3-82,18.4-123.2,30.5c-10.2,3.2-20.3,6.4-30.5,9.5c-10.2,3.2-20.3,6.4-30.5,10.2
		c-20.3,7-40,14-60.4,21c-41.9,14-83.9,21.6-125.2,25.4c-41.3,3.8-80.7,3.8-118.2,1.3s-72.4-7.6-104.8-14
		c-64.2-12.7-115.6-29.2-151.2-42.6c-17.8-6.4-31.8-12.1-41.3-16.5c-4.4-1.9-8.3-3.8-10.8-4.4c-2.5-1.3-3.8-1.9-3.8-1.9l7-14.6
		c0,0,1.3,0.6,3.2,1.3c2.5,1.3,5.7,2.5,10.2,4.4c9.5,3.8,22.9,8.9,40.7,14.6c35.6,12.1,86.4,27.3,149.3,38.1
		c31.1,5.1,66.1,9.5,102.3,10.8c36.2,1.9,75,0.6,113.7-3.8c38.8-5.1,79.4-14,117.5-28c19.7-7.6,39.4-15.2,59.7-22.9
		c10.2-3.8,20.3-7.6,30.5-10.8s20.3-7,31.1-10.2c41.3-12.7,83.2-24.8,125.2-34.3c41.9-8.9,83.2-16.5,123.9-21.6s80-8.9,117.5-9.5
		c9.5,0,18.4-0.6,28,0c4.4,0,8.9,0,13.3,0c4.4,0,8.9,0,13.3,0.6c17.8,0.6,34.9,1.9,50.8,3.2c32.4,3.2,62.3,7.6,88.3,12.7
		c26,5.1,48.9,11.4,67.3,17.8c17.8,6.4,33,13.3,41.9,18.4s13.3,7.6,13.3,7.6L1661.4,226.2z"/>
</g>
<polygon points="1456.8,69.9 1482.2,69.2 1482.2,68.6 1416.1,69.9 1428.2,885 1468.9,884.3 "/>
<path fill="#F58F72" stroke="#000000" stroke-width="2" stroke-miterlimit="10" d="M1535.6,858.3c0-1.9-0.6-3.8-1.3-5.7l-12.1-789.7
	h-14.6v-3.8l-48.3,4.4h-1.9l0,0l-590.2,52.7v731.9c-22.2-8.3-48.9-11.4-76.9-8.3c-71.2,8.9-123.9,59.1-117.5,111.8
	c6.4,52.7,69.2,88.3,141,79.4c66.1-8.3,115.6-51.5,118.2-99.7h1.3V247.1l526.7-47l8.9,585.7c-21.6-7.6-47-10.2-73.1-7
	c-71.2,8.9-123.9,59.1-117.5,111.8s69.2,88.3,141,79.4C1489.2,961.2,1541.9,911,1535.6,858.3z"/>
</svg>
