<?xml version="1.0" encoding="utf-8"?>
<!-- Generator: Adobe Illustrator 18.0.0, SVG Export Plug-In . SVG Version: 6.00 Build 0)  -->
<!DOCTYPE svg PUBLIC "-//W3C//DTD SVG 1.1//EN" "http://www.w3.org/Graphics/SVG/1.1/DTD/svg11.dtd">
<svg version="1.1" id="Layer_1" xmlns="http://www.w3.org/2000/svg" xmlns:xlink="http://www.w3.org/1999/xlink" x="0px" y="0px"
	 viewBox="0 0 1920 1080" enable-background="new 0 0 1920 1080" xml:space="preserve">
<polygon fill="#F58F72" stroke="#000000" stroke-width="2" stroke-miterlimit="10" points="1417.4,310.4 1437.1,310.4 1437.1,309.9 
	1385.4,310.4 1394.8,952.3 1426.7,951.8 "/>
<path fill="#EE599F" stroke="#000000" stroke-width="2" stroke-miterlimit="10" d="M1478.9,931.1c0-1.4-0.5-3.3-0.9-4.7l-9.4-621.2
	h-11.7l-0.5-2.8l-38,3.3h-1.9l0,0L952,347.5v576.2c-17.8-6.6-38.5-9.4-60.1-6.6c-56.3,7-97.7,46.5-92.5,87.8
	c5.2,41.3,54.9,69.5,110.8,62.5c52.1-6.6,91.1-40.4,93-78.4h0.9V450.3l414.2-37.1l7,461.1c-16.9-5.6-36.6-8-57.8-5.6
	c-56.3,7-97.7,46.5-92.5,87.8c5.2,41.3,54.9,69.5,110.8,62.5C1442.7,1011.9,1484,972.9,1478.9,931.1z"/>
<path fill="#EE599F" stroke="#000000" stroke-width="2" stroke-miterlimit="10" d="M734.1,149.3l57.8,4.7
	c57.8,27.7,21.6,6.6,81.7,46.5c60.1,39.9,96.3,81.2,96.3,81.2l-13.1-46.5c0,0,0-27.7-52.6-74.2c-52.6-46.5-77-62-116.5-76.5
	c-39.4-14.6-77.9-57.3-77.9-57.3l-15,124.4L734.1,149.3z"/>
<path fill="#F58F72" stroke="#000000" stroke-width="2" stroke-miterlimit="10" d="M946.9,205.7c0,0,0-26.3-50.2-70.4
	c-50.2-44.1-74.2-58.7-112.2-72.3c-37.6-13.6-75.1-54.5-75.1-54.5l-5.6,45.1l0,0L605,606.2c-17.4-9.4-39.4-14.1-62.5-13.6
	c-56.8,1.9-101.4,37.1-100.5,78.9c1.4,41.8,48.4,74.2,104.7,72.3c42.7-1.4,78.9-22.1,93.4-50.2h1.4l0.9-5.2c3.3-7.5,4.7-16,4.7-23.9
	c0-0.5,0-0.5,0-0.9l96.3-538.6l44.6,3.8c55.4,26.3,20.7,6.1,78.9,44.1c57.8,38,92.5,77,92.5,77L946.9,205.7z"/>
</svg>
