<?xml version="1.0" encoding="utf-8"?>
<!-- Generator: Adobe Illustrator 18.0.0, SVG Export Plug-In . SVG Version: 6.00 Build 0)  -->
<!DOCTYPE svg PUBLIC "-//W3C//DTD SVG 1.1//EN" "http://www.w3.org/Graphics/SVG/1.1/DTD/svg11.dtd">
<svg version="1.1" id="Layer_1" xmlns="http://www.w3.org/2000/svg" xmlns:xlink="http://www.w3.org/1999/xlink" x="0px" y="0px"
	 viewBox="0 0 1920 1080" enable-background="new 0 0 1920 1080" xml:space="preserve">
<path fill="#7E69AD" stroke="#000000" stroke-width="2" stroke-miterlimit="10" d="M1669.8,77.8H640.3v-38c0-9.1-10.4-9.5-19.9-9.5
	H375.1c-9.1,0-19.9,0.4-19.9,9.5v38H249.4c-23.3,0-45.4,16.4-45.4,39.7v890.8c0,23.3,22,45.8,45.4,45.8h1420.4
	c23.3,0,37.6-22.5,37.6-45.8V117.5C1707.4,94.2,1692.7,77.8,1669.8,77.8z M681.8,923.2c-197.9,0-357.7-160.3-357.7-357.7
	c0-197.9,160.3-357.7,357.7-357.7c197.9,0,357.7,160.3,357.7,357.7S879.2,923.2,681.8,923.2z M1595,301.1c0,19.9-16,35.9-35.9,35.9
	h-244.1c-19.9,0-35.9-16-35.9-35.9v-75.2c0-19.9,16-35.9,35.9-35.9h244.1c19.9,0,35.9,16,35.9,35.9V301.1z"/>
<circle fill="#F58F72" stroke="#000000" stroke-width="2" stroke-miterlimit="10" cx="664.1" cy="564.6" r="216"/>
<path fill="#F58F72" stroke="#000000" stroke-width="2" stroke-miterlimit="10" d="M1706.9,77.8h-1032v-38c0-9.1-7.8-9.5-17.3-9.5
	H412.2c-9.1,0-18.1,0.4-18.1,9.5v38H286.5c-23.3,0-43.6,16.4-43.6,39.7v890.8c0,23.3,20.3,45.8,43.6,45.8h1420.4
	c23.3,0,39.3-22.5,39.3-45.8V117.5C1746.2,94.2,1730.3,77.8,1706.9,77.8z M718.9,923.2c-197.9,0-357.7-160.3-357.7-357.7
	c0-197.9,160.3-357.7,357.7-357.7c197.9,0,357.7,160.3,357.7,357.7S916.4,923.2,718.9,923.2z M1633.9,301.1
	c0,19.9-16,35.9-35.9,35.9H1354c-19.9,0-35.9-16-35.9-35.9v-75.2c0-19.9,16-35.9,35.9-35.9h244.1c19.9,0,35.9,16,35.9,35.9V301.1z"
	/>
<path fill="#EE599F" stroke="#000000" stroke-width="2" stroke-miterlimit="10" d="M1555.3,644.1h-174.5
	c-21.6,0-38.9-17.7-38.9-38.9v-26.8c0-21.6,17.7-38.9,38.9-38.9h174.5c21.6,0,38.9,17.7,38.9,38.9v26.8
	C1594.2,626.4,1576.5,644.1,1555.3,644.1z"/>
<path fill="#EE599F" stroke="#000000" stroke-width="2" stroke-miterlimit="10" d="M1555.3,809.6h-174.5
	c-21.6,0-38.9-17.7-38.9-38.9v-26.8c0-21.6,17.7-38.9,38.9-38.9h174.5c21.6,0,38.9,17.7,38.9,38.9v26.8
	C1594.2,791.9,1576.5,809.6,1555.3,809.6z"/>
<path fill="#EE599F" stroke="#000000" stroke-width="2" stroke-miterlimit="10" d="M653.3,104.1H416.5c-11.2,0-19.9-9.1-19.9-19.9
	V45.8c0-11.2,9.1-19.9,19.9-19.9h236.7c11.2,0,19.9,9.1,19.9,19.9v38.4C673.2,95,664.1,104.1,653.3,104.1z"/>
<circle fill="#7E69AD" stroke="#000000" stroke-width="2" stroke-miterlimit="10" cx="705.1" cy="564.6" r="216"/>
<circle fill="#F58F72" stroke="#000000" stroke-width="2" stroke-miterlimit="10" cx="699.5" cy="565.9" r="132.6"/>
</svg>
