<?xml version="1.0" encoding="utf-8"?>
<!-- Generator: Adobe Illustrator 18.0.0, SVG Export Plug-In . SVG Version: 6.00 Build 0)  -->
<!DOCTYPE svg PUBLIC "-//W3C//DTD SVG 1.1//EN" "http://www.w3.org/Graphics/SVG/1.1/DTD/svg11.dtd">
<svg version="1.1" id="Layer_1" xmlns="http://www.w3.org/2000/svg" xmlns:xlink="http://www.w3.org/1999/xlink" x="0px" y="0px"
	 viewBox="0 0 1920 1080" enable-background="new 0 0 1920 1080" xml:space="preserve">
<circle fill="#7E69AD" stroke="#000000" stroke-width="2" stroke-miterlimit="10" cx="386.6" cy="296.4" r="238.5"/>
<circle fill="#7E69AD" stroke="#000000" stroke-width="2" stroke-miterlimit="10" cx="1077.3" cy="296.4" r="238.5"/>
<path fill="#F58F72" stroke="#000000" stroke-width="2" stroke-miterlimit="10" d="M1886.7,502h-292.3l-159.1,102.8v-71.7
	c0-67.8-52.1-124.2-118.6-130.1c-38.8,102-137.4,174.1-252.6,174.1c-115.6,0-214.2-73.4-253-174.9H625.9
	c-38.8,101.5-137.4,174.9-253,174.9c-115.2,0-215-72.1-254.3-173.2C55.9,413.7,6,467.9,6,533.2v390c0.4,71.7,62.7,133.1,134.8,133.1
	h1164.8c72.1,0,130.1-61.4,130.1-133.5v-31.1l97.7,64.9h353.3c15.8,0,27.7-15.4,27.7-31.1V528.5C1914.9,512.7,1902.9,502,1886.7,502
	z"/>
<path fill="#EE599F" stroke="#000000" stroke-width="2" stroke-miterlimit="10" d="M1316.3,380.9c-38.8,102-136.5,175.4-252.2,175.4
	c-115.6,0-213.8-75.9-252.6-174.1H626.3c-38.8,98.1-137.4,174.1-253,174.1c-115.2,0-216.3-72.5-255.1-173.7
	C55.5,391.9,4.3,445.7,4.3,511v21.8c0-65.3,51.2-119.5,113.9-129.3C157.4,505,257.3,577.5,372.5,577.5
	c115.6,0,215.5-75.9,254.3-174.1h185.2c38.8,98.1,137.4,174.1,253,174.1c115.6,0,212.9-72.5,251.7-174.5
	c66.6,6,117.3,61.9,117.3,129.7V511C1433.6,443.1,1382.4,386.8,1316.3,380.9z"/>
<path fill="#F58F72" stroke="#000000" stroke-width="2" stroke-miterlimit="10" d="M148.1,296.4c0-127.1,99.8-231.3,225.3-238.1
	c-4.3-0.4-9-0.4-13.2-0.4c-131.8,0-238.5,106.7-238.5,238.5s106.7,238.5,238.5,238.5c4.3,0,9,0,13.2-0.4
	C247.5,527.6,148.1,423.5,148.1,296.4z"/>
<path fill="#F58F72" stroke="#000000" stroke-width="2" stroke-miterlimit="10" d="M838.8,296.4c0-128,101.1-232.5,227.4-238.1
	c-3.4,0-7.3-0.4-11.1-0.4c-131.8,0-238.5,106.7-238.5,238.5s106.7,238.5,238.5,238.5c3.8,0,7.3,0,11.1-0.4
	C939.9,528.9,838.8,424.4,838.8,296.4z"/>
<path fill="#EE599F" stroke="#000000" stroke-width="2" stroke-miterlimit="10" d="M1165.2,898H424.1c-28.2,0-51.2-23-51.2-51.2
	v-96.4c0-28.2,23-51.2,51.2-51.2h741.1c28.2,0,51.2,23,51.2,51.2v96.4C1216.4,874.9,1193.4,898,1165.2,898z"/>
<path fill="#7E69AD" stroke="#000000" stroke-width="2" stroke-miterlimit="10" d="M1195.9,699.6h-29c27.3,0,49.5,22.2,49.5,49.5
	v99.4c0,27.3-22.2,49.5-49.5,49.5h29c27.3,0,49.5-22.2,49.5-49.5v-99.4C1245.4,721.8,1223.3,699.6,1195.9,699.6z"/>
</svg>
