<?xml version="1.0" encoding="utf-8"?>
<!-- Generator: Adobe Illustrator 18.0.0, SVG Export Plug-In . SVG Version: 6.00 Build 0)  -->
<!DOCTYPE svg PUBLIC "-//W3C//DTD SVG 1.1//EN" "http://www.w3.org/Graphics/SVG/1.1/DTD/svg11.dtd">
<svg version="1.1" id="Layer_1" xmlns="http://www.w3.org/2000/svg" xmlns:xlink="http://www.w3.org/1999/xlink" x="0px" y="0px"
	 viewBox="0 0 1920 1080" enable-background="new 0 0 1920 1080" xml:space="preserve">
<circle fill="#F58F72" stroke="#000000" stroke-width="2" stroke-miterlimit="10" cx="876.2" cy="533.1" r="225.1"/>
<path fill="#EE599F" stroke="#000000" stroke-width="2" stroke-miterlimit="10" d="M858.9,286.4l-127.4,33.3
	c-9.5,2.6-19-3.5-21.6-12.5l-1.7-6.9c-2.6-9.5,3.5-19,12.5-21.6l127.4-33.3c9.5-2.6,19,3.5,21.6,12.5l1.7,6.9
	C874,274.3,868.4,283.8,858.9,286.4z"/>
<path fill="#EE599F" stroke="#000000" stroke-width="2" stroke-miterlimit="10" d="M892.2,579.3l-4.3,8.2
	c-6.5,11.2-20.7,15.6-32.4,9.5l-129.2-71.3c-11.2-6.5-15.6-20.7-9.5-32.4l4.3-8.2c6.5-11.2,20.7-15.6,32.4-9.5l128.7,70.8
	C894.3,553,898.2,567.6,892.2,579.3z"/>
<path fill="#EE599F" stroke="#000000" stroke-width="2" stroke-miterlimit="10" d="M867.6,597l-8.2-4.3c-11.7-6-16-20.7-9.5-32.4
	l87.3-161.6c6-11.7,20.7-16,32.4-9.5l8.2,4.3c11.7,6,16,20.7,9.5,32.4L900,587.5C893.5,598.8,879.2,603.1,867.6,597L867.6,597z"/>
<path fill="#F58F72" stroke="#000000" stroke-width="2" stroke-miterlimit="10" d="M876.2,282.1l-127.4,33.3
	c-9.5,2.6-19-3.5-21.6-12.5l-1.7-6.9c-2.6-9.5,3.5-19,12.5-21.6l127.4-33.3c9.5-2.6,19,3.5,21.6,12.5l1.7,6.9
	C891.3,270,885.7,279.5,876.2,282.1z"/>
<path fill="#F58F72" stroke="#000000" stroke-width="2" stroke-miterlimit="10" d="M663.6,398.3l-32.4,75.6
	c-3.5,8.2-13.4,12.1-21.6,8.6l-6-2.6c-8.2-3.5-12.1-13.4-8.6-21.6l32.4-75.6c3.5-8.2,13.4-12.1,21.6-8.6l6,2.6
	C663.2,380.2,667.1,390.1,663.6,398.3z"/>
<path fill="#F58F72" stroke="#000000" stroke-width="2" stroke-miterlimit="10" d="M975.6,321.8l65.2,50.5c7.3,5.6,17.7,4.3,23.3-3
	l3.9-5.2c5.6-7.3,4.3-17.7-3-23.3l-65.2-50.5c-7.3-5.6-17.7-4.3-23.3,3l-3.5,5.2C967.3,305.9,968.6,316.2,975.6,321.8z"/>
<path fill="#7E69AD" stroke="#000000" stroke-width="2" stroke-miterlimit="10" d="M1146.6,663.1c-48.4-18.6-117.5-64.8-117.5-124
	c0-35.4,21.2-69.6,89.9-113.2c53.6-33.3,102-61.3,102-81.6c0-20.3-13.8-34.1-42.8-34.1c-62.2,0-109.3,65.7-126.1,65.7
	c-20.3,0-53.6-29.8-53.6-63.1c0-18.6,7.3-26.8,21.2-39.7c29.8-26.8,80.8-38.9,104.5-38.9c79.5,0,166.8,76.9,166.8,163.3
	c0,37.2-7.3,65.7-54.9,98.1c-32.4,23.3-94.6,58.3-94.6,89.9c0,14.7,5.6,31.5,25.1,55.7L1146.6,663.1L1146.6,663.1z M1060.2,788.4
	c0-40.6,30.7-72.1,70.4-72.1c41.9,0,71.3,31.5,71.3,72.1c0,43.6-30.7,73-71.3,73C1090.9,861.4,1060.2,831.6,1060.2,788.4z"/>
<path fill="#F58F72" stroke="#000000" stroke-width="2" stroke-miterlimit="10" d="M1185.5,663.1c-48.4-18.6-117.5-64.8-117.5-124
	c0-35.4,21.2-69.6,89.9-113.2c53.6-33.3,102-61.3,102-81.6c0-20.3-13.8-34.1-42.8-34.1c-62.2,0-109.3,65.7-126.1,65.7
	c-20.3,0-53.6-29.8-53.6-63.1c0-18.6,7.3-26.8,21.2-39.7c29.8-26.8,80.8-38.9,104.5-38.9c79.5,0,166.8,76.9,166.8,163.3
	c0,37.2-7.3,65.7-54.9,98.1c-32.4,23.3-94.6,58.3-94.6,89.9c0,14.7,5.6,31.5,25.1,55.7L1185.5,663.1L1185.5,663.1z M1099.1,788.4
	c0-40.6,30.7-72.1,70.4-72.1c41.9,0,71.3,31.5,71.3,72.1c0,43.6-30.7,73-71.3,73C1129.8,861.4,1099.1,831.6,1099.1,788.4z"/>
<path fill="#7E69AD" stroke="#000000" stroke-width="2" stroke-miterlimit="10" d="M658.5,589.7c-31.1-120.1,41-243.2,161.1-274.3
	c14.7-3.9,29.4-6,43.6-6.9c-22.9-1.3-46.2,0.9-69.6,6.9c-120.1,31.1-192.2,154.2-161.1,274.3c27.6,105.8,125.7,174.1,230.7,168
	C768.2,752.1,683.5,686.4,658.5,589.7L658.5,589.7z"/>
</svg>
