<?xml version="1.0" encoding="utf-8"?>
<!-- Generator: Adobe Illustrator 18.0.0, SVG Export Plug-In . SVG Version: 6.00 Build 0)  -->
<!DOCTYPE svg PUBLIC "-//W3C//DTD SVG 1.1//EN" "http://www.w3.org/Graphics/SVG/1.1/DTD/svg11.dtd">
<svg version="1.1" id="Layer_1" xmlns="http://www.w3.org/2000/svg" xmlns:xlink="http://www.w3.org/1999/xlink" x="0px" y="0px"
	 viewBox="0 0 1920 1080" enable-background="new 0 0 1920 1080" xml:space="preserve">
<path fill="#7E69AD" stroke="#000000" stroke-width="2" stroke-miterlimit="10" d="M1369.4,1013.2H255.1
	c-64.8,0-117.8-53-117.8-117.8V144.3c0-64.8,53-117.8,117.8-117.8h1114.4c64.8,0,117.8,53,117.8,117.8v751.1
	C1487.2,960.2,1434.2,1013.2,1369.4,1013.2z"/>
<g>
	<path fill="#F58F72" stroke="#000000" stroke-width="2" stroke-miterlimit="10" d="M1726.8,136.5c0-61.9-50.1-111.9-111.9-111.9
		H297.3c-61.9,0-111.9,50.1-111.9,111.9v843.4h1540.5V136.5H1726.8z M1354.7,416.3c15.7,0,27.5,12.8,27.5,28.5
		c0,15.7-12.8,28.5-28.5,28.5l-128.6,0v46.1l128.6,1c15.7,0,27.5,9.8,27.5,29.5h1c0,29.5-12.8,28.5-28.5,28.5l-127.6-1v46.1l127.6,1
		c15.7,0,26.5,12.8,26.5,28.5c0,15.7-12.8,28.5-28.5,28.5l-132.5,2.9c-6.9,23.6-24.5,42.2-50.1,42.2h-32.4v103.1
		c0,15.7-8.8,28.5-24.5,28.5c-15.7,0-24.5-12.8-24.5-28.5V726.5h-39.3v105.1c0,15.7-13.7,28.5-29.5,28.5
		c-15.7,0-29.5-12.8-29.5-28.5V726.5h-49.1v105.1c0,15.7-18.7,28.5-34.4,28.5c-15.7,0-34.4-12.8-34.4-28.5V726.5h-39.3v105.1
		c0,15.7-13.7,28.5-29.5,28.5c-15.7,0-29.5-12.8-29.5-28.5V726.5h-20.6c-25.5,0-40.3-18.7-46.1-42.2l-115.9-2
		c-15.7,0-28.5-13.7-28.5-29.5c0-15.7,12.8-29.5,28.5-29.5h113.9v-46.1l-121.7-1c-15.7,0-29.5-12.8-29.5-28.5s13.7-28.5,29.5-28.5
		l121.7,1v-46.1l-120.8-1c-15.7,0-29.5-12.8-29.5-28.5c0-15.7,13.7-28.5,29.5-28.5l120.8,0v-46.1l-118.8-1
		c-15.7,0-30.4-13.7-30.4-29.5s13.7-30.4,29.5-30.4l119.8-1c5.9-22.6,21.6-43.2,47.1-43.2h21.6V138.4c0-15.7,13.7-28.5,29.5-28.5
		c15.7,0,29.5,12.8,29.5,28.5v126.7h39.3V141.4c0-15.7,18.7-28.5,34.4-28.5c15.7,0,34.4,12.8,34.4,28.5v123.7h49.1V141.4
		c0-15.7,13.7-28.5,29.5-28.5c15.7,0,29.5,12.8,29.5,28.5v123.7h39.3V141.4c0-15.7,8.8-28.5,24.5-28.5c15.7,0,24.5,12.8,24.5,28.5
		v123.7h31.4c25.5,0,43.2,19.6,50.1,42.2l137.5,5.9c15.7,0,29.5,12.8,29.5,28.5s-12.8,28.5-28.5,28.5h-131.6v46.1H1354.7z"/>
	<path fill="#F58F72" stroke="#000000" stroke-width="2" stroke-miterlimit="10" d="M1104.3,333.8H821.6c-33.4,0-48.1,21.6-48.1,56
		v207.2c0,34.4,14.7,59.9,48.1,59.9h282.8c33.4,0,52-25.5,52-59.9V389.8C1156.4,355.4,1137.7,333.8,1104.3,333.8z"/>
	<path fill="none" stroke="#000000" stroke-miterlimit="10" d="M1607,938.6H300.2c-32.4,0-58.9-26.5-58.9-58.9V141.4
		c0-32.4,26.5-58.9,58.9-58.9H1608c32.4,0,58.9,26.5,58.9,58.9v738.3C1666.9,912.1,1640.4,938.6,1607,938.6z"/>
</g>
<path fill="#F58F72" stroke="#000000" stroke-width="2" stroke-miterlimit="10" d="M1797.5,1054.5H131.3
	c-21.6,0-38.3-17.7-38.3-38.3v-51.1h1742.7v51.1C1835.8,1037.8,1819.1,1054.5,1797.5,1054.5z"/>
<path fill="none" stroke="#000000" stroke-width="2" stroke-miterlimit="10" d="M1644.3,1010.3c0,0,36.3,0,81.5,0"/>
</svg>
