<svg xmlns="http://www.w3.org/2000/svg" viewBox="0 0 272.65 371.23"><defs><style>.cls-1{fill:#fff;stroke:#000;stroke-miterlimit:10;stroke-width:2px;}</style></defs><title>Logo</title><g id="Layer_2" data-name="Layer 2"><g id="Layer_1-2" data-name="Layer 1"><path d="M46.46,1.07A8,8,0,0,1,53.52.7c.68,0,3.46.38,5.93.38,4.88,0,6.16.3,7.74,2.1,5,5.63-.75,9.09-2.48,10.52C63.29,14.74,63,15,64,15c.68,0,7.21,3.61,8.79,4.58,9.54,6.16,7.36,16.53,7,18.63A21.62,21.62,0,0,1,70,49.45c-1.73,1.05-2.4,1.05-5.56,1.05-3.15.38-3.53.38-3.91,1.05-.38,1.05-2,1.8-5.56,1.8-2.48,0-3.53-.08-4.58-.75-1.43-.68-1.73-2.1-2.1-8-.38-2.48-2.1-22.84-2.48-34a48,48,0,0,1,0-8.11C46.16,1.75,46.46,1.07,46.46,1.07Zm12.69,9.46C60.21,9.11,60.58,9.11,60.21,7c0-2.48-.08-2.48-1.8-2.48-1.73-.38-1.73-.3-1.05,3.53C57.73,12.26,57.73,12.26,59.16,10.54Zm8,15.77a22.51,22.51,0,0,0-5.63-6.69c-2.78-2.1-3.53-2.1-3.15-1.43,0,1.73,1.43,18.25,1.8,21.41a35.37,35.37,0,0,1,.68,5c0,1.73,0,1.73,2.1-.38a13.07,13.07,0,0,0,3.83-4.88A15.82,15.82,0,0,0,67.19,26.31Z"/><path d="M84.84,1a7.13,7.13,0,0,1,4.58-.9c2.48,0,4.36.9,4.66,2.1.3.6.3,1,.9.68,5.18-2.55,6.08,1.28,7,1.58.9.6,2,6.23,3.53,7.21,1.13.3,1.13,0,1.8-1.05s3.08-7.14,4.66-7.74c3.23-2.1,7.14-.6,8.34.3,1.88,1.2,3.08,4,4,8.64.9,6.91,4.06,24.64,4.36,26.82,1.2,6.46.9,7.74-1.28,8.64-3.08,1.2-8,.53-9.24-.68-.75-2-.9-5.78-1.2-7.66-.3-1.58-3.08-27.19-3.38-28.09-.3-.6-.38-.3-1,.3-1.05,6.69-4.13,8.56-4.43,8.56-.9.6-4.58,1.58-6.46,0s-2.4-6.39-3.61-9.46c-.9-2.78-.9-2.7-1.5-1.5s-.6,1.5-.3,5.48c.3,5.86.6,36.13.6,37-2.33,2.85-8.26,2.1-10.14,1.2-2.18-.9-2.48-2.1-2.78-11.34V21.65c.3-14.2.3-12.7,0-16.68C83.94,1.9,83.94,1.6,84.84,1Z"/><path d="M137.87,4.38A13.72,13.72,0,0,1,144.41.32a24.33,24.33,0,0,1,5-.3C157-.28,159,3.7,159.58,5.58a7,7,0,0,1,0,5c-4.51,4.51-6.84,1-7.14-.9-.3-2.48-1-4.36-1.58-5-.3-.3-.6-.3-1.2.3-4.73,5.56-2.78,10.59-2.48,11.19.6,2.48,6.46,13.67,8.64,17.05,5.26,8.34,5.93,12.39,2.85,15.47-2.48,2.18-3.46,3.15-5.63,3.76a17.53,17.53,0,0,1-15.17-1.28c-3.46-3.16-4.66-7.06-4.66-8.64s.3-1.88.9-2.48c.9-.9,4.06-1.28,5.33-.38,1.28.6,3.38,3.08,4.28,4.66,1.58,2.18,2.85,3.46,3.16,3.46s.9-1.88.6-4.06c0-1.58-1.8-5.56-3.38-7.74-.3-.6-4.81-8.41-5.93-11.19C132.84,11.89,135.69,6.55,137.87,4.38Z"/><path d="M166.26,14.59c1.73-7.51,4.36-11,8.86-13.75a26.63,26.63,0,0,1,4.06-.6c8-.3,11,4.28,11.34,6.69.45,3.08.23,4.21-1.5,4.43-1.35.23-2.55-1.05-4.36-3.91-.83-1.28-1.2-1.5-2-1.8-1.8-.45-2.78.38-3.61,4.28-1.8,6.84-1.73,14.2-.45,23.06.6,6.91,2.7,12.17,4.73,14.27,2.55,1.43,4.58,0,5.78-1.2a9.8,9.8,0,0,1,4.43-2.63c2-.3,2.63-.3,2.78,1.65s-5.33,6.46-12.47,8c-5.33.83-10.82-.15-13.82-4.28-2.18-3.15-4-10.89-4.81-19.16C165.06,23.53,165.21,19.32,166.26,14.59Z"/><path d="M203.29,1.15C204.87.55,212-.28,216.06.09a61.37,61.37,0,0,1,8.49.38c4.43.38,5.11.83,5,2-.15,1.5-1.58,1.73-7.89,1.5a67.24,67.24,0,0,0-6.76-.23,52.24,52.24,0,0,0,.08,7.81c.3,1.13.23,1.2,3.91,1.5,3.68-.08,5.56.45,5.86,1.58.38.38-.15.75-.15,1.13-.45.75-5.26,2.18-7.59,2.7-2.25.15-2.33.15-2.33,4.58a112.71,112.71,0,0,0,1.13,19.83c.53,2.7.08,3.08,1.28,3.08s7.66.3,8.41.75c1.8,1.28,2.1,2.4.08,3.76-3.16,2.33-6.91,2.63-12.47,2.55-7.59-.08-10-4.58-10.29-5.71-1-2-1.65-6.54-2.1-9.92A155.89,155.89,0,0,1,200.59,15C201.56,4,202.09,1.82,203.29,1.15Z"/><path d="M38.67,88.45c.51-15.32.51-17.6,2.78-18.73,1.65-.51,6.84,0,8,.51,1.65,1.65,2.28,5.06,2.28,31.27.51,33.55.38,36-3.92,44.69C41,161.87,19.3,159,13.61,157.82c-6.84-1.65-9.62-4.56-11.9-12.53-2.28-7.34-2.28-65.45,0-69.37C2.85,73.64,6.27,72,10.82,72.5c4.56,0,7.34.63,8.48,3.42,1.14,2.28,1.77,12.53,2.28,33.55.51,17.6,1.14,29.62,2.28,33.55.51,3.92,1.77,6.2,2.28,5.7,11.14-5.95,9.11-15.82,10.76-27.22C38.55,106.17,38.67,104.4,38.67,88.45Z"/><path d="M65.12,63.26a53.4,53.4,0,0,0,8.35-1c5.57-1.14,21.77-1.14,26.2,0s6.84,2.41,6.2,3.8c-1.52,3.67-8.35,3.92-12.28,3.42-2.78-.51-2.78-.63-2.78,1.65,0,1.65.51,11.77.51,22.91,0,18.48.25,32.41,1.9,49.12.51,8.35,0,10.13-2.79,11.27-6.71,1.65-15.19.51-16.84-2.28-2.78-5.06-3.54-53.67-1.27-73.17a64.49,64.49,0,0,0,.51-7.85c0-.51-11.14-1.65-12.28-2.15C56.64,66.68,58.92,64.4,65.12,63.26Z"/><path d="M119.68,76.42a23.12,23.12,0,0,1,11-6.84c1.52-.51,4.18-.38,8.35-.51,12.91-.51,16.2,6.2,17.22,9.37a11.87,11.87,0,0,1,0,8.35c-7.6,7.59-11.52,1.65-12-1.52-.51-4.18-1.65-7.34-2.66-8.35-.51-.51-1-.51-2,.51-8,9.37-4.68,17.85-4.18,18.86,1,4.18,10.89,23,14.56,28.74,8.86,14.05,10,20.89,4.81,26.08-4.18,3.67-5.82,5.32-9.49,6.33-10.63,4.43-21.39.51-25.57-2.15-5.82-5.32-7.85-11.9-7.85-14.56s.51-3.16,1.52-4.18c1.52-1.52,6.84-2.15,9-.63,2.15,1,5.7,5.19,7.22,7.85,2.66,3.67,4.81,5.82,5.32,5.82s1.52-3.17,1-6.84c0-2.66-3-9.37-5.7-13-.51-1-8.1-14.18-10-18.86C111.2,89.08,116,80.1,119.68,76.42Z"/><path d="M176.64,71.36c0-.51,1-1.39,2.28-1.9,2.4-1.27,10.13-.63,12.53.63,1.77.51,1.9,1.27,1.9,4.3.51,1.77,1.27,3.67,1.27,4.18,1.77,1.77,2.79,6.58,6.46,23.29,1.77,5.95,3.17,10.76,3.17,10.76,0,.51,1,1.27,2.28,1.27,4.43-1,6.08,2.41,2.41,4.18-1.77,1.27-2.41,1.9-2.41,2.41-.51,1.27.51,3.67,7.09,23.42,1.27,3.67,2.53,7.22,2.53,7.72,0,1.27-3,1.77-6.71,1.77-5.44,0-6.46-.38-9.37-10.76-5.57-20-6.2-18.61-6.2-18.61a19.68,19.68,0,0,0-2.91.63c-3,1.27-3.16,1.27-3.67,5.44-.51,3-1.27,10.13-1.77,16.08-1.77,17.34-2.91,19.87-10.13,20.38-8.35.51-11.52-1.14-12-6.58-.51-7.22,4.18-53.29,7.85-68.86C172.46,86.93,176.13,71.87,176.64,71.36Zm15.82,43.93c0-.63-3.67-14.3-3.67-14.3-1.27,5.57-.63,12.91-.63,15.82,0,1.52.63.63,2.78,0C192.46,116.81,192.46,115.92,192.46,115.29Z"/><path d="M215.37,78.2c-1-5.32-1.14-6.33,1-8,2.66-1,9.11-1,11.77,0s4.18,2.66,6.84,8c1.65,3.67,12.79,39.88,13.29,42.53a32.42,32.42,0,0,0,1.14,3.8c.51,0,5.32-21.77,6.33-28.74,0-2.15,3.8-17,4.3-18.61,2-5.32,3.8-6.46,7-6.46a28.34,28.34,0,0,1,4.68.51c1.65,1.65,1.14,7.47-1.52,17.09-1.27,8.61-6.33,34.05-8.48,44.69-1,3.67-3.67,13.67-3.8,14.3-.89,4.3,1.39,4.05,1.14,7-.25,2.66-3.8,4.18-10.13,4.18-7.47.51-11.27-1.65-13.92-8-2.15-4.81-7.34-22.28-12.66-43.55C221.32,102.12,216.39,82.5,215.37,78.2Z"/><path d="M103.25,258.71c-.2-.65,2.77-2.06,5.28-2.72,5.64-1.31,8.05,1.91,8.25,3.17.65,2.52,0,4.18-2.77,6.94-1.91,1.91-2.21,1.76-1.46,2.11a7.75,7.75,0,0,1,2.11,1.71,15.62,15.62,0,0,1,4.63,13.94c-.65,4.63-4.18,7.6-9.06,7.6-2.77-.2-4.23-.81-5.94-2.72-1.06-1.26-1.06-1.91-.4-2.57,1.61-1.56,4.23-.6,5.28-.2,1.26.65,1.26.6,1.66.2,2.31-3.72,1.06-7.6-.4-11.17-1.06-2.77-2.31-4.68-3.17-5.08a3.12,3.12,0,0,1-1.91-1.71,5.57,5.57,0,0,1,1.71-1.91c4.78-3.42,3.57-7.2,3.37-7.4-.2-.86-.2-.86-3,0C105.16,259.76,103.25,259.56,103.25,258.71Z"/><path d="M124.84,267.06c1.91-5.33,4.58-9.66,6.29-10.87a7.54,7.54,0,0,1,5.79-.2c.7.5.75.91.25,1.41-.5.25-.5.25,1,.75a8,8,0,0,1,4.08,4.33,31.36,31.36,0,0,1,1.21,16.91,25.32,25.32,0,0,1-3.37,8.2c-3.52,5.59-11.12,3.62-12.08,3.12a11.26,11.26,0,0,1-5.28-7C122,280.8,123.13,270.94,124.84,267.06Zm10.62,11.37a37,37,0,0,0-.7-13.54c-.5-1.71-.75-2.16-1-1.46a55.87,55.87,0,0,0-2.87,12.08c-.5,4.33,0,9.41,1.21,10.62C132.79,286.64,135,281.81,135.46,278.43Z"/><path d="M151.92,258.61a4.91,4.91,0,0,0,1.11-.7,10.13,10.13,0,0,1,4.68.35c.35.35.35,1.41.35,5,0,4,.05,4,2.92,4,3.62.35,4.68.7,3.57,1.81-.35.35-1.41.7-3.57.7-3.27.35-3.27.35-2.92,4.33.35,6.49.75,13,1.11,14.09a8.17,8.17,0,0,0,1.81,1.46c1.81,1.11,2.16,1.81.35,2.52-2.52,1.11-6.84.35-8.66-1.46-1.46-1.11-1.86-2.87-2.57-11.52-.35-7.6-.3-7.6-1.41-7.6s-2.52-.7-2.52-1.41a3.2,3.2,0,0,1,2.87-1.46c1.11,0,1.11,0,1.46-1.81A63.11,63.11,0,0,1,151.92,258.61Z"/><path d="M165.86,269.33c.2-13.94.25-13.24,1.71-13.94a4.57,4.57,0,0,1,4.88,1,6.39,6.39,0,0,1,.81,2.21c.5,2,.91,13.69.7,18.07v3.22a4.87,4.87,0,0,0,.7-1.71c1.71-4.68,4.18-6.89,7.35-6.39,2.92.5,3.52,2.72,3.72,13.69,0,8.55.2,8.05-2.72,8.05s-3.52.55-3-8.76c.55-9,0-8.1,0-8.1-.2-.5-1.71,2-3.17,5.69-.5,1.21-1.41,3.67-1.91,4.88-1.21,2.47-2.47,3.93-3.92,4.13a6.79,6.79,0,0,1-4-.5C165.61,289.61,165.66,289.15,165.86,269.33Z"/><path d="M111,300.85a17.1,17.1,0,0,1,4.77-.39,23,23,0,0,1,3.17.14c1.65.14,1.91.31,1.88.73s-.59.65-2.94.56a25.06,25.06,0,0,0-2.52-.08,19.49,19.49,0,0,0,0,2.92c.11.42.08.45,1.46.56s2.08.17,2.19.59c.14.14-.06.28-.06.42a9.4,9.4,0,0,1-2.83,1c-.84.06-.87.06-.87,1.71a42.11,42.11,0,0,0,.42,7.4c.2,1,0,1.15.48,1.15a18.15,18.15,0,0,1,3.14.28c.67.48.79.9,0,1.4-1.18.87-2.58,1-4.66,1-2.83,0-3.73-1.71-3.84-2.13a15.73,15.73,0,0,1-.79-3.7A58.28,58.28,0,0,1,110,306C110.34,301.92,110.54,301.1,111,300.85Z"/><path d="M128,304.89c0-3.81,0-6,.31-6.31a3,3,0,0,1,1.65-.34c1.65,0,1.82.17,2,1.65.5,6.48.48,11.7,1.15,15.17.67,3.81,1,3.93.87,4.26a3.16,3.16,0,0,1-3.65.34c-.5-.34-.81-.84-1.15-2.5-.17-1.15-.17-1.18-.67-.34a2.32,2.32,0,0,1-2,1.49c-3.31,1-4.15-2.13-4.32-2.8a7.1,7.1,0,0,1,.67-3.81,7,7,0,0,1,4.63-3C128,308.54,128,308.54,128,304.89Zm-.14,7.15a10.54,10.54,0,0,0,.14-2.16c.17-.5,0-.5-.67-.17a5.7,5.7,0,0,0-2.47,4.63,3,3,0,0,0,1,2.5C126.17,317,127.68,314,127.85,312Z"/><path d="M135.84,309.69c.08-2.47.59-2.61,1-2.8a2,2,0,0,1,2-.11c.76.56.81,2,.73,6.06a36.21,36.21,0,0,0,.08,4.07c.08,2.61.08,2.72-.17,3.08-2.33,1.23-3,0-3.37-.9C135.56,318,135.39,314.29,135.84,309.69Zm.08-6.37c.14-1.29,1.23-1.32,1.91-1.37s1-.14,1.26.17a2.22,2.22,0,0,1-.08,2,2.69,2.69,0,0,1-2.89.2C135.84,304.25,135.84,303.8,135.93,303.32Z"/><path d="M144.06,302a2.74,2.74,0,0,0,.62-.39,5.65,5.65,0,0,1,2.61.2c.2.2.2.79.2,2.8,0,2.22,0,2.22,1.63,2.22,2,.2,2.61.39,2,1a3.19,3.19,0,0,1-2,.39c-1.82.2-1.82.2-1.63,2.41.2,3.62.42,7.24.62,7.85a4.54,4.54,0,0,0,1,.81c1,.62,1.21,1,.2,1.4a5.09,5.09,0,0,1-4.82-.81c-.81-.62-1-1.6-1.43-6.42-.2-4.23-.17-4.23-.79-4.23s-1.4-.39-1.4-.79a1.79,1.79,0,0,1,1.6-.81c.62,0,.62,0,.81-1A35.14,35.14,0,0,1,144.06,302Z"/><path d="M152,309.69c.08-2.47.59-2.61,1-2.8a2,2,0,0,1,2-.11c.76.56.81,2,.73,6.06a36.12,36.12,0,0,0,.08,4.07c.08,2.61.08,2.72-.17,3.08-2.33,1.23-3,0-3.37-.9C151.69,318,151.52,314.29,152,309.69Zm.08-6.37c.14-1.29,1.23-1.32,1.91-1.37s1-.14,1.26.17a2.22,2.22,0,0,1-.08,2,2.69,2.69,0,0,1-2.89.2C152,304.25,152,303.8,152.06,303.32Z"/><path d="M158.17,310.11a7.55,7.55,0,0,1,4-3.48,7.37,7.37,0,0,1,2.22-.11c.59.25.48.45-.22.79a3,3,0,0,0-1.29,1c-.11.34-.08.36,1,.36a2.35,2.35,0,0,1,1.63.22,5,5,0,0,1,2.78,4c.25,2.55-1.07,4.32-3.62,5.24a9.72,9.72,0,0,1-4.4,0,4.6,4.6,0,0,1-2.8-4.4A7.46,7.46,0,0,1,158.17,310.11Zm5.95,4.52c.59-1.63.22-2.89-1.18-4.29a4.85,4.85,0,0,0-.81-.81,8.19,8.19,0,0,0-.67,2.33,5.44,5.44,0,0,0-.14,3c.34.81,1,1.77,1.29,1.63A2.65,2.65,0,0,0,164.12,314.62Z"/><path d="M169.7,307.08c0-.14.28-.25.53-.25a3.47,3.47,0,0,1,2.27.11c.53.14.81,1.35,1.07,3.59.14.93.14.93.39.39a4.34,4.34,0,0,1,2-1.85,2.4,2.4,0,0,1,2.92.53c.53.93.79,2,.79,5.19s.14,3.31-.65,3.56a3.15,3.15,0,0,1-2.92-.39c-.36-.48.31-4,.31-5.22.14-2.13.06-2.33-.2-1.94a28.84,28.84,0,0,0-2.52,4,11.43,11.43,0,0,0-.11,2.64c0,2.38-1.07,2.5-2.44,2.69-1.46-.2-1.82.73-1.68-6.67A55.69,55.69,0,0,1,169.7,307.08Z"/><path d="M97.72,177.43a11.15,11.15,0,0,1,12.83-.75c1.38.81,1.94,2.44,2.5,5.76.75,5.7-3.07,14.9-3.07,15.46-.56,1.63-2.69,8.26-3.82,11.58-.56,1.94-.88,3.63-.88,3.63,0,.25.56,0,1.38,0a17.1,17.1,0,0,1,7.76,0c1.13.81.5,1.63-1.13,2.44-.81.25-3.63,1.13-5.26,1.69a27.66,27.66,0,0,1-9.39,1.63c-3.57.25-4.69-.81-4.13-3,.25-1.63,5.82-19.59,6.95-22.09,1.94-5.07,2.69-9.39,2.44-11.89,0-3.88-.31-4.13-1.94-2.19a6.87,6.87,0,0,1-4.26,2.44c-1.38.25-3.32-.31-3.32-1.13A9.62,9.62,0,0,1,97.72,177.43Z"/><path d="M121.37,188.76c2.38-6.63,5.7-12,7.82-13.52a9.38,9.38,0,0,1,7.2-.25c.88.63.94,1.13.31,1.75-.63.31-.63.31,1.19.94a9.9,9.9,0,0,1,5.07,5.38,39,39,0,0,1,1.5,21,31.5,31.5,0,0,1-4.19,10.2c-4.38,6.95-13.83,4.51-15,3.88-3.32-1.81-5.38-4.82-6.57-8.7C117.81,205.84,119.25,193.57,121.37,188.76Zm13.21,14.15a46,46,0,0,0-.88-16.84c-.63-2.13-.94-2.69-1.25-1.81a69.51,69.51,0,0,0-3.57,15c-.63,5.38,0,11.7,1.5,13.21C131.26,213.1,134,207.09,134.58,202.9Z"/><path d="M148.91,178.11c-.25-.75,1.75-2.57,3.82-2.82,1.5-.5,5.38-.5,6.13,0,2.5.75,3.07,3.07,3.57,15.52v12.52a128,128,0,0,1-1.31,14c-.25,1.31-1.44,1.56-4.76,1.56-2.5,0-3.32-.06-3.82-.56-1.31-.75-1.5-1.25-1-4.82.25-1.75.5-5.13.75-7.64.25-4.57.44-22.91.44-25.22-.25-1.5-.25-1.5-1-1.5C150.72,179.12,148.91,178.62,148.91,178.11Z"/><path d="M169.37,176a44.17,44.17,0,0,1,5.51-.56c5-.56,8.07-.31,9.45,1.38.81.56.88.81.88,3.63.31,3.32-1.5,22.28-2.63,27,0,1.13-1.38,10.83-1.38,11.14-.56.81-3.38,1.63-5.57,1.63-1.94,0-4.19-.56-5-1.38-.81-.56-.81-.81.56-9.7.31-3,4-28.6,4-29.17-.31-.81-.25-.88-3.88-.88a26.68,26.68,0,0,1-5.07,0c-1.13-.31-2.19-.81-2.19-1.63C163.74,176.86,166.06,176.3,169.37,176Z"/><path class="cls-1" d="M233.93,299.59c-1.77,2.76-3.39,5.62-5.33,8.26-3.43,4.66-7.91,7.5-14,7.12a13.67,13.67,0,0,1-2.14-.5c.58-5.62,3-10,8.07-12.06,4.24-1.68,8.9-2.33,13.37-3.43Z"/><path class="cls-1" d="M189.33,230.83c3.79,2.4,7.82,4.5,11.31,7.29,4,3.22,5.47,7.77,4.61,13.3-5.44-.14-9.92-2.16-12.19-6.93-2-4.28-2.94-9.08-4.35-13.65Z"/><path class="cls-1" d="M196.22,340.73c2.49-8.67,12.77-11.63,24.24-8.3C214.61,341.54,203.54,345.33,196.22,340.73Z"/><path class="cls-1" d="M109.93,368.08c8.92-9.56,18.61-11.45,25.06-5.7C131.35,370.46,120.45,372.19,109.93,368.08Z"/><path class="cls-1" d="M231.21,278c.25,12.44-4.89,20.84-13.34,22.08C214.17,292.26,219.81,282.8,231.21,278Z"/><path class="cls-1" d="M112.89,339.47c12.22,1,19.86,7.44,19.84,16.56C123.22,358.68,115.88,349.08,112.89,339.47Z"/><path class="cls-1" d="M91.56,341.77c-6.73-5.44-6.83-15-.44-25.71C98.25,322.45,98.55,335.41,91.56,341.77Z"/><path class="cls-1" d="M72.2,268.78c-.83-8.72,6.4-15.9,18.1-18.24C90.43,260.49,81.36,269.73,72.2,268.78Z"/><path class="cls-1" d="M64.93,300.26c-8.44-.6-13.65-9.77-13.41-21.9C62.11,281.91,68.12,291.71,64.93,300.26Z"/><path class="cls-1" d="M77.5,251.59c-1.43-9,4.6-16.52,16-20.08C94.87,241,87,251,77.5,251.59Z"/><path class="cls-1" d="M223.27,256.17c4.74,11,2.86,20.8-4.67,25.3C212.39,275.31,214.36,264.31,223.27,256.17Z"/><path class="cls-1" d="M202.09,268.91c10.63,4.69,16.17,14.22,13.1,22.26C206.66,290.57,201.45,281.84,202.09,268.91Z"/><path class="cls-1" d="M83.39,304.56c5.09,11.68,3.33,21-4.63,25.41C72.93,323.85,74.82,313.12,83.39,304.56Z"/><path class="cls-1" d="M191,341.5c-6.88-5.78-6.91-14.86.22-25.61C198.24,325.81,197.69,337.57,191,341.5Z"/><path class="cls-1" d="M182.18,326.4c3.81,9.72,0,21-8.16,24.26C169,343.88,171.7,334.22,182.18,326.4Z"/><path class="cls-1" d="M62,332.56c11.66-3,21.39-.7,24.46,8.19C79.35,346.17,68.94,341.35,62,332.56Z"/><path class="cls-1" d="M169.73,339.39c-3.59,11.8-11.37,18.3-19.65,16.61C149.18,347.42,157.07,340.61,169.73,339.39Z"/><path class="cls-1" d="M70.05,236c7,10.4,6.84,20.45-.43,25.83C63,256.58,63.16,246.11,70.05,236Z"/><path class="cls-1" d="M212.6,235.82c6.83,10,7,19.94.55,25.85C205.82,256.74,205.54,246,212.6,235.82Z"/><path class="cls-1" d="M192,250.23c12.41,3,19.17,9.66,18.4,18.08C201.88,270.1,194.15,262.61,192,250.23Z"/><path class="cls-1" d="M64.1,281.72c-6.85-3.8-9.81-12.59-4.75-25.25C68.67,265.46,70.1,275.33,64.1,281.72Z"/><path class="cls-1" d="M207.36,347.06c-8.66,8-18.81,9.39-25.57,3.74C185.26,343.05,195.74,341.47,207.36,347.06Z"/><path class="cls-1" d="M91.6,360.63c10.68-9.67,19.86-9.46,25.58-3.88C113.18,364.12,103.35,365.67,91.6,360.63Z"/><path class="cls-1" d="M172.85,368c-11.83,4.1-21.25,1.88-25.12-5.78C154.16,356.13,164.48,358.93,172.85,368Z"/><path class="cls-1" d="M74.68,328.57c-7.68,3.34-17.36-2.1-22.11-12.42C63.63,314.36,74.25,319.78,74.68,328.57Z"/><path class="cls-1" d="M210.61,311c-8.49-2.91-11.24-12.7-7.53-24.54C212.64,294.28,215.5,304.42,210.61,311Z"/><path class="cls-1" d="M100.95,350.73c-5.59,6-15.88,4.83-25.45-3.32C86.49,341.62,96.6,343,100.95,350.73Z"/><path class="cls-1" d="M191.09,360.27c-11.26,5.13-21.26,3.9-25.67-3.47C171.38,350.43,181.22,351.7,191.09,360.27Z"/><path class="cls-1" d="M203.93,329.91c-8.06-5-9.86-15.09-4.66-25.25C207.32,311.18,209.58,323,203.93,329.91Z"/><path class="cls-1" d="M49.18,299.33c11.33-.45,19.91,5.78,20.82,15.11C62.17,317.28,52.81,310.48,49.18,299.33Z"/><path class="cls-1" d="M80.37,269.07c.82,13.22-4.13,21.14-12.63,22.4C63.84,284.63,69.44,274.56,80.37,269.07Z"/><path class="cls-1" d="M100.42,326.55c9.48,6,13,15.87,8.51,24.12C100.55,348.8,97.44,337.83,100.42,326.55Z"/><path class="cls-1" d="M207.88,328.35c1.17-8.76,10.06-13.89,22.1-12.76C227.82,324.78,215.48,331.91,207.88,328.35Z"/><path class="cls-1" d="M79.68,286.54c3.67,12.27.84,21.24-7.6,24.63C67,304.63,70.19,294.28,79.68,286.54Z"/><path class="cls-1" d="M145.32,360.38c-1.29,1-2.47,2.53-3.91,2.83-2.07.44-3.48-1.09-3.59-3.23s1.19-3.77,3.29-3.52c1.46.17,2.77,1.58,4.14,2.43Z"/></g></g></svg>