<svg xmlns="http://www.w3.org/2000/svg" viewBox="0 0 1867.34 534.99"><defs><style>.cls-1{fill:#ee599f;}.cls-1,.cls-2,.cls-3,.cls-4{stroke:#010101;}.cls-1,.cls-15,.cls-17,.cls-2,.cls-3,.cls-4,.cls-6,.cls-7,.cls-8,.cls-9{stroke-miterlimit:10;stroke-width:2px;}.cls-2{fill:#f69073;}.cls-3,.cls-5{fill:#7f6aad;}.cls-17,.cls-4{fill:none;}.cls-6{fill:#f68f71;}.cls-15,.cls-6,.cls-7,.cls-8,.cls-9{stroke:#000;}.cls-7{fill:#7e69af;}.cls-8{fill:#ee59a0;}.cls-16,.cls-9{fill:#fff;}.cls-10,.cls-11{fill:#231f20;}.cls-11{font-size:18.59px;font-family:Cornerstone, Cornerstone;letter-spacing:-0.04em;}.cls-12{letter-spacing:-0.1em;}.cls-13{letter-spacing:-0.1em;}.cls-14{letter-spacing:-0.04em;}.cls-15{fill:#fdfefe;}.cls-17{stroke:#231f20;}</style></defs><title>Page Two</title><g id="Layer_2" data-name="Layer 2"><g id="Layer_1-2" data-name="Layer 1"><rect class="cls-1" x="13.98" y="381.27" width="547.74" height="8.76" transform="translate(0.47 -0.35) rotate(0.07)"/><path class="cls-2" d="M147.26,501.54V385.28c0-1,1.63-1.77,4-2.2a20.49,20.49,0,0,0-3.61-.31c-4.2,0-7.6,1.13-7.6,2.51V501.54c0,1.39,3.4,2.51,7.6,2.51a20.49,20.49,0,0,0,3.61-.31C148.89,503.31,147.26,502.49,147.26,501.54Z"/><path class="cls-2" d="M85.24,502.61V385.3c0-1,1.46-1.79,3.6-2.22a16.54,16.54,0,0,0-3.25-.32c-3.78,0-6.85,1.14-6.85,2.54V502.61c0,1.4,3.07,2.54,6.85,2.54a16.54,16.54,0,0,0,3.25-.32C86.7,504.4,85.24,503.57,85.24,502.61Z"/><path class="cls-1" d="M17.37,512v-.63a10,10,0,0,1,10.2-9.7H11.2A10,10,0,0,0,1,511.38V512a10,10,0,0,0,10.2,9.7H27.57A10,10,0,0,1,17.37,512Z"/><rect class="cls-1" x="147.67" y="381.28" width="289.35" height="16.22"/><rect class="cls-1" x="130.77" y="501.46" width="50.75" height="20.24" rx="10.12" ry="10.12"/><rect class="cls-3" x="17.33" y="377.2" width="254.67" height="5.56" transform="translate(0.46 -0.18) rotate(0.07)"/><rect class="cls-3" x="320.18" y="377.2" width="244.85" height="5.56"/><path class="cls-2" d="M373,328.39H564.33a0,0,0,0,1,0,0v48.69a0,0,0,0,1,0,0H421.74A48.69,48.69,0,0,1,373,328.39v0A0,0,0,0,1,373,328.39Z" transform="translate(937.37 705.46) rotate(-180)"/><path class="cls-1" d="M78.73,328.81H58.27c-28.18,0-51,21.53-51,48.09v.15H27.7v-.15C27.7,350.34,50.55,328.81,78.73,328.81Z"/><path class="cls-2" d="M66.57,328.39H206.84a0,0,0,0,1,0,0v48.69a0,0,0,0,1,0,0h-189a0,0,0,0,1,0,0v0A48.69,48.69,0,0,1,66.57,328.39Z"/><path class="cls-1" d="M178.07,344.16l-.93.15,125.11-42.67-10.9-3.69L155.44,344.31l.93-.15c-14.26,6-24.05,18.93-24.05,32.71H154C154,363.09,163.82,350.17,178.07,344.16Z"/><path class="cls-3" d="M405.68,340.46l-115.5-43.88-123,47.17.84-.16c-12.9,6.11-21.77,18.86-21.77,33.26H437C437,358.84,423.56,343.94,405.68,340.46Z"/><path class="cls-3" d="M334.91,343.55c-4.95-18.9-22.8-32.67-44.07-32.67s-39.12,13.78-44.07,32.67Z"/><path class="cls-2" d="M558.56,506.6V385.39c0-1,1.45-1.85,3.55-2.29a15.63,15.63,0,0,0-3.21-.33c-3.74,0-6.76,1.17-6.76,2.62V506.6c0,1.45,3,2.62,6.76,2.62a15.63,15.63,0,0,0,3.21-.33C560,508.45,558.56,507.6,558.56,506.6Z"/><path class="cls-2" d="M496,504.34v-119c0-1,1.29-1.81,3.17-2.25a12.76,12.76,0,0,0-2.87-.32c-3.34,0-6,1.15-6,2.57v119c0,1.42,2.71,2.57,6,2.57a12.76,12.76,0,0,0,2.87-.32C497.31,506.16,496,505.32,496,504.34Z"/><path class="cls-2" d="M227,502.25v-117c0-1,1.37-1.78,3.37-2.21a14.61,14.61,0,0,0-3-.32c-3.55,0-6.42,1.13-6.42,2.53v117c0,1.4,2.88,2.53,6.42,2.53a14.61,14.61,0,0,0,3-.32C228.39,504,227,503.21,227,502.25Z"/><rect class="cls-3" x="225.37" y="320.8" width="4.26" height="56.07"/><rect class="cls-3" x="350.66" y="320.64" width="3.86" height="56.23"/><rect class="cls-3" x="226.66" y="382.77" width="8.13" height="121.96"/><path class="cls-2" d="M349.18,503.46V385.32c0-1,1.31-1.8,3.21-2.23a13.11,13.11,0,0,0-2.9-.32c-3.37,0-6.11,1.14-6.11,2.55V503.46c0,1.41,2.73,2.55,6.11,2.55a13.11,13.11,0,0,0,2.9-.32C350.49,505.26,349.18,504.43,349.18,503.46Z"/><rect class="cls-3" x="349.45" y="382.77" width="7.54" height="123.25"/><rect class="cls-3" x="146.94" y="382.77" width="7.76" height="122.35"/><rect class="cls-3" x="432.6" y="382.77" width="9" height="129.41"/><path class="cls-2" d="M433.61,503.51V384.89c0-1,1.32-1.81,3.25-2.24a13.39,13.39,0,0,0-2.94-.32c-3.42,0-6.18,1.15-6.18,2.56V503.51c0,1.42,2.77,2.56,6.18,2.56a13.39,13.39,0,0,0,2.94-.32C434.94,505.32,433.61,504.48,433.61,503.51Z"/><path class="cls-4" d="M154.31,407.24c0-13.41,12.14-24.27,27.15-24.27"/><path class="cls-4" d="M161,382.64a4.85,4.85,0,0,1,1.6,6.9,4.33,4.33,0,0,1-5.8,1.22,3.1,3.1,0,0,1-1-4.41,2.77,2.77,0,0,1,3.71-.78,2,2,0,0,1,.65,2.82,1.77,1.77,0,0,1-2.38.5,1.27,1.27,0,0,1-.42-1.81,1.13,1.13,0,0,1,1.52-.32"/><path class="cls-4" d="M432.53,407.24c0-13.41-12.14-24.27-27.15-24.27"/><path class="cls-4" d="M425.83,382.64a4.85,4.85,0,0,0-1.6,6.9,4.33,4.33,0,0,0,5.8,1.22,3.1,3.1,0,0,0,1-4.41,2.77,2.77,0,0,0-3.71-.78,2,2,0,0,0-.65,2.82,1.77,1.77,0,0,0,2.38.5,1.27,1.27,0,0,0,.42-1.81,1.13,1.13,0,0,0-1.52-.32"/><path class="cls-4" d="M219.53,382.64a4.85,4.85,0,0,0-1.6,6.9,4.33,4.33,0,0,0,5.8,1.22,3.1,3.1,0,0,0,1-4.41,2.77,2.77,0,0,0-3.71-.78,2,2,0,0,0-.65,2.82,1.77,1.77,0,0,0,2.38.5,1.27,1.27,0,0,0,.42-1.81,1.13,1.13,0,0,0-1.52-.32"/><path class="cls-3" d="M303.75,343.55h-.35a5,5,0,0,0,.06-1c0-6.28-5.73-11.32-12.81-11.32s-12.81,5-12.81,11.29a5.33,5.33,0,0,0,.06,1h-.25v33.29h26.09Z"/><line class="cls-3" x1="277.91" y1="343.39" x2="168" y2="343.6"/><line class="cls-3" x1="413.8" y1="343.39" x2="303.89" y2="343.6"/><line class="cls-3" x1="157.09" y1="351.64" x2="157.09" y2="376.84"/><line class="cls-3" x1="175.98" y1="343.55" x2="175.98" y2="376.84"/><line class="cls-3" x1="195.78" y1="343.55" x2="195.78" y2="376.84"/><line class="cls-3" x1="214.67" y1="343.55" x2="214.67" y2="376.84"/><line class="cls-3" x1="234.47" y1="343.55" x2="234.47" y2="376.84"/><line class="cls-3" x1="255.16" y1="343.55" x2="255.16" y2="376.84"/><line class="cls-3" x1="326.25" y1="343.55" x2="326.25" y2="376.84"/><line class="cls-3" x1="346.04" y1="343.55" x2="346.04" y2="376.84"/><line class="cls-3" x1="364.94" y1="343.55" x2="364.94" y2="376.84"/><line class="cls-3" x1="385.63" y1="343.55" x2="385.63" y2="376.84"/><line class="cls-3" x1="405.43" y1="343.55" x2="405.43" y2="376.84"/><line class="cls-3" x1="427.02" y1="351.64" x2="427.02" y2="376.84"/><path class="cls-1" d="M292.05,290.46h.44s0,.1,0,0c0-1.09-1.08-1.86-2.42-1.86s-2.42.72-2.42,1.81c0,.07,0,0,0,0h-.13v6.3h4.5Z"/><line class="cls-3" x1="289.36" y1="288.66" x2="289.36" y2="273.36"/><line class="cls-3" x1="290.26" y1="288.66" x2="290.26" y2="273.36"/><ellipse class="cls-1" cx="290.09" cy="271.85" rx="1.74" ry="1.65"/><line class="cls-3" x1="175.98" y1="339.95" x2="175.98" y2="374.14"/><line class="cls-3" x1="195.78" y1="332.75" x2="195.78" y2="366.04"/><line class="cls-3" x1="214.67" y1="326.45" x2="214.67" y2="359.74"/><line class="cls-3" x1="364.94" y1="325.55" x2="364.94" y2="358.84"/><line class="cls-3" x1="385.63" y1="332.75" x2="385.63" y2="366.04"/><line class="cls-3" x1="405.43" y1="339.95" x2="405.43" y2="374.14"/><line class="cls-3" x1="254.14" y1="328.51" x2="237.25" y2="316.88"/><line class="cls-3" x1="326.48" y1="328.51" x2="343.36" y2="316.88"/><rect class="cls-3" x="430.19" y="403.09" width="15.96" height="5.65" rx="2.31" ry="2.31"/><rect class="cls-1" x="316.11" y="390.61" width="5.17" height="110.91"/><rect class="cls-1" x="197.05" y="390.58" width="4.78" height="110.96"/><rect class="cls-3" x="145.82" y="372.75" width="291.19" height="9.08"/><path class="cls-4" d="M356.42,407.24c0-13.41,12.14-24.27,27.15-24.27"/><path class="cls-4" d="M363.13,382.64a4.85,4.85,0,0,1,1.6,6.9,4.33,4.33,0,0,1-5.8,1.22,3.1,3.1,0,0,1-1-4.41,2.77,2.77,0,0,1,3.71-.78,2,2,0,0,1,.65,2.82,1.77,1.77,0,0,1-2.38.5,1.27,1.27,0,0,1-.42-1.81,1.13,1.13,0,0,1,1.52-.32"/><path class="cls-4" d="M343.15,382.64a4.85,4.85,0,0,0-1.6,6.9,4.33,4.33,0,0,0,5.8,1.22,3.1,3.1,0,0,0,1-4.41,2.77,2.77,0,0,0-3.71-.78,2,2,0,0,0-.65,2.82,1.77,1.77,0,0,0,2.38.5,1.27,1.27,0,0,0,.42-1.81,1.13,1.13,0,0,0-1.52-.32"/><rect class="cls-3" x="557.57" y="382.77" width="6.78" height="123.31"/><path class="cls-2" d="M16.06,501.51h.56c2,0,3.61-1.07,3.61-2.39V379.6c0-1.32-1.62-2.39-3.61-2.39h-.56c-2,0-3.61,1.07-3.61,2.39V499.12C12.45,500.44,14.07,501.51,16.06,501.51Z"/><rect class="cls-3" x="18.99" y="382.77" width="8.1" height="120.4"/><rect class="cls-3" x="84.48" y="382.77" width="9.07" height="120.31"/><rect class="cls-1" x="336" y="386.39" width="4.84" height="115.12"/><rect class="cls-1" x="326.34" y="389.64" width="5.31" height="111.88"/><rect class="cls-1" x="213.71" y="386.46" width="4.53" height="115.05"/><path class="cls-4" d="M226.24,407.24c0-13.41-12.14-24.27-27.15-24.27"/><rect class="cls-1" x="205.74" y="389.19" width="4.39" height="112.32"/><path class="cls-4" d="M92.91,407.24c0-13.41,12.14-24.27,27.15-24.27"/><path class="cls-4" d="M99.61,382.64a4.85,4.85,0,0,1,1.6,6.9,4.33,4.33,0,0,1-5.8,1.22,3.1,3.1,0,0,1-1-4.41,2.77,2.77,0,0,1,3.71-.78,2,2,0,0,1,.65,2.82,1.77,1.77,0,0,1-2.38.5,1.27,1.27,0,0,1-.42-1.81,1.13,1.13,0,0,1,1.52-.32"/><path class="cls-4" d="M27.5,407.24C27.5,393.82,39.64,383,54.65,383"/><path class="cls-4" d="M34.2,382.64a4.85,4.85,0,0,1,1.6,6.9,4.33,4.33,0,0,1-5.8,1.22,3.1,3.1,0,0,1-1-4.41,2.77,2.77,0,0,1,3.71-.78,2,2,0,0,1,.65,2.82,1.77,1.77,0,0,1-2.38.5,1.27,1.27,0,0,1-.42-1.81,1.13,1.13,0,0,1,1.52-.32"/><path class="cls-4" d="M241.23,382.64a4.85,4.85,0,0,1,1.6,6.9,4.33,4.33,0,0,1-5.8,1.22,3.1,3.1,0,0,1-1-4.41,2.77,2.77,0,0,1,3.71-.78,2,2,0,0,1,.65,2.82,1.77,1.77,0,0,1-2.38.5,1.27,1.27,0,0,1-.42-1.81,1.13,1.13,0,0,1,1.52-.32"/><path class="cls-4" d="M349.85,407.24c0-13.41-12.14-24.27-27.15-24.27"/><path class="cls-4" d="M234.53,407.24c0-13.41,12.14-24.27,27.15-24.27"/><rect class="cls-3" x="222.56" y="403.27" width="16.41" height="6.49" rx="2.31" ry="2.31"/><rect class="cls-3" x="496.25" y="382.77" width="7.87" height="127.3"/><rect class="cls-3" x="10" y="501.68" width="562.53" height="20.02" rx="10.01" ry="10.01"/><path class="cls-4" d="M503.78,407.24c0-13.41,12.14-24.27,27.15-24.27"/><path class="cls-4" d="M510.48,382.64a4.85,4.85,0,0,1,1.6,6.9,4.33,4.33,0,0,1-5.8,1.22,3.1,3.1,0,0,1-1-4.41,2.77,2.77,0,0,1,3.71-.78,2,2,0,0,1,.65,2.82,1.77,1.77,0,0,1-2.38.5,1.27,1.27,0,0,1-.42-1.81,1.13,1.13,0,0,1,1.52-.32"/><path class="cls-4" d="M497.2,407.24C497.2,393.82,485.06,383,470,383"/><path class="cls-4" d="M490.5,382.64a4.85,4.85,0,0,0-1.6,6.9,4.33,4.33,0,0,0,5.8,1.22,3.1,3.1,0,0,0,1-4.41,2.77,2.77,0,0,0-3.71-.78,2,2,0,0,0-.65,2.82,1.77,1.77,0,0,0,2.38.5,1.27,1.27,0,0,0,.42-1.81,1.13,1.13,0,0,0-1.52-.32"/><rect class="cls-3" x="345.71" y="403.09" width="15.06" height="5.84" rx="2.31" ry="2.31"/><rect class="cls-3" x="492.5" y="403.09" width="16.19" height="6.32" rx="2.31" ry="2.31"/><path class="cls-4" d="M557.78,407.24c0-13.41-12.14-24.27-27.15-24.27"/><rect class="cls-3" x="553.64" y="403.09" width="15.51" height="6.13" rx="2.31" ry="2.31"/><path class="cls-4" d="M551.08,382.64a4.85,4.85,0,0,0-1.6,6.9,4.33,4.33,0,0,0,5.8,1.22,3.1,3.1,0,0,0,1-4.41,2.77,2.77,0,0,0-3.71-.78,2,2,0,0,0-.65,2.82,1.77,1.77,0,0,0,2.38.5,1.27,1.27,0,0,0,.42-1.81,1.13,1.13,0,0,0-1.52-.32"/><line class="cls-3" x1="205.87" y1="389.19" x2="204.8" y2="382.97"/><line class="cls-3" x1="209.7" y1="389.19" x2="211.53" y2="382.97"/><line class="cls-3" x1="197.52" y1="390.55" x2="196.55" y2="383.46"/><line class="cls-3" x1="201.35" y1="390.55" x2="202.91" y2="383.46"/><line class="cls-3" x1="316.55" y1="390.61" x2="314.36" y2="382.97"/><line class="cls-3" x1="321.28" y1="390.61" x2="322.43" y2="383.46"/><line class="cls-3" x1="326.74" y1="389.64" x2="325.69" y2="382.97"/><line class="cls-3" x1="331.51" y1="389.64" x2="333.07" y2="383.63"/><line class="cls-1" x1="31.12" y1="344.45" x2="31.12" y2="376.84"/><line class="cls-1" x1="50.02" y1="332.75" x2="50.02" y2="376.84"/><line class="cls-1" x1="68.91" y1="328.25" x2="68.91" y2="376.84"/><line class="cls-1" x1="88.71" y1="328.25" x2="88.71" y2="376.84"/><line class="cls-1" x1="109.4" y1="328.25" x2="109.4" y2="376.84"/><line class="cls-1" x1="131" y1="328.25" x2="131" y2="376.84"/><line class="cls-1" x1="150.79" y1="328.25" x2="150.79" y2="346.24"/><line class="cls-1" x1="170.59" y1="328.25" x2="170.59" y2="339.05"/><line class="cls-1" x1="385.63" y1="328.25" x2="385.63" y2="344.45"/><line class="cls-1" x1="408.13" y1="328.25" x2="408.13" y2="341.75"/><line class="cls-1" x1="429.72" y1="328.25" x2="429.72" y2="355.24"/><line class="cls-1" x1="450.41" y1="328.25" x2="450.41" y2="376.84"/><line class="cls-1" x1="489.1" y1="328.25" x2="489.1" y2="376.84"/><line class="cls-1" x1="510.7" y1="328.25" x2="510.7" y2="376.84"/><line class="cls-1" x1="531.39" y1="331.85" x2="531.39" y2="376.84"/><line class="cls-3" x1="550.29" y1="345.35" x2="550.29" y2="376.84"/><line class="cls-1" x1="469.31" y1="328.25" x2="469.31" y2="376.84"/><path class="cls-1" d="M147.84,512v-.63a10,10,0,0,1,10.2-9.7H141.66a10,10,0,0,0-10.2,9.7V512a10,10,0,0,0,10.2,9.7H158A10,10,0,0,1,147.84,512Z"/><rect class="cls-3" x="141.37" y="501.46" width="302.85" height="19.73" rx="9.86" ry="9.86"/><path class="cls-3" d="M17.43,407.24a2.08,2.08,0,1,1,0-4.15"/><rect class="cls-3" x="15.25" y="403.09" width="15.74" height="7.19" rx="2.31" ry="2.31"/><path class="cls-4" d="M85.43,407.24c0-13.41-12.14-24.27-27.15-24.27"/><path class="cls-4" d="M78.73,382.64a4.85,4.85,0,0,0-1.6,6.9,4.33,4.33,0,0,0,5.8,1.22,3.1,3.1,0,0,0,1-4.41,2.77,2.77,0,0,0-3.71-.78,2,2,0,0,0-.65,2.82,1.77,1.77,0,0,0,2.38.5,1.27,1.27,0,0,0,.42-1.81,1.13,1.13,0,0,0-1.52-.32"/><rect class="cls-3" x="82.24" y="403.09" width="15.79" height="6.7" rx="2.31" ry="2.31"/><rect class="cls-3" x="142.19" y="403.89" width="17.05" height="6.44" rx="2.31" ry="2.31"/><line class="cls-4" x1="258.98" y1="308.55" x2="265.93" y2="317.82"/><line class="cls-4" x1="264.06" y1="306.09" x2="271" y2="315.36"/><line class="cls-4" x1="318.93" y1="306.87" x2="311.98" y2="316.14"/><line class="cls-4" x1="323.44" y1="309.32" x2="316.49" y2="318.6"/><rect class="cls-2" x="526.11" y="456.33" width="156.34" height="56.31"/><rect class="cls-2" x="516.54" y="255.9" width="72.09" height="2.85"/><path class="cls-2" d="M595,48.68h5.88a0,0,0,0,1,0,0v8A4.87,4.87,0,0,1,596,61.56h-1a0,0,0,0,1,0,0V48.68A0,0,0,0,1,595,48.68Z" transform="translate(1195.86 110.24) rotate(-180)"/><rect class="cls-2" x="540.47" y="135.8" width="122.92" height="121.01"/><rect class="cls-3" x="529.79" y="456.33" width="156.34" height="56.31"/><rect class="cls-2" x="520.5" y="448.76" width="167.26" height="7.56"/><rect class="cls-2" x="621.17" y="475.66" width="54.63" height="36.98"/><rect class="cls-2" x="619.21" y="473.2" width="60.23" height="2.76"/><rect class="cls-3" x="569.3" y="232.48" width="77.31" height="43.15"/><rect class="cls-2" x="529.75" y="475.66" width="54.63" height="36.98"/><rect class="cls-2" x="528.4" y="473.2" width="60.23" height="2.76"/><rect class="cls-3" x="524.18" y="448.76" width="167.26" height="7.56"/><rect class="cls-3" x="533.43" y="475.66" width="54.63" height="36.98"/><rect class="cls-1" x="587.71" y="475.66" width="4.3" height="36.81"/><rect class="cls-3" x="624.85" y="475.66" width="54.63" height="36.98"/><rect class="cls-2" x="542.31" y="475.66" width="10.02" height="36.98"/><rect class="cls-2" x="563.17" y="475.66" width="10.02" height="36.98"/><rect class="cls-2" x="602.44" y="20.59" width="5.58" height="75.91"/><path class="cls-2" d="M582.71,96.68s0,1.12,2.7-7.35,3.71-9.52,5.4-17.05A58.08,58.08,0,0,1,594,61.49h7.25L601.54,97Z"/><path class="cls-3" d="M627.62,96.68s0,1.08-2.87-7.06-4-9.83-5.75-17.07a80.06,80.06,0,0,0-3.43-11h-7.72l-.29,34.84Z"/><path class="cls-3" d="M588.23,96.68s0,1.12,2.7-7.35,3.71-9.52,5.4-17.05a58.08,58.08,0,0,1,3.22-10.78h7.25L607.07,97Z"/><rect class="cls-1" x="679.13" y="475.66" width="4.3" height="36.81"/><rect class="cls-2" x="633.12" y="475.66" width="10.02" height="36.98"/><rect class="cls-3" x="566.24" y="475.66" width="10.02" height="36.98"/><rect class="cls-3" x="545.37" y="475.66" width="10.02" height="36.98"/><rect class="cls-3" x="636.8" y="475.66" width="10.02" height="36.98"/><rect class="cls-2" x="654.59" y="475.66" width="10.02" height="36.98"/><rect class="cls-3" x="658.27" y="475.66" width="10.02" height="36.98"/><rect class="cls-2" x="569.61" y="96.53" width="58.27" height="15.34"/><rect class="cls-2" x="563.36" y="111.87" width="78.5" height="23.93"/><rect class="cls-3" x="532.08" y="473.2" width="60.23" height="2.76"/><rect class="cls-3" x="623.5" y="473.2" width="60.23" height="2.76"/><rect class="cls-3" x="529.79" y="262.57" width="156.64" height="186.5"/><rect class="cls-3" x="545.37" y="135.8" width="122.92" height="121.01"/><rect class="cls-3" x="567.66" y="111.87" width="78.5" height="23.93"/><rect class="cls-2" x="538.22" y="194.44" width="49.8" height="1.87"/><rect class="cls-3" x="574.31" y="96.53" width="66.24" height="15.34"/><rect class="cls-3" x="592.31" y="96.53" width="31.19" height="15.42"/><path class="cls-2" d="M601.63,35.79h.67a0,0,0,0,1,0,0V48.68a0,0,0,0,1,0,0h-3.95a0,0,0,0,1,0,0V39.07A3.27,3.27,0,0,1,601.63,35.79Z"/><path class="cls-2" d="M604.91,1h1.91a.25.25,0,0,1,.25.25V20.64a1.53,1.53,0,0,1-1.53,1.53h-.63a1.53,1.53,0,0,1-1.53-1.53V2.53A1.53,1.53,0,0,1,604.91,1Z"/><rect class="cls-1" x="605.84" y="1" width="3.68" height="21.17" rx="1.53" ry="1.53"/><rect class="cls-1" x="604.89" y="20.59" width="5.58" height="75.91"/><path class="cls-3" d="M604.09,35.18h.67a0,0,0,0,1,0,0V48.06a0,0,0,0,1,0,0h-3.95a0,0,0,0,1,0,0V38.45A3.27,3.27,0,0,1,604.09,35.18Z"/><path class="cls-3" d="M610.2,35.79h.67a3.27,3.27,0,0,1,3.27,3.27v9.61a0,0,0,0,1,0,0H610.2a0,0,0,0,1,0,0V35.79A0,0,0,0,1,610.2,35.79Z"/><rect class="cls-3" x="542.51" y="194.44" width="49.8" height="1.87"/><rect class="cls-2" x="560.1" y="110.27" width="23.01" height="1.6"/><rect class="cls-3" x="623.5" y="194.44" width="48.17" height="1.87"/><rect class="cls-2" x="525.74" y="265.2" width="6.14" height="184.07"/><path class="cls-3" d="M610.33,48.68h1a4.87,4.87,0,0,1,4.87,4.87v8a0,0,0,0,1,0,0h-5.88a0,0,0,0,1,0,0V48.68A0,0,0,0,1,610.33,48.68Z"/><rect class="cls-5" x="599.37" y="255.17" width="16.57" height="10.35"/><polygon class="cls-1" points="592.01 257.84 525.13 257.84 525.13 265.2 529.42 265.2 529.42 449.27 538.01 449.27 538.01 265.2 550.28 265.2 550.28 449.27 556.42 449.27 556.42 265.2 573.6 265.2 573.6 449.27 579.73 449.27 579.73 265.2 592.01 265.2 592.01 257.84"/><polygon class="cls-1" points="623.3 257.23 623.3 263.97 635.57 263.97 635.57 449.27 641.71 449.27 641.71 263.97 658.88 263.97 658.88 449.27 665.02 449.27 665.02 263.97 677.91 263.97 677.91 449.27 685.88 449.27 685.88 263.97 690.79 263.97 690.79 257.23 623.3 257.23"/><rect class="cls-3" x="520.22" y="255.9" width="72.09" height="2.85"/><rect class="cls-3" x="623.75" y="255.89" width="70.42" height="2.86"/><rect class="cls-1" x="623.3" y="97.08" width="4.3" height="15.34"/><rect class="cls-2" x="587.71" y="97.08" width="4.3" height="15.34"/><rect class="cls-1" x="567.66" y="111.87" width="24.66" height="5.46"/><rect class="cls-1" x="623.49" y="111.84" width="22.82" height="5.46" transform="translate(-0.76 4.31) rotate(-0.39)"/><rect class="cls-2" x="533.72" y="137.37" width="29.45" height="12.08"/><rect class="cls-3" x="565.01" y="110.27" width="23.01" height="1.6"/><rect class="cls-3" x="628.21" y="110.27" width="23.01" height="1.6"/><path class="cls-3" d="M598.68,48.68h5.88a0,0,0,0,1,0,0v8a4.87,4.87,0,0,1-4.87,4.87h-1a0,0,0,0,1,0,0V48.68A0,0,0,0,1,598.68,48.68Z" transform="translate(1203.23 110.24) rotate(-180)"/><polygon class="cls-1" points="674.23 136.35 537.4 136.35 537.4 149.85 544.76 149.85 544.76 194.64 549.67 194.64 549.67 149.85 552.74 149.85 552.74 194.64 557.65 194.64 557.65 149.85 577.89 149.85 577.89 194.64 582.8 194.64 582.8 149.85 585.87 149.85 585.87 194.64 590.16 194.64 590.16 149.85 625.14 149.85 625.14 194.64 629.43 194.64 629.43 149.85 632.5 149.85 632.5 194.64 637.41 194.64 637.41 149.85 655.2 149.85 655.2 194.64 660.11 194.64 660.11 149.85 663.18 149.85 663.18 194.64 668.09 194.64 668.09 149.85 674.23 149.85 674.23 136.35"/><rect class="cls-2" x="530.65" y="135.8" width="142.76" height="2.19"/><rect class="cls-3" x="534.94" y="135.8" width="142.76" height="2.19"/><polygon class="cls-1" points="591.39 196.48 544.15 196.48 544.15 200.89 544.15 205.48 544.15 256 549.06 256 549.06 205.69 552.12 205.69 552.12 256 557.03 256 557.03 205.69 577.28 205.69 577.28 256 582.19 256 582.19 205.69 585.26 205.69 585.26 256 590.16 256 590.16 205.69 591.39 205.69 591.39 196.48"/><polygon class="cls-1" points="668.09 201.08 668.09 196.48 623.3 196.48 623.3 205.69 625.14 205.69 625.14 256 629.43 256 629.43 205.69 633.12 205.69 633.12 256 637.41 256 637.41 205.69 655.2 205.69 655.2 256 660.11 256 660.11 205.69 663.18 205.69 663.18 256 668.09 256 668.09 201.08 668.09 201.08"/><polygon class="cls-2" points="623.3 140.34 623.3 132.67 592.01 132.67 592.01 139.72 592.01 139.72 592.01 449.27 598.75 449.27 598.75 143.71 615.93 143.71 615.93 449.27 623.3 449.27 623.3 140.34 623.3 140.34"/><rect class="cls-5" x="599.39" y="144.31" width="15.92" height="6.42"/><rect class="cls-2" x="523.59" y="258.75" width="4.19" height="6.15"/><rect class="cls-1" x="611.64" y="143.71" width="4.3" height="305.56"/><path class="cls-6" d="M1498.87,303.8a10.28,10.28,0,0,0-3.32,2.6c-6,7.1-11.15,15.08-16.55,22.62-21.68,30.25-42,61.8-56.52,96.21q-2.17,5.15-4.15,10.37c-3.73,9.83-7,20.36-5.19,30.72s8.59,19.41,17,25.81,18.27,10.47,28.2,14c14.43,5.15,29.46,9.36,44.78,9.28,8.49,0,16.91-1.41,25.29-2.79,77.94-12.83,179.4,16.14,256.8.37a8.67,8.67,0,0,0,4.44-1.82c1.38-1.33,1.71-3.4,1.9-5.31,3.38-34.26-40.64-112.87-71.92-127.27-23.15-10.65-49.62-10.17-74.82-14-12.12-1.82-25-5.19-32.86-14.57-4.24-5-6.66-11.44-11-16.44-6.19-7.19-15.51-10.7-24.43-13.94-18.16-6.6-36.57-13.25-55.81-15.88C1514,302.91,1504.94,300.77,1498.87,303.8Z"/><circle class="cls-7" cx="1572.5" cy="373.75" r="10.42"/><circle class="cls-8" cx="1572.5" cy="373.75" r="5.96"/><path class="cls-8" d="M1601.91,349.64c-66.69,32.23-114.6-32.45-114.6-32.45l-6.35,9v6l14.59,15.07,17.72,10.94L1544.15,371l25.87,1.61,23.92-1.94,15.65-8-3.23-16.8Z"/><circle class="cls-7" cx="1480.96" cy="332.17" r="10.42"/><circle class="cls-8" cx="1480.96" cy="332.17" r="5.96"/><circle class="cls-7" cx="1495.56" cy="347.24" r="10.42"/><circle class="cls-8" cx="1495.56" cy="347.24" r="5.96"/><circle class="cls-7" cx="1512.35" cy="360.21" r="10.42"/><circle class="cls-8" cx="1512.35" cy="360.21" r="5.96"/><circle class="cls-7" cx="1531.11" cy="368.59" r="10.42"/><circle class="cls-8" cx="1531.11" cy="368.59" r="5.96"/><circle class="cls-7" cx="1551.67" cy="373.05" r="10.42"/><circle class="cls-8" cx="1551.67" cy="373.05" r="5.96"/><circle class="cls-7" cx="1593.95" cy="370.62" r="10.42"/><circle class="cls-8" cx="1593.95" cy="370.62" r="5.96"/><circle class="cls-7" cx="1572.5" cy="373.75" r="10.42"/><circle class="cls-8" cx="1572.5" cy="373.75" r="5.96"/><circle class="cls-7" cx="1612.33" cy="360.06" r="10.42"/><circle class="cls-8" cx="1612.33" cy="360.06" r="5.96"/><circle class="cls-7" cx="1491.38" cy="322.73" r="3.89"/><circle class="cls-7" cx="1505.41" cy="337.39" r="3.89"/><circle class="cls-7" cx="1520.69" cy="347.84" r="3.89"/><circle class="cls-7" cx="1537.2" cy="355.58" r="3.89"/><circle class="cls-7" cx="1553.89" cy="358.72" r="3.89"/><circle class="cls-7" cx="1572.5" cy="358.72" r="3.89"/><circle class="cls-7" cx="1590.62" cy="356.95" r="3.89"/><path class="cls-6" d="M1536.09,184.48l-13,58.27a2.58,2.58,0,0,0,2.22,3.12l12.11,1.42a2.58,2.58,0,0,0,2.88-2.52l.87-59.69A2.58,2.58,0,0,0,1536.09,184.48Z"/><path class="cls-6" d="M1562.06,187.53l-13,58.27a2.58,2.58,0,0,0,2.22,3.12l12.11,1.42a2.58,2.58,0,0,0,2.88-2.52l.87-59.69A2.58,2.58,0,0,0,1562.06,187.53Z"/><path class="cls-6" d="M1587.6,190.53l-13,58.27a2.58,2.58,0,0,0,2.22,3.12l12.11,1.42a2.58,2.58,0,0,0,2.88-2.52l.87-59.69A2.58,2.58,0,0,0,1587.6,190.53Z"/><rect class="cls-6" x="1515.88" y="243.16" width="81.68" height="23.72" rx="6.67" ry="6.67" transform="translate(40.32 -179.66) rotate(6.69)"/><path class="cls-8" d="M1566.78,247.31c17.21,4.77,29.16,21.54,36.65,38,6.39,14.08,16.65,40.65-.62,52-5.29,3.47-11.55,4.44-17.59,4.7-21.92,1-44.73-5.28-64.58-14-12.63-5.55-26.06-14-21.16-31.75C1506.24,271.91,1543.47,240.86,1566.78,247.31Z"/><path class="cls-6" d="M1603.42,285.33c-7.21-15.87-18.55-32-34.74-37.44-20.57,7.23-42.65,29.18-47.7,47.42-4.91,17.72,8.53,26.2,21.16,31.75,16.13,7.08,34.22,12.54,52.21,13.81a26.42,26.42,0,0,0,8.45-3.54C1620.08,326,1609.82,299.41,1603.42,285.33Z"/><rect class="cls-7" x="1582.63" y="329.69" width="36.18" height="24.33" rx="12.16" ry="12.16"/><rect class="cls-7" x="1571.07" y="308.99" width="59.31" height="35.26" rx="17.63" ry="17.63"/><path class="cls-7" d="M1493.24,242.08s-11.68,44.31,30.37,56.89a8.5,8.5,0,0,0,10.93-7.36C1538.69,247.92,1493.24,242.08,1493.24,242.08Z"/><path class="cls-6" d="M1493.24,242.08s-11.68,44.31,30.37,56.89a8.5,8.5,0,0,0,10.93-7.36C1538.69,247.92,1493.24,242.08,1493.24,242.08Z"/><path class="cls-8" d="M1498.36,249.31s-9.59,36.39,19.91,52.58c3.05,1.67,21.73-8.77,21.58-11.39C1537.88,254.39,1498.36,249.31,1498.36,249.31Z"/><path class="cls-6" d="M1497.7,254.58s-.29,1.08-.61,3c-1,11.73.49,33.09,21.3,44.42,3,1.64,20.27-12.76,18.73-17.46C1528.64,258.56,1497.7,254.58,1497.7,254.58Z"/><path class="cls-9" d="M1543.92,286.85c1.34,5.58,6.67,20.33,25.29,17.19a2,2,0,0,0,1.62-2.37c-3.88-18.46-19.54-18.05-25.23-17.26A2,2,0,0,0,1543.92,286.85Z"/><path class="cls-6" d="M1548.3,289.25c.9,3.76,4.5,13.71,17.05,11.59a1.35,1.35,0,0,0,1.09-1.6c-2.61-12.45-13.18-12.17-17-11.64A1.35,1.35,0,0,0,1548.3,289.25Z"/><circle class="cls-8" cx="1591.91" cy="327.5" r="5.62"/><path class="cls-7" d="M1590.12,322.17a5.62,5.62,0,1,0,3.83,5.33A5.62,5.62,0,0,0,1590.12,322.17Z"/><circle class="cls-8" cx="1618.81" cy="327.5" r="5.62"/><path class="cls-7" d="M1617,322.17a5.62,5.62,0,1,0,3.83,5.33A5.62,5.62,0,0,0,1617,322.17Z"/><circle class="cls-6" cx="1546.05" cy="250.91" r="4.46"/><circle class="cls-6" cx="1552.72" cy="256.82" r="4.46"/><circle class="cls-6" cx="1561.64" cy="259.04" r="4.46"/><circle class="cls-6" cx="1570.02" cy="256.82" r="4.46"/><circle class="cls-6" cx="1578.4" cy="253.77" r="4.46"/><circle class="cls-6" cx="1502.91" cy="289.84" r="4.46"/><circle class="cls-6" cx="1510.36" cy="293.31" r="4.46"/><circle class="cls-6" cx="1519.28" cy="294.96" r="4.46"/><circle class="cls-6" cx="1528.2" cy="291.25" r="4.46"/><circle class="cls-6" cx="1534.8" cy="285.37" r="4.46"/><circle class="cls-6" cx="1537.12" cy="276.79" r="4.46"/><circle class="cls-6" cx="1501.33" cy="298.76" r="4.46"/><circle class="cls-6" cx="1509.48" cy="302.72" r="4.46"/><circle class="cls-6" cx="1518.4" cy="303.88" r="4.46"/><circle class="cls-6" cx="1527.76" cy="301.08" r="4.46"/><circle class="cls-6" cx="1535.37" cy="296.23" r="4.46"/><circle class="cls-6" cx="1543.97" cy="281.96" r="4.46"/><circle class="cls-6" cx="1541.59" cy="290.5" r="4.46"/><g id="Town_Hall" data-name="Town Hall"><rect class="cls-8" x="1338.99" y="284.98" width="95.02" height="241.4"/><rect class="cls-7" x="1359.87" y="284.98" width="95.02" height="241.4"/><rect class="cls-6" x="1384.75" y="284.98" width="48.38" height="31.08"/><rect class="cls-8" x="1381.41" y="359.46" width="62.91" height="166.92"/><rect class="cls-6" x="1391.98" y="359.04" width="62.91" height="166.92"/><rect class="cls-6" x="1391.98" y="436.52" width="62.91" height="25.13"/><rect class="cls-7" x="1391.98" y="359.04" width="11.94" height="166.92"/><rect class="cls-7" x="1442.95" y="359.04" width="11.94" height="166.92"/><rect class="cls-8" x="1407.38" y="436.52" width="5.37" height="25.13"/><rect class="cls-7" x="1410.46" y="436.52" width="5.37" height="25.13"/><rect class="cls-8" x="1419.21" y="436.52" width="5.37" height="25.13"/><rect class="cls-7" x="1422.29" y="436.52" width="5.37" height="25.13"/><rect class="cls-8" x="1431.08" y="436.52" width="5.37" height="25.13"/><rect class="cls-7" x="1434.16" y="436.52" width="5.37" height="25.13"/><rect class="cls-8" x="1378" y="359.04" width="76.89" height="6.28" rx="3.14" ry="3.14"/><rect class="cls-7" x="1390.72" y="359.04" width="68.17" height="6.28" rx="3.14" ry="3.14"/><rect class="cls-8" x="1337.83" y="278.7" width="115.17" height="6.28" rx="3.14" ry="3.14"/><rect class="cls-7" x="1358.68" y="278.7" width="98.8" height="6.28" rx="3.14" ry="3.14"/><rect class="cls-8" x="1337.83" y="313.54" width="115.17" height="6.28" rx="3.14" ry="3.14"/><rect class="cls-7" x="1358.68" y="313.54" width="98.8" height="6.28" rx="3.14" ry="3.14"/><rect class="cls-8" x="1381.66" y="284.98" width="5.37" height="28.56"/><rect class="cls-7" x="1384.75" y="284.98" width="5.37" height="28.56"/><rect class="cls-8" x="1393.49" y="284.98" width="5.37" height="28.56"/><rect class="cls-7" x="1396.58" y="284.98" width="5.37" height="28.56"/><rect class="cls-8" x="1405.36" y="284.98" width="5.37" height="28.56"/><rect class="cls-7" x="1408.45" y="284.98" width="5.37" height="28.56"/><rect class="cls-8" x="1417.46" y="284.98" width="5.37" height="28.56"/><rect class="cls-7" x="1420.54" y="284.98" width="5.37" height="28.56"/><rect class="cls-8" x="1429.48" y="284.98" width="5.37" height="28.56"/><rect class="cls-7" x="1432.56" y="284.98" width="5.37" height="28.56"/><rect class="cls-8" x="891.04" y="204.27" width="450.96" height="322.11"/><rect class="cls-7" x="927.89" y="204.27" width="443.92" height="322.11"/><rect class="cls-8" x="927.89" y="208.04" width="443.92" height="72.88"/><rect class="cls-7" x="927.89" y="204.27" width="443.92" height="72.88"/><rect class="cls-7" x="927.89" y="204.27" width="443.92" height="54.6"/><rect class="cls-6" x="972.4" y="204.27" width="354.89" height="54.6"/><rect class="cls-8" x="1106.43" y="204.27" width="88.87" height="54.6"/><rect class="cls-7" x="1110.42" y="204.27" width="86.39" height="54.6"/><rect class="cls-8" x="947.5" y="204.27" width="49.8" height="54.6"/><rect class="cls-7" x="951.64" y="204.27" width="49.8" height="54.6"/><rect class="cls-8" x="1301.58" y="204.27" width="49.8" height="54.6"/><rect class="cls-7" x="1305.71" y="204.27" width="49.8" height="54.6"/><rect class="cls-7" x="927.89" y="204.27" width="443.92" height="5.65"/><rect class="cls-8" x="927.89" y="209.93" width="443.92" height="4.08"/><path class="cls-8" d="M1182.61,225.1V220a3.65,3.65,0,0,0-3.65-3.65h-54.43a3.65,3.65,0,0,0-3.65,3.65v5.08a8.38,8.38,0,0,0-7.44,8.33v5.81a8.38,8.38,0,0,0,7.44,8.33v5.08a3.65,3.65,0,0,0,3.65,3.65H1179a3.65,3.65,0,0,0,3.65-3.65v-5.08a8.38,8.38,0,0,0,7.44-8.33v-5.81A8.38,8.38,0,0,0,1182.61,225.1Z"/><path class="cls-7" d="M1186.35,225.1V220a3.65,3.65,0,0,0-3.65-3.65h-54.43a3.65,3.65,0,0,0-3.65,3.65v5.08a8.38,8.38,0,0,0-7.44,8.33v5.81a8.38,8.38,0,0,0,7.44,8.33v5.08a3.65,3.65,0,0,0,3.65,3.65h54.43a3.65,3.65,0,0,0,3.65-3.65v-5.08a8.38,8.38,0,0,0,7.44-8.33v-5.81A8.38,8.38,0,0,0,1186.35,225.1Z"/><rect class="cls-8" x="1005.19" y="214.01" width="9.58" height="44.86"/><rect class="cls-7" x="1008.92" y="214.01" width="9.58" height="44.86"/><rect class="cls-8" x="1022" y="214.01" width="9.58" height="44.86"/><rect class="cls-7" x="1025.73" y="214.01" width="9.58" height="44.86"/><rect class="cls-8" x="1038.97" y="214.01" width="9.58" height="44.86"/><rect class="cls-7" x="1042.7" y="214.01" width="9.58" height="44.86"/><rect class="cls-8" x="1056.56" y="214.01" width="9.58" height="44.86"/><rect class="cls-7" x="1060.29" y="214.01" width="9.58" height="44.86"/><rect class="cls-8" x="1073.37" y="214.01" width="9.58" height="44.86"/><rect class="cls-7" x="1077.1" y="214.01" width="9.58" height="44.86"/><rect class="cls-8" x="1090.33" y="214.01" width="9.58" height="44.86"/><rect class="cls-7" x="1094.06" y="214.01" width="9.58" height="44.86"/><rect class="cls-8" x="1199.6" y="214.01" width="9.58" height="44.86"/><rect class="cls-7" x="1203.33" y="214.01" width="9.58" height="44.86"/><rect class="cls-8" x="1216.41" y="214.01" width="9.58" height="44.86"/><rect class="cls-7" x="1220.14" y="214.01" width="9.58" height="44.86"/><rect class="cls-8" x="1233.37" y="214.01" width="9.58" height="44.86"/><rect class="cls-7" x="1237.1" y="214.01" width="9.58" height="44.86"/><rect class="cls-8" x="1250.96" y="214.01" width="9.58" height="44.86"/><rect class="cls-7" x="1254.69" y="214.01" width="9.58" height="44.86"/><rect class="cls-8" x="1267.77" y="214.01" width="9.58" height="44.86"/><rect class="cls-7" x="1271.5" y="214.01" width="9.58" height="44.86"/><rect class="cls-8" x="1284.73" y="214.01" width="9.58" height="44.86"/><rect class="cls-7" x="1288.46" y="214.01" width="9.58" height="44.86"/><rect class="cls-6" x="987.75" y="339.97" width="329.2" height="186.4"/><path class="cls-8" d="M1013.62,365.32h0a21,21,0,0,1,21,21v46a0,0,0,0,1,0,0h-42a0,0,0,0,1,0,0v-46A21,21,0,0,1,1013.62,365.32Z"/><path class="cls-9" d="M1008.74,365.32h0a21,21,0,0,1,21,21v46a0,0,0,0,1,0,0h-42a0,0,0,0,1,0,0v-46a21,21,0,0,1,21-21Z"/><path class="cls-8" d="M1071.28,365.32h0a21,21,0,0,1,21,21v46a0,0,0,0,1,0,0h-42a0,0,0,0,1,0,0v-46A21,21,0,0,1,1071.28,365.32Z"/><path class="cls-9" d="M1066.93,365.32h0a21,21,0,0,1,21,21v46a0,0,0,0,1,0,0h-42a0,0,0,0,1,0,0v-46A21,21,0,0,1,1066.93,365.32Z"/><path class="cls-8" d="M1135.27,365.32h0a21,21,0,0,1,21,21v46a0,0,0,0,1,0,0h-42a0,0,0,0,1,0,0v-46A21,21,0,0,1,1135.27,365.32Z"/><path class="cls-9" d="M1131.36,365.32h0a21,21,0,0,1,21,21v46a0,0,0,0,1,0,0h-42a0,0,0,0,1,0,0v-46a21,21,0,0,1,21-21Z"/><path class="cls-8" d="M1198.21,365.32h0a21,21,0,0,1,21,21v46a0,0,0,0,1,0,0h-42a0,0,0,0,1,0,0v-46a21,21,0,0,1,21-21Z"/><path class="cls-9" d="M1194.28,365.32h0a21,21,0,0,1,21,21v46a0,0,0,0,1,0,0h-42a0,0,0,0,1,0,0v-46A21,21,0,0,1,1194.28,365.32Z"/><path class="cls-8" d="M1262.55,365.32h0a21,21,0,0,1,21,21v46a0,0,0,0,1,0,0h-42a0,0,0,0,1,0,0v-46a21,21,0,0,1,21-21Z"/><path class="cls-9" d="M1258.78,365.32h0a21,21,0,0,1,21,21v46a0,0,0,0,1,0,0h-42a0,0,0,0,1,0,0v-46A21,21,0,0,1,1258.78,365.32Z"/><path class="cls-8" d="M1013.62,442.5h0a21,21,0,0,1,21,21v46a0,0,0,0,1,0,0h-42a0,0,0,0,1,0,0v-46A21,21,0,0,1,1013.62,442.5Z"/><path class="cls-9" d="M1008.74,442.5h0a21,21,0,0,1,21,21v46a0,0,0,0,1,0,0h-42a0,0,0,0,1,0,0v-46A21,21,0,0,1,1008.74,442.5Z"/><rect class="cls-8" x="1055.43" y="459.36" width="41.99" height="67.02"/><rect class="cls-7" x="1051.08" y="459.36" width="41.99" height="67.02"/><path class="cls-8" d="M1262.55,442.5h0a21,21,0,0,1,21,21v46a0,0,0,0,1,0,0h-42a0,0,0,0,1,0,0v-46A21,21,0,0,1,1262.55,442.5Z"/><path class="cls-9" d="M1258.78,442.5h0a21,21,0,0,1,21,21v46a0,0,0,0,1,0,0h-42a0,0,0,0,1,0,0v-46A21,21,0,0,1,1258.78,442.5Z"/><rect class="cls-8" x="1119.42" y="459.36" width="41.99" height="67.02"/><rect class="cls-7" x="1115.07" y="459.36" width="41.99" height="67.02"/><rect class="cls-8" x="1184.83" y="459.36" width="41.99" height="67.02"/><rect class="cls-9" x="1180.49" y="459.36" width="41.99" height="67.02"/><path class="cls-8" d="M1318.57,311.33l-156.45-55.94a48.07,48.07,0,0,0-2.23-4.63l-10.3-.38a4,4,0,0,0-2.05.38L978.16,311.33a2.44,2.44,0,0,0,.82,4.73h338.78A2.44,2.44,0,0,0,1318.57,311.33Z"/><path class="cls-7" d="M1160,250.73l-170.59,61a2.23,2.23,0,0,0,.75,4.33h341.18a2.23,2.23,0,0,0,.75-4.33l-170.59-61A2.23,2.23,0,0,0,1160,250.73Z"/><path class="cls-8" d="M1160.51,258.91l-134.31,48a.64.64,0,0,0,.21,1.23l270.15.55a.64.64,0,0,0,.22-1.23l-135.84-48.57A.64.64,0,0,0,1160.51,258.91Z"/><path class="cls-6" d="M1283.56,307.63,1153.9,261.27l-128.12,45.81a.56.56,0,0,0,.19,1.09l257.55.52A.56.56,0,0,0,1283.56,307.63Z"/><rect class="cls-8" x="976.54" y="316.06" width="331.85" height="23.91"/><rect class="cls-7" x="989.66" y="316.06" width="343.66" height="23.91"/><rect class="cls-7" x="989.66" y="339.97" width="343.66" height="5.86"/><rect class="cls-8" x="976.54" y="339.97" width="13.12" height="5.86" rx="2.93" ry="2.93"/><path class="cls-8" d="M982.33,345.84h22.56a0,0,0,0,1,0,0v9.9a0,0,0,0,1,0,0H980.65a4.11,4.11,0,0,1-4.11-4.11v0a5.79,5.79,0,0,1,5.79-5.79Z"/><rect class="cls-7" x="989.66" y="345.84" width="28.35" height="9.9" rx="4.95" ry="4.95"/><path class="cls-8" d="M984.12,355.74H999a0,0,0,0,1,0,0v25.94a0,0,0,0,1,0,0H982.7a6.17,6.17,0,0,1-6.17-6.17V363.32A7.58,7.58,0,0,1,984.12,355.74Z"/><rect class="cls-7" x="992.63" y="355.74" width="22.42" height="25.94" rx="5.63" ry="5.63"/><path class="cls-8" d="M983.87,381.68H999a0,0,0,0,1,0,0v134.8a0,0,0,0,1,0,0H982.7a6.17,6.17,0,0,1-6.17-6.17V389a7.33,7.33,0,0,1,7.33-7.33Z"/><rect class="cls-7" x="994.06" y="381.68" width="19.56" height="134.8" rx="5.63" ry="5.63"/><path class="cls-8" d="M980.65,516.48h24.25a0,0,0,0,1,0,0v9.9a0,0,0,0,1,0,0H982.33a5.79,5.79,0,0,1-5.79-5.79v0A4.11,4.11,0,0,1,980.65,516.48Z"/><rect class="cls-7" x="989.66" y="516.48" width="28.35" height="9.9" rx="4.95" ry="4.95"/><path class="cls-8" d="M1049.69,345.84h15.83a0,0,0,0,1,0,0v9.9a0,0,0,0,1,0,0H1048a4.11,4.11,0,0,1-4.11-4.11v0A5.79,5.79,0,0,1,1049.69,345.84Z"/><rect class="cls-7" x="1050.29" y="345.84" width="28.35" height="9.9" rx="4.95" ry="4.95"/><path class="cls-8" d="M1051.48,355.74H1061a0,0,0,0,1,0,0v25.94a0,0,0,0,1,0,0h-10.93a6.17,6.17,0,0,1-6.17-6.17V363.32A7.58,7.58,0,0,1,1051.48,355.74Z"/><rect class="cls-7" x="1053.25" y="355.74" width="22.42" height="25.94" rx="5.63" ry="5.63"/><path class="cls-8" d="M1051.23,381.68H1061a0,0,0,0,1,0,0v134.8a0,0,0,0,1,0,0h-10.93a6.17,6.17,0,0,1-6.17-6.17V389A7.33,7.33,0,0,1,1051.23,381.68Z"/><rect class="cls-7" x="1054.68" y="381.68" width="19.56" height="134.8" rx="5.63" ry="5.63"/><path class="cls-8" d="M1048,516.48h17.52a0,0,0,0,1,0,0v9.9a0,0,0,0,1,0,0h-15.83a5.79,5.79,0,0,1-5.79-5.79v0A4.11,4.11,0,0,1,1048,516.48Z"/><rect class="cls-7" x="1050.29" y="516.48" width="28.35" height="9.9" rx="4.95" ry="4.95"/><path class="cls-8" d="M1113.68,345.84h15.83a0,0,0,0,1,0,0v9.9a0,0,0,0,1,0,0H1112a4.11,4.11,0,0,1-4.11-4.11v0A5.79,5.79,0,0,1,1113.68,345.84Z"/><rect class="cls-7" x="1114.28" y="345.84" width="28.35" height="9.9" rx="4.95" ry="4.95"/><path class="cls-8" d="M1115.47,355.74H1125a0,0,0,0,1,0,0v25.94a0,0,0,0,1,0,0H1114a6.17,6.17,0,0,1-6.17-6.17V363.32A7.58,7.58,0,0,1,1115.47,355.74Z"/><rect class="cls-7" x="1117.24" y="355.74" width="22.42" height="25.94" rx="5.63" ry="5.63"/><path class="cls-8" d="M1115.22,381.68H1125a0,0,0,0,1,0,0v134.8a0,0,0,0,1,0,0H1114a6.17,6.17,0,0,1-6.17-6.17V389a7.33,7.33,0,0,1,7.33-7.33Z"/><rect class="cls-7" x="1118.67" y="381.68" width="19.56" height="134.8" rx="5.63" ry="5.63"/><path class="cls-8" d="M1112,516.48h17.52a0,0,0,0,1,0,0v9.9a0,0,0,0,1,0,0h-15.83a5.79,5.79,0,0,1-5.79-5.79v0a4.11,4.11,0,0,1,4.11-4.11Z"/><rect class="cls-7" x="1114.28" y="516.48" width="28.35" height="9.9" rx="4.95" ry="4.95"/><path class="cls-8" d="M1177.67,345.84h15.83a0,0,0,0,1,0,0v9.9a0,0,0,0,1,0,0H1176a4.11,4.11,0,0,1-4.11-4.11v0A5.79,5.79,0,0,1,1177.67,345.84Z"/><rect class="cls-7" x="1178.27" y="345.84" width="28.35" height="9.9" rx="4.95" ry="4.95"/><path class="cls-8" d="M1179.46,355.74H1189a0,0,0,0,1,0,0v25.94a0,0,0,0,1,0,0H1178a6.17,6.17,0,0,1-6.17-6.17V363.32a7.58,7.58,0,0,1,7.58-7.58Z"/><rect class="cls-7" x="1181.23" y="355.74" width="22.42" height="25.94" rx="5.63" ry="5.63"/><path class="cls-8" d="M1179.21,381.68H1189a0,0,0,0,1,0,0v134.8a0,0,0,0,1,0,0H1178a6.17,6.17,0,0,1-6.17-6.17V389a7.33,7.33,0,0,1,7.33-7.33Z"/><rect class="cls-7" x="1182.66" y="381.68" width="19.56" height="134.8" rx="5.63" ry="5.63"/><path class="cls-8" d="M1176,516.48h17.52a0,0,0,0,1,0,0v9.9a0,0,0,0,1,0,0h-15.83a5.79,5.79,0,0,1-5.79-5.79v0a4.11,4.11,0,0,1,4.11-4.11Z"/><rect class="cls-7" x="1178.27" y="516.48" width="28.35" height="9.9" rx="4.95" ry="4.95"/><path class="cls-8" d="M1241.66,345.84h15.83a0,0,0,0,1,0,0v9.9a0,0,0,0,1,0,0H1240a4.11,4.11,0,0,1-4.11-4.11v0A5.79,5.79,0,0,1,1241.66,345.84Z"/><rect class="cls-7" x="1242.26" y="345.84" width="28.35" height="9.9" rx="4.95" ry="4.95"/><path class="cls-8" d="M1243.45,355.74H1253a0,0,0,0,1,0,0v25.94a0,0,0,0,1,0,0H1242a6.17,6.17,0,0,1-6.17-6.17V363.32A7.58,7.58,0,0,1,1243.45,355.74Z"/><rect class="cls-7" x="1245.22" y="355.74" width="22.42" height="25.94" rx="5.63" ry="5.63"/><path class="cls-8" d="M1243.2,381.68H1253a0,0,0,0,1,0,0v134.8a0,0,0,0,1,0,0H1242a6.17,6.17,0,0,1-6.17-6.17V389a7.33,7.33,0,0,1,7.33-7.33Z"/><rect class="cls-7" x="1246.65" y="381.68" width="19.56" height="134.8" rx="5.63" ry="5.63"/><path class="cls-8" d="M1240,516.48h17.52a0,0,0,0,1,0,0v9.9a0,0,0,0,1,0,0h-15.83a5.79,5.79,0,0,1-5.79-5.79v0a4.11,4.11,0,0,1,4.11-4.11Z"/><rect class="cls-7" x="1242.26" y="516.48" width="28.35" height="9.9" rx="4.95" ry="4.95"/><path class="cls-8" d="M1305.65,345.84h15.83a0,0,0,0,1,0,0v9.9a0,0,0,0,1,0,0H1304a4.11,4.11,0,0,1-4.11-4.11v0A5.79,5.79,0,0,1,1305.65,345.84Z"/><rect class="cls-7" x="1306.25" y="345.84" width="28.35" height="9.9" rx="4.95" ry="4.95"/><path class="cls-8" d="M1307.44,355.74h9.51a0,0,0,0,1,0,0v25.94a0,0,0,0,1,0,0H1306a6.17,6.17,0,0,1-6.17-6.17V363.32A7.58,7.58,0,0,1,1307.44,355.74Z"/><rect class="cls-7" x="1309.21" y="355.74" width="22.42" height="25.94" rx="5.63" ry="5.63"/><path class="cls-8" d="M1307.19,381.68h9.76a0,0,0,0,1,0,0v134.8a0,0,0,0,1,0,0H1306a6.17,6.17,0,0,1-6.17-6.17V389a7.33,7.33,0,0,1,7.33-7.33Z"/><rect class="cls-7" x="1310.64" y="381.68" width="19.56" height="134.8" rx="5.63" ry="5.63"/><path class="cls-8" d="M1304,516.48h17.52a0,0,0,0,1,0,0v9.9a0,0,0,0,1,0,0h-15.83a5.79,5.79,0,0,1-5.79-5.79v0A4.11,4.11,0,0,1,1304,516.48Z"/><rect class="cls-7" x="1306.25" y="516.48" width="28.35" height="9.9" rx="4.95" ry="4.95"/><rect class="cls-8" x="1088.24" y="192.49" width="123.85" height="11.78" rx="5.89" ry="5.89"/><rect class="cls-7" x="1092.95" y="192.49" width="123.85" height="11.78" rx="5.89" ry="5.89"/><rect class="cls-8" x="1131.77" y="188.56" width="36.78" height="15.71"/><rect class="cls-7" x="1136.49" y="188.56" width="36.78" height="15.71"/><rect class="cls-8" x="1126.43" y="178.35" width="47.46" height="10.37" rx="5.18" ry="5.18"/><rect class="cls-7" x="1131.14" y="178.35" width="47.46" height="10.37" rx="5.18" ry="5.18"/><rect class="cls-8" x="794.19" y="284.98" width="95.02" height="241.4"/><rect class="cls-7" x="815.07" y="284.98" width="95.02" height="241.4"/><rect class="cls-6" x="839.95" y="284.98" width="48.38" height="31.08"/><rect class="cls-8" x="836.6" y="359.46" width="62.91" height="166.92"/><rect class="cls-6" x="847.18" y="359.04" width="62.91" height="166.92"/><rect class="cls-6" x="847.18" y="436.52" width="62.91" height="25.13"/><rect class="cls-7" x="847.18" y="359.04" width="11.94" height="166.92"/><rect class="cls-7" x="898.15" y="359.04" width="11.94" height="166.92"/><rect class="cls-8" x="862.58" y="436.52" width="5.37" height="25.13"/><rect class="cls-7" x="865.66" y="436.52" width="5.37" height="25.13"/><rect class="cls-8" x="874.41" y="436.52" width="5.37" height="25.13"/><rect class="cls-7" x="877.49" y="436.52" width="5.37" height="25.13"/><rect class="cls-8" x="886.28" y="436.52" width="5.37" height="25.13"/><rect class="cls-7" x="889.36" y="436.52" width="5.37" height="25.13"/><rect class="cls-8" x="833.2" y="359.04" width="76.89" height="6.28" rx="3.14" ry="3.14"/><rect class="cls-7" x="845.92" y="359.04" width="68.17" height="6.28" rx="3.14" ry="3.14"/><rect class="cls-8" x="793.02" y="278.7" width="115.17" height="6.28" rx="3.14" ry="3.14"/><rect class="cls-7" x="813.88" y="278.7" width="98.8" height="6.28" rx="3.14" ry="3.14"/><rect class="cls-8" x="793.02" y="313.54" width="115.17" height="6.28" rx="3.14" ry="3.14"/><rect class="cls-7" x="813.88" y="313.54" width="98.8" height="6.28" rx="3.14" ry="3.14"/><rect class="cls-8" x="836.86" y="284.98" width="5.37" height="28.56"/><rect class="cls-7" x="839.95" y="284.98" width="5.37" height="28.56"/><rect class="cls-8" x="848.69" y="284.98" width="5.37" height="28.56"/><rect class="cls-7" x="851.77" y="284.98" width="5.37" height="28.56"/><rect class="cls-8" x="860.56" y="284.98" width="5.37" height="28.56"/><rect class="cls-7" x="863.64" y="284.98" width="5.37" height="28.56"/><rect class="cls-8" x="872.66" y="284.98" width="5.37" height="28.56"/><rect class="cls-7" x="875.74" y="284.98" width="5.37" height="28.56"/><rect class="cls-8" x="884.67" y="284.98" width="5.37" height="28.56"/><rect class="cls-7" x="887.76" y="284.98" width="5.37" height="28.56"/></g><g id="Sign_Board" data-name="Sign Board"><path class="cls-8" d="M1842.18,388v84.36a28.36,28.36,0,0,0-19.69-9.78c-20-1.56-22.93-17-22.93-17h-6.13s2.89,15.48,22.93,17,25.76,20,25.76,20h.06v33.67h17.92V388Z"/><rect class="cls-7" x="1848.42" y="388.01" width="17.92" height="128.29"/><path class="cls-8" d="M1857.38,406.48s-14.76,13,0,26.72C1872.14,419.44,1857.38,406.48,1857.38,406.48Z"/><path class="cls-6" d="M1855.69,431.49c9.12-10.08,3.22-19.45,0-23.23C1852.48,412,1846.57,421.41,1855.69,431.49Z"/><path class="cls-8" d="M1857.38,447.23s-9.71,8.53,0,17.59C1867.1,455.75,1857.38,447.23,1857.38,447.23Z"/><path class="cls-6" d="M1856.27,463.69c6-6.64,2.12-12.8,0-15.29C1854.15,450.88,1850.26,457.05,1856.27,463.69Z"/><path class="cls-8" d="M1766,383.63h0a0,0,0,0,1,0,0v-.47a3.22,3.22,0,0,0-3.22-3.22h-1.19a0,0,0,0,1,0,0V377.3a1.49,1.49,0,0,0-1.49-1.49h-1.63a0,0,0,0,1,0,0v-3.32a1.49,1.49,0,0,0-1.49-1.49h-23.92a1.49,1.49,0,0,0-1.49,1.49v3.32a0,0,0,0,1,0,0h-1.63a1.49,1.49,0,0,0-1.49,1.49v2.56a0,0,0,0,1,0,0H1727a3.22,3.22,0,0,0-3.22,3.22v.47a0,0,0,0,1,0,0h-.37a3.68,3.68,0,0,0-3.68,3.68v14.06a3.68,3.68,0,0,0,3.68,3.68H1766a3.68,3.68,0,0,0,3.68-3.68V387.31A3.68,3.68,0,0,0,1766,383.63Z"/><path class="cls-7" d="M1770.49,383.63h0a0,0,0,0,1,0,0v-.47a3.22,3.22,0,0,0-3.22-3.22H1766a0,0,0,0,1,0,0V377.3a1.49,1.49,0,0,0-1.49-1.49h-1.63a0,0,0,0,1,0,0v-3.32a1.49,1.49,0,0,0-1.49-1.49h-23.92a1.49,1.49,0,0,0-1.49,1.49v3.32a0,0,0,0,1,0,0h-1.63a1.49,1.49,0,0,0-1.49,1.49v2.56a0,0,0,0,1,0,0h-1.19a3.22,3.22,0,0,0-3.22,3.22v.47a0,0,0,0,1,0,0h-.37a3.68,3.68,0,0,0-3.68,3.68v14.06a3.68,3.68,0,0,0,3.68,3.68h42.56a3.68,3.68,0,0,0,3.68-3.68V387.31A3.68,3.68,0,0,0,1770.49,383.63Z"/><path class="cls-8" d="M1822.85,395.18h0a3.61,3.61,0,0,0-3.61-3.61H1670.56a3.61,3.61,0,0,0-3.61,3.61h0a3.61,3.61,0,0,1-3.61,3.61h-13.15a3.61,3.61,0,0,0-3.61,3.61v39.53a3.61,3.61,0,0,0,3.61,3.61h190.09a3.61,3.61,0,0,0,3.61-3.61V402.41a3.61,3.61,0,0,0-3.61-3.61h-13.81A3.61,3.61,0,0,1,1822.85,395.18Z"/><path class="cls-7" d="M1827.27,395.18h0a3.61,3.61,0,0,0-3.61-3.61H1675a3.61,3.61,0,0,0-3.61,3.61h0a3.61,3.61,0,0,1-3.61,3.61h-13.15a3.61,3.61,0,0,0-3.61,3.61v39.53a3.61,3.61,0,0,0,3.61,3.61h190.09a3.61,3.61,0,0,0,3.61-3.61V402.41a3.61,3.61,0,0,0-3.61-3.61h-13.81A3.61,3.61,0,0,1,1827.27,395.18Z"/><path class="cls-8" d="M1823.59,399.33v-.39a3.81,3.81,0,0,0-3.81-3.81H1679a3.81,3.81,0,0,0-3.81,3.81h0a3.81,3.81,0,0,1-3.81,3.81h-13.41a3.81,3.81,0,0,0-3.81,3.81v31.28a3.81,3.81,0,0,0,3.81,3.81h182.55a3.81,3.81,0,0,0,3.81-3.81V407a3.81,3.81,0,0,0-3.81-3.81h-13.08A3.81,3.81,0,0,1,1823.59,399.33Z"/><path class="cls-6" d="M1840.33,437.85V407a3.81,3.81,0,0,0-3.81-3.81h-13.08a3.81,3.81,0,0,1-3.81-3.81v-.39a3.81,3.81,0,0,0-3.81-3.81H1679a3.81,3.81,0,0,0-3.81,3.81h0a3.81,3.81,0,0,1-3.81,3.81h-13.41a3.81,3.81,0,0,0-3.81,3.81v31.28a3.81,3.81,0,0,0,3.81,3.81h178.58A3.81,3.81,0,0,0,1840.33,437.85Z"/><path class="cls-8" d="M1753.79,370.42l-.4-1.89a6,6,0,0,0,.4-2.16,6.14,6.14,0,0,0-.86-3.1l0-.06a6.2,6.2,0,0,0-.51-.74l-.39-.56-1-5h-3.33a1.75,1.75,0,0,0-1.44.75l-2,2.82a13.49,13.49,0,0,0-2.59,4.68,6.15,6.15,0,0,0,6.14,7.37,6.09,6.09,0,0,0,3.55-1.26Z"/><path class="cls-7" d="M1756.26,363.26l0-.06a6.2,6.2,0,0,0-.51-.74l-3.32-4.76a1.76,1.76,0,0,0-2.89,0c-1.84,2.64-4.9,5.65-4.73,9.17a6.24,6.24,0,0,0,6.22,5.69h.1a6.25,6.25,0,0,0,6-6.2A6.14,6.14,0,0,0,1756.26,363.26Z"/><ellipse class="cls-8" cx="1748.15" cy="380.04" rx="9.46" ry="11.53"/><ellipse class="cls-6" cx="1751.15" cy="380.04" rx="9.46" ry="11.53"/><path class="cls-9" d="M1751.15,369.47s-12.21,10.72,0,22.1C1763.36,380.19,1751.15,369.47,1751.15,369.47Z"/><rect class="cls-8" x="1626.77" y="388.01" width="17.92" height="128.29"/><rect class="cls-7" x="1633.01" y="388.01" width="17.92" height="128.29"/><path class="cls-8" d="M1642,406.48s-14.76,13,0,26.72C1656.73,419.44,1642,406.48,1642,406.48Z"/><path class="cls-6" d="M1640.29,431.49c9.12-10.08,3.22-19.45,0-23.23C1637.07,412,1631.16,421.41,1640.29,431.49Z"/><path class="cls-8" d="M1642,447.23s-9.71,8.53,0,17.59C1651.69,455.75,1642,447.23,1642,447.23Z"/><path class="cls-6" d="M1640.86,463.69c6-6.64,2.12-12.8,0-15.29C1638.74,450.88,1634.85,457.05,1640.86,463.69Z"/><rect class="cls-6" x="1633.01" y="388.01" width="17.92" height="7.12"/><rect class="cls-6" x="1848.42" y="388.01" width="17.92" height="7.12"/><rect class="cls-6" x="1633.01" y="438.1" width="17.92" height="7.12"/><rect class="cls-6" x="1848.42" y="438.1" width="17.92" height="7.12"/><path class="cls-7" d="M1651,482.62s5.72-18.48,25.76-20,22.93-17,22.93-17h-48.75Z"/><path class="cls-7" d="M1848.25,482.62s-5.72-18.48-25.76-20-22.93-17-22.93-17h48.75Z"/><path class="cls-10" d="M1704.23,407.25h0a5,5,0,0,0-.74-1.17,3.64,3.64,0,0,0-1.12-.88l-.2-.1-.8,1.19.23.13a3.29,3.29,0,0,1,.86.72,3.7,3.7,0,0,1,.55.88,4.18,4.18,0,0,1,.29.94,5.28,5.28,0,0,1,.08.91,2.23,2.23,0,0,1-.12.74,1.6,1.6,0,0,1-.31.54,1.33,1.33,0,0,1-.46.33,1.89,1.89,0,0,1-1.87-.37,4.58,4.58,0,0,0,.17-1.27,6.84,6.84,0,0,0-.15-1.46,5.55,5.55,0,0,0-.45-1.3,4.55,4.55,0,0,0-.75-1.09,4,4,0,0,0-1-.8l-.2-.11-.8,1.19.21.14a3.63,3.63,0,0,1,.8.68,3.85,3.85,0,0,1,.56.83,3.9,3.9,0,0,1,.32.93,5,5,0,0,1,.1,1,2.79,2.79,0,0,1-.09.72,1.76,1.76,0,0,1-.24.54,1.08,1.08,0,0,1-.36.33,1,1,0,0,1-.45.13,1.15,1.15,0,0,1-.47-.09,1,1,0,0,1-.36-.25,1.17,1.17,0,0,1-.23-.38,1.34,1.34,0,0,1-.08-.48v-.25h-1.4v.25a1.36,1.36,0,0,1-.09.49,1.14,1.14,0,0,1-.24.38,1.07,1.07,0,0,1-.36.25,1.22,1.22,0,0,1-.92,0,1.1,1.1,0,0,1-.36-.25,1.18,1.18,0,0,1-.24-.37,1.17,1.17,0,0,1-.09-.46.79.79,0,0,1,.06-.31,1.16,1.16,0,0,1,.15-.26.91.91,0,0,1,.17-.17l.17-.12.55-.33a2.79,2.79,0,0,0,.56-.44,2.11,2.11,0,0,0,.42-.63,2.26,2.26,0,0,0,.16-.9,2.44,2.44,0,0,0-.14-.83,2,2,0,0,0-.41-.68,1.87,1.87,0,0,0-.65-.45,2.21,2.21,0,0,0-1.61,0,2.05,2.05,0,0,0-.63.39,1.9,1.9,0,0,0-.44.6,1.76,1.76,0,0,0-.16.75,1.74,1.74,0,0,0,.32,1.08l.13.17,1.23-.72-.21-.23a.56.56,0,0,1,0-.48.48.48,0,0,1,.12-.16.58.58,0,0,1,.19-.11.63.63,0,0,1,.89.64,1.2,1.2,0,0,1,0,.22.77.77,0,0,1-.11.25,1.35,1.35,0,0,1-.26.3,2.38,2.38,0,0,1-.51.33,3,3,0,0,0-.62.41,2.07,2.07,0,0,0-.42.5,2,2,0,0,0-.23.6,3.39,3.39,0,0,0-.06.69,2.85,2.85,0,0,0,.19,1.05,2.63,2.63,0,0,0,.53.85,2.44,2.44,0,0,0,.82.57,2.62,2.62,0,0,0,1,.2,1.45,1.45,0,0,1,2.5-.26,2.59,2.59,0,0,0,1.16.26,2.12,2.12,0,0,0,1-.29,2.55,2.55,0,0,0,.53-.42,3.92,3.92,0,0,0,.49.32,3.11,3.11,0,0,0,.73.28,3.58,3.58,0,0,0,.87.1,2.72,2.72,0,0,0,1.15-.25,2.61,2.61,0,0,0,.91-.7,3.31,3.31,0,0,0,.58-1.07,4.22,4.22,0,0,0,.21-1.36,6.84,6.84,0,0,0-.13-1.3A5.89,5.89,0,0,0,1704.23,407.25Z"/><path class="cls-10" d="M1717,404.29a.79.79,0,0,1,.6.29l.17.19,1-1-.17-.18a2.15,2.15,0,0,0-1.61-.71,2.54,2.54,0,0,0-2,1,2.63,2.63,0,0,0-.64,1.3h-4l1.43,1.09a3.54,3.54,0,0,1,1.07,2.75,2.33,2.33,0,0,1-.88,1.92,3.2,3.2,0,0,1-2.1.69,3.24,3.24,0,0,1-2.1-.69,2.33,2.33,0,0,1-.88-1.92c0-.09,0-.17,0-.25a1.56,1.56,0,0,0,.79.2,1.54,1.54,0,0,0,1.24-.61,2,2,0,0,0,0-2.57,1.54,1.54,0,0,0-1.24-.61c-.73,0-1.31.51-1.73,1.52a5.88,5.88,0,0,0-.47,2.27,4.09,4.09,0,0,0,1.25,3.1,4.79,4.79,0,0,0,6.28,0,4.09,4.09,0,0,0,1.24-3.09,5.24,5.24,0,0,0-.55-2.39h.67a2.63,2.63,0,0,0,.41,1.29,1.63,1.63,0,0,0,1.44.77,1.54,1.54,0,0,0,1.11-.43,1.67,1.67,0,0,0,.49-1.25,1.59,1.59,0,0,0-.5-1.2,2.39,2.39,0,0,0-1.54-.58,1.42,1.42,0,0,1,.33-.47A1.24,1.24,0,0,1,1717,404.29Zm-.59,2.68a.27.27,0,0,1-.08.19.17.17,0,0,1-.14.07c-.11,0-.4,0-.46-.66C1716.15,406.62,1716.38,406.75,1716.38,407Zm-9.26.4c.14-.51.33-.79.53-.79a.35.35,0,0,1,.27.15.52.52,0,0,1,.14.34.76.76,0,0,1-.12.44.33.33,0,0,1-.3.18A.73.73,0,0,1,1707.11,407.37Z"/><path class="cls-10" d="M1733.17,404.58a2.27,2.27,0,0,0-.14-.79,2,2,0,0,0-.4-.67,2,2,0,0,0-.61-.45,1.78,1.78,0,0,0-1.36-.07,1.43,1.43,0,0,0-.48.3,1.39,1.39,0,0,0-.32.46,1.48,1.48,0,0,0-.12.59,1.44,1.44,0,0,0,.08.46,1.19,1.19,0,0,0,.22.39,1.12,1.12,0,0,0,.35.27,1,1,0,0,0,1.4-.44l0-.08a.76.76,0,0,1-.06.23.9.9,0,0,1-.17.26.81.81,0,0,1-.25.18.65.65,0,0,1-.29.07h-.67a2.17,2.17,0,0,0-.77-.13,1.89,1.89,0,0,0-1.37.56l-.18.18,1,1,.18-.17a.57.57,0,0,1,.53-.14v.12h.24l.07.07a.79.79,0,0,1,.16.52c0,.43-.2.54-.36.59a5.9,5.9,0,0,1-1,0h-.25v1.4h1a.61.61,0,0,1,.54.32,1.37,1.37,0,0,1,.19.75,1.2,1.2,0,0,1-.33.85,1,1,0,0,1-.8.36,1.07,1.07,0,0,1-.83-.33,1.22,1.22,0,0,1-.32-.87v-.25h-1.4v.25a1.21,1.21,0,0,1-.32.87,1.09,1.09,0,0,1-.84.34,1,1,0,0,1-.8-.36,1.2,1.2,0,0,1-.33-.85,1.36,1.36,0,0,1,.2-.75.59.59,0,0,1,.54-.32h1v-1.4h-.25a6,6,0,0,1-1,0c-.17,0-.37-.16-.37-.59a.79.79,0,0,1,.16-.52.57.57,0,0,1,.83,0l.18.17,1-1-.18-.18a2,2,0,0,0-2.85.06,2.18,2.18,0,0,0-.54,1.51,2,2,0,0,0,.54,1.45,2.59,2.59,0,0,0-.62,1.75,2.76,2.76,0,0,0,.7,1.91,2.42,2.42,0,0,0,1.88.82,2.51,2.51,0,0,1,3.62,0,2.4,2.4,0,0,0,1.87-.82,2.76,2.76,0,0,0,.71-1.91,2.59,2.59,0,0,0-.62-1.75,2,2,0,0,0,.54-1.45,2.56,2.56,0,0,0-.08-.65,1.93,1.93,0,0,0,.34-.11,2,2,0,0,0,.67-.45,2.17,2.17,0,0,0,.44-.68A2.2,2.2,0,0,0,1733.17,404.58Z"/><path class="cls-10" d="M1735.93,405.76a3.06,3.06,0,0,0-2.36,1.11,4.07,4.07,0,0,0,0,5.26,3.07,3.07,0,0,0,4.72,0,4.07,4.07,0,0,0,0-5.26A3.06,3.06,0,0,0,1735.93,405.76Zm1.92,3.63a2.31,2.31,0,0,1-.57,1.59,1.74,1.74,0,0,1-2.7,0,2.48,2.48,0,0,1,0-3.18,1.74,1.74,0,0,1,2.7,0A2.3,2.3,0,0,1,1737.85,409.39Z"/><path class="cls-10" d="M1747.56,406.54a1.9,1.9,0,0,0,.62-.45,2.1,2.1,0,0,0,.41-.67,2.3,2.3,0,0,0,.15-.82,2.17,2.17,0,0,0-.51-1.4,2.1,2.1,0,0,0-.56-.47,1.78,1.78,0,0,0-.71-.23l-.25,0-.11,1.4.25,0a.37.37,0,0,1,.17.06.59.59,0,0,1,.16.15.81.81,0,0,1,.12.22.83.83,0,0,1,0,.26.84.84,0,0,1,0,.28.76.76,0,0,1-.13.23.63.63,0,0,1-.18.15.39.39,0,0,1-.19,0h-6.86v1.4h6.47l-.6,1.2.19.12a2.48,2.48,0,0,1,1.31,2.18,1.72,1.72,0,0,1-.09.55,1.45,1.45,0,0,1-.24.45,1.11,1.11,0,0,1-.36.29,1,1,0,0,1-.46.11,1.13,1.13,0,0,1-.46-.09,1.08,1.08,0,0,1-.35-.25,1.15,1.15,0,0,1-.23-.38,1.34,1.34,0,0,1-.08-.48v-.25h-1.4v.25a1.37,1.37,0,0,1-.08.49,1.15,1.15,0,0,1-.24.38,1.08,1.08,0,0,1-.36.25,1.17,1.17,0,0,1-.91,0,1.12,1.12,0,0,1-.36-.26,1.26,1.26,0,0,1-.25-.39,1.23,1.23,0,0,1-.09-.47,1.19,1.19,0,0,1,.07-.4,1.13,1.13,0,0,1,.19-.35.9.9,0,0,1,.28-.24.55.55,0,0,1,.48-.06l.17.08.17.12.28.23.85-1.09a.88.88,0,1,0,1.38-1.07.9.9,0,0,0-1.25,0,.86.86,0,0,0-.26.63.88.88,0,0,0,.06.29l-.05,0-.19-.16a1.73,1.73,0,0,0-.31-.19,2.13,2.13,0,0,0-.43-.15,2.23,2.23,0,0,0-.56-.06,2,2,0,0,0-1,.24,2.28,2.28,0,0,0-.71.62,2.65,2.65,0,0,0-.42.83,3,3,0,0,0-.14.88,2.91,2.91,0,0,0,.19,1.06,2.69,2.69,0,0,0,.54.87,2.49,2.49,0,0,0,1.85.8,2.36,2.36,0,0,0,1.81-.77,2.4,2.4,0,0,0,1.84.77,2.37,2.37,0,0,0,1-.25,2.5,2.5,0,0,0,.81-.64,2.92,2.92,0,0,0,.52-.93,3.45,3.45,0,0,0,.18-1.13,3.73,3.73,0,0,0-.54-2,4.2,4.2,0,0,0-.59-.72,7.8,7.8,0,0,0-.87-.73l-.11-.08h.2A1.84,1.84,0,0,0,1747.56,406.54Z"/><path class="cls-10" d="M1760.84,404.28a.79.79,0,0,1,.6.29l.17.18,1-1-.17-.18a2.16,2.16,0,0,0-1.61-.71,2.54,2.54,0,0,0-2,1,2.64,2.64,0,0,0-.64,1.3l-3.6,0,.87.87,0,0,.19.18a3.58,3.58,0,0,1,1.08,2.76,2.33,2.33,0,0,1-.88,1.92,3.2,3.2,0,0,1-2.1.69,3.24,3.24,0,0,1-2.1-.69,2.33,2.33,0,0,1-.88-1.92c0-.09,0-.17,0-.25a1.56,1.56,0,0,0,.79.2,1.54,1.54,0,0,0,1.24-.61,2,2,0,0,0,0-2.57,1.54,1.54,0,0,0-1.24-.61c-.73,0-1.31.51-1.73,1.52a5.88,5.88,0,0,0-.47,2.27,4.09,4.09,0,0,0,1.25,3.1,4.79,4.79,0,0,0,6.28,0,4.09,4.09,0,0,0,1.24-3.09,5.24,5.24,0,0,0-.56-2.4h.62a2.63,2.63,0,0,0,.41,1.29,1.63,1.63,0,0,0,1.43.78,1.54,1.54,0,0,0,1.11-.43,1.67,1.67,0,0,0,.49-1.25,1.59,1.59,0,0,0-.5-1.19,2.38,2.38,0,0,0-1.54-.58,1.41,1.41,0,0,1,.33-.47A1.24,1.24,0,0,1,1760.84,404.28Zm-1.26,2.29c.67.05.67.3.67.39a.28.28,0,0,1-.08.19.17.17,0,0,1-.14.07C1759.91,407.23,1759.63,407.23,1759.57,406.57Zm-8.54.8c.14-.51.33-.79.53-.79a.35.35,0,0,1,.27.15.52.52,0,0,1,.14.34.76.76,0,0,1-.12.44.33.33,0,0,1-.3.18A.73.73,0,0,1,1751,407.37Z"/><path class="cls-10" d="M1788.61,411.59l-.37,0a2.46,2.46,0,0,1-1.93-.82,2.69,2.69,0,0,1-.7-1.88c0-.06,0-.12,0-.18a1.75,1.75,0,0,0,1.08.34,1.9,1.9,0,0,0,1.41-.55,1.91,1.91,0,0,0,.54-1.4,1.95,1.95,0,0,0-1.95-1.95,2.12,2.12,0,0,0-1.87,1.15,4.67,4.67,0,0,0-.62,2.48,4.17,4.17,0,0,0,1.16,3,4,4,0,0,0,3,1.2l.42,0,.26,0-.15-1.41Zm-2.46-4.47a.52.52,0,0,1,.16-.39.55.55,0,0,1,.77,0,.55.55,0,0,1,0,.78.54.54,0,0,1-.77,0A.51.51,0,0,1,1786.15,407.12Z"/><path class="cls-10" d="M1782.57,406.58a3.51,3.51,0,0,0-1.16-.93,3.43,3.43,0,0,0-2.91,0,3.21,3.21,0,0,0-1.09.86,3.91,3.91,0,0,0-.69,1.29,5.25,5.25,0,0,0-.24,1.61c0,1.49-.32,2.24-.94,2.24a.74.74,0,0,1-.34-.08,1.8,1.8,0,0,1-.35-.24,2.81,2.81,0,0,1-.32-.32l-.13-.15a3.93,3.93,0,0,0,.31-1.56,3.79,3.79,0,0,0-.93-2.57,2.09,2.09,0,0,0,.62-.15,2,2,0,0,0,.67-.45,2.17,2.17,0,0,0,.6-1.52,2.28,2.28,0,0,0-.14-.79,2,2,0,0,0-.4-.67,2,2,0,0,0-.61-.45,1.77,1.77,0,0,0-1.36-.07,1.45,1.45,0,0,0-.48.3,1.39,1.39,0,0,0-.32.46,1.48,1.48,0,0,0-.12.59,1.42,1.42,0,0,0,.08.46,1.2,1.2,0,0,0,.22.39,1.09,1.09,0,0,0,.35.27,1,1,0,0,0,.74.07,1,1,0,0,0,.66-.51l0-.08a.76.76,0,0,1-.06.23.85.85,0,0,1-.17.26.82.82,0,0,1-.25.18.66.66,0,0,1-.29.06h-6.72v1.4h.93a3.8,3.8,0,0,0-.93,2.56,3.85,3.85,0,0,0,1.15,2.8,3.91,3.91,0,0,0,5.57,0l.12.15a3.58,3.58,0,0,0,.52.51,2.69,2.69,0,0,0,.6.36,1.74,1.74,0,0,0,.69.14,2,2,0,0,0,2.08-1.36,7,7,0,0,0,.32-2.46,3.87,3.87,0,0,1,.15-1.11,2.63,2.63,0,0,1,.42-.85,2,2,0,0,1,.64-.54,1.91,1.91,0,0,1,1.72,0,2.25,2.25,0,0,1,.71.58,2.84,2.84,0,0,1,.47.89,3.63,3.63,0,0,1,.17,1.12,3,3,0,0,1-.12.86,2.17,2.17,0,0,1-.32.67,1.46,1.46,0,0,1-.48.42,1.14,1.14,0,0,1-.94.09.75.75,0,0,1-.26-.17.82.82,0,0,1-.17-.27.76.76,0,0,1,0-.15,1.23,1.23,0,0,0,1.35-.26,1.25,1.25,0,0,0,.26-.38,1.18,1.18,0,0,0,.1-.47,1.19,1.19,0,0,0-.1-.48,1.24,1.24,0,0,0-.26-.39,1.27,1.27,0,0,0-.38-.26,1.18,1.18,0,0,0-.47-.1,1.76,1.76,0,0,0-.89.22,1.91,1.91,0,0,0-.6.53,2.15,2.15,0,0,0-.34.7,2.67,2.67,0,0,0-.1.71,2.77,2.77,0,0,0,.16,1,2.43,2.43,0,0,0,.46.78,2.11,2.11,0,0,0,.71.52,2.18,2.18,0,0,0,.91.19,2.54,2.54,0,0,0,1.2-.29,2.84,2.84,0,0,0,.92-.78,3.66,3.66,0,0,0,.59-1.14,4.56,4.56,0,0,0,.21-1.4,5.26,5.26,0,0,0-.26-1.68A4.35,4.35,0,0,0,1782.57,406.58Zm-9.34,2.58a2.45,2.45,0,1,1-.72-1.74A2.34,2.34,0,0,1,1773.24,409.16Z"/><path class="cls-10" d="M1799.64,405.32a1.43,1.43,0,0,1,.33-.47,1.24,1.24,0,0,1,.9-.42.79.79,0,0,1,.6.29l.17.18,1-1-.17-.18a2.16,2.16,0,0,0-1.61-.71,2.54,2.54,0,0,0-2,1,2.63,2.63,0,0,0-.64,1.3h-8.11v1.4h1.22a4.83,4.83,0,0,0-1.22,3.42,3.43,3.43,0,0,0,.67,2.11,2.36,2.36,0,0,0,2,1,2.38,2.38,0,0,1,3.51,0,2.54,2.54,0,0,0,1.87-.77,2.57,2.57,0,0,0,.76-1.87,2.85,2.85,0,0,0-.25-1.16,2.21,2.21,0,0,0-.63-.84,2,2,0,0,0,0-.3,2.63,2.63,0,0,0-.49-1.57h.69a2.63,2.63,0,0,0,.41,1.29,1.63,1.63,0,0,0,1.44.78,1.54,1.54,0,0,0,1.11-.43,1.68,1.68,0,0,0,.49-1.25,1.58,1.58,0,0,0-.5-1.19A2.38,2.38,0,0,0,1799.64,405.32Zm.63,1.79a.27.27,0,0,1-.08.19.17.17,0,0,1-.14.07c-.11,0-.4,0-.46-.66C1800.27,406.77,1800.27,407,1800.27,407.11Zm-3.95.72a1,1,0,0,0-.74.36,1.15,1.15,0,0,0-.29.75,1.06,1.06,0,0,0,.34.8,1.33,1.33,0,0,0,1.62.08,1.24,1.24,0,0,1,.24.84.84.84,0,0,1-.35.69,1.24,1.24,0,0,1-.81.27,1,1,0,0,1-.81-.34,1.23,1.23,0,0,1-.32-.87v-.25h-1.4v.25a1.22,1.22,0,0,1-.32.87,1,1,0,0,1-.81.34,1,1,0,0,1-.87-.48,2,2,0,0,1-.28-1.1,3.44,3.44,0,0,1,.83-2.35,2.79,2.79,0,0,1,2.22-1,2.69,2.69,0,0,1,1.43.39,1.33,1.33,0,0,1,.64.76Z"/><text class="cls-11" transform="translate(1665.99 433.2)">BULL<tspan class="cls-12" x="39.87" y="0"> </tspan><tspan x="48.73" y="0">TEMPLE</tspan><tspan class="cls-13" x="113.89" y="0"> </tspan><tspan class="cls-14" x="122.75" y="0">ROAD</tspan></text></g><rect class="cls-8" x="1472.66" y="323.84" width="23.2" height="60.46" rx="5.84" ry="5.84"/><rect class="cls-6" x="1478.88" y="323.84" width="23.2" height="60.46" rx="5.84" ry="5.84"/><rect class="cls-8" x="1481.17" y="384.3" width="9.31" height="77.3" rx="1.78" ry="1.78"/><circle class="cls-8" cx="1490.48" cy="336.95" r="6.99"/><path class="cls-15" d="M1488.63,330.22a7,7,0,1,0,5.14,6.73A7,7,0,0,0,1488.63,330.22Z"/><circle class="cls-8" cx="1490.48" cy="354.83" r="6.99"/><path class="cls-15" d="M1488.63,348.09a7,7,0,1,0,5.14,6.73A7,7,0,0,0,1488.63,348.09Z"/><circle class="cls-8" cx="1490.48" cy="372.7" r="6.99"/><path class="cls-15" d="M1488.63,366a7,7,0,1,0,5.14,6.73A7,7,0,0,0,1488.63,366Z"/><rect class="cls-6" x="1485.82" y="384.3" width="6.36" height="77.3" rx="1.78" ry="1.78"/><g id="Metro_Sign" data-name="Metro Sign"><rect class="cls-7" x="1292.79" y="401.2" width="124.9" height="35.68"/><rect class="cls-6" x="1308" y="401.2" width="124.9" height="35.68"/><rect class="cls-8" x="1311.96" y="404.78" width="116.96" height="28.53"/><rect class="cls-6" x="1311.96" y="404.78" width="111.26" height="28.53"/><rect class="cls-7" x="1304.25" y="436.88" width="7.49" height="48.63"/><rect class="cls-6" x="1308.22" y="436.88" width="7.49" height="48.63"/><path class="cls-16" d="M1399.18,418.09c-2.37,0-3.54,1.34-4.89,2.89s-3.12,3.58-6.39,3.58-4.93-1.9-6.39-3.58-2.52-2.89-4.89-2.89-3.54,1.34-4.89,2.89-3.12,3.58-6.39,3.58-4.93-1.9-6.39-3.58-2.52-2.89-4.89-2.89-3.54,1.34-4.89,2.89-3.12,3.58-6.39,3.58-4.93-1.9-6.39-3.58-2.5-2.87-4.83-2.89v-2c3.23,0,4.88,1.91,6.33,3.57s2.52,2.89,4.89,2.89,3.54-1.34,4.89-2.89,3.12-3.58,6.39-3.58,4.93,1.9,6.39,3.58,2.52,2.89,4.89,2.89,3.54-1.34,4.89-2.89,3.12-3.58,6.39-3.58,4.93,1.9,6.39,3.58,2.52,2.89,4.89,2.89,3.54-1.34,4.89-2.89,3.12-3.58,6.39-3.58Z"/><path class="cls-16" d="M1404.39,416.3l-4.44-2.57a.93.93,0,0,0-1.4.81v5.13a.93.93,0,0,0,1.4.81l4.44-2.57A.93.93,0,0,0,1404.39,416.3Z"/></g><rect class="cls-8" x="713.35" y="433.87" width="3.4" height="64.37" rx="1.7" ry="1.7"/><rect class="cls-6" x="716.76" y="433.87" width="3.4" height="64.37" rx="1.7" ry="1.7"/><rect class="cls-8" x="738.67" y="433.87" width="3.4" height="64.37" rx="1.7" ry="1.7"/><rect class="cls-6" x="742.72" y="433.87" width="3.4" height="64.37" rx="1.7" ry="1.7"/><rect class="cls-8" x="767.15" y="433.87" width="3.4" height="64.37" rx="1.7" ry="1.7"/><rect class="cls-6" x="770.55" y="433.87" width="3.4" height="64.37" rx="1.7" ry="1.7"/><polygon class="cls-8" points="751.72 399.36 730.4 399.36 707.51 418.35 707.51 434.93 774.62 434.93 774.62 418.35 751.72 399.36"/><polygon class="cls-6" points="756.09 399.36 734.77 399.36 711.87 418.35 711.87 434.93 778.98 434.93 778.98 418.35 756.09 399.36"/><path class="cls-8" d="M709,418.35h64.13a1.49,1.49,0,0,1,1.49,1.49v15.09a0,0,0,0,1,0,0H707.51a0,0,0,0,1,0,0V419.84A1.49,1.49,0,0,1,709,418.35Z"/><path class="cls-6" d="M713.36,418.35h64.13a1.49,1.49,0,0,1,1.49,1.49v15.09a0,0,0,0,1,0,0H711.87a0,0,0,0,1,0,0V419.84A1.49,1.49,0,0,1,713.36,418.35Z"/><rect class="cls-8" x="705.95" y="433.11" width="70.24" height="3.63" rx="1.82" ry="1.82"/><rect class="cls-7" x="711.01" y="433.11" width="70.24" height="3.63" rx="1.82" ry="1.82"/><path class="cls-8" d="M707.51,493.56H779v25.83a5.92,5.92,0,0,1-5.92,5.92H713.43a5.92,5.92,0,0,1-5.92-5.92Z"/><path class="cls-6" d="M779,519.39V493.56H711.39v25.83a5.92,5.92,0,0,0,5.92,5.92h55.75A5.92,5.92,0,0,0,779,519.39Z"/><rect class="cls-8" x="705.95" y="491.75" width="70.24" height="3.63" rx="1.82" ry="1.82"/><rect class="cls-7" x="711.01" y="491.75" width="70.24" height="3.63" rx="1.82" ry="1.82"/><rect class="cls-8" x="943.15" y="373.62" width="23.2" height="60.46" rx="5.84" ry="5.84" transform="translate(1909.49 807.7) rotate(180)"/><rect class="cls-6" x="936.93" y="373.62" width="23.2" height="60.46" rx="5.84" ry="5.84" transform="translate(1897.05 807.7) rotate(180)"/><rect class="cls-8" x="948.52" y="434.08" width="9.31" height="77.3" rx="1.78" ry="1.78" transform="translate(1906.36 945.46) rotate(180)"/><circle class="cls-8" cx="948.52" cy="386.73" r="6.99"/><path class="cls-9" d="M950.37,380a7,7,0,1,1-5.14,6.73A7,7,0,0,1,950.37,380Z"/><circle class="cls-8" cx="948.52" cy="404.61" r="6.99"/><path class="cls-9" d="M950.37,397.87a7,7,0,1,1-5.14,6.73A7,7,0,0,1,950.37,397.87Z"/><circle class="cls-8" cx="948.52" cy="422.48" r="6.99"/><path class="cls-9" d="M950.37,415.75a7,7,0,1,1-5.14,6.73A7,7,0,0,1,950.37,415.75Z"/><rect class="cls-6" x="946.82" y="434.08" width="6.36" height="77.3" rx="1.78" ry="1.78" transform="translate(1900 945.46) rotate(180)"/><g id="Bushes"><path class="cls-8" d="M1536.89,507a13.38,13.38,0,0,0-22.72-13.83,13.31,13.31,0,0,0-12.51-4.24,11.61,11.61,0,0,0-18.34-4.81,11.62,11.62,0,0,0-22.19,4.83v0l-.45,0a9.45,9.45,0,0,0-8.68,13.17,15.92,15.92,0,0,0,4.84,31.08h67.91a15.91,15.91,0,0,0,12.14-26.2Z"/><path class="cls-7" d="M1543.48,507a13.38,13.38,0,0,0-22.72-13.83,13.31,13.31,0,0,0-12.51-4.24,11.61,11.61,0,0,0-18.34-4.81,11.62,11.62,0,0,0-22.19,4.83v0l-.45,0a9.45,9.45,0,0,0-8.68,13.17,15.92,15.92,0,0,0,4.84,31.08h67.91a15.91,15.91,0,0,0,12.14-26.2Z"/><path class="cls-8" d="M1590.52,518a8.42,8.42,0,0,0-6.29-10c0-.08,0-.16,0-.24a8.43,8.43,0,0,0-15.72-4.25,17.32,17.32,0,0,0-27.91,8.22,11.24,11.24,0,1,0-2.32,22.23h48.45a8.43,8.43,0,0,0,3.78-16Z"/><path class="cls-7" d="M1595.81,518a8.42,8.42,0,0,0-6.29-10c0-.08,0-.16,0-.24a8.43,8.43,0,0,0-15.72-4.25,17.32,17.32,0,0,0-27.91,8.22,11.24,11.24,0,1,0-2.32,22.23H1592a8.43,8.43,0,0,0,3.78-16Z"/></g><g id="Bushes-2" data-name="Bushes"><path class="cls-8" d="M1642,507a13.38,13.38,0,0,1,22.72-13.83,13.31,13.31,0,0,1,12.51-4.24,11.61,11.61,0,0,1,18.34-4.81,11.62,11.62,0,0,1,22.19,4.83v0l.45,0a9.45,9.45,0,0,1,8.68,13.17,15.92,15.92,0,0,1-4.84,31.08h-67.91A15.91,15.91,0,0,1,1642,507Z"/><path class="cls-7" d="M1635.44,507a13.38,13.38,0,0,1,22.72-13.83,13.31,13.31,0,0,1,12.51-4.24,11.61,11.61,0,0,1,18.34-4.81,11.62,11.62,0,0,1,22.19,4.83v0l.45,0a9.45,9.45,0,0,1,8.68,13.17,15.92,15.92,0,0,1-4.84,31.08h-67.91a15.91,15.91,0,0,1-12.14-26.2Z"/><path class="cls-8" d="M1588.4,518a8.42,8.42,0,0,1,6.29-10c0-.08,0-.16,0-.24a8.43,8.43,0,0,1,15.72-4.25,17.32,17.32,0,0,1,27.91,8.22,11.24,11.24,0,1,1,2.32,22.23h-48.45a8.43,8.43,0,0,1-3.78-16Z"/><path class="cls-7" d="M1583.12,518a8.42,8.42,0,0,1,6.29-10c0-.08,0-.16,0-.24a8.43,8.43,0,0,1,15.72-4.25,17.32,17.32,0,0,1,27.91,8.22,11.24,11.24,0,1,1,2.32,22.23H1586.9a8.43,8.43,0,0,1-3.78-16Z"/></g><g id="Bushes-3" data-name="Bushes"><path class="cls-8" d="M1744.42,507a13.38,13.38,0,0,1,22.72-13.83,13.31,13.31,0,0,1,12.51-4.24,11.61,11.61,0,0,1,18.34-4.81,11.62,11.62,0,0,1,22.19,4.83v0l.45,0a9.45,9.45,0,0,1,8.68,13.17,15.92,15.92,0,0,1-4.84,31.08h-67.91a15.91,15.91,0,0,1-12.14-26.2Z"/><path class="cls-7" d="M1737.83,507a13.38,13.38,0,0,1,22.72-13.83,13.31,13.31,0,0,1,12.51-4.24,11.61,11.61,0,0,1,18.34-4.81,11.62,11.62,0,0,1,22.19,4.83v0l.45,0a9.45,9.45,0,0,1,8.68,13.17,15.92,15.92,0,0,1-4.84,31.08H1750a15.91,15.91,0,0,1-12.14-26.2Z"/><path class="cls-8" d="M1690.79,518a8.42,8.42,0,0,1,6.29-10c0-.08,0-.16,0-.24a8.43,8.43,0,0,1,15.72-4.25,17.32,17.32,0,0,1,27.91,8.22A11.24,11.24,0,1,1,1743,534h-48.45a8.43,8.43,0,0,1-3.78-16Z"/><path class="cls-7" d="M1685.5,518a8.42,8.42,0,0,1,6.29-10c0-.08,0-.16,0-.24a8.43,8.43,0,0,1,15.72-4.25,17.32,17.32,0,0,1,27.91,8.22,11.24,11.24,0,1,1,2.32,22.23h-48.45a8.43,8.43,0,0,1-3.78-16Z"/></g><g id="Flags"><path class="cls-17" d="M541,139.37s149.7,152.71,440.13,65.76"/><path class="cls-6" d="M552.06,164.49l10-6.37a2.89,2.89,0,0,0,.21-4.72l-6.31-4.87a2.89,2.89,0,0,0-4.51,1.4l-3.64,11.25A2.89,2.89,0,0,0,552.06,164.49Z"/><path class="cls-8" d="M569.31,176.52l9.22-7.4a2.89,2.89,0,0,0-.3-4.71l-6.8-4.17a2.89,2.89,0,0,0-4.34,1.87l-2.42,11.57A2.89,2.89,0,0,0,569.31,176.52Z"/><path class="cls-6" d="M586.18,186.69l9.26-7.35a2.89,2.89,0,0,0-.27-4.72l-6.77-4.21a2.89,2.89,0,0,0-4.35,1.85l-2.49,11.56A2.89,2.89,0,0,0,586.18,186.69Z"/><path class="cls-8" d="M604.56,196.92l8.42-8.3a2.89,2.89,0,0,0-.77-4.66L605,180.5a2.89,2.89,0,0,0-4.13,2.3l-1.24,11.76A2.89,2.89,0,0,0,604.56,196.92Z"/><path class="cls-6" d="M622.15,205.47l8.43-8.29a2.89,2.89,0,0,0-.77-4.66l-7.18-3.47a2.89,2.89,0,0,0-4.13,2.3l-1.25,11.76A2.89,2.89,0,0,0,622.15,205.47Z"/><path class="cls-8" d="M641.51,213.7l7.5-9.14a2.89,2.89,0,0,0-1.26-4.55l-7.51-2.68a2.89,2.89,0,0,0-3.86,2.72v11.82A2.89,2.89,0,0,0,641.51,213.7Z"/><path class="cls-6" d="M660.12,220.18l7.55-9.1a2.89,2.89,0,0,0-1.24-4.56l-7.5-2.72a2.89,2.89,0,0,0-3.87,2.7L655,218.32A2.89,2.89,0,0,0,660.12,220.18Z"/><path class="cls-8" d="M680.21,226.4l6.53-9.85a2.89,2.89,0,0,0-1.72-4.4l-7.74-1.91a2.89,2.89,0,0,0-3.56,3.1l1.21,11.76A2.89,2.89,0,0,0,680.21,226.4Z"/><path class="cls-6" d="M699.49,231.95l6.68-9.75a2.89,2.89,0,0,0-1.65-4.43l-7.71-2a2.89,2.89,0,0,0-3.61,3l1,11.78A2.89,2.89,0,0,0,699.49,231.95Z"/><path class="cls-8" d="M720.07,236.29l5.6-10.41a2.89,2.89,0,0,0-2.12-4.22l-7.89-1.18a2.89,2.89,0,0,0-3.26,3.42l2.29,11.6A2.89,2.89,0,0,0,720.07,236.29Z"/><path class="cls-6" d="M739.58,239.06l5.66-10.38a2.89,2.89,0,0,0-2.09-4.24l-7.88-1.23a2.89,2.89,0,0,0-3.28,3.4l2.22,11.61A2.89,2.89,0,0,0,739.58,239.06Z"/><path class="cls-8" d="M760.26,241.21l4.84-10.78a2.89,2.89,0,0,0-2.41-4.06l-8-.62a2.89,2.89,0,0,0-3,3.64l3.11,11.4A2.89,2.89,0,0,0,760.26,241.21Z"/><path class="cls-6" d="M779.75,242.81,784.6,232A2.89,2.89,0,0,0,782.2,228l-7.95-.63a2.89,2.89,0,0,0-3,3.64l3.1,11.41A2.89,2.89,0,0,0,779.75,242.81Z"/><path class="cls-8" d="M800.77,243.46l3.67-11.24a2.89,2.89,0,0,0-2.83-3.78l-8,.22A2.89,2.89,0,0,0,791,232.6l4.3,11A2.89,2.89,0,0,0,800.77,243.46Z"/><path class="cls-6" d="M820.69,244.24,824.43,233a2.89,2.89,0,0,0-2.8-3.8l-8,.18a2.89,2.89,0,0,0-2.63,3.92l4.24,11A2.89,2.89,0,0,0,820.69,244.24Z"/><path class="cls-8" d="M840.49,242.74l3.26-11.36a2.89,2.89,0,0,0-3-3.68l-8,.52a2.89,2.89,0,0,0-2.46,4l4.7,10.85A2.89,2.89,0,0,0,840.49,242.74Z"/><path class="cls-6" d="M860.35,242.16l3.29-11.35a2.89,2.89,0,0,0-3-3.69l-8,.49a2.89,2.89,0,0,0-2.48,4l4.67,10.86A2.89,2.89,0,0,0,860.35,242.16Z"/><path class="cls-8" d="M880.91,239.18,883,227.54a2.89,2.89,0,0,0-3.33-3.35l-7.86,1.34a2.89,2.89,0,0,0-2,4.26l5.8,10.3A2.89,2.89,0,0,0,880.91,239.18Z"/><path class="cls-6" d="M900.65,236.58l2.13-11.63a2.89,2.89,0,0,0-3.31-3.37l-7.87,1.3a2.89,2.89,0,0,0-2.06,4.25l5.74,10.33A2.89,2.89,0,0,0,900.65,236.58Z"/><path class="cls-8" d="M920.14,232.88l1.63-11.71a2.89,2.89,0,0,0-3.45-3.23l-7.81,1.63a2.89,2.89,0,0,0-1.87,4.34L914.81,234A2.89,2.89,0,0,0,920.14,232.88Z"/><path class="cls-6" d="M939,228.71,940.51,217A2.89,2.89,0,0,0,937,213.8l-7.79,1.72a2.89,2.89,0,0,0-1.82,4.36l6.29,10A2.89,2.89,0,0,0,939,228.71Z"/><path class="cls-8" d="M957.51,223.84l1-11.78a2.89,2.89,0,0,0-3.62-3l-7.71,2a2.89,2.89,0,0,0-1.64,4.43l6.71,9.73A2.89,2.89,0,0,0,957.51,223.84Z"/></g><path d="M480.67,270a1.5,1.5,0,0,0,0-3,1.5,1.5,0,0,0,0,3Z"/><path d="M480.67,270a1.5,1.5,0,0,0,0-3,1.5,1.5,0,0,0,0,3Z"/></g></g></svg>