<svg xmlns="http://www.w3.org/2000/svg" viewBox="0 0 2165.2 420.31"><defs><style>.cls-1{fill:#ee59a0;}.cls-1,.cls-2,.cls-3,.cls-4,.cls-5,.cls-6,.cls-7{stroke:#000;}.cls-1,.cls-2,.cls-3,.cls-4,.cls-5,.cls-6,.cls-7,.cls-8,.cls-9{stroke-miterlimit:10;}.cls-1,.cls-2,.cls-3,.cls-4,.cls-5,.cls-6,.cls-9{stroke-width:2px;}.cls-2{fill:#f68f71;}.cls-3{fill:#7e69af;}.cls-4,.cls-7,.cls-9{fill:none;}.cls-5{fill:#f68f72;}.cls-6,.cls-8{fill:#fff;}.cls-8{stroke:#fff;}.cls-9{stroke:#231f20;}</style></defs><title>Page One</title><g id="Layer_2" data-name="Layer 2"><g id="Layer_1-2" data-name="Layer 1"><path class="cls-1" d="M946.13,290.42A8.58,8.58,0,0,0,942,288c-71.2-18.84-174-55.57-257.44-123.3-143-116.1-229.73-49.47-295.67,8.92-45.73,40.5-142.77,83.46-197.94,106a8.39,8.39,0,0,0-4.79,10.81Z"/><path class="cls-2" d="M985,290.42A8.58,8.58,0,0,0,980.8,288c-71.2-18.84-174-55.57-257.44-123.3-143-116.1-229.73-49.47-295.67,8.92-45.73,40.5-142.77,83.46-197.94,106A8.39,8.39,0,0,0,225,290.42Z"/><path class="cls-1" d="M147.06,290.42h410V263.49s-95.2-44-135.84-60.66c-16.87-6.91-31-12.73-47.75-13.54l-.15-.08h-2q-1.76,0-3.56,0H321.12s2.42,3.9,5.76,9.21c-15.27,5.94-33.27,15.09-55.38,28.47C208.81,264.81,169.07,282.13,147.06,290.42Z"/><path class="cls-3" d="M570.38,290.42c-47.73-21.75-163.74-74.48-195.78-87.59-40.65-16.64-65.25-27.05-149.75,24.06-65.46,39.59-107.14,56-129.07,63.53Z"/><path class="cls-1" d="M411.16,290.42C364.76,279.09,297,255.9,235.43,218.11c-81.42-50-183,49.63-204.56,72.32Z"/><path class="cls-2" d="M444.29,290.42c-46.4-11.33-114.18-34.52-175.73-72.32-81.42-50-183,49.63-204.56,72.32Z"/><rect class="cls-1" x="1910.22" y="82.74" width="18.31" height="99.93" transform="translate(3744.07 -477.34) rotate(157.56)"/><rect class="cls-3" x="1908.12" y="77.45" width="15.5" height="106.4" transform="translate(3736.54 -479.95) rotate(157.56)"/><polygon class="cls-1" points="1882.48 91.37 1925.91 82.28 1885.53 17.8 1840.24 26.55 1882.48 91.37"/><polygon class="cls-3" points="1880.49 96.06 1923.92 86.97 1883.54 22.5 1838.26 31.24 1880.49 96.06"/><ellipse class="cls-2" cx="1878.7" cy="32.28" rx="4.41" ry="5.38" transform="translate(129.95 719.61) rotate(-22.44)"/><ellipse class="cls-2" cx="1886.63" cy="44.34" rx="4.41" ry="5.38" transform="translate(125.95 723.56) rotate(-22.44)"/><ellipse class="cls-2" cx="1894.76" cy="56.33" rx="4.41" ry="5.38" transform="translate(121.99 727.57) rotate(-22.44)"/><ellipse class="cls-2" cx="1902.69" cy="68.39" rx="4.41" ry="5.38" transform="translate(117.98 731.51) rotate(-22.44)"/><ellipse class="cls-2" cx="1910.24" cy="80.62" rx="4.41" ry="5.38" transform="translate(113.89 735.32) rotate(-22.44)"/><ellipse class="cls-2" cx="1865.05" cy="34.5" rx="4.41" ry="5.38" transform="translate(128.07 714.57) rotate(-22.44)"/><ellipse class="cls-2" cx="1872.99" cy="46.56" rx="4.41" ry="5.38" transform="translate(124.07 718.52) rotate(-22.44)"/><ellipse class="cls-2" cx="1881.11" cy="58.55" rx="4.41" ry="5.38" transform="translate(120.11 722.53) rotate(-22.44)"/><ellipse class="cls-2" cx="1889.05" cy="70.61" rx="4.41" ry="5.38" transform="translate(116.1 726.47) rotate(-22.44)"/><ellipse class="cls-2" cx="1896.59" cy="82.84" rx="4.41" ry="5.38" transform="translate(112 730.28) rotate(-22.44)"/><ellipse class="cls-2" cx="1852.76" cy="37.17" rx="4.41" ry="5.38" transform="translate(126.12 710.08) rotate(-22.44)"/><ellipse class="cls-2" cx="1860.7" cy="49.23" rx="4.41" ry="5.38" transform="translate(122.12 714.03) rotate(-22.44)"/><ellipse class="cls-2" cx="1868.83" cy="61.22" rx="4.41" ry="5.38" transform="translate(118.16 718.04) rotate(-22.44)"/><ellipse class="cls-2" cx="1876.76" cy="73.28" rx="4.41" ry="5.38" transform="translate(114.15 721.98) rotate(-22.44)"/><ellipse class="cls-2" cx="1884.31" cy="85.51" rx="4.41" ry="5.38" transform="translate(110.05 725.79) rotate(-22.44)"/><polygon class="cls-1" points="1840.24 26.55 1885.53 17.8 1925.91 82.28 1923.92 86.97 1883.54 22.5 1838.26 31.24 1840.24 26.55"/><polygon class="cls-2" points="1212.4 379.39 1213.74 270.47 2069.1 247.14 2069.1 379.39 1212.4 379.39"/><rect class="cls-1" x="1683.6" y="200.08" width="82.4" height="34.67"/><rect class="cls-1" x="1680.38" y="193.67" width="90.64" height="42.63"/><polyline class="cls-2" points="1748.11 159.79 1776.87 185.79 1776.87 193.01 1748.11 169.63 1748.11 159.79"/><rect class="cls-1" x="1309.27" y="66.05" width="18.31" height="99.93" transform="translate(144.13 -494.51) rotate(22.44)"/><polygon class="cls-3" points="1213.74 298.46 2072.58 275.04 2072.58 267.54 1213.74 290.03 1213.74 298.46"/><rect class="cls-3" x="1314.18" y="60.76" width="15.5" height="106.4" transform="translate(143.61 -496) rotate(22.44)"/><polygon class="cls-1" points="1796.78 201.02 1796.78 217.42 1945.2 201.34 2045.64 191.08 2071.24 188.37 2071.24 166.35 2001.02 177.07 1892.66 191.57 1796.78 201.02"/><path class="cls-3" d="M2071.24,153.12v13.23S1874.08,197.27,1796.78,201l-.59-8.38,139.91-15.93Z"/><polygon class="cls-2" points="1213.74 238.5 1213.74 249.74 1551.48 257.24 1551.48 247.87 1213.74 238.5"/><path class="cls-2" d="M1795.57,186s162.6-16.81,273.53-40.7v8.9s-60.24,10.24-100.73,17.33c-23.23,4.07-51.44,8.27-62.27,8.67L1796.2,192.64Z"/><path class="cls-3" d="M1213.74,109.9"/><polygon class="cls-1" points="1497.98 211.79 1549.49 247.81 1213.74 238.5 1213.74 190.25 1497.98 211.79"/><polygon class="cls-3" points="1213.74 249.74 1535.91 256.89 1535.91 267.54 1213.74 267.54 1213.74 249.74"/><polygon class="cls-3" points="1796.54 222.72 2071.24 196.8 2071.24 216.1 1796.78 236.3 1796.54 222.72"/><polygon class="cls-1" points="2024 201.25 2024.81 219.01 2027.85 218.78 2027.04 201.02 2024 201.25"/><polygon class="cls-2" points="2022.49 201.57 2023.3 219.33 2026.34 219.1 2025.53 201.34 2022.49 201.57"/><polygon class="cls-1" points="2022.25 162.09 2023.63 192.75 2026.67 192.51 2025.29 161.85 2022.25 162.09"/><polygon class="cls-2" points="2020.74 162.56 2022.13 193.22 2025.17 192.98 2023.78 162.32 2020.74 162.56"/><polygon class="cls-1" points="1815.51 219.56 1816.34 234.75 1818.83 234.52 1818 219.33 1815.51 219.56"/><polygon class="cls-2" points="1814.27 219.85 1815.1 235.04 1817.59 234.81 1816.77 219.62 1814.27 219.85"/><polygon class="cls-1" points="1813.96 190.62 1815.29 215.11 1817.78 214.88 1816.45 190.38 1813.96 190.62"/><polygon class="cls-2" points="1812.73 191.01 1814.06 215.51 1816.55 215.28 1815.22 190.78 1812.73 191.01"/><polygon class="cls-1" points="1879.21 215.09 1880.03 230.28 1882.52 230.05 1881.7 214.86 1879.21 215.09"/><polygon class="cls-2" points="1877.97 215.38 1878.79 230.57 1881.29 230.34 1880.46 215.15 1877.97 215.38"/><polygon class="cls-1" points="1877.01 183.48 1878.37 208.47 1880.86 208.24 1879.5 183.25 1877.01 183.48"/><polygon class="cls-2" points="1875.78 183.88 1877.13 208.87 1879.63 208.64 1878.27 183.65 1875.78 183.88"/><polygon class="cls-3" points="1213.74 169.63 1497.82 198.53 1497.98 211.79 1213.74 190.25 1213.74 169.63"/><polygon class="cls-1" points="1950.54 208.19 1951.33 224.43 1953.83 224.22 1953.04 207.98 1950.54 208.19"/><polygon class="cls-2" points="1949.3 208.48 1950.09 224.72 1952.59 224.51 1951.8 208.27 1949.3 208.48"/><polygon class="cls-1" points="1948.4 174.41 1949.68 200.6 1952.18 200.39 1950.9 174.2 1948.4 174.41"/><polygon class="cls-2" points="1947.17 174.81 1948.44 201.01 1950.94 200.8 1949.67 174.6 1947.17 174.81"/><polygon class="cls-1" points="1414.81 190.31 1414.15 243.44 1420.67 243.61 1421.34 190.48 1414.81 190.31"/><polygon class="cls-2" points="1412.93 190.87 1412.06 244 1415.82 244.1 1416.68 190.98 1412.93 190.87"/><polygon class="cls-1" points="1414.78 254.17 1414.62 267.42 1421.2 267.59 1421.37 254.34 1414.78 254.17"/><polygon class="cls-2" points="1412.9 254.27 1412.68 267.52 1416.44 267.63 1416.66 254.38 1412.9 254.27"/><polygon class="cls-1" points="1350.48 185.09 1349.22 241.66 1354.89 241.9 1356.16 185.33 1350.48 185.09"/><polygon class="cls-2" points="1348.59 185.65 1347.08 242.21 1350.84 242.38 1352.34 185.82 1348.59 185.65"/><polygon class="cls-1" points="1348.4 252.53 1348.09 267.77 1354.55 268.04 1354.86 252.79 1348.4 252.53"/><polygon class="cls-2" points="1346.52 252.62 1346.11 267.86 1349.87 268.03 1350.27 252.79 1346.52 252.62"/><polygon class="cls-1" points="1270.27 176.2 1268.88 240.01 1274.78 240.26 1276.18 176.45 1270.27 176.2"/><polygon class="cls-2" points="1268.37 176.84 1266.7 239.92 1270.45 240.09 1272.13 177.01 1268.37 176.84"/><rect class="cls-1" x="1268.84" y="251" width="6.39" height="16.58" transform="translate(-0.26 1.29) rotate(-0.06)"/><rect class="cls-2" x="1266.96" y="251.2" width="3.76" height="16.39" transform="translate(-0.34 1.65) rotate(-0.07)"/><path class="cls-2" d="M1213.74,159.79v9.84s232,28.11,322.17,30.92v-8.43s-53.05-4.8-121.3-11.44C1354.66,174.84,1284,167.68,1213.74,159.79Z"/><path class="cls-2" d="M1213.74,109.9s172.77,52,360.46,58.32V155.58A1537.2,1537.2,0,0,1,1394,135.2s-119.68-23.89-181.57-44.27Z"/><path class="cls-3" d="M1588.51,164.71"/><polygon class="cls-1" points="1213.74 267.54 1539.64 267.54 1574.2 280.59 1213.74 290.03 1213.74 267.54"/><path class="cls-1" d="M1588.51,164.71s66.56,7.73,159.6-4.92v9.84s-69.78,14.05-159.6,6.56Z"/><polygon class="cls-2" points="1796.78 217.42 2071.24 188.37 2071.24 196.8 1797.22 222.65 1796.78 217.42"/><path class="cls-3" d="M2085.75,153.12"/><polygon class="cls-1" points="1535.91 226.32 1579.39 257.24 1645.05 257.24 1663.3 236.3 1663.3 214.98 1520.07 214.98 1535.91 226.32"/><polyline class="cls-3" points="1520.07 200.55 1520.07 214.98 1663.3 214.98 1663.3 200.55"/><polygon class="cls-1" points="2071.24 216.1 2071.24 267.54 1781.64 275.32 1798.26 249.34 1796.78 236.3 2071.24 216.1"/><polygon class="cls-1" points="1797.14 249.15 1777.52 249.53 1776.77 183.83 1796.4 183.45 1797.14 249.15"/><polygon class="cls-3" points="1682.52 250.3 1663.3 278.3 1781.64 275.32 1798.26 249.34 1682.52 250.3"/><polygon class="cls-1" points="1680.54 249.34 1660.86 278.3 1781.64 275.32 1798.26 247.38 1680.54 249.34"/><polygon class="cls-1" points="1355.33 74.68 1311.9 65.59 1352.28 1.11 1397.56 9.86 1355.33 74.68"/><polygon class="cls-3" points="1357.32 79.37 1313.89 70.28 1354.27 5.8 1399.55 14.55 1357.32 79.37"/><ellipse class="cls-2" cx="1359.11" cy="15.58" rx="5.38" ry="4.41" transform="translate(825.88 1265.82) rotate(-67.56)"/><ellipse class="cls-2" cx="1351.17" cy="27.65" rx="5.38" ry="4.41" transform="translate(809.82 1265.95) rotate(-67.56)"/><ellipse class="cls-2" cx="1343.05" cy="39.64" rx="5.38" ry="4.41" transform="translate(793.72 1265.84) rotate(-67.56)"/><ellipse class="cls-2" cx="1335.11" cy="51.7" rx="5.38" ry="4.41" transform="translate(777.66 1265.97) rotate(-67.56)"/><ellipse class="cls-2" cx="1327.57" cy="63.93" rx="5.38" ry="4.41" transform="translate(761.7 1266.55) rotate(-67.56)"/><ellipse class="cls-2" cx="1372.76" cy="17.8" rx="5.38" ry="4.41" transform="translate(832.27 1279.8) rotate(-67.56)"/><ellipse class="cls-2" cx="1364.82" cy="29.87" rx="5.38" ry="4.41" transform="translate(816.21 1279.93) rotate(-67.56)"/><ellipse class="cls-2" cx="1356.69" cy="41.86" rx="5.38" ry="4.41" transform="translate(800.11 1279.83) rotate(-67.56)"/><ellipse class="cls-2" cx="1348.76" cy="53.92" rx="5.38" ry="4.41" transform="translate(784.05 1279.96) rotate(-67.56)"/><ellipse class="cls-2" cx="1341.21" cy="66.15" rx="5.38" ry="4.41" transform="translate(768.08 1280.54) rotate(-67.56)"/><ellipse class="cls-2" cx="1385.04" cy="20.47" rx="5.38" ry="4.41" transform="translate(837.4 1292.81) rotate(-67.56)"/><ellipse class="cls-2" cx="1377.11" cy="32.54" rx="5.38" ry="4.41" transform="translate(821.34 1292.94) rotate(-67.56)"/><ellipse class="cls-2" cx="1368.98" cy="44.53" rx="5.38" ry="4.41" transform="translate(805.23 1292.84) rotate(-67.56)"/><ellipse class="cls-2" cx="1361.05" cy="56.59" rx="5.38" ry="4.41" transform="translate(789.18 1292.97) rotate(-67.56)"/><ellipse class="cls-2" cx="1353.5" cy="68.82" rx="5.38" ry="4.41" transform="translate(773.21 1293.55) rotate(-67.56)"/><polygon class="cls-3" points="1212.4 109.9 1213.74 159.79 1295.98 168.71 1452.44 185.09 1526.52 191.26 1535.91 192.12 1568.92 169.09 1477.38 161.18 1371.71 145.95 1272.14 125.23 1212.4 109.9"/><path class="cls-3" d="M1588.1,176.4,1554,193.32a1.77,1.77,0,0,0,.82,3.36L1772,193.09a1.77,1.77,0,0,0,1.09-3.14l-24.4-19.84a1.77,1.77,0,0,0-1.34-.38l-49.77,6.37h-.17l-72.6,2.05h-.15L1589,176.22A1.77,1.77,0,0,0,1588.1,176.4Z"/><polyline class="cls-2" points="1547 184.38 1547 196.8 1588.51 176.19 1588.51 164.71 1548.67 183.22"/><path class="cls-2" d="M1755.94,166.87s208.64-23.94,315.3-53.45v7.73s-174.48,37.24-308.74,51.65Z"/><polygon class="cls-3" points="1762.49 172.79 1886.95 155.52 1988.44 137.61 2071.24 121.15 2069.1 145.27 1965.85 163.87 1882.52 175.66 1828.98 182.25 1795.57 185.97 1776.87 185.79 1762.49 172.79"/><path class="cls-1" d="M1666.81,213.89"/><polygon class="cls-2" points="1680.41 200.08 1680.54 241.66 1777.48 241.66 1777.48 249.34 1695.43 250.27 1680.54 250.27 1661.32 278.3 1656.56 278.44 1656.56 257.24 1645.05 257.24 1663.39 236.3 1663.25 200.08 1680.41 200.08"/><polygon class="cls-2" points="1497.82 198.53 1520.07 199.88 1520.07 214.98 1579.39 257.24 1574.2 257.24 1574.2 280.59 1564.63 281.01 1535.91 267.54 1535.91 256.89 1551.48 257.24 1551.48 247.87 1549.49 247.81 1497.98 211.79 1497.82 198.53"/><path class="cls-1" d="M1535.91,196.8"/><polygon class="cls-1" points="1572.43 281.25 1572.36 236.55 1656.05 236.41 1656.12 278.73 1572.43 281.25"/><polygon class="cls-3" points="1576.36 281.18 1576.36 240.81 1658.67 240.81 1658.67 279.03 1576.36 281.18"/><rect class="cls-2" x="1535.91" y="193.52" width="144.66" height="5.95"/><polygon class="cls-3" points="1680.54 241.66 1680.54 250.27 1777.52 249.53 1777.48 241.66 1680.54 241.66"/><line class="cls-4" x1="1524.94" y1="219.45" x2="1663.3" y2="219.45"/><line class="cls-4" x1="1530.79" y1="222.65" x2="1663.3" y2="222.65"/><line class="cls-4" x1="1535.91" y1="226.11" x2="1663.3" y2="226.11"/><line class="cls-4" x1="1540.04" y1="229.25" x2="1663.3" y2="229.25"/><line class="cls-4" x1="1545.06" y1="232.83" x2="1663.3" y2="232.83"/><path class="cls-1" d="M1743.63,155.13"/><path class="cls-2" d="M1218.14,196.5"/><rect class="cls-2" x="1680.38" y="192.56" width="97.18" height="49.1"/><rect class="cls-1" x="1685.69" y="199.47" width="87.5" height="35.89"/><path class="cls-3" d="M1678.6,253.09"/><line class="cls-3" x1="1662.9" y1="275.32" x2="1783.16" y2="272.94"/><line class="cls-3" x1="1664.86" y1="272.02" x2="1785.5" y2="269.64"/><line class="cls-3" x1="1667.73" y1="268.6" x2="1787.56" y2="266.23"/><line class="cls-3" x1="1669.78" y1="265.27" x2="1789.72" y2="262.9"/><line class="cls-3" x1="1671.89" y1="261.82" x2="1792.41" y2="259.42"/><line class="cls-3" x1="1674.92" y1="258.47" x2="1793.82" y2="256.12"/><line class="cls-3" x1="1677.63" y1="254.78" x2="1796.2" y2="253.09"/><path class="cls-3" d="M1794.69,250.91"/><path class="cls-3" d="M1677.63,253.24"/><line class="cls-2" x1="1796.54" y1="239.61" x2="2056.58" y2="222.57"/><line class="cls-2" x1="1796.2" y1="244.21" x2="2056.58" y2="228.75"/><line class="cls-2" x1="1798.26" y1="249.34" x2="2056.58" y2="234.75"/><line class="cls-2" x1="1796.2" y1="253.09" x2="2056.58" y2="241.66"/><line class="cls-2" x1="1794.47" y1="256.77" x2="2056.58" y2="247.38"/><line class="cls-2" x1="1791.82" y1="261.49" x2="2056.58" y2="253.91"/><line class="cls-2" x1="1789.72" y1="265.11" x2="2056.58" y2="258.95"/><line class="cls-2" x1="1785.5" y1="270.67" x2="2056.58" y2="263.94"/><path class="cls-2" d="M2074.74,195.55"/><path class="cls-2" d="M1796.78,205.51"/><line class="cls-2" x1="1218.14" y1="271.83" x2="1540.04" y2="269.89"/><line class="cls-2" x1="1217.14" y1="278.79" x2="1547.77" y2="273.58"/><line class="cls-2" x1="1217.14" y1="285.17" x2="1557.84" y2="277.3"/><polygon class="cls-1" points="1397.56 9.86 1352.28 1.11 1311.9 65.59 1313.89 70.28 1354.27 5.8 1399.55 14.55 1397.56 9.86"/><path class="cls-1" d="M1656.69,237.48l-.64-1.07-83.69.14.07,44.7,3.93-.07V240.81h78.44A2.2,2.2,0,0,0,1656.69,237.48Z"/><path class="cls-5" d="M2032,58.2h119.72a12.51,12.51,0,0,1,12.51,12.51v324a12.51,12.51,0,0,1-12.51,12.51H2032a0,0,0,0,1,0,0V58.2A0,0,0,0,1,2032,58.2Z"/><path class="cls-1" d="M2007.29,66.24v333a8,8,0,0,0,8,8H2032V58.2h-16.65A8,8,0,0,0,2007.29,66.24Z"/><rect class="cls-3" x="2038.44" y="200.16" width="8.76" height="11.92"/><rect class="cls-1" x="2047.2" y="200.16" width="3.53" height="11.92"/><rect class="cls-3" x="2055.84" y="200.16" width="8.76" height="11.92"/><rect class="cls-1" x="2064.6" y="200.16" width="3.53" height="11.92"/><rect class="cls-3" x="2074.11" y="200.16" width="8.76" height="11.92"/><rect class="cls-1" x="2082.87" y="200.16" width="3.53" height="11.92"/><rect class="cls-3" x="2091.31" y="200.16" width="8.76" height="11.92"/><rect class="cls-1" x="2100.07" y="200.16" width="3.53" height="11.92"/><rect class="cls-3" x="2109.78" y="200.16" width="8.76" height="11.92"/><rect class="cls-1" x="2118.54" y="200.16" width="3.53" height="11.92"/><rect class="cls-3" x="2127.62" y="200.16" width="8.76" height="11.92"/><rect class="cls-1" x="2136.38" y="200.16" width="3.53" height="11.92"/><rect class="cls-3" x="2145.46" y="200.16" width="8.76" height="11.92"/><rect class="cls-1" x="2154.21" y="200.16" width="3.53" height="11.92"/><rect class="cls-3" x="2038.44" y="82.49" width="8.76" height="11.92"/><rect class="cls-1" x="2047.2" y="82.49" width="3.53" height="11.92"/><rect class="cls-3" x="2055.84" y="82.49" width="8.76" height="11.92"/><rect class="cls-1" x="2064.6" y="82.49" width="3.53" height="11.92"/><rect class="cls-3" x="2074.11" y="82.49" width="8.76" height="11.92"/><rect class="cls-1" x="2082.87" y="82.49" width="3.53" height="11.92"/><rect class="cls-3" x="2091.31" y="82.49" width="8.76" height="11.92"/><rect class="cls-1" x="2100.07" y="82.49" width="3.53" height="11.92"/><rect class="cls-3" x="2109.78" y="82.49" width="8.76" height="11.92"/><rect class="cls-1" x="2118.54" y="82.49" width="3.53" height="11.92"/><rect class="cls-3" x="2127.62" y="82.49" width="8.76" height="11.92"/><rect class="cls-1" x="2136.38" y="82.49" width="3.53" height="11.92"/><rect class="cls-3" x="2145.46" y="82.49" width="8.76" height="11.92"/><rect class="cls-1" x="2154.21" y="82.49" width="3.53" height="11.92"/><rect class="cls-3" x="2038.44" y="99.3" width="8.76" height="11.92"/><rect class="cls-1" x="2047.2" y="99.3" width="3.53" height="11.92"/><rect class="cls-3" x="2055.84" y="99.3" width="8.76" height="11.92"/><rect class="cls-1" x="2064.6" y="99.3" width="3.53" height="11.92"/><rect class="cls-3" x="2074.11" y="99.3" width="8.76" height="11.92"/><rect class="cls-1" x="2082.87" y="99.3" width="3.53" height="11.92"/><rect class="cls-3" x="2091.31" y="99.3" width="8.76" height="11.92"/><rect class="cls-1" x="2100.07" y="99.3" width="3.53" height="11.92"/><rect class="cls-3" x="2109.78" y="99.3" width="8.76" height="11.92"/><rect class="cls-1" x="2118.54" y="99.3" width="3.53" height="11.92"/><rect class="cls-3" x="2127.62" y="99.3" width="8.76" height="11.92"/><rect class="cls-1" x="2136.38" y="99.3" width="3.53" height="11.92"/><rect class="cls-3" x="2145.46" y="99.3" width="8.76" height="11.92"/><rect class="cls-1" x="2154.21" y="99.3" width="3.53" height="11.92"/><rect class="cls-3" x="2038.44" y="116.11" width="8.76" height="11.92"/><rect class="cls-1" x="2047.2" y="116.11" width="3.53" height="11.92"/><rect class="cls-3" x="2055.84" y="116.11" width="8.76" height="11.92"/><rect class="cls-1" x="2064.6" y="116.11" width="3.53" height="11.92"/><rect class="cls-3" x="2074.11" y="116.11" width="8.76" height="11.92"/><rect class="cls-1" x="2082.87" y="116.11" width="3.53" height="11.92"/><rect class="cls-3" x="2091.31" y="116.11" width="8.76" height="11.92"/><rect class="cls-1" x="2100.07" y="116.11" width="3.53" height="11.92"/><rect class="cls-3" x="2109.78" y="116.11" width="8.76" height="11.92"/><rect class="cls-1" x="2118.54" y="116.11" width="3.53" height="11.92"/><rect class="cls-3" x="2127.62" y="116.11" width="8.76" height="11.92"/><rect class="cls-1" x="2136.38" y="116.11" width="3.53" height="11.92"/><rect class="cls-3" x="2145.46" y="116.11" width="8.76" height="11.92"/><rect class="cls-1" x="2154.21" y="116.11" width="3.53" height="11.92"/><rect class="cls-3" x="2038.44" y="183.35" width="8.76" height="11.92"/><rect class="cls-1" x="2047.2" y="183.35" width="3.53" height="11.92"/><rect class="cls-3" x="2055.84" y="183.35" width="8.76" height="11.92"/><rect class="cls-1" x="2064.6" y="183.35" width="3.53" height="11.92"/><rect class="cls-3" x="2074.11" y="183.35" width="8.76" height="11.92"/><rect class="cls-1" x="2082.87" y="183.35" width="3.53" height="11.92"/><rect class="cls-3" x="2091.31" y="183.35" width="8.76" height="11.92"/><rect class="cls-1" x="2100.07" y="183.35" width="3.53" height="11.92"/><rect class="cls-3" x="2109.78" y="183.35" width="8.76" height="11.92"/><rect class="cls-1" x="2118.54" y="183.35" width="3.53" height="11.92"/><rect class="cls-3" x="2127.62" y="183.35" width="8.76" height="11.92"/><rect class="cls-1" x="2136.38" y="183.35" width="3.53" height="11.92"/><rect class="cls-3" x="2145.46" y="183.35" width="8.76" height="11.92"/><rect class="cls-1" x="2154.21" y="183.35" width="3.53" height="11.92"/><rect class="cls-3" x="2038.44" y="166.54" width="8.76" height="11.92"/><rect class="cls-1" x="2047.2" y="166.54" width="3.53" height="11.92"/><rect class="cls-3" x="2055.84" y="166.54" width="8.76" height="11.92"/><rect class="cls-1" x="2064.6" y="166.54" width="3.53" height="11.92"/><rect class="cls-3" x="2074.11" y="166.54" width="8.76" height="11.92"/><rect class="cls-1" x="2082.87" y="166.54" width="3.53" height="11.92"/><rect class="cls-3" x="2091.31" y="166.54" width="8.76" height="11.92"/><rect class="cls-1" x="2100.07" y="166.54" width="3.53" height="11.92"/><rect class="cls-3" x="2109.78" y="166.54" width="8.76" height="11.92"/><rect class="cls-1" x="2118.54" y="166.54" width="3.53" height="11.92"/><rect class="cls-3" x="2127.62" y="166.54" width="8.76" height="11.92"/><rect class="cls-1" x="2136.38" y="166.54" width="3.53" height="11.92"/><rect class="cls-3" x="2145.46" y="166.54" width="8.76" height="11.92"/><rect class="cls-1" x="2154.21" y="166.54" width="3.53" height="11.92"/><rect class="cls-3" x="2038.44" y="149.73" width="8.76" height="11.92"/><rect class="cls-1" x="2047.2" y="149.73" width="3.53" height="11.92"/><rect class="cls-3" x="2055.84" y="149.73" width="8.76" height="11.92"/><rect class="cls-1" x="2064.6" y="149.73" width="3.53" height="11.92"/><rect class="cls-3" x="2074.11" y="149.73" width="8.76" height="11.92"/><rect class="cls-1" x="2082.87" y="149.73" width="3.53" height="11.92"/><rect class="cls-3" x="2091.31" y="149.73" width="8.76" height="11.92"/><rect class="cls-1" x="2100.07" y="149.73" width="3.53" height="11.92"/><rect class="cls-3" x="2109.78" y="149.73" width="8.76" height="11.92"/><rect class="cls-1" x="2118.54" y="149.73" width="3.53" height="11.92"/><rect class="cls-3" x="2127.62" y="149.73" width="8.76" height="11.92"/><rect class="cls-1" x="2136.38" y="149.73" width="3.53" height="11.92"/><rect class="cls-3" x="2145.46" y="149.73" width="8.76" height="11.92"/><rect class="cls-1" x="2154.21" y="149.73" width="3.53" height="11.92"/><rect class="cls-3" x="2038.44" y="132.92" width="8.76" height="11.92"/><rect class="cls-1" x="2047.2" y="132.92" width="3.53" height="11.92"/><rect class="cls-3" x="2055.84" y="132.92" width="8.76" height="11.92"/><rect class="cls-1" x="2064.6" y="132.92" width="3.53" height="11.92"/><rect class="cls-3" x="2074.11" y="132.92" width="8.76" height="11.92"/><rect class="cls-1" x="2082.87" y="132.92" width="3.53" height="11.92"/><rect class="cls-3" x="2091.31" y="132.92" width="8.76" height="11.92"/><rect class="cls-1" x="2100.07" y="132.92" width="3.53" height="11.92"/><rect class="cls-3" x="2109.78" y="132.92" width="8.76" height="11.92"/><rect class="cls-1" x="2118.54" y="132.92" width="3.53" height="11.92"/><rect class="cls-3" x="2127.62" y="132.92" width="8.76" height="11.92"/><rect class="cls-1" x="2136.38" y="132.92" width="3.53" height="11.92"/><rect class="cls-3" x="2145.46" y="132.92" width="8.76" height="11.92"/><rect class="cls-1" x="2154.21" y="132.92" width="3.53" height="11.92"/><rect class="cls-3" x="2038.44" y="65.68" width="8.76" height="11.92"/><rect class="cls-1" x="2047.2" y="65.68" width="3.53" height="11.92"/><rect class="cls-3" x="2055.84" y="65.68" width="8.76" height="11.92"/><rect class="cls-1" x="2064.6" y="65.68" width="3.53" height="11.92"/><rect class="cls-3" x="2074.11" y="65.68" width="8.76" height="11.92"/><rect class="cls-1" x="2082.87" y="65.68" width="3.53" height="11.92"/><rect class="cls-3" x="2091.31" y="65.68" width="8.76" height="11.92"/><rect class="cls-1" x="2100.07" y="65.68" width="3.53" height="11.92"/><rect class="cls-3" x="2109.78" y="65.68" width="8.76" height="11.92"/><rect class="cls-1" x="2118.54" y="65.68" width="3.53" height="11.92"/><rect class="cls-3" x="2127.62" y="65.68" width="8.76" height="11.92"/><rect class="cls-1" x="2136.38" y="65.68" width="3.53" height="11.92"/><rect class="cls-3" x="2145.46" y="65.68" width="8.76" height="11.92"/><rect class="cls-1" x="2154.21" y="65.68" width="3.53" height="11.92"/><rect class="cls-3" x="2038.44" y="216.97" width="8.76" height="11.92"/><rect class="cls-1" x="2047.2" y="216.97" width="3.53" height="11.92"/><rect class="cls-3" x="2055.84" y="216.97" width="8.76" height="11.92"/><rect class="cls-1" x="2064.6" y="216.97" width="3.53" height="11.92"/><rect class="cls-3" x="2074.11" y="216.97" width="8.76" height="11.92"/><rect class="cls-1" x="2082.87" y="216.97" width="3.53" height="11.92"/><rect class="cls-3" x="2091.31" y="216.97" width="8.76" height="11.92"/><rect class="cls-1" x="2100.07" y="216.97" width="3.53" height="11.92"/><rect class="cls-3" x="2109.78" y="216.97" width="8.76" height="11.92"/><rect class="cls-1" x="2118.54" y="216.97" width="3.53" height="11.92"/><rect class="cls-3" x="2127.62" y="216.97" width="8.76" height="11.92"/><rect class="cls-1" x="2136.38" y="216.97" width="3.53" height="11.92"/><rect class="cls-3" x="2145.46" y="216.97" width="8.76" height="11.92"/><rect class="cls-1" x="2154.21" y="216.97" width="3.53" height="11.92"/><rect class="cls-3" x="2038.44" y="367.76" width="8.76" height="11.92"/><rect class="cls-1" x="2047.2" y="367.76" width="3.53" height="11.92"/><rect class="cls-3" x="2055.84" y="367.76" width="8.76" height="11.92"/><rect class="cls-1" x="2064.6" y="367.76" width="3.53" height="11.92"/><rect class="cls-3" x="2074.11" y="367.76" width="8.76" height="11.92"/><rect class="cls-1" x="2082.87" y="367.76" width="3.53" height="11.92"/><rect class="cls-3" x="2091.31" y="367.76" width="8.76" height="11.92"/><rect class="cls-1" x="2100.07" y="367.76" width="3.53" height="11.92"/><rect class="cls-3" x="2109.78" y="367.76" width="8.76" height="11.92"/><rect class="cls-1" x="2118.54" y="367.76" width="3.53" height="11.92"/><rect class="cls-3" x="2127.62" y="367.76" width="8.76" height="11.92"/><rect class="cls-1" x="2136.38" y="367.76" width="3.53" height="11.92"/><rect class="cls-3" x="2145.46" y="367.76" width="8.76" height="11.92"/><rect class="cls-1" x="2154.21" y="367.76" width="3.53" height="11.92"/><rect class="cls-3" x="2038.44" y="250.09" width="8.76" height="11.92"/><rect class="cls-1" x="2047.2" y="250.09" width="3.53" height="11.92"/><rect class="cls-3" x="2055.84" y="250.09" width="8.76" height="11.92"/><rect class="cls-1" x="2064.6" y="250.09" width="3.53" height="11.92"/><rect class="cls-3" x="2074.11" y="250.09" width="8.76" height="11.92"/><rect class="cls-1" x="2082.87" y="250.09" width="3.53" height="11.92"/><rect class="cls-3" x="2091.31" y="250.09" width="8.76" height="11.92"/><rect class="cls-1" x="2100.07" y="250.09" width="3.53" height="11.92"/><rect class="cls-3" x="2109.78" y="250.09" width="8.76" height="11.92"/><rect class="cls-1" x="2118.54" y="250.09" width="3.53" height="11.92"/><rect class="cls-3" x="2127.62" y="250.09" width="8.76" height="11.92"/><rect class="cls-1" x="2136.38" y="250.09" width="3.53" height="11.92"/><rect class="cls-3" x="2145.46" y="250.09" width="8.76" height="11.92"/><rect class="cls-1" x="2154.21" y="250.09" width="3.53" height="11.92"/><rect class="cls-3" x="2038.44" y="266.9" width="8.76" height="11.92"/><rect class="cls-1" x="2047.2" y="266.9" width="3.53" height="11.92"/><rect class="cls-3" x="2055.84" y="266.9" width="8.76" height="11.92"/><rect class="cls-1" x="2064.6" y="266.9" width="3.53" height="11.92"/><rect class="cls-3" x="2074.11" y="266.9" width="8.76" height="11.92"/><rect class="cls-1" x="2082.87" y="266.9" width="3.53" height="11.92"/><rect class="cls-3" x="2091.31" y="266.9" width="8.76" height="11.92"/><rect class="cls-1" x="2100.07" y="266.9" width="3.53" height="11.92"/><rect class="cls-3" x="2109.78" y="266.9" width="8.76" height="11.92"/><rect class="cls-1" x="2118.54" y="266.9" width="3.53" height="11.92"/><rect class="cls-3" x="2127.62" y="266.9" width="8.76" height="11.92"/><rect class="cls-1" x="2136.38" y="266.9" width="3.53" height="11.92"/><rect class="cls-3" x="2145.46" y="266.9" width="8.76" height="11.92"/><rect class="cls-1" x="2154.21" y="266.9" width="3.53" height="11.92"/><rect class="cls-3" x="2038.44" y="283.71" width="8.76" height="11.92"/><rect class="cls-1" x="2047.2" y="283.71" width="3.53" height="11.92"/><rect class="cls-3" x="2055.84" y="283.71" width="8.76" height="11.92"/><rect class="cls-1" x="2064.6" y="283.71" width="3.53" height="11.92"/><rect class="cls-3" x="2074.11" y="283.71" width="8.76" height="11.92"/><rect class="cls-1" x="2082.87" y="283.71" width="3.53" height="11.92"/><rect class="cls-3" x="2091.31" y="283.71" width="8.76" height="11.92"/><rect class="cls-1" x="2100.07" y="283.71" width="3.53" height="11.92"/><rect class="cls-3" x="2109.78" y="283.71" width="8.76" height="11.92"/><rect class="cls-1" x="2118.54" y="283.71" width="3.53" height="11.92"/><rect class="cls-3" x="2127.62" y="283.71" width="8.76" height="11.92"/><rect class="cls-1" x="2136.38" y="283.71" width="3.53" height="11.92"/><rect class="cls-3" x="2145.46" y="283.71" width="8.76" height="11.92"/><rect class="cls-1" x="2154.21" y="283.71" width="3.53" height="11.92"/><rect class="cls-3" x="2038.44" y="350.95" width="8.76" height="11.92"/><rect class="cls-1" x="2047.2" y="350.95" width="3.53" height="11.92"/><rect class="cls-3" x="2055.84" y="350.95" width="8.76" height="11.92"/><rect class="cls-1" x="2064.6" y="350.95" width="3.53" height="11.92"/><rect class="cls-3" x="2074.11" y="350.95" width="8.76" height="11.92"/><rect class="cls-1" x="2082.87" y="350.95" width="3.53" height="11.92"/><rect class="cls-3" x="2091.31" y="350.95" width="8.76" height="11.92"/><rect class="cls-1" x="2100.07" y="350.95" width="3.53" height="11.92"/><rect class="cls-3" x="2109.78" y="350.95" width="8.76" height="11.92"/><rect class="cls-1" x="2118.54" y="350.95" width="3.53" height="11.92"/><rect class="cls-3" x="2127.62" y="350.95" width="8.76" height="11.92"/><rect class="cls-1" x="2136.38" y="350.95" width="3.53" height="11.92"/><rect class="cls-3" x="2145.46" y="350.95" width="8.76" height="11.92"/><rect class="cls-1" x="2154.21" y="350.95" width="3.53" height="11.92"/><rect class="cls-3" x="2038.44" y="334.14" width="8.76" height="11.92"/><rect class="cls-1" x="2047.2" y="334.14" width="3.53" height="11.92"/><rect class="cls-3" x="2055.84" y="334.14" width="8.76" height="11.92"/><rect class="cls-1" x="2064.6" y="334.14" width="3.53" height="11.92"/><rect class="cls-3" x="2074.11" y="334.14" width="8.76" height="11.92"/><rect class="cls-1" x="2082.87" y="334.14" width="3.53" height="11.92"/><rect class="cls-3" x="2091.31" y="334.14" width="8.76" height="11.92"/><rect class="cls-1" x="2100.07" y="334.14" width="3.53" height="11.92"/><rect class="cls-3" x="2109.78" y="334.14" width="8.76" height="11.92"/><rect class="cls-1" x="2118.54" y="334.14" width="3.53" height="11.92"/><rect class="cls-3" x="2127.62" y="334.14" width="8.76" height="11.92"/><rect class="cls-1" x="2136.38" y="334.14" width="3.53" height="11.92"/><rect class="cls-3" x="2145.46" y="334.14" width="8.76" height="11.92"/><rect class="cls-1" x="2154.21" y="334.14" width="3.53" height="11.92"/><rect class="cls-3" x="2038.44" y="317.33" width="8.76" height="11.92"/><rect class="cls-1" x="2047.2" y="317.33" width="3.53" height="11.92"/><rect class="cls-3" x="2055.84" y="317.33" width="8.76" height="11.92"/><rect class="cls-1" x="2064.6" y="317.33" width="3.53" height="11.92"/><rect class="cls-3" x="2074.11" y="317.33" width="8.76" height="11.92"/><rect class="cls-1" x="2082.87" y="317.33" width="3.53" height="11.92"/><rect class="cls-3" x="2091.31" y="317.33" width="8.76" height="11.92"/><rect class="cls-1" x="2100.07" y="317.33" width="3.53" height="11.92"/><rect class="cls-3" x="2109.78" y="317.33" width="8.76" height="11.92"/><rect class="cls-1" x="2118.54" y="317.33" width="3.53" height="11.92"/><rect class="cls-3" x="2127.62" y="317.33" width="8.76" height="11.92"/><rect class="cls-1" x="2136.38" y="317.33" width="3.53" height="11.92"/><rect class="cls-3" x="2145.46" y="317.33" width="8.76" height="11.92"/><rect class="cls-1" x="2154.21" y="317.33" width="3.53" height="11.92"/><rect class="cls-3" x="2038.44" y="300.52" width="8.76" height="11.92"/><rect class="cls-1" x="2047.2" y="300.52" width="3.53" height="11.92"/><rect class="cls-3" x="2055.84" y="300.52" width="8.76" height="11.92"/><rect class="cls-1" x="2064.6" y="300.52" width="3.53" height="11.92"/><rect class="cls-3" x="2074.11" y="300.52" width="8.76" height="11.92"/><rect class="cls-1" x="2082.87" y="300.52" width="3.53" height="11.92"/><rect class="cls-3" x="2091.31" y="300.52" width="8.76" height="11.92"/><rect class="cls-1" x="2100.07" y="300.52" width="3.53" height="11.92"/><rect class="cls-3" x="2109.78" y="300.52" width="8.76" height="11.92"/><rect class="cls-1" x="2118.54" y="300.52" width="3.53" height="11.92"/><rect class="cls-3" x="2127.62" y="300.52" width="8.76" height="11.92"/><rect class="cls-1" x="2136.38" y="300.52" width="3.53" height="11.92"/><rect class="cls-3" x="2145.46" y="300.52" width="8.76" height="11.92"/><rect class="cls-1" x="2154.21" y="300.52" width="3.53" height="11.92"/><rect class="cls-3" x="2038.44" y="233.28" width="8.76" height="11.92"/><rect class="cls-1" x="2047.2" y="233.28" width="3.53" height="11.92"/><rect class="cls-3" x="2055.84" y="233.28" width="8.76" height="11.92"/><rect class="cls-1" x="2064.6" y="233.28" width="3.53" height="11.92"/><rect class="cls-3" x="2074.11" y="233.28" width="8.76" height="11.92"/><rect class="cls-1" x="2082.87" y="233.28" width="3.53" height="11.92"/><rect class="cls-3" x="2091.31" y="233.28" width="8.76" height="11.92"/><rect class="cls-1" x="2100.07" y="233.28" width="3.53" height="11.92"/><rect class="cls-3" x="2109.78" y="233.28" width="8.76" height="11.92"/><rect class="cls-1" x="2118.54" y="233.28" width="3.53" height="11.92"/><rect class="cls-3" x="2127.62" y="233.28" width="8.76" height="11.92"/><rect class="cls-1" x="2136.38" y="233.28" width="3.53" height="11.92"/><rect class="cls-3" x="2145.46" y="233.28" width="8.76" height="11.92"/><rect class="cls-1" x="2154.21" y="233.28" width="3.53" height="11.92"/><rect class="cls-3" x="2038.44" y="384.57" width="8.76" height="11.92"/><rect class="cls-1" x="2047.2" y="384.57" width="3.53" height="11.92"/><rect class="cls-3" x="2055.84" y="384.57" width="8.76" height="11.92"/><rect class="cls-1" x="2064.6" y="384.57" width="3.53" height="11.92"/><rect class="cls-3" x="2074.11" y="384.57" width="8.76" height="11.92"/><rect class="cls-1" x="2082.87" y="384.57" width="3.53" height="11.92"/><rect class="cls-3" x="2091.31" y="384.57" width="8.76" height="11.92"/><rect class="cls-1" x="2100.07" y="384.57" width="3.53" height="11.92"/><rect class="cls-3" x="2109.78" y="384.57" width="8.76" height="11.92"/><rect class="cls-1" x="2118.54" y="384.57" width="3.53" height="11.92"/><rect class="cls-3" x="2127.62" y="384.57" width="8.76" height="11.92"/><rect class="cls-1" x="2136.38" y="384.57" width="3.53" height="11.92"/><rect class="cls-3" x="2145.46" y="384.57" width="8.76" height="11.92"/><rect class="cls-1" x="2154.21" y="384.57" width="3.53" height="11.92"/><rect class="cls-3" x="2037.47" y="32.34" width="117.53" height="25.86"/><rect class="cls-1" x="2019.63" y="32.34" width="19.49" height="25.86"/><rect class="cls-6" x="2062.75" y="39.31" width="8.76" height="11.92"/><rect class="cls-1" x="2071.51" y="39.31" width="3.53" height="11.92"/><rect class="cls-6" x="2045.35" y="39.31" width="8.76" height="11.92"/><rect class="cls-1" x="2054.1" y="39.31" width="3.53" height="11.92"/><rect class="cls-6" x="2081.02" y="39.31" width="8.76" height="11.92"/><rect class="cls-1" x="2089.77" y="39.31" width="3.53" height="11.92"/><rect class="cls-6" x="2098.22" y="39.31" width="8.76" height="11.92"/><rect class="cls-1" x="2106.97" y="39.31" width="3.53" height="11.92"/><rect class="cls-6" x="2116.69" y="39.31" width="8.76" height="11.92"/><rect class="cls-1" x="2125.45" y="39.31" width="3.53" height="11.92"/><rect class="cls-6" x="2134.53" y="39.31" width="8.76" height="11.92"/><rect class="cls-1" x="2143.28" y="39.31" width="3.53" height="11.92"/><path class="cls-1" d="M2020,6.47h12a0,0,0,0,1,0,0V32.34a0,0,0,0,1,0,0h-12a12.68,12.68,0,0,1-12.68-12.68v-.5A12.68,12.68,0,0,1,2020,6.47Z"/><path class="cls-5" d="M2032,6.47h125.15a7.08,7.08,0,0,1,7.08,7.08v11.7a7.08,7.08,0,0,1-7.08,7.08H2032a0,0,0,0,1,0,0V6.47A0,0,0,0,1,2032,6.47Z"/><rect class="cls-3" x="2038.44" y="12.94" width="8.76" height="11.92"/><rect class="cls-1" x="2047.2" y="12.94" width="3.53" height="11.92"/><rect class="cls-3" x="2055.84" y="12.94" width="8.76" height="11.92"/><rect class="cls-1" x="2064.6" y="12.94" width="3.53" height="11.92"/><rect class="cls-3" x="2074.11" y="12.94" width="8.76" height="11.92"/><rect class="cls-1" x="2082.87" y="12.94" width="3.53" height="11.92"/><rect class="cls-3" x="2091.31" y="12.94" width="8.76" height="11.92"/><rect class="cls-1" x="2100.07" y="12.94" width="3.53" height="11.92"/><rect class="cls-3" x="2109.78" y="12.94" width="8.76" height="11.92"/><rect class="cls-1" x="2118.54" y="12.94" width="3.53" height="11.92"/><rect class="cls-3" x="2127.62" y="12.94" width="8.76" height="11.92"/><rect class="cls-1" x="2136.38" y="12.94" width="3.53" height="11.92"/><rect class="cls-3" x="2145.46" y="12.94" width="8.76" height="11.92"/><rect class="cls-1" x="2154.21" y="12.94" width="3.53" height="11.92"/><ellipse class="cls-1" cx="724.18" cy="155.18" rx="27.95" ry="13.48"/><ellipse class="cls-3" cx="731.68" cy="153.41" rx="27.95" ry="13.48"/><path class="cls-1" d="M708.27,155.18c-88.72,0-204.06,62.65-216.41,117.58H921.65C909.11,217.43,798.68,155.18,708.27,155.18Z"/><path class="cls-3" d="M718.84,155.18c-88.72,0-204.06,62.65-216.41,117.58H932.23C919.69,217.43,809.25,155.18,718.84,155.18Z"/><path class="cls-7" d="M895.4,323.59"/><polygon class="cls-8" points="573.06 330.74 570.61 329.19 572.13 327.07 574.59 328.62 573.06 330.74"/><path class="cls-1" d="M527.08,272.47H492.39l-9.15,37.9a11.24,11.24,0,0,0,10.75,14h14a11.13,11.13,0,0,0,10.86-9.11Z"/><path class="cls-3" d="M537.37,272.47H502.68l-9.15,37.9a11.24,11.24,0,0,0,10.75,14h14a11.13,11.13,0,0,0,10.86-9.11Z"/><path class="cls-1" d="M888.48,272.47h34.69l9.48,39.25a10.15,10.15,0,0,1-9.71,12.63H906.71a10.05,10.05,0,0,1-9.81-8.23Z"/><path class="cls-3" d="M898.31,272.47H933l9.48,39.25a10.15,10.15,0,0,1-9.71,12.63H916.54a10.05,10.05,0,0,1-9.81-8.23Z"/><polygon class="cls-1" points="829.26 272.47 863.95 272.47 876.47 324.35 839.27 324.35 829.26 272.47"/><path class="cls-3" d="M839.09,272.47h34.69l9,37.31a11.71,11.71,0,0,1-11.2,14.57H849.09Z"/><path class="cls-1" d="M585.32,272.47H550.64l-8.76,36.3a12.52,12.52,0,0,0,12,15.58h21.47Z"/><path class="cls-3" d="M595.62,272.47H560.93l-8.76,36.3a12.52,12.52,0,0,0,12,15.58h21.47Z"/><ellipse class="cls-1" cx="729.46" cy="348.99" rx="152.69" ry="38.05"/><ellipse class="cls-2" cx="729.98" cy="340.26" rx="143.79" ry="33.52"/><path class="cls-3" d="M692.13,259.41h12.19a0,0,0,0,1,0,0v72.32a0,0,0,0,1,0,0h-6.65a5.54,5.54,0,0,1-5.54-5.54V259.41A0,0,0,0,1,692.13,259.41Z"/><path class="cls-3" d="M752.13,259.41h12.19a0,0,0,0,1,0,0v65.75a6.57,6.57,0,0,1-6.57,6.57h-5.62a0,0,0,0,1,0,0V259.41A0,0,0,0,1,752.13,259.41Z"/><path class="cls-1" d="M595.1,330.47,697,256.62c2.92-1.78,7.45-20.33,7.45-23.56l.08,0c3.41,1.22,5.79-3.18,2.74-5.05-10.45-6.45-3.26-5.06-11.29-12.66l-58.1,11c-24.61-2.94-42.09,5.48-48.06,27.56L573,316.18C569.76,328,584.07,337.21,595.1,330.47Z"/><path class="cls-2" d="M856.57,331.69,754.72,257.84c-2.92-1.78-7.45-20.33-7.45-23.56l-.08,0c-3.41,1.22-5.79-3.18-2.74-5.05,10.45-6.45-5.93-5.9,2.1-13.5l67.3,11.88c24.61-2.94,42.09,5.48,48.06,27.56l16.82,62.21C881.91,329.21,867.61,338.43,856.57,331.69Z"/><path class="cls-2" d="M605,330.85,706.85,257c2.92-1.78,7.45-20.33,7.45-23.56l.08,0c3.41,1.22,5.79-3.18,2.74-5.05-10.45-6.45-3.26-5.06-11.29-12.66l-58.1,11c-24.61-2.94-42.09,5.48-48.06,27.56l-16.82,62.21C579.66,328.36,594,337.59,605,330.85Z"/><rect class="cls-1" x="747.24" y="259.41" width="5.75" height="72.32"/><path class="cls-1" d="M581,110.47l123.49,76.74v5.71c0,17.46-13.9,32.22-32.47,34.47l-38.5,4.67c-26.72,3.24-51.81-12.73-58.29-37.12L557,126.25C553.52,113.22,569.06,103,581,110.47Z"/><path class="cls-2" d="M591.09,110.55l123.49,76.74v23.17c0,17.46-13.9,14.75-32.47,17l-38.5,4.67c-26.72,3.24-51.81-12.73-58.29-37.12L567,126.32C563.58,113.29,579.11,103.11,591.09,110.55Z"/><path class="cls-2" d="M869.87,114,746.39,190.76v5.71c2,31.43,13.9,32.22,32.47,34.47l38.5,4.67c26.72,3.24,51.81-12.73,58.29-37.12l18.27-68.7C897.39,116.76,881.85,106.58,869.87,114Z"/><ellipse class="cls-1" cx="723.32" cy="225.8" rx="16.06" ry="54.43"/><ellipse class="cls-2" cx="732.82" cy="225.8" rx="16.06" ry="54.43"/><rect class="cls-2" x="704.32" y="259.41" width="42.95" height="38.17"/><rect class="cls-2" x="704.32" y="297.58" width="42.95" height="34.15"/><rect class="cls-2" x="708.23" y="304.2" width="34.28" height="21.27"/><rect class="cls-2" x="708.76" y="265.81" width="34.28" height="21.27"/><ellipse class="cls-2" cx="734.16" cy="287.69" rx="3.83" ry="3.64"/><path class="cls-4" d="M614,67c57.38,0,107,45.35,107,84.08h17c0-38.73,46.57-85.56,104-85.56"/><path class="cls-1" d="M706.11,157c0,10.8,7.71,19.55,18.81,19.55S745,167.79,745,157s-9-19.55-20.11-19.55S706.11,146.19,706.11,157Z"/><path class="cls-2" d="M714.06,157c0,10.8,7.71,19.55,18.81,19.55S753,167.79,753,157s-9-19.55-20.11-19.55S714.06,146.19,714.06,157Z"/><polygon class="cls-3" points="978.07 238.23 1041.15 238.23 1014.12 114.31 934.21 158.2 978.07 238.23"/><polygon class="cls-3" points="1215.73 238.26 1155.13 238.26 1181.2 114.31 1262.08 158.23 1215.73 238.26"/><polygon class="cls-3" points="1155.28 238.3 1040.62 238.3 1014.12 114.31 1181.2 114.31 1155.28 238.3"/><rect class="cls-1" x="1116.39" y="148" width="21.32" height="81.77"/><rect class="cls-1" x="1059.06" y="148" width="21.32" height="82.29"/><rect class="cls-2" x="1121" y="148" width="16.71" height="81.77"/><rect class="cls-2" x="1063.67" y="147.63" width="16.71" height="82.14"/><polygon class="cls-1" points="992.75 164.98 1005.87 229.77 1022.37 229.77 1005.65 161.63 992.75 164.98"/><polygon class="cls-2" points="998.24 163.22 1011.82 229.77 1026.8 229.77 1011.17 159.97 998.24 163.22"/><polygon class="cls-1" points="1193.95 163.68 1188.81 230.07 1168.07 229.77 1182.38 161.23 1193.95 163.68"/><polygon class="cls-2" points="1201.25 166.1 1188.81 230.07 1173.94 230.07 1187.59 162.33 1201.25 166.1"/><polygon class="cls-1" points="1242.96 329.84 944.52 329.84 975.32 257.1 1212.42 257.1 1242.96 329.84"/><polygon class="cls-3" points="1248.91 329.84 950.46 329.84 979.85 260.17 1218.37 257.1 1248.91 329.84"/><rect class="cls-1" x="973.9" y="238.23" width="239.68" height="22.68"/><rect class="cls-2" x="979.85" y="238.23" width="239.68" height="22.68"/><rect class="cls-1" x="1053.23" y="275.5" width="99.14" height="54.33"/><rect class="cls-2" x="1057.63" y="275.5" width="94.79" height="54.11"/><polygon class="cls-1" points="1005.41 315.81 990 315.81 1005.41 279.01 1018.04 279.01 1005.41 315.81"/><polygon class="cls-2" points="1009.28 315.81 993.87 315.81 1009.28 279.01 1021.91 279.01 1009.28 315.81"/><polygon class="cls-1" points="1188.59 315.81 1204.01 315.81 1188.59 279.01 1175.97 279.01 1188.59 315.81"/><polygon class="cls-2" points="1192.86 315.81 1208.27 315.81 1192.86 279.01 1180.23 279.01 1192.86 315.81"/><rect class="cls-1" x="1115.1" y="295.94" width="27.94" height="8.94"/><rect class="cls-2" x="1118.41" y="295.94" width="24.63" height="8.94"/><path class="cls-2" d="M929.2,161.63l-13.78-21A9.71,9.71,0,0,1,918.61,127l87.32-51.32,8.19,38.66Z"/><path class="cls-2" d="M1266.13,162.33l13.78-21a9.71,9.71,0,0,0-3.19-13.71l-87.32-51.32L1181.2,115Z"/><polygon class="cls-2" points="1005.93 75.65 1189.39 75.65 1181.2 115.01 1014.12 114.31 1005.93 75.65"/><path class="cls-1" d="M929.2,161.63h0a5.09,5.09,0,0,0,6.85,1.84l79.17-44.14-1.1-5Z"/><polygon class="cls-1" points="1015.22 119.33 1180.15 119.33 1181.2 115.01 1014.12 114.31 1015.22 119.33"/><path class="cls-1" d="M1180.15,120l78,44.24a6,6,0,0,0,8-1.95h0L1181.2,115Z"/><circle class="cls-3" cx="924.39" cy="400.47" r="10.4"/><circle class="cls-1" cx="929.67" cy="395.81" r="23.5"/><circle class="cls-3" cx="924.39" cy="395.8" r="23.5"/><circle class="cls-1" cx="924.39" cy="395.8" r="10.4"/><path class="cls-3" d="M927.58,385.91a10.39,10.39,0,1,0,7.2,9.89A10.4,10.4,0,0,0,927.58,385.91Z"/><circle class="cls-1" cx="1058.43" cy="395.81" r="23.5"/><circle class="cls-3" cx="1053.15" cy="395.8" r="23.5"/><circle class="cls-1" cx="1053.15" cy="395.8" r="10.4"/><path class="cls-3" d="M1056.34,385.91a10.39,10.39,0,1,0,7.2,9.89A10.4,10.4,0,0,0,1056.34,385.91Z"/><circle class="cls-1" cx="1189.19" cy="395.81" r="23.5"/><circle class="cls-3" cx="1183.91" cy="395.8" r="23.5"/><circle class="cls-1" cx="1183.91" cy="395.8" r="10.4"/><path class="cls-3" d="M1180.78,385.89a10.4,10.4,0,1,0,7.27,9.92A10.4,10.4,0,0,0,1180.78,385.89Z"/><path class="cls-3" d="M1152,244.14H871.77a19.16,19.16,0,0,0-19.16,19.16V374.07a24,24,0,0,0,24,24h15.57a30,30,0,0,1,59.78,0h67.29a30,30,0,0,1,59.78,0h68.11a24,24,0,0,0,24-24V263.3A19.16,19.16,0,0,0,1152,244.14Z"/><rect class="cls-2" x="858.28" y="251.56" width="193" height="69.54" rx="13.15" ry="13.15"/><path class="cls-2" d="M1115.65,374.07V263.3a19.16,19.16,0,0,1,19.16-19.16h-8.07a19.16,19.16,0,0,0-19.16,19.16V374.07a24,24,0,0,0,24,24h8.07A24,24,0,0,1,1115.65,374.07Z"/><path class="cls-3" d="M1134.8,244.14h115.61a19.16,19.16,0,0,1,19.16,19.16V374.07a24,24,0,0,1-24,24H1139.65a24,24,0,0,1-24-24V263.3A19.16,19.16,0,0,1,1134.8,244.14Z"/><path class="cls-3" d="M1245.58,398.07H1139.65a24,24,0,0,1-23.51-19.16c-.32-1.56,153.28-1.62,153-.09A24,24,0,0,1,1245.58,398.07Z"/><path class="cls-2" d="M1249.38,364.72H1135.84a6,6,0,0,1-5.88-4.83l-3.88-19.67a6,6,0,0,1,5.88-7.15h121.29a6,6,0,0,1,5.88,7.15l-3.88,19.67A6,6,0,0,1,1249.38,364.72Z"/><path class="cls-3" d="M1133.45,250.58h118.33a10.73,10.73,0,0,1,10.73,10.73V312.9a15.57,15.57,0,0,1-15.57,15.57H1138.29a15.57,15.57,0,0,1-15.57-15.57V261.3A10.73,10.73,0,0,1,1133.45,250.58Z"/><path class="cls-2" d="M1251.78,250.58H1133.45c-5.92,0-10.73,4.51-10.73,10.08v36.67c0,8.08,7,14.63,15.57,14.63h108.64c8.6,0,15.57-6.55,15.57-14.63V260.66C1262.5,255.09,1257.7,250.58,1251.78,250.58Z"/><path class="cls-1" d="M1246.93,312H1138.29c-8.6,0-15.57-6.55-15.57-14.63v4.51c0,8.08,7,14.63,15.57,14.63h108.64c8.6,0,15.57-6.55,15.57-14.63v-4.51C1262.5,305.41,1255.53,312,1246.93,312Z"/><rect class="cls-3" x="1109.42" y="267.63" width="24.64" height="8.33" rx="4.17" ry="4.17"/><rect class="cls-3" x="1126.92" y="262.8" width="11.17" height="24" rx="5.58" ry="5.58"/><rect class="cls-3" x="1252.28" y="267.63" width="24.64" height="8.33" rx="4.17" ry="4.17"/><rect class="cls-3" x="1246.69" y="262.8" width="11.17" height="24" rx="5.58" ry="5.58"/><path class="cls-1" d="M1251.3,368.47H1133.92a6.34,6.34,0,0,1-6.07-5.4l-4-22c-.75-4.14,2.17-8,6.07-8h125.4c3.9,0,6.83,3.86,6.07,8l-4,22A6.34,6.34,0,0,1,1251.3,368.47Z"/><path class="cls-2" d="M1253,363.06l4-22c.75-4.14-2.17-8-6.07-8h-121c-3.9,0-6.83,3.86-6.07,8l4,22a6.34,6.34,0,0,0,6.07,5.4h113A6.34,6.34,0,0,0,1253,363.06Z"/><polygon class="cls-1" points="1216.29 368.47 1163.37 368.47 1156.5 333.07 1224.22 333.07 1216.29 368.47"/><polygon class="cls-2" points="1220.04 368.47 1167.12 368.47 1160.25 333.07 1227.97 333.07 1220.04 368.47"/><circle class="cls-1" cx="1138.62" cy="358.58" r="5.22"/><path class="cls-3" d="M1137.24,353.55a5.21,5.21,0,1,0,3.84,5A5.22,5.22,0,0,0,1137.24,353.55Z"/><circle class="cls-1" cx="1152.19" cy="358.58" r="5.22"/><path class="cls-3" d="M1150.81,353.55a5.21,5.21,0,1,0,3.84,5A5.22,5.22,0,0,0,1150.81,353.55Z"/><circle class="cls-1" cx="1231.24" cy="358.58" r="5.22"/><path class="cls-3" d="M1229.86,353.55a5.21,5.21,0,1,0,3.84,5A5.22,5.22,0,0,0,1229.86,353.55Z"/><circle class="cls-1" cx="1244.81" cy="358.58" r="5.22"/><path class="cls-3" d="M1243.43,353.55a5.21,5.21,0,1,0,3.84,5A5.22,5.22,0,0,0,1243.43,353.55Z"/><path class="cls-3" d="M1219.8,342.47H1168.6a1.68,1.68,0,0,1-1.7-1.07L1166,338c-.21-.82.6-1.59,1.7-1.59h53.13c1.11,0,1.94.8,1.69,1.63l-1,3.41A1.7,1.7,0,0,1,1219.8,342.47Z"/><path class="cls-3" d="M1215.13,350.77h-41.84a1.37,1.37,0,0,1-1.39-.9l-.73-2.87c-.18-.69.49-1.34,1.39-1.34H1216c.91,0,1.58.67,1.38,1.37l-.84,2.87A1.39,1.39,0,0,1,1215.13,350.77Z"/><path class="cls-1" d="M1269.1,378.82a24.11,24.11,0,0,0,.47-4.75H1115.65a24.11,24.11,0,0,0,.47,4.75Z"/><path class="cls-3" d="M1215.37,364.72h-43.55a1.56,1.56,0,0,1-1.44-1.41l-.76-4.5a1.69,1.69,0,0,1,1.44-2.1h45.19a1.7,1.7,0,0,1,1.43,2.15l-.88,4.5A1.55,1.55,0,0,1,1215.37,364.72Z"/><path class="cls-1" d="M1150.41,250.58h19.19a2.62,2.62,0,0,1,2.62,2.62v19.19a2.63,2.63,0,0,1-2.62,2.63h-19.19a2.62,2.62,0,0,1-2.62-2.62V253.2a2.63,2.63,0,0,1,2.63-2.62Z"/><path class="cls-3" d="M1154,250.58h19.19a2.62,2.62,0,0,1,2.62,2.62v19.19a2.63,2.63,0,0,1-2.62,2.63H1154a2.62,2.62,0,0,1-2.62-2.62V253.2a2.63,2.63,0,0,1,2.63-2.62Z"/><rect class="cls-1" x="1154.58" y="253.79" width="18.01" height="18.01" rx="2.62" ry="2.62"/><rect class="cls-6" x="1154.58" y="253.79" width="14.48" height="18.01" rx="2.63" ry="2.63"/><ellipse class="cls-1" cx="1192.63" cy="360.72" rx="6.08" ry="4"/><ellipse class="cls-2" cx="1195.91" cy="360.72" rx="6.08" ry="4"/><rect class="cls-2" x="1057.09" y="251.56" width="44.67" height="90.9" rx="13.15" ry="13.15"/><rect class="cls-1" x="1044.81" y="309.66" width="64.6" height="4.63" rx="2.32" ry="2.32" transform="translate(1389.09 -765.13) rotate(90)"/><rect class="cls-3" x="1048.19" y="309.66" width="64.6" height="4.63" rx="2.32" ry="2.32" transform="translate(1392.47 -768.51) rotate(90)"/><rect class="cls-1" x="1055.79" y="277.37" width="48.37" height="4.63" rx="2.32" ry="2.32"/><rect class="cls-3" x="1055.79" y="280.6" width="48.37" height="4.63" rx="2.32" ry="2.32"/><rect class="cls-1" x="866.22" y="271.29" width="46.82" height="4.63" rx="2.32" ry="2.32" transform="translate(1163.23 -616.02) rotate(90)"/><rect class="cls-3" x="869.59" y="271.29" width="46.82" height="4.63" rx="2.32" ry="2.32" transform="translate(1166.61 -619.4) rotate(90)"/><rect class="cls-1" x="906.04" y="271.29" width="46.82" height="4.63" rx="2.32" ry="2.32" transform="translate(1203.05 -655.84) rotate(90)"/><rect class="cls-3" x="909.41" y="271.29" width="46.82" height="4.63" rx="2.32" ry="2.32" transform="translate(1206.43 -659.22) rotate(90)"/><rect class="cls-1" x="946.06" y="271.29" width="46.82" height="4.63" rx="2.32" ry="2.32" transform="translate(1243.07 -695.86) rotate(90)"/><rect class="cls-3" x="949.43" y="271.29" width="46.82" height="4.63" rx="2.32" ry="2.32" transform="translate(1246.45 -699.24) rotate(90)"/><rect class="cls-1" x="982.01" y="271.29" width="46.82" height="4.63" rx="2.32" ry="2.32" transform="translate(1279.02 -731.81) rotate(90)"/><rect class="cls-3" x="985.39" y="271.29" width="46.82" height="4.63" rx="2.32" ry="2.32" transform="translate(1282.4 -735.19) rotate(90)"/><rect class="cls-1" x="856.21" y="292.66" width="197.73" height="4.63" rx="2.32" ry="2.32"/><rect class="cls-3" x="856.21" y="296.2" width="197.73" height="4.63" rx="2.32" ry="2.32"/><path class="cls-1" d="M958.49,401.17a2.74,2.74,0,0,0,2.75-2.94,35,35,0,0,0-69.83,0,2.74,2.74,0,0,0,2.75,2.94h0a2.77,2.77,0,0,0,2.74-2.57,29.54,29.54,0,0,1,58.85,0,2.77,2.77,0,0,0,2.74,2.57Z"/><path class="cls-2" d="M954.24,401.23A2.74,2.74,0,0,0,957,398.3a35,35,0,0,0-69.83,0,2.74,2.74,0,0,0,2.75,2.94h0a2.77,2.77,0,0,0,2.74-2.57,29.54,29.54,0,0,1,58.85,0,2.77,2.77,0,0,0,2.74,2.57Z"/><path class="cls-1" d="M1085.57,401.17a2.74,2.74,0,0,0,2.75-2.94,35,35,0,0,0-69.83,0,2.74,2.74,0,0,0,2.75,2.94h0a2.77,2.77,0,0,0,2.74-2.57,29.54,29.54,0,0,1,58.85,0,2.77,2.77,0,0,0,2.74,2.57Z"/><path class="cls-2" d="M1081.32,401.23a2.74,2.74,0,0,0,2.75-2.94,35,35,0,0,0-69.83,0,2.74,2.74,0,0,0,2.75,2.94h0a2.77,2.77,0,0,0,2.74-2.57,29.54,29.54,0,0,1,58.85,0,2.77,2.77,0,0,0,2.74,2.57Z"/><g id="Flags"><path class="cls-9" d="M1401.31,31.63s164.94,136.1,444.61,19.07"/><path class="cls-2" d="M1415,55.44l9.23-7.39a2.89,2.89,0,0,0-.29-4.71l-6.79-4.18a2.89,2.89,0,0,0-4.34,1.86l-2.44,11.57A2.89,2.89,0,0,0,1415,55.44Z"/><path class="cls-1" d="M1433.38,65.59l8.39-8.33a2.89,2.89,0,0,0-.79-4.66l-7.2-3.43a2.89,2.89,0,0,0-4.12,2.32l-1.19,11.76A2.89,2.89,0,0,0,1433.38,65.59Z"/><path class="cls-2" d="M1451.24,73.93l8.44-8.28a2.89,2.89,0,0,0-.77-4.66l-7.18-3.47a2.89,2.89,0,0,0-4.13,2.29l-1.26,11.75A2.89,2.89,0,0,0,1451.24,73.93Z"/><path class="cls-1" d="M1470.59,82.17l7.5-9.14a2.89,2.89,0,0,0-1.26-4.55l-7.51-2.68a2.89,2.89,0,0,0-3.86,2.72V80.34A2.89,2.89,0,0,0,1470.59,82.17Z"/><path class="cls-2" d="M1489,88.82l7.51-9.13a2.89,2.89,0,0,0-1.25-4.55l-7.51-2.69a2.89,2.89,0,0,0-3.86,2.72V87A2.89,2.89,0,0,0,1489,88.82Z"/><path class="cls-1" d="M1509.1,95l6.49-9.88a2.89,2.89,0,0,0-1.73-4.39l-7.75-1.87a2.89,2.89,0,0,0-3.55,3.11l1.26,11.75A2.89,2.89,0,0,0,1509.1,95Z"/><path class="cls-2" d="M1528.28,99.45l6.55-9.84a2.89,2.89,0,0,0-1.71-4.4l-7.74-1.92a2.89,2.89,0,0,0-3.57,3.09L1523,98.14A2.89,2.89,0,0,0,1528.28,99.45Z"/><path class="cls-1" d="M1548.92,103.52,1554.38,93a2.89,2.89,0,0,0-2.17-4.2l-7.9-1.08a2.89,2.89,0,0,0-3.22,3.46l2.44,11.57A2.89,2.89,0,0,0,1548.92,103.52Z"/><path class="cls-2" d="M1568.68,107l5.61-10.4a2.89,2.89,0,0,0-2.11-4.23l-7.88-1.2a2.89,2.89,0,0,0-3.27,3.41l2.27,11.6A2.89,2.89,0,0,0,1568.68,107Z"/><path class="cls-1" d="M1589.6,109.16l4.47-10.94a2.89,2.89,0,0,0-2.55-4l-8-.35a2.89,2.89,0,0,0-2.88,3.74l3.5,11.29A2.89,2.89,0,0,0,1589.6,109.16Z"/><path class="cls-2" d="M1609.3,109.86l4.53-10.92a2.89,2.89,0,0,0-2.53-4l-8-.39a2.89,2.89,0,0,0-2.91,3.72l3.43,11.31A2.89,2.89,0,0,0,1609.3,109.86Z"/><path class="cls-1" d="M1630.08,109.83l3.68-11.23a2.89,2.89,0,0,0-2.82-3.79l-8,.22a2.89,2.89,0,0,0-2.61,3.94l4.29,11A2.89,2.89,0,0,0,1630.08,109.83Z"/><path class="cls-2" d="M1649.63,109.37l3.69-11.23a2.89,2.89,0,0,0-2.82-3.79l-8,.21a2.89,2.89,0,0,0-2.62,3.93l4.28,11A2.89,2.89,0,0,0,1649.63,109.37Z"/><path class="cls-1" d="M1670.61,107.8l2.47-11.56a2.89,2.89,0,0,0-3.21-3.47l-7.9,1.06a2.89,2.89,0,0,0-2.18,4.19l5.43,10.5A2.89,2.89,0,0,0,1670.61,107.8Z"/><path class="cls-2" d="M1690.5,106.48,1693,94.93a2.89,2.89,0,0,0-3.19-3.48l-7.91,1a2.89,2.89,0,0,0-2.2,4.18l5.37,10.53A2.89,2.89,0,0,0,1690.5,106.48Z"/><path class="cls-1" d="M1710,102.9l2-11.64a2.89,2.89,0,0,0-3.33-3.35l-7.86,1.35a2.89,2.89,0,0,0-2,4.27l5.81,10.29A2.89,2.89,0,0,0,1710,102.9Z"/><path class="cls-2" d="M1729.72,100.23l2.08-11.64a2.89,2.89,0,0,0-3.32-3.36l-7.86,1.33a2.89,2.89,0,0,0-2,4.26l5.78,10.31A2.89,2.89,0,0,0,1729.72,100.23Z"/><path class="cls-1" d="M1749.85,95.1l.82-11.79a2.89,2.89,0,0,0-3.66-3l-7.68,2.16a2.89,2.89,0,0,0-1.57,4.45l6.85,9.63A2.89,2.89,0,0,0,1749.85,95.1Z"/><path class="cls-2" d="M1769.21,90.44l.89-11.79a2.89,2.89,0,0,0-3.65-3l-7.69,2.12a2.89,2.89,0,0,0-1.6,4.45l6.8,9.67A2.89,2.89,0,0,0,1769.21,90.44Z"/><path class="cls-1" d="M1788.2,84.72l.39-11.81a2.89,2.89,0,0,0-3.77-2.84l-7.59,2.44a2.89,2.89,0,0,0-1.41,4.51l7.2,9.37A2.89,2.89,0,0,0,1788.2,84.72Z"/><path class="cls-2" d="M1806.53,78.58l.25-11.82A2.89,2.89,0,0,0,1803,64l-7.56,2.53a2.89,2.89,0,0,0-1.35,4.53l7.31,9.29A2.89,2.89,0,0,0,1806.53,78.58Z"/><path class="cls-1" d="M1824.41,71.79,1824.16,60a2.89,2.89,0,0,0-3.92-2.64l-7.45,2.85a2.89,2.89,0,0,0-1.16,4.58l7.7,9A2.89,2.89,0,0,0,1824.41,71.79Z"/></g><g id="Hatti_Kaapi" data-name="Hatti Kaapi"><path class="cls-3" d="M153.89,269.33H12.18V212.73H149.37a10.41,10.41,0,0,0,10.41-10.41V184.74a10.41,10.41,0,0,0-10.41-10.41h-138A10.41,10.41,0,0,0,1,184.74V305.58c0,7.45,4.8,13.49,10.73,13.49H153.89c5.93,0,10.73-6,10.73-13.49V282.82C164.63,275.37,159.82,269.33,153.89,269.33Z"/><polygon class="cls-1" points="12.18 202.31 12.18 291.79 175.81 291.79 175.81 198.15 12.18 198.15 12.18 202.31"/><rect class="cls-3" x="160.84" y="212.73" width="14.97" height="56.4"/><path class="cls-1" d="M24.53,174.33H163.46a12.35,12.35,0,0,1,12.35,12.35v26.05a0,0,0,0,1,0,0H24.53a12.35,12.35,0,0,1-12.35-12.35V186.67A12.35,12.35,0,0,1,24.53,174.33Z"/><path class="cls-2" d="M171,212.73v-28a10.41,10.41,0,0,0-10.41-10.41H22.6a10.41,10.41,0,0,0-10.41,10.41v28Z"/><path class="cls-2" d="M175.81,305.58V269.33H12.18v36.25c0,7.45,4.8,13.49,10.73,13.49H165.08C171,319.07,175.81,313,175.81,305.58Z"/><path class="cls-1" d="M130.84,315a7.1,7.1,0,0,1,5.3-8.43c0-.07,0-.13,0-.2a7.11,7.11,0,0,1,13.26-3.58,14.61,14.61,0,0,1,23.54,6.93,9.48,9.48,0,1,1,2,18.75H134A7.11,7.11,0,0,1,130.84,315Z"/><path class="cls-3" d="M135,315a7.1,7.1,0,0,1,5.3-8.43c0-.07,0-.13,0-.2a7.11,7.11,0,0,1,13.26-3.58,14.61,14.61,0,0,1,23.54,6.93,9.48,9.48,0,1,1,2,18.75H138.23A7.11,7.11,0,0,1,135,315Z"/><path class="cls-1" d="M142.9,320.17a4.4,4.4,0,0,0-3.28-5.22s0-.08,0-.12a4.41,4.41,0,0,0-8.21-2.22,9,9,0,0,0-14.58,4.29,5.87,5.87,0,1,0-1.21,11.61h25.31a4.41,4.41,0,0,0,2-8.35Z"/><path class="cls-3" d="M146.48,320.17a4.4,4.4,0,0,0-3.28-5.22s0-.08,0-.12a4.41,4.41,0,0,0-8.21-2.22,9,9,0,0,0-14.58,4.29,5.87,5.87,0,1,0-1.21,11.61H144.5a4.41,4.41,0,0,0,2-8.35Z"/><path class="cls-2" d="M169.43,287.61v47.44c0,1.66,3.34,3,7.45,3s7.45-1.35,7.45-3V287.61Z"/><ellipse class="cls-3" cx="176.88" cy="280.46" rx="43.16" ry="10.39"/><path class="cls-1" d="M176.88,290.85c-23.83,0-43.16-4.65-43.16-10.39v3.91c0,5.74,19.32,10.39,43.16,10.39S220,290.11,220,284.38v-3.91C220,286.2,200.72,290.85,176.88,290.85Z"/><path class="cls-2" d="M162.08,265.75l1.27,9.5a1.54,1.54,0,0,0,1.53,1.34h3.63a1.54,1.54,0,0,0,1.53-1.34l1.25-9.5a1.54,1.54,0,0,0-1.53-1.74h-6.15A1.54,1.54,0,0,0,162.08,265.75Z"/><path class="cls-6" d="M162.42,268.22a1.87,1.87,0,0,1,.53-.08h7.47a1.85,1.85,0,0,1,.54.09l.33-2.48a1.54,1.54,0,0,0-1.53-1.74h-6.15a1.54,1.54,0,0,0-1.53,1.75Z"/><path class="cls-2" d="M175.12,267.87l1.27,9.5a1.54,1.54,0,0,0,1.53,1.34h3.63a1.54,1.54,0,0,0,1.53-1.34l1.25-9.5a1.54,1.54,0,0,0-1.53-1.74h-6.15A1.54,1.54,0,0,0,175.12,267.87Z"/><path class="cls-6" d="M175.45,270.34a1.87,1.87,0,0,1,.53-.08h7.47a1.85,1.85,0,0,1,.54.09l.33-2.48a1.54,1.54,0,0,0-1.53-1.74h-6.15a1.54,1.54,0,0,0-1.53,1.75Z"/><path class="cls-2" d="M81,299.9v47.44c0,1.66,3.34,3,7.45,3s7.45-1.35,7.45-3V299.9Z"/><ellipse class="cls-3" cx="88.4" cy="292.75" rx="43.16" ry="10.39"/><path class="cls-1" d="M88.4,303.14c-23.83,0-43.16-4.65-43.16-10.39v3.91c0,5.74,19.32,10.39,43.16,10.39s43.16-4.65,43.16-10.39v-3.91C131.56,298.49,112.24,303.14,88.4,303.14Z"/><path class="cls-2" d="M83.12,277.07l1.27,9.5a1.54,1.54,0,0,0,1.53,1.34h3.63a1.54,1.54,0,0,0,1.53-1.34l1.25-9.5a1.54,1.54,0,0,0-1.53-1.74H84.65A1.54,1.54,0,0,0,83.12,277.07Z"/><path class="cls-6" d="M83.46,279.54a1.87,1.87,0,0,1,.53-.08h7.47a1.85,1.85,0,0,1,.54.09l.33-2.48a1.54,1.54,0,0,0-1.53-1.74H84.65a1.54,1.54,0,0,0-1.53,1.75Z"/><path class="cls-1" d="M67,277.82l1.27,9.5a1.54,1.54,0,0,0,1.53,1.34h3.63a1.54,1.54,0,0,0,1.53-1.34l1.25-9.5a1.54,1.54,0,0,0-1.53-1.74H68.49A1.54,1.54,0,0,0,67,277.82Z"/><path class="cls-1" d="M81,287.49l-8.57,4.29a1.54,1.54,0,0,0-.77,1.88l1.18,3.43a1.54,1.54,0,0,0,1.76,1l9.39-1.9a1.54,1.54,0,0,0,1.15-2l-2-5.81A1.54,1.54,0,0,0,81,287.49Z"/><path class="cls-6" d="M72.35,287.32l1.25-9.5a1.54,1.54,0,0,0-1.53-1.74H68.49A1.54,1.54,0,0,0,67,277.82l1.27,9.5a1.54,1.54,0,0,0,1.53,1.34h1.07A1.54,1.54,0,0,0,72.35,287.32Z"/><path class="cls-6" d="M85.11,294.18l-1.29-3.75a1.54,1.54,0,0,0-2-.51l-8.57,4.29a1.54,1.54,0,0,0-.77,1.88l.47,1.37a1.54,1.54,0,0,0,1.58.65l9.39-1.9A1.54,1.54,0,0,0,85.11,294.18Z"/><path class="cls-1" d="M56.58,241.79l-1.27-9.5A1.54,1.54,0,0,0,53.78,231H50.16a1.54,1.54,0,0,0-1.53,1.34l-1.25,9.5a1.54,1.54,0,0,0,1.53,1.74h6.15A1.54,1.54,0,0,0,56.58,241.79Z"/><path class="cls-6" d="M56.58,241.79l-1.27-9.5A1.54,1.54,0,0,0,53.78,231h-.7a1.54,1.54,0,0,0-1.53,1.34l-1.25,9.5a1.54,1.54,0,0,0,1.53,1.74h3.22A1.54,1.54,0,0,0,56.58,241.79Z"/><path class="cls-1" d="M50.28,254.38,49,244.88a1.54,1.54,0,0,0-1.53-1.34H43.86a1.54,1.54,0,0,0-1.53,1.34l-1.25,9.5a1.54,1.54,0,0,0,1.53,1.74h6.15A1.54,1.54,0,0,0,50.28,254.38Z"/><path class="cls-6" d="M50.28,254.38,49,244.88a1.54,1.54,0,0,0-1.53-1.34h-.7a1.54,1.54,0,0,0-1.53,1.34L44,254.38a1.54,1.54,0,0,0,1.53,1.74h3.22A1.54,1.54,0,0,0,50.28,254.38Z"/><path class="cls-1" d="M61.83,254.48,60.56,245A1.54,1.54,0,0,0,59,243.64H55.41A1.54,1.54,0,0,0,53.88,245l-1.25,9.5a1.54,1.54,0,0,0,1.53,1.74H60.3A1.54,1.54,0,0,0,61.83,254.48Z"/><path class="cls-6" d="M61.83,254.48,60.56,245A1.54,1.54,0,0,0,59,243.65h-.7A1.54,1.54,0,0,0,56.81,245l-1.25,9.5a1.54,1.54,0,0,0,1.53,1.74H60.3A1.54,1.54,0,0,0,61.83,254.48Z"/><path class="cls-1" d="M44.51,267.27l-1.27-9.5a1.54,1.54,0,0,0-1.53-1.34H38.08a1.54,1.54,0,0,0-1.53,1.34l-1.25,9.5A1.54,1.54,0,0,0,36.84,269H43A1.54,1.54,0,0,0,44.51,267.27Z"/><path class="cls-6" d="M44.51,267.27l-1.27-9.5a1.54,1.54,0,0,0-1.53-1.34H41a1.54,1.54,0,0,0-1.53,1.34l-1.25,9.5A1.54,1.54,0,0,0,39.76,269H43A1.54,1.54,0,0,0,44.51,267.27Z"/><path class="cls-1" d="M56.06,267.38l-1.27-9.5a1.54,1.54,0,0,0-1.53-1.34H49.63a1.54,1.54,0,0,0-1.53,1.34l-1.25,9.5a1.54,1.54,0,0,0,1.53,1.74h6.15A1.54,1.54,0,0,0,56.06,267.38Z"/><path class="cls-6" d="M56.06,267.38l-1.27-9.5a1.54,1.54,0,0,0-1.53-1.34h-.7A1.54,1.54,0,0,0,51,257.88l-1.25,9.5a1.54,1.54,0,0,0,1.53,1.74h3.22A1.54,1.54,0,0,0,56.06,267.38Z"/><path class="cls-1" d="M66.75,267.38l-1.27-9.5a1.54,1.54,0,0,0-1.53-1.34H60.32a1.54,1.54,0,0,0-1.53,1.34l-1.25,9.5a1.54,1.54,0,0,0,1.53,1.74h6.15A1.54,1.54,0,0,0,66.75,267.38Z"/><path class="cls-6" d="M66.75,267.38l-1.27-9.5a1.54,1.54,0,0,0-1.53-1.34h-.7a1.54,1.54,0,0,0-1.53,1.34l-1.25,9.5A1.54,1.54,0,0,0,62,269.12h3.22A1.54,1.54,0,0,0,66.75,267.38Z"/><path class="cls-1" d="M139,241.79l-1.27-9.5a1.54,1.54,0,0,0-1.53-1.34h-3.63A1.54,1.54,0,0,0,131,232.3l-1.25,9.5a1.54,1.54,0,0,0,1.53,1.74h6.15A1.54,1.54,0,0,0,139,241.79Z"/><path class="cls-6" d="M139,241.79l-1.27-9.5a1.54,1.54,0,0,0-1.53-1.34h-.7a1.54,1.54,0,0,0-1.53,1.34l-1.25,9.5a1.54,1.54,0,0,0,1.53,1.74h3.22A1.54,1.54,0,0,0,139,241.79Z"/><path class="cls-1" d="M132.67,254.38l-1.27-9.5a1.54,1.54,0,0,0-1.53-1.34h-3.63a1.54,1.54,0,0,0-1.53,1.34l-1.25,9.5a1.54,1.54,0,0,0,1.53,1.74h6.15A1.54,1.54,0,0,0,132.67,254.38Z"/><path class="cls-6" d="M132.67,254.38l-1.27-9.5a1.54,1.54,0,0,0-1.53-1.34h-.7a1.54,1.54,0,0,0-1.53,1.34l-1.25,9.5a1.54,1.54,0,0,0,1.53,1.74h3.22A1.54,1.54,0,0,0,132.67,254.38Z"/><path class="cls-1" d="M144.22,254.48l-1.27-9.5a1.54,1.54,0,0,0-1.53-1.34h-3.63a1.54,1.54,0,0,0-1.53,1.34l-1.25,9.5a1.54,1.54,0,0,0,1.53,1.74h6.15A1.54,1.54,0,0,0,144.22,254.48Z"/><path class="cls-6" d="M144.22,254.48l-1.27-9.5a1.54,1.54,0,0,0-1.53-1.34h-.7a1.54,1.54,0,0,0-1.53,1.34l-1.25,9.5a1.54,1.54,0,0,0,1.53,1.74h3.22A1.54,1.54,0,0,0,144.22,254.48Z"/><path class="cls-1" d="M126.9,267.27l-1.27-9.5a1.54,1.54,0,0,0-1.53-1.34h-3.63a1.54,1.54,0,0,0-1.53,1.34l-1.25,9.5a1.54,1.54,0,0,0,1.53,1.74h6.15A1.54,1.54,0,0,0,126.9,267.27Z"/><path class="cls-6" d="M126.9,267.27l-1.27-9.5a1.54,1.54,0,0,0-1.53-1.34h-.7a1.54,1.54,0,0,0-1.53,1.34l-1.25,9.5a1.54,1.54,0,0,0,1.53,1.74h3.22A1.54,1.54,0,0,0,126.9,267.27Z"/><path class="cls-1" d="M138.45,267.38l-1.27-9.5a1.54,1.54,0,0,0-1.53-1.34H132a1.54,1.54,0,0,0-1.53,1.34l-1.25,9.5a1.54,1.54,0,0,0,1.53,1.74h6.15A1.54,1.54,0,0,0,138.45,267.38Z"/><path class="cls-6" d="M138.45,267.38l-1.27-9.5a1.54,1.54,0,0,0-1.53-1.34h-.7a1.54,1.54,0,0,0-1.53,1.34l-1.25,9.5a1.54,1.54,0,0,0,1.53,1.74h3.22A1.54,1.54,0,0,0,138.45,267.38Z"/><path class="cls-1" d="M149.14,267.38l-1.27-9.5a1.54,1.54,0,0,0-1.53-1.34h-3.63a1.54,1.54,0,0,0-1.53,1.34l-1.25,9.5a1.54,1.54,0,0,0,1.53,1.74h6.15A1.54,1.54,0,0,0,149.14,267.38Z"/><path class="cls-6" d="M149.14,267.38l-1.27-9.5a1.54,1.54,0,0,0-1.53-1.34h-.7a1.54,1.54,0,0,0-1.53,1.34l-1.25,9.5a1.54,1.54,0,0,0,1.53,1.74h3.22A1.54,1.54,0,0,0,149.14,267.38Z"/></g><g id="Bushes"><path class="cls-1" d="M282.54,276.68a13.38,13.38,0,0,1,22.72-13.83,13.31,13.31,0,0,1,12.51-4.24,11.61,11.61,0,0,1,18.34-4.81,11.62,11.62,0,0,1,22.19,4.83v0l.45,0a9.45,9.45,0,0,1,8.68,13.17,15.92,15.92,0,0,1-4.84,31.08H294.68a15.91,15.91,0,0,1-12.14-26.2Z"/><path class="cls-3" d="M276,276.68a13.38,13.38,0,0,1,22.72-13.83,13.31,13.31,0,0,1,12.51-4.24,11.61,11.61,0,0,1,18.34-4.81,11.62,11.62,0,0,1,22.19,4.83v0l.45,0a9.45,9.45,0,0,1,8.68,13.17A15.92,15.92,0,0,1,356,302.88H288.09A15.91,15.91,0,0,1,276,276.68Z"/><path class="cls-1" d="M228.91,287.67a8.42,8.42,0,0,1,6.29-10c0-.08,0-.16,0-.24a8.43,8.43,0,0,1,15.72-4.25,17.32,17.32,0,0,1,27.91,8.22,11.24,11.24,0,1,1,2.32,22.23H232.7a8.43,8.43,0,0,1-3.78-16Z"/><path class="cls-3" d="M223.63,287.67a8.42,8.42,0,0,1,6.29-10c0-.08,0-.16,0-.24a8.43,8.43,0,0,1,15.72-4.25,17.32,17.32,0,0,1,27.91,8.22,11.24,11.24,0,1,1,2.32,22.23H227.41a8.43,8.43,0,0,1-3.78-16Z"/></g><g id="Bushes-2" data-name="Bushes"><path class="cls-1" d="M384.93,276.68a13.38,13.38,0,0,1,22.72-13.83,13.31,13.31,0,0,1,12.51-4.24,11.61,11.61,0,0,1,18.34-4.81,11.62,11.62,0,0,1,22.19,4.83v0l.45,0a9.45,9.45,0,0,1,8.68,13.17A15.92,15.92,0,0,1,465,302.88H397.07a15.91,15.91,0,0,1-12.14-26.2Z"/><path class="cls-3" d="M378.34,276.68a13.38,13.38,0,0,1,22.72-13.83,13.31,13.31,0,0,1,12.51-4.24,11.61,11.61,0,0,1,18.34-4.81,11.62,11.62,0,0,1,22.19,4.83v0l.45,0a9.45,9.45,0,0,1,8.68,13.17,15.92,15.92,0,0,1-4.84,31.08H390.48a15.91,15.91,0,0,1-12.14-26.2Z"/><path class="cls-1" d="M331.3,287.67a8.42,8.42,0,0,1,6.29-10c0-.08,0-.16,0-.24a8.43,8.43,0,0,1,15.72-4.25,17.32,17.32,0,0,1,27.91,8.22,11.24,11.24,0,1,1,2.32,22.23H335.08a8.43,8.43,0,0,1-3.78-16Z"/><path class="cls-3" d="M326,287.67a8.42,8.42,0,0,1,6.29-10c0-.08,0-.16,0-.24A8.43,8.43,0,0,1,348,273.2a17.32,17.32,0,0,1,27.91,8.22,11.24,11.24,0,1,1,2.32,22.23H329.8a8.43,8.43,0,0,1-3.78-16Z"/></g></g></g></svg>