<?xml version="1.0" encoding="utf-8"?>
<!-- Generator: Adobe Illustrator 18.0.0, SVG Export Plug-In . SVG Version: 6.00 Build 0)  -->
<!DOCTYPE svg PUBLIC "-//W3C//DTD SVG 1.1//EN" "http://www.w3.org/Graphics/SVG/1.1/DTD/svg11.dtd">
<svg version="1.1" id="Layer_1" xmlns="http://www.w3.org/2000/svg" xmlns:xlink="http://www.w3.org/1999/xlink" x="0px" y="0px"
	 viewBox="0 0 270 370" enable-background="new 0 0 270 370" xml:space="preserve">
<g>
	<g>
		<path d="M48.2,5.7c0,0,3.1-2,6.8-0.4c0.7,0,3.3,0.4,5.7,0.4c4.7,0,6,0.3,7.5,2c4.8,5.4-0.7,8.8-2.4,10.2c-1.4,1-1.7,1.3-0.7,1.3
			c0.7,0,7,3.5,8.5,4.4c9.2,6,7.1,16,6.8,18c-1.7,4.4-5.1,8.4-9.5,10.8c-1.7,1-2.3,1-5.4,1c-3.1,0.4-3.4,0.4-3.8,1
			c-0.4,1-2,1.7-5.4,1.7c-2.4,0-3.4-0.1-4.4-0.7c-1.4-0.7-1.7-2-2-7.8c-0.4-2.4-2-22.1-2.4-32.9c-0.4-5.1,0-7.2,0-7.8
			C47.9,6.3,48.2,5.7,48.2,5.7z M60.5,14.8c1-1.4,1.4-1.4,1-3.4C61.5,9,61.4,9,59.7,9c-1.7-0.4-1.7-0.3-1,3.4
			C59.1,16.5,59.1,16.5,60.5,14.8z M68.2,30.1c-1.4-2.4-2.4-3.8-5.5-6.5c-2.7-2-3.4-2-3.1-1.4c0,1.7,1.4,17.6,1.7,20.7
			c0.4,1.7,0.7,4.1,0.7,4.8c0,1.7,0,1.7,2-0.4c1.7-1.4,2.7-2.6,3.7-4.7C70.4,37.3,69.3,32.1,68.2,30.1z"/>
		<path d="M85.3,5.6c2-1.2,3.3-0.9,4.4-0.9c2.4,0,4.2,0.9,4.5,2c0.3,0.6,0.3,0.9,0.9,0.7c5-2.5,5.9,1.2,6.8,1.5c0.9,0.6,2,6,3.4,7
			c1.1,0.3,1.1,0,1.7-1c0.7-1,3-6.9,4.5-7.5c3.1-2,6.9-0.6,8.1,0.3c1.8,1.2,3,3.8,3.9,8.4c0.9,6.7,3.9,23.8,4.2,25.9
			c1.2,6.2,0.9,7.5-1.2,8.4c-3,1.2-7.8,0.5-8.9-0.7c-0.7-2-0.9-5.6-1.2-7.4c-0.3-1.5-3-26.3-3.3-27.2c-0.3-0.6-0.4-0.3-0.9,0.3
			c-1,6.5-4,8.3-4.3,8.3c-0.9,0.6-4.4,1.5-6.3,0c-1.8-1.5-2.3-6.2-3.5-9.2c-0.9-2.7-0.9-2.6-1.5-1.5c-0.6,1.2-0.6,1.5-0.3,5.3
			c0.3,5.7,0.6,34.9,0.6,35.8c-2.3,2.8-8,2-9.8,1.2c-2.1-0.9-2.4-2-2.7-11c0-4.5,0-12.6,0-18.8c0.3-13.7,0.3-12.3,0-16.1
			C84.4,6.5,84.4,6.2,85.3,5.6z"/>
		<path d="M136.6,8.9c1.2-1.5,3.9-3.3,6.3-3.9c0.9-0.3,2.4-0.2,4.8-0.3c7.4-0.3,9.3,3.6,9.9,5.4c0.6,1.2,0.6,3.6,0,4.8
			c-4.4,4.4-6.6,0.9-6.9-0.9c-0.3-2.4-0.9-4.2-1.5-4.8c-0.3-0.3-0.6-0.3-1.2,0.3c-4.6,5.4-2.7,10.2-2.4,10.8
			c0.6,2.4,6.2,13.2,8.4,16.5c5.1,8.1,5.7,12,2.8,15c-2.4,2.1-3.3,3.1-5.5,3.6c-6.1,2.5-12.3,0.3-14.7-1.2c-3.3-3.1-4.5-6.8-4.5-8.4
			c0-1.5,0.3-1.8,0.9-2.4c0.9-0.9,3.9-1.2,5.2-0.4c1.2,0.6,3.3,3,4.1,4.5c1.5,2.1,2.8,3.3,3.1,3.3c0.3,0,0.9-1.8,0.6-3.9
			c0-1.5-1.7-5.4-3.3-7.5c-0.3-0.6-4.7-8.1-5.7-10.8C131.7,16.1,134.5,11,136.6,8.9z"/>
		<path d="M164.1,18.7c1.7-7.3,4.2-10.7,8.6-13.3c0.4-0.1,2.3-0.5,3.9-0.6c7.7-0.3,10.6,4.1,11,6.5c0.4,3,0.2,4.1-1.5,4.3
			c-1.3,0.2-2.5-1-4.2-3.8c-0.8-1.2-1.2-1.5-1.9-1.7c-1.7-0.4-2.7,0.4-3.5,4.1c-1.7,6.6-1.7,13.7-0.4,22.3
			c0.6,6.7,2.6,11.8,4.6,13.8c2.5,1.4,4.4,0,5.6-1.2c1.7-1.6,2.4-1.9,4.3-2.5c2-0.3,2.5-0.3,2.7,1.6c0.1,1.9-5.2,6.2-12.1,7.8
			c-5.2,0.8-10.5-0.1-13.4-4.1c-2.1-3.1-3.9-10.5-4.7-18.5C162.9,27.4,163.1,23.3,164.1,18.7z"/>
		<path d="M199.9,5.7c1.5-0.6,8.4-1.4,12.4-1c2.5-0.1,6,0.1,8.2,0.4c4.3,0.4,4.9,0.8,4.9,1.9c-0.1,1.5-1.5,1.7-7.6,1.5
			c-3.2-0.3-6.2-0.2-6.5-0.2c0,0.4-0.3,3.6,0.1,7.6c0.3,1.1,0.2,1.2,3.8,1.5c3.6-0.1,5.4,0.4,5.7,1.5c0.4,0.4-0.1,0.7-0.1,1.1
			c-0.4,0.7-5.1,2.1-7.3,2.6c-2.2,0.1-2.3,0.1-2.3,4.4c-0.4,8.8,0.9,17.4,1.1,19.2c0.5,2.6,0.1,3,1.2,3c1.2,0,7.4,0.3,8.1,0.7
			c1.7,1.2,2,2.3,0.1,3.6c-3.1,2.3-6.7,2.5-12.1,2.5c-7.3-0.1-9.7-4.4-10-5.5c-0.9-1.9-1.6-6.3-2-9.6c-0.2-1.8-0.9-13.7-0.1-21.6
			C198.2,8.5,198.7,6.4,199.9,5.7z"/>
		<path d="M40.6,90.2c0.5-14.8,0.5-17,2.7-18.1c1.6-0.5,6.6,0,7.7,0.5c1.6,1.6,2.2,4.9,2.2,30.2c0.5,32.4,0.4,34.8-3.8,43.2
			c-6.6,15.2-27.6,12.4-33.1,11.3c-6.6-1.6-9.3-4.4-11.5-12.1C2.7,138,2.7,81.8,4.9,78c1.1-2.2,4.4-3.8,8.8-3.3
			c4.4,0,7.1,0.6,8.2,3.3c1.1,2.2,1.7,12.1,2.2,32.4c0.5,17,1.1,28.6,2.2,32.4c0.5,3.8,1.7,6,2.2,5.5c10.8-5.8,8.8-15.3,10.4-26.3
			C40.5,107.3,40.6,105.6,40.6,90.2z"/>
		<path d="M66.2,65.8c2.2,0,5.4-0.5,8.1-1c5.4-1.1,21.1-1.1,25.4,0c4.3,1.1,6.6,2.3,6,3.7c-1.5,3.5-8.1,3.8-11.9,3.3
			c-2.7-0.5-2.7-0.6-2.7,1.6c0,1.6,0.5,11.4,0.5,22.2c0,17.9,0.2,31.3,1.8,47.5c0.5,8.1,0,9.8-2.7,10.9c-6.5,1.6-14.7,0.5-16.3-2.2
			c-2.7-4.9-3.4-51.9-1.2-70.7c0.5-3.8,0.5-7.1,0.5-7.6c0-0.5-10.8-1.6-11.9-2.1C58,69.1,60.2,66.9,66.2,65.8z"/>
		<path d="M119,78.5c2.1-2.6,6.6-5.6,10.7-6.6c1.5-0.5,4-0.4,8.1-0.5c12.5-0.5,15.7,6,16.7,9.1c1,2.1,1,6,0,8.1
			c-7.3,7.3-11.1,1.6-11.6-1.5c-0.5-4-1.6-7.1-2.6-8.1c-0.5-0.5-1-0.5-2,0.5c-7.7,9.1-4.5,17.3-4,18.2c1,4,10.5,22.3,14.1,27.8
			c8.6,13.6,9.7,20.2,4.7,25.2c-4,3.5-5.6,5.1-9.2,6.1c-10.3,4.3-20.7,0.5-24.7-2.1c-5.6-5.1-7.6-11.5-7.6-14.1s0.5-3.1,1.5-4
			c1.5-1.5,6.6-2.1,8.7-0.6c2.1,1,5.5,5,7,7.6c2.6,3.5,4.7,5.6,5.1,5.6c0.5,0,1.5-3.1,1-6.6c0-2.6-2.9-9.1-5.5-12.6
			c-0.5-1-7.8-13.7-9.7-18.2C110.8,90.8,115.5,82.1,119,78.5z"/>
		<path d="M174.1,73.6c0-0.5,1-1.3,2.2-1.8c2.3-1.2,9.8-0.6,12.1,0.6c1.7,0.5,1.8,1.2,1.8,4.2c0.5,1.7,1.2,3.5,1.2,4
			c1.7,1.7,2.7,6.4,6.2,22.5c1.7,5.8,3.1,10.4,3.1,10.4c0,0.5,1,1.2,2.2,1.2c4.3-1,5.9,2.3,2.3,4c-1.7,1.2-2.3,1.8-2.3,2.3
			c-0.5,1.2,0.5,3.5,6.9,22.6c1.2,3.5,2.4,7,2.4,7.5c0,1.2-2.9,1.7-6.5,1.7c-5.3,0-6.2-0.4-9.1-10.4c-5.4-19.3-6-18-6-18
			s-1.1,0.1-2.8,0.6c-2.9,1.2-3.1,1.2-3.6,5.3c-0.5,2.9-1.2,9.8-1.7,15.5c-1.7,16.8-2.8,19.2-9.8,19.7c-8.1,0.5-11.1-1.1-11.6-6.4
			c-0.5-7,4-51.5,7.6-66.6C170.1,88.7,173.6,74.1,174.1,73.6z M189.4,116.1c0-0.6-3.6-13.8-3.6-13.8c-1.2,5.4-0.6,12.5-0.6,15.3
			c0,1.5,0.6,0.6,2.7,0C189.4,117.6,189.4,116.7,189.4,116.1z"/>
		<path d="M211.6,80.2c-1-5.1-1.1-6.1,1-7.7c2.6-1,8.8-1,11.4,0c2.6,1,4,2.6,6.6,7.7c1.6,3.5,12.4,38.6,12.9,41.1
			c0.5,2.1,1.1,3.7,1.1,3.7c0.5,0,5.1-21.1,6.1-27.8c0-2.1,3.7-16.4,4.2-18c2-5.1,3.7-6.2,6.7-6.2c2.6,0,4,0.5,4.5,0.5
			c1.6,1.6,1.1,7.2-1.5,16.5c-1.2,8.3-6.1,32.9-8.2,43.2c-1,3.5-3.6,13.2-3.7,13.8c-0.9,4.2,1.3,3.9,1.1,6.7c-0.2,2.6-3.7,4-9.8,4
			c-7.2,0.5-10.9-1.6-13.5-7.7c-2.1-4.7-7.1-21.5-12.2-42.1C217.3,103.4,212.6,84.4,211.6,80.2z"/>
	</g>
	<g display="none">
		<path display="inline" d="M103.1,254.8c-0.2-0.6,2.7-2,5.1-2.6c5.5-1.3,7.8,1.8,8,3.1c0.6,2.4,0,4-2.7,6.7c-1.9,1.8-2.1,1.7-1.4,2
			c1.2,0.8,1.3,0.8,2,1.7c5.4,4.9,4.9,11.8,4.5,13.5c-0.6,4.5-4,7.3-8.8,7.3c-2.7-0.2-4.1-0.8-5.7-2.6c-1-1.2-1-1.8-0.4-2.5
			c1.6-1.5,4.1-0.6,5.1-0.2c1.2,0.6,1.2,0.6,1.6,0.2c2.2-3.6,1-7.3-0.4-10.8c-1-2.7-2.2-4.5-3.1-4.9c-0.8-0.2-1.8-1.3-1.8-1.7
			c0-0.2,0.6-1,1.7-1.8c4.6-3.3,3.5-7,3.3-7.2c-0.2-0.8-0.2-0.8-2.9,0C105,255.8,103.1,255.6,103.1,254.8z"/>
		<path display="inline" d="M124,262.9c1.8-5.2,4.4-9.3,6.1-10.5c2.1-1.2,5.4-0.4,5.6-0.2c0.7,0.5,0.7,0.9,0.2,1.4
			c-0.5,0.2-0.5,0.2,0.9,0.7c1.8,0.9,3.3,2.3,3.9,4.2c1.9,4.9,2.3,11.4,1.2,16.3c-0.7,3.3-2,5.9-3.3,7.9c-3.4,5.4-10.8,3.5-11.7,3
			c-2.6-1.4-4.2-3.7-5.1-6.8C121.2,276.1,122.4,266.6,124,262.9z M134.3,273.8c0.7-3.7,0.2-9.6-0.7-13.1c-0.5-1.7-0.7-2.1-1-1.4
			c-1.7,4.9-2.1,7-2.8,11.7c-0.5,4.2,0,9.1,1.2,10.3C131.7,281.8,133.8,277.1,134.3,273.8z"/>
		<path display="inline" d="M150.2,254.7c0,0,0.7-0.3,1.1-0.7c1.1-0.3,3.8,0,4.5,0.3c0.3,0.3,0.3,1.4,0.3,4.9c0,3.8,0,3.8,2.8,3.8
			c3.5,0.3,4.5,0.7,3.5,1.8c-0.3,0.3-1.4,0.7-3.5,0.7c-3.2,0.3-3.2,0.3-2.8,4.2c0.3,6.3,0.7,12.6,1.1,13.6c0.3,0.3,1.1,1.1,1.8,1.4
			c1.8,1.1,2.1,1.8,0.3,2.4c-2.4,1.1-6.6,0.3-8.4-1.4c-1.4-1.1-1.8-2.8-2.5-11.1c-0.3-7.3-0.3-7.3-1.4-7.3s-2.4-0.7-2.4-1.4
			c0.3-0.7,1.4-1.4,2.8-1.4c1.1,0,1.1,0,1.4-1.8C149.2,259.9,149.9,255.4,150.2,254.7z"/>
		<path display="inline" d="M163.7,265c0.2-13.5,0.2-12.8,1.7-13.5c1.4-0.7,3.7-0.2,4.7,0.9c0.2,0.2,0.6,1.2,0.8,2.1
			c0.5,1.9,0.9,13.2,0.7,17.5c0,1.9,0,3.3,0,3.1c0,0,0.5-0.7,0.7-1.7c1.7-4.5,4-6.7,7.1-6.2c2.8,0.5,3.4,2.6,3.6,13.2
			c0,8.3,0.2,7.8-2.6,7.8c-2.8,0-3.4,0.5-2.9-8.5c0.5-8.7,0-7.8,0-7.8c-0.2-0.5-1.7,1.9-3.1,5.5c-0.5,1.2-1.4,3.6-1.9,4.7
			c-1.2,2.4-2.4,3.8-3.8,4c-1.4,0.2-3.2,0-3.8-0.5C163.4,284.6,163.5,284.2,163.7,265z"/>
		<path display="inline" d="M110.6,295.5c0.6-0.2,3.1-0.5,4.6-0.4c0.9-0.1,2.3,0.1,3.1,0.1c1.6,0.1,1.8,0.3,1.8,0.7
			c-0.1,0.5-0.6,0.6-2.8,0.5c-1.2-0.1-2.3-0.1-2.4-0.1c0,0.1-0.1,1.3,0,2.8c0.1,0.4,0.1,0.4,1.4,0.5c1.3,0,2,0.2,2.1,0.6
			c0.1,0.1-0.1,0.3-0.1,0.4c-0.2,0.3-1.9,0.8-2.7,1c-0.8,0.1-0.8,0.1-0.8,1.7c-0.2,3.3,0.3,6.5,0.4,7.2c0.2,1,0,1.1,0.5,1.1
			c0.4,0,2.8,0.1,3,0.3c0.7,0.5,0.8,0.9,0,1.4c-1.1,0.8-2.5,0.9-4.5,0.9c-2.7,0-3.6-1.7-3.7-2.1c-0.4-0.7-0.6-2.4-0.8-3.6
			c-0.1-0.7-0.3-5.1-0.1-8.1C110,296.6,110.2,295.8,110.6,295.5z"/>
		<path display="inline" d="M127,299.4c0-3.7,0-5.8,0.3-6.1c0.3-0.2,0.6-0.3,1.6-0.3c1.6,0,1.8,0.2,1.9,1.6
			c0.5,6.3,0.5,11.3,1.1,14.7c0.7,3.7,1,3.8,0.8,4.1c-0.7,0.8-2.4,1-3.5,0.3c-0.5-0.3-0.8-0.8-1.1-2.4c-0.2-1.1-0.2-1.1-0.7-0.3
			c-0.5,1.1-1.3,1.4-1.9,1.4c-3.2,0.9-4-2.1-4.2-2.7c-0.2-1.1,0.2-2.9,0.7-3.7c0.8-1.4,3.2-2.9,4.5-2.9C127,303,127,303,127,299.4z
			 M126.9,306.3c0.2-0.7,0.1-1.8,0.1-2.1c0.2-0.5,0-0.5-0.7-0.2c-1.6,1.1-2.3,2.7-2.4,4.5c-0.1,1.4,0.8,2.4,0.9,2.4
			C125.3,311.1,126.8,308.3,126.9,306.3z"/>
		<path display="inline" d="M134.6,304.1c0.1-2.4,0.6-2.5,0.9-2.7c0.5-0.4,1.6-0.4,1.9-0.1c0.7,0.5,0.8,1.9,0.7,5.9
			c-0.1,0.6,0,2.3,0.1,3.9c0.1,2.5,0.1,2.6-0.2,3c-2.3,1.2-2.9,0-3.3-0.9C134.4,312.1,134.2,308.5,134.6,304.1z M134.7,297.9
			c0.1-1.2,1.2-1.3,1.8-1.3c0.8-0.1,0.9-0.1,1.2,0.2c0.3,0.4,0.3,1.5-0.1,2c-0.6,0.5-2.1,0.7-2.8,0.2
			C134.6,298.8,134.6,298.4,134.7,297.9z"/>
		<path display="inline" d="M142.6,296.7c0,0,0.4-0.2,0.6-0.4c0.6-0.2,2.1,0,2.5,0.2c0.2,0.2,0.2,0.8,0.2,2.7c0,2.1,0,2.1,1.6,2.1
			c2,0.2,2.5,0.4,1.9,1c-0.2,0.2-0.8,0.4-1.9,0.4c-1.8,0.2-1.8,0.2-1.6,2.3c0.2,3.5,0.4,7,0.6,7.6c0.2,0.2,0.6,0.6,1,0.8
			c1,0.6,1.2,1,0.2,1.4c-1.4,0.6-3.7,0.2-4.7-0.8c-0.8-0.6-1-1.5-1.4-6.2c-0.2-4.1-0.2-4.1-0.8-4.1c-0.6,0-1.4-0.4-1.4-0.8
			c0.2-0.4,0.8-0.8,1.5-0.8c0.6,0,0.6,0,0.8-1C142,299.6,142.4,297,142.6,296.7z"/>
		<path display="inline" d="M150.3,304.1c0.1-2.4,0.6-2.5,0.9-2.7c0.5-0.4,1.6-0.4,1.9-0.1c0.7,0.5,0.8,1.9,0.7,5.9
			c-0.1,0.6,0,2.3,0.1,3.9c0.1,2.5,0.1,2.6-0.2,3c-2.3,1.2-2.9,0-3.3-0.9C150,312.1,149.8,308.5,150.3,304.1z M150.3,297.9
			c0.1-1.2,1.2-1.3,1.8-1.3c0.8-0.1,0.9-0.1,1.2,0.2c0.3,0.4,0.3,1.5-0.1,2c-0.6,0.5-2.1,0.7-2.8,0.2
			C150.3,298.8,150.3,298.4,150.3,297.9z"/>
		<path display="inline" d="M156.3,304.5c0.8-1.5,2.4-2.9,3.8-3.4c0.4-0.1,1.7-0.2,2.1-0.1c0.6,0.2,0.5,0.4-0.2,0.8
			c-0.6,0.2-0.9,0.6-1.2,1c-0.1,0.3-0.1,0.4,0.9,0.4c0.8-0.1,1,0,1.6,0.2c1.5,0.7,2.6,2.3,2.7,3.8c0.2,2.5-1,4.2-3.5,5.1
			c-1,0.3-3.3,0.3-4.3,0c-2.1-1-2.7-2.8-2.7-4.3C155.5,306.5,155.7,305.7,156.3,304.5z M162,308.8c0.6-1.6,0.2-2.8-1.1-4.1
			c-0.3-0.4-0.8-0.8-0.8-0.8c-0.1,0-0.5,1.5-0.7,2.3c-0.3,1.6-0.4,2.1-0.1,2.9c0.3,0.8,1,1.7,1.2,1.6
			C161.5,310.1,161.9,309.4,162,308.8z"/>
		<path display="inline" d="M167.4,301.5c0-0.1,0.3-0.2,0.5-0.2c0.7-0.2,1.7-0.1,2.2,0.1c0.5,0.1,0.8,1.3,1,3.5
			c0.1,0.9,0.1,0.9,0.4,0.4c0.4-0.8,1.3-1.5,1.9-1.8c1-0.5,2.2-0.2,2.8,0.5c0.5,0.9,0.8,1.9,0.8,5c0.1,3,0.1,3.2-0.6,3.4
			c-0.8,0.4-2.4,0.1-2.8-0.4c-0.4-0.5,0.3-3.9,0.3-5c0.1-2.1,0.1-2.3-0.2-1.9c-0.5,0.5-2.3,3.5-2.4,3.9c-0.1,0.2-0.1,1.3-0.1,2.5
			c0,2.3-1,2.4-2.4,2.6c-1.4-0.2-1.8,0.7-1.6-6.5C167.2,304.5,167.3,301.7,167.4,301.5z"/>
	</g>
	<g>
		<g>
			<path d="M97.8,176.2c4.8-3.9,10.3-2.1,12.4-0.7c1.3,0.8,1.9,2.4,2.4,5.6c0.7,5.5-3,14.4-3,14.9c-0.5,1.6-2.6,8-3.7,11.2
				c-0.5,1.9-0.8,3.5-0.8,3.5c0,0.2,0.5,0,1.3,0c3.8-0.8,7-0.2,7.5,0c1.1,0.8,0.5,1.6-1.1,2.4c-0.8,0.2-3.5,1.1-5.1,1.6
				c-4,1.3-6.7,1.6-9.1,1.6c-3.5,0.2-4.5-0.8-4-2.9c0.2-1.6,5.6-18.9,6.7-21.4c1.9-4.9,2.6-9.1,2.4-11.5c0-3.8-0.3-4-1.9-2.1
				c-1.1,1.3-3,2.4-4.1,2.4c-1.3,0.2-3.2-0.3-3.2-1.1C94.8,178.8,96.4,177,97.8,176.2z"/>
			<path d="M120.7,187.1c2.3-6.4,5.5-11.6,7.6-13.1c2.7-1.5,6.7-0.5,7-0.2c0.8,0.6,0.9,1.1,0.3,1.7c-0.6,0.3-0.6,0.3,1.2,0.9
				c2.3,1.1,4.1,2.9,4.9,5.2c2.3,6.1,2.9,14.2,1.5,20.3c-0.8,4.1-2.5,7.3-4.1,9.9c-4.2,6.7-13.4,4.4-14.5,3.8
				c-3.2-1.8-5.2-4.7-6.4-8.4C117.2,203.7,118.6,191.8,120.7,187.1z M133.4,200.8c0.8-4.7,0.3-11.9-0.8-16.3
				c-0.6-2.1-0.9-2.6-1.2-1.8c-2.1,6.1-2.6,8.7-3.5,14.5c-0.6,5.2,0,11.3,1.5,12.8C130.2,210.7,132.8,204.9,133.4,200.8z"/>
			<path d="M147.3,176.9c-0.2-0.7,1.7-2.5,3.7-2.7c1.5-0.5,5.2-0.5,5.9,0c2.4,0.7,3,3,3.5,15c0,3.7,0,10.7,0,12.1
				c-0.2,5.4-1,13-1.3,13.5c-0.2,1.3-1.4,1.5-4.6,1.5c-2.4,0-3.2-0.1-3.7-0.5c-1.3-0.7-1.5-1.2-1-4.7c0.2-1.7,0.5-5,0.7-7.4
				c0.2-4.4,0.4-22.1,0.4-24.4c-0.2-1.5-0.2-1.5-1-1.5C149,177.8,147.3,177.3,147.3,176.9z"/>
			<path d="M167.1,174.8c1.9-0.3,4.2-0.5,5.3-0.5c4.8-0.5,7.8-0.3,9.1,1.3c0.8,0.5,0.8,0.8,0.8,3.5c0.3,3.2-1.5,21.5-2.5,26.1
				c0,1.1-1.3,10.5-1.3,10.8c-0.5,0.8-3.3,1.6-5.4,1.6c-1.9,0-4.1-0.5-4.8-1.3c-0.8-0.5-0.8-0.8,0.5-9.4c0.3-2.9,3.9-27.7,3.9-28.2
				c-0.3-0.8-0.2-0.8-3.8-0.8c-1.9,0.3-4.1,0-4.9,0c-1.1-0.3-2.1-0.8-2.1-1.6C161.6,175.6,163.9,175.1,167.1,174.8z"/>
		</g>
	</g>
	<g display="none">
		<path display="inline" fill="#FFFFFF" stroke="#000000" stroke-width="2" stroke-miterlimit="10" d="M229.5,294.3
			c-1.7,2.7-3.3,5.4-5.2,8c-3.3,4.5-7.7,7.3-13.5,6.9c-0.7,0-1.3-0.3-2.1-0.5c0.6-5.4,2.9-9.7,7.8-11.7c4.1-1.6,8.6-2.3,12.9-3.3
			C229.5,293.9,229.5,294.1,229.5,294.3z"/>
		<path display="inline" fill="#FFFFFF" stroke="#000000" stroke-width="2" stroke-miterlimit="10" d="M186.4,227.8
			c3.7,2.3,7.6,4.4,10.9,7c3.9,3.1,5.3,7.5,4.5,12.9c-5.3-0.1-9.6-2.1-11.8-6.7c-2-4.1-2.8-8.8-4.2-13.2
			C186,227.8,186.2,227.8,186.4,227.8z"/>
		<path display="inline" fill="#FFFFFF" stroke="#000000" stroke-width="2" stroke-miterlimit="10" d="M193.1,334.1
			c2.4-8.4,12.4-11.2,23.5-8C210.9,334.9,200.1,338.5,193.1,334.1z"/>
		<path display="inline" fill="#FFFFFF" stroke="#000000" stroke-width="2" stroke-miterlimit="10" d="M109.6,360.5
			c8.6-9.2,18-11.1,24.2-5.5C130.3,362.8,119.8,364.5,109.6,360.5z"/>
		<path display="inline" fill="#FFFFFF" stroke="#000000" stroke-width="2" stroke-miterlimit="10" d="M226.9,273.5
			c0.2,12-4.7,20.2-12.9,21.4C210.4,287.2,215.9,278.1,226.9,273.5z"/>
		<path display="inline" fill="#FFFFFF" stroke="#000000" stroke-width="2" stroke-miterlimit="10" d="M112.4,332.9
			c11.8,1,19.2,7.2,19.2,16C122.4,351.4,115.3,342.2,112.4,332.9z"/>
		<path display="inline" fill="#FFFFFF" stroke="#000000" stroke-width="2" stroke-miterlimit="10" d="M91.8,335.1
			c-6.5-5.3-6.6-14.5-0.4-24.9C98.3,316.4,98.6,328.9,91.8,335.1z"/>
		<path display="inline" fill="#FFFFFF" stroke="#000000" stroke-width="2" stroke-miterlimit="10" d="M73.1,264.5
			c-0.8-8.4,6.2-15.4,17.5-17.6C90.7,256.5,81.9,265.4,73.1,264.5z"/>
		<path display="inline" fill="#FFFFFF" stroke="#000000" stroke-width="2" stroke-miterlimit="10" d="M66,295
			c-8.2-0.6-13.2-9.4-13-21.2C63.3,277.2,69.1,286.7,66,295z"/>
		<path display="inline" fill="#FFFFFF" stroke="#000000" stroke-width="2" stroke-miterlimit="10" d="M78.2,247.9
			c-1.4-8.7,4.5-16,15.5-19.4C95,237.6,87.4,247.3,78.2,247.9z"/>
		<path display="inline" fill="#FFFFFF" stroke="#000000" stroke-width="2" stroke-miterlimit="10" d="M219.2,252.3
			c4.6,10.6,2.8,20.1-4.5,24.5C208.7,270.8,210.6,260.2,219.2,252.3z"/>
		<path display="inline" fill="#FFFFFF" stroke="#000000" stroke-width="2" stroke-miterlimit="10" d="M198.7,264.6
			c10.3,4.5,15.6,13.7,12.7,21.5C203.2,285.6,198.1,277.1,198.7,264.6z"/>
		<path display="inline" fill="#FFFFFF" stroke="#000000" stroke-width="2" stroke-miterlimit="10" d="M83.9,299.1
			c4.9,11.3,3.2,20.3-4.5,24.6C73.8,317.8,75.6,307.4,83.9,299.1z"/>
		<path display="inline" fill="#FFFFFF" stroke="#000000" stroke-width="2" stroke-miterlimit="10" d="M188,334.8
			c-6.7-5.6-6.7-14.4,0.2-24.8C195,319.7,194.5,331,188,334.8z"/>
		<path display="inline" fill="#FFFFFF" stroke="#000000" stroke-width="2" stroke-miterlimit="10" d="M179.5,320.2
			c3.7,9.4,0,20.3-7.9,23.5C166.7,337.1,169.3,327.8,179.5,320.2z"/>
		<path display="inline" fill="#FFFFFF" stroke="#000000" stroke-width="2" stroke-miterlimit="10" d="M63.2,326.2
			c11.3-2.9,20.7-0.7,23.7,7.9C80,339.3,69.9,334.7,63.2,326.2z"/>
		<path display="inline" fill="#FFFFFF" stroke="#000000" stroke-width="2" stroke-miterlimit="10" d="M167.4,332.8
			c-3.5,11.4-11,17.7-19,16.1C147.5,340.5,155.2,334,167.4,332.8z"/>
		<path display="inline" fill="#FFFFFF" stroke="#000000" stroke-width="2" stroke-miterlimit="10" d="M71,232.8
			c6.8,10.1,6.6,19.8-0.4,25C64.2,252.7,64.3,242.6,71,232.8z"/>
		<path display="inline" fill="#FFFFFF" stroke="#000000" stroke-width="2" stroke-miterlimit="10" d="M208.9,232.6
			c6.6,9.7,6.8,19.3,0.5,25C202.3,252.9,202.1,242.5,208.9,232.6z"/>
		<path display="inline" fill="#FFFFFF" stroke="#000000" stroke-width="2" stroke-miterlimit="10" d="M189,246.6
			c12,2.9,18.5,9.3,17.8,17.5C198.5,265.8,191.1,258.5,189,246.6z"/>
		<path display="inline" fill="#FFFFFF" stroke="#000000" stroke-width="2" stroke-miterlimit="10" d="M65.2,277
			c-6.6-3.7-9.5-12.2-4.6-24.4C69.7,261.3,71,270.9,65.2,277z"/>
		<path display="inline" fill="#FFFFFF" stroke="#000000" stroke-width="2" stroke-miterlimit="10" d="M203.8,340.2
			c-8.4,7.7-18.2,9.1-24.7,3.6C182.5,336.3,192.6,334.8,203.8,340.2z"/>
		<path display="inline" fill="#FFFFFF" stroke="#000000" stroke-width="2" stroke-miterlimit="10" d="M91.8,353.3
			c10.3-9.3,19.2-9.2,24.8-3.8C112.7,356.7,103.2,358.2,91.8,353.3z"/>
		<path display="inline" fill="#FFFFFF" stroke="#000000" stroke-width="2" stroke-miterlimit="10" d="M170.5,360.5
			c-11.4,4-20.6,1.8-24.3-5.6C152.4,349,162.4,351.7,170.5,360.5z"/>
		<path display="inline" fill="#FFFFFF" stroke="#000000" stroke-width="2" stroke-miterlimit="10" d="M75.5,322.3
			c-7.4,3.2-16.8-2-21.4-12C64.8,308.6,75.1,313.8,75.5,322.3z"/>
		<path display="inline" fill="#FFFFFF" stroke="#000000" stroke-width="2" stroke-miterlimit="10" d="M207,305.3
			c-8.2-2.8-10.9-12.3-7.3-23.7C208.9,289.2,211.7,299,207,305.3z"/>
		<path display="inline" fill="#FFFFFF" stroke="#000000" stroke-width="2" stroke-miterlimit="10" d="M100.9,343.8
			c-5.4,5.8-15.4,4.7-24.6-3.2C86.9,334.9,96.7,336.3,100.9,343.8z"/>
		<path display="inline" fill="#FFFFFF" stroke="#000000" stroke-width="2" stroke-miterlimit="10" d="M188.1,353
			c-10.9,5-20.6,3.8-24.8-3.4C169,343.5,178.5,344.7,188.1,353z"/>
		<path display="inline" fill="#FFFFFF" stroke="#000000" stroke-width="2" stroke-miterlimit="10" d="M200.5,323.6
			c-7.8-4.8-9.5-14.6-4.5-24.4C203.8,305.5,206,317,200.5,323.6z"/>
		<path display="inline" fill="#FFFFFF" stroke="#000000" stroke-width="2" stroke-miterlimit="10" d="M50.8,294.1
			c11-0.4,19.3,5.6,20.1,14.6C63.4,311.4,54.3,304.8,50.8,294.1z"/>
		<path display="inline" fill="#FFFFFF" stroke="#000000" stroke-width="2" stroke-miterlimit="10" d="M81,264.8
			c0.8,12.8-4,20.4-12.2,21.7C65,279.8,70.4,270.1,81,264.8z"/>
		<path display="inline" fill="#FFFFFF" stroke="#000000" stroke-width="2" stroke-miterlimit="10" d="M100.4,320.4
			c9.2,5.8,12.5,15.3,8.2,23.3C100.5,341.9,97.5,331.3,100.4,320.4z"/>
		<path display="inline" fill="#FFFFFF" stroke="#000000" stroke-width="2" stroke-miterlimit="10" d="M204.3,322.1
			c1.1-8.5,9.7-13.4,21.4-12.3C223.6,318.7,211.7,325.6,204.3,322.1z"/>
		<path display="inline" fill="#FFFFFF" stroke="#000000" stroke-width="2" stroke-miterlimit="10" d="M80.3,281.7
			c3.5,11.9,0.8,20.5-7.3,23.8C68.1,299.2,71.1,289.2,80.3,281.7z"/>
		<path display="inline" fill="#FFFFFF" stroke="#000000" stroke-width="2" stroke-miterlimit="10" d="M143.8,353.1
			c-1.3,1-2.4,2.4-3.8,2.7c-2,0.4-3.4-1.1-3.5-3.1c-0.1-2.1,1.1-3.6,3.2-3.4c1.4,0.2,2.7,1.5,4,2.4
			C143.8,352.1,143.8,352.6,143.8,353.1z"/>
	</g>
</g>
</svg>
