<svg xmlns="http://www.w3.org/2000/svg" xmlns:xlink="http://www.w3.org/1999/xlink" viewBox="0 0 75 100"><defs><style>.cls-1{fill:url(#linear-gradient);}.cls-2{fill:url(#linear-gradient-2);}.cls-3{fill:url(#linear-gradient-3);}.cls-4{fill:url(#linear-gradient-4);}.cls-5{fill:url(#linear-gradient-5);}.cls-6{fill:url(#linear-gradient-6);}.cls-7{fill:url(#linear-gradient-7);}.cls-8{fill:url(#linear-gradient-8);}.cls-9{fill:url(#linear-gradient-9);}.cls-10{fill:url(#linear-gradient-10);}</style><linearGradient id="linear-gradient" x1="-37.93" y1="-38.34" x2="17.31" y2="-38.34" gradientTransform="matrix(0.99, -0.15, 0.15, 0.99, 57.81, 61.19)" gradientUnits="userSpaceOnUse"><stop offset="0" stop-color="#774d9f"/><stop offset="1" stop-color="#62cdf6"/></linearGradient><linearGradient id="linear-gradient-2" x1="170.25" y1="-86.65" x2="232.36" y2="-123.73" gradientTransform="translate(-68.23 221.47) rotate(-36.67)" xlink:href="#linear-gradient"/><linearGradient id="linear-gradient-3" x1="183.7" y1="-64.11" x2="232.61" y2="-93.3" gradientTransform="translate(-68.23 221.47) rotate(-36.67)" xlink:href="#linear-gradient"/><linearGradient id="linear-gradient-4" x1="179.74" y1="-70.74" x2="243.62" y2="-108.87" gradientTransform="translate(-68.23 221.47) rotate(-36.67)" xlink:href="#linear-gradient"/><linearGradient id="linear-gradient-5" x1="-636.09" y1="11.26" x2="-586.23" y2="11.26" gradientTransform="matrix(-0.77, 0.64, 0.64, 0.77, -433.36, 404.5)" xlink:href="#linear-gradient"/><linearGradient id="linear-gradient-6" x1="-30.26" y1="-31.23" x2="-20.07" y2="-17.7" gradientTransform="translate(41.54 73.08) rotate(31.22)" xlink:href="#linear-gradient"/><linearGradient id="linear-gradient-7" x1="9.47" y1="-3.76" x2="21.63" y2="20.22" gradientTransform="matrix(1, 0, 0, 1, 0, 0)" xlink:href="#linear-gradient"/><linearGradient id="linear-gradient-8" x1="50.76" y1="31.19" x2="-7.29" y2="17.34" gradientTransform="matrix(1, 0, 0, 1, 0, 0)" xlink:href="#linear-gradient"/><linearGradient id="linear-gradient-9" x1="2.42" y1="8.83" x2="2.4" y2="8.82" gradientTransform="matrix(1, 0, 0, 1, 0, 0)" xlink:href="#linear-gradient"/><linearGradient id="linear-gradient-10" x1="36.96" y1="22.94" x2="36.96" y2="22.94" gradientTransform="matrix(1, 0, 0, 1, 0, 0)" xlink:href="#linear-gradient"/></defs><title>App</title><g id="Layer_2" data-name="Layer 2"><g id="Layer_13" data-name="Layer 13"><path class="cls-1" d="M22,49.64,42,48.93a8.94,8.94,0,0,0,7.83-5.26L66.28,6.85A4.85,4.85,0,0,0,61.69,0L41.76.71A8.94,8.94,0,0,0,33.93,6L17.45,42.8A4.85,4.85,0,0,0,22,49.64Z"/><path class="cls-2" d="M17.78,47.4h0Z"/><polygon class="cls-3" points="65.25 1.38 65.25 1.38 65.26 1.39 65.25 1.38"/><path class="cls-4" d="M18.55,48.33A4.79,4.79,0,0,0,22,49.64L42,48.93a8.94,8.94,0,0,0,7.83-5.26L66.28,6.85a4.81,4.81,0,0,0-.44-4.76l4.27,5.09v0a4.83,4.83,0,0,1,1,5.45L54.64,49.47a8.94,8.94,0,0,1-7.83,5.26l-19.92.71A4.8,4.8,0,0,1,23,53.74h0Z"/><path class="cls-5" d="M27.78,39.73l16.34-.58a7.33,7.33,0,0,0,6.43-4.32L62.13,9a4,4,0,0,0-3.77-5.61L42,3.94a7.33,7.33,0,0,0-6.43,4.32L24,34.11A4,4,0,0,0,27.78,39.73Z"/><ellipse class="cls-6" cx="33.27" cy="44.69" rx="2.57" ry="2.12" transform="translate(-20.91 31.7) rotate(-39.85)"/><path class="cls-7" d="M5.58,6.46l16.77-2.1a4,4,0,0,1,3.71,1.57L36.28,19.46a4,4,0,0,1-2.72,6.42L16.78,28a4,4,0,0,1-3.71-1.57L2.87,12.88A4,4,0,0,1,5.58,6.46Z"/><path class="cls-8" d="M33.57,25.88,16.78,28a4,4,0,0,1-3.71-1.57L2.87,12.88A4,4,0,0,1,2.34,9L.67,13.25h0A4,4,0,0,0,.81,17.9L11,31.41A4,4,0,0,0,14.72,33L31.51,30.9a4,4,0,0,0,3.08-2.16h0l0-.08a4.1,4.1,0,0,0,.21-.51l1.77-4.35A4,4,0,0,1,33.57,25.88Z"/><path class="cls-9" d="M2.42,8.8h0l0,.05Z"/><polygon class="cls-10" points="36.95 22.94 36.96 22.94 36.96 22.93 36.95 22.94"/></g></g></svg>
