<svg xmlns="http://www.w3.org/2000/svg" xmlns:xlink="http://www.w3.org/1999/xlink" viewBox="0 0 75 100"><defs><style>.cls-1{fill:url(#linear-gradient);}.cls-2{fill:url(#linear-gradient-2);}.cls-3{fill:url(#linear-gradient-3);}.cls-4{fill:url(#linear-gradient-4);}.cls-5{fill:url(#linear-gradient-5);}.cls-6{fill:url(#linear-gradient-6);}.cls-7{fill:url(#linear-gradient-7);}.cls-8{fill:url(#linear-gradient-8);}.cls-9{fill:url(#linear-gradient-9);}.cls-10{fill:url(#linear-gradient-10);}.cls-11{fill:url(#linear-gradient-11);}.cls-12{fill:url(#linear-gradient-12);}</style><linearGradient id="linear-gradient" y1="22.29" x2="47.14" y2="22.29" gradientUnits="userSpaceOnUse"><stop offset="0" stop-color="#71ccd4"/><stop offset="1" stop-color="#f5f083"/></linearGradient><linearGradient id="linear-gradient-2" x1="16.87" y1="10.68" x2="22.91" y2="22.62" xlink:href="#linear-gradient"/><linearGradient id="linear-gradient-3" x1="-277.83" y1="575.05" x2="-310.64" y2="606.21" gradientTransform="matrix(0.95, -0.32, 0.32, 0.95, 110.72, -643.56)" gradientUnits="userSpaceOnUse"><stop offset="0" stop-color="#f8b8bf"/><stop offset="0.43" stop-color="#f8b5bf"/><stop offset="0.69" stop-color="#f7adbf"/><stop offset="0.91" stop-color="#f59fbf"/><stop offset="1" stop-color="#f496bf"/></linearGradient><linearGradient id="linear-gradient-4" x1="-264.55" y1="589.04" x2="-297.36" y2="620.2" xlink:href="#linear-gradient-3"/><linearGradient id="linear-gradient-5" x1="60.97" y1="31.57" x2="-5.11" y2="17.02" xlink:href="#linear-gradient"/><linearGradient id="linear-gradient-6" x1="109.9" y1="29.83" x2="-5.71" y2="42.6" gradientUnits="userSpaceOnUse"><stop offset="0" stop-color="#88d6f8"/><stop offset="1" stop-color="#cb7ab2"/></linearGradient><linearGradient id="linear-gradient-7" x1="-1379.29" y1="-2599.45" x2="-1368.13" y2="-2599.45" gradientTransform="matrix(0.95, 0.3, -0.3, 0.95, 560.55, 2922.07)" xlink:href="#linear-gradient-6"/><linearGradient id="linear-gradient-8" x1="-1391.95" y1="-2585.74" x2="-1369.89" y2="-2585.74" gradientTransform="matrix(0.95, 0.3, -0.3, 0.95, 560.55, 2922.07)" xlink:href="#linear-gradient-6"/><linearGradient id="linear-gradient-9" x1="-1385.21" y1="-2589.12" x2="-1344.78" y2="-2589.12" gradientTransform="matrix(0.95, 0.3, -0.3, 0.95, 560.55, 2922.07)" xlink:href="#linear-gradient-6"/><linearGradient id="linear-gradient-10" x1="-1306.3" y1="-2609.04" x2="-1367.51" y2="-2580.99" gradientTransform="matrix(0.95, 0.3, -0.3, 0.95, 560.55, 2922.07)" xlink:href="#linear-gradient-6"/><linearGradient id="linear-gradient-11" x1="-1336.07" y1="-2607.14" x2="-1336.04" y2="-2607.14" gradientTransform="matrix(0.95, 0.3, -0.3, 0.95, 560.55, 2922.07)" xlink:href="#linear-gradient-3"/><linearGradient id="linear-gradient-12" x1="-1336.52" y1="-2607.64" x2="-1336.51" y2="-2607.64" gradientTransform="matrix(0.95, 0.3, -0.3, 0.95, 560.55, 2922.07)" xlink:href="#linear-gradient-3"/></defs><title>Media</title><g id="Layer_2" data-name="Layer 2"><g id="Layer_13" data-name="Layer 13"><path class="cls-1" d="M36.64,33.36l-32.88,11c-2.63.88-4.26-1-3.62-4.11L4.56,18.53c.64-3.14,3.31-6.43,5.94-7.31L43.38.22C46-.66,47.64,1.19,47,4.33L42.59,26C41.95,29.19,39.27,32.48,36.64,33.36Z"/><path class="cls-2" d="M28.71,18.76l-6-2.48a2.29,2.29,0,0,0-3.12,1.66l-2,9.65a2.29,2.29,0,0,0,3.78,2.16l8-7.17A2.29,2.29,0,0,0,28.71,18.76Z"/><path class="cls-3" d="M1,44H1l0,0Z"/><path class="cls-4" d="M46.14.5l-.3-.23v0A2.17,2.17,0,0,1,46.14.5Z"/><path class="cls-5" d="M49.34,3h0L46.16.52c.85.69,1.2,2,.84,3.81L42.59,26c-.64,3.14-3.31,6.43-5.94,7.31l-29.88,10-3,1A2.83,2.83,0,0,1,1,44.08l3.15,2.44a2.18,2.18,0,0,0,.38.29l0,0h0a3,3,0,0,0,2.5.11l32.88-11c2.63-.88,5.31-4.17,5.94-7.31L50.31,6.9C50.68,5.06,50.27,3.66,49.34,3Z"/><path class="cls-6" d="M52.47,52.94,20.07,42.62c-2.59-.83-2.81-3.23-.49-5.35L35.65,22.62C38,20.51,42,19.45,44.59,20.28L77,30.6c2.59.83,2.81,3.23.49,5.35L61.41,50.6C59.09,52.71,55.07,53.77,52.47,52.94Z"/><path class="cls-7" d="M45.39,29.73c-2.28,2.07-6.18,3.1-8.73,2.29s-2.76-3.15-.48-5.22,6.18-3.1,8.73-2.29S47.67,27.66,45.39,29.73Z"/><path class="cls-8" d="M36.13,35.64c-.25-1.45-2.35-2.12-4.83-1.54L20.2,36.69l-.63.57c-2.32,2.12-2.1,4.52.49,5.35l18.3,5.83Z"/><path class="cls-9" d="M63.37,37.22c-.25-1.45-2.35-2.12-4.83-1.54L23.77,43.8l28.7,9.15c2.59.83,6.62-.23,8.94-2.35l3.7-3.37Z"/><path class="cls-10" d="M79.87,36h0a2.16,2.16,0,0,0-.06-.24L79,32.51c.23,1-.27,2.28-1.55,3.45L76.2,37.13h0L61.41,50.6c-2.32,2.12-6.35,3.17-8.94,2.35L23.56,43.73l-3.49-1.11a2.77,2.77,0,0,1-2-1.83h0l.82,3.4h0a2.78,2.78,0,0,0,2,1.76L53.28,56.27c2.59.83,6.62-.23,8.94-2.35L78.29,39.28A3.87,3.87,0,0,0,79.87,36Z"/><path class="cls-11" d="M79,32.37v0l0,.05Z"/><polygon class="cls-12" points="78.72 31.76 78.71 31.76 78.71 31.76 78.72 31.76"/></g></g></svg>
