<svg xmlns="http://www.w3.org/2000/svg" xmlns:xlink="http://www.w3.org/1999/xlink" viewBox="0 0 75 100"><defs><style>.cls-1{fill:url(#linear-gradient);}.cls-2{fill:url(#linear-gradient-2);}.cls-3{fill:url(#linear-gradient-3);}.cls-4{fill:url(#linear-gradient-4);}.cls-5{fill:url(#linear-gradient-5);}.cls-6{fill:url(#linear-gradient-6);}.cls-7{fill:url(#linear-gradient-7);}.cls-8{fill:url(#linear-gradient-8);}.cls-9{fill:url(#linear-gradient-9);}</style><linearGradient id="linear-gradient" x1="62.3" y1="28.55" x2="62.3" y2="28.55" gradientUnits="userSpaceOnUse"><stop offset="0" stop-color="#774d9f"/><stop offset="1" stop-color="#62cdf6"/></linearGradient><linearGradient id="linear-gradient-2" x1="46.61" y1="31.83" x2="71.13" y2="61.57" xlink:href="#linear-gradient"/><linearGradient id="linear-gradient-3" x1="15.88" y1="31.82" x2="43.25" y2="49.34" xlink:href="#linear-gradient"/><linearGradient id="linear-gradient-4" x1="25.33" y1="28.15" x2="37.11" y2="28.15" xlink:href="#linear-gradient"/><linearGradient id="linear-gradient-5" x1="44.35" y1="34.91" x2="56.12" y2="34.91" xlink:href="#linear-gradient"/><linearGradient id="linear-gradient-6" x1="16.87" y1="34.04" x2="62.89" y2="34.04" xlink:href="#linear-gradient"/><linearGradient id="linear-gradient-7" x1="-18.45" y1="1095.25" x2="-10.54" y2="1104.22" gradientTransform="matrix(1, -0.04, 0.04, 1, -24.52, -1090.59)" gradientUnits="userSpaceOnUse"><stop offset="0" stop-color="#ed2578"/><stop offset="1" stop-color="#fdd814"/></linearGradient><linearGradient id="linear-gradient-8" x1="-1345.25" y1="-1235.27" x2="-1339.52" y2="-1228.78" gradientTransform="translate(-1167.27 1429.48) rotate(87.51)" xlink:href="#linear-gradient-7"/><linearGradient id="linear-gradient-9" x1="-1315.11" y1="-1289.8" x2="-1311.1" y2="-1285.25" gradientTransform="translate(-1163.32 1385.81) rotate(87.51)" xlink:href="#linear-gradient-7"/></defs><title>VR</title><g id="Layer_2" data-name="Layer 2"><g id="Layer_13" data-name="Layer 13"><polygon class="cls-1" points="62.3 28.55 62.3 28.55 62.3 28.55 62.3 28.55"/><path class="cls-2" d="M64,32.13l-1.27-2.72a3.64,3.64,0,0,1,0,2.28l-6,17.95A3.68,3.68,0,0,1,52.07,52L45.32,49.7a4.42,4.42,0,0,1-2.52-2.15h0l1.41,3.07h0A4.42,4.42,0,0,0,46.84,53l6.75,2.25a3.68,3.68,0,0,0,4.64-2.32l6-17.95A3.66,3.66,0,0,0,64,32.13Z"/><path class="cls-3" d="M41,39.66a3.29,3.29,0,0,0-5.41-1.81l-5.14,4.55a4.43,4.43,0,0,1-4.34.88L19.38,41a3.64,3.64,0,0,1-1.85-1.4l1,2.14A3.71,3.71,0,0,0,19,42.95h0a3.64,3.64,0,0,0,1.85,1.4l6.75,2.25A4.43,4.43,0,0,0,32,45.71l5.14-4.55A3.28,3.28,0,0,1,41.28,41Z"/><circle class="cls-4" cx="31.22" cy="28.15" r="5.89"/><circle class="cls-5" cx="50.23" cy="34.91" r="5.89"/><path class="cls-6" d="M60.38,27,27.7,16.13a3.68,3.68,0,0,0-4.64,2.32l-6,17.95A3.68,3.68,0,0,0,19.38,41l6.75,2.25a4.43,4.43,0,0,0,4.34-.88l5.14-4.55A3.29,3.29,0,0,1,41,39.66l1.37,6.73a4.43,4.43,0,0,0,2.94,3.31L52.07,52a3.68,3.68,0,0,0,4.64-2.32l6-17.95A3.68,3.68,0,0,0,60.38,27ZM31.22,34a5.89,5.89,0,1,1,5.89-5.89A5.89,5.89,0,0,1,31.22,34Zm19,6.76a5.89,5.89,0,1,1,5.89-5.89A5.89,5.89,0,0,1,50.23,40.8Z"/><circle class="cls-7" cx="7.46" cy="7.46" r="7.46" transform="translate(-3.06 6.72) rotate(-40.99)"/><circle class="cls-8" cx="6.31" cy="34.04" r="5.4" transform="translate(-20.78 12.48) rotate(-40.99)"/><circle class="cls-9" cx="66.7" cy="17.49" r="3.78" transform="translate(4.88 48.04) rotate(-40.99)"/></g></g></svg>
